<?xml version="1.0" encoding="UTF-8" standalone="no"?>
<!DOCTYPE svg PUBLIC "-//W3C//DTD SVG 1.1//EN"
 "http://www.w3.org/Graphics/SVG/1.1/DTD/svg11.dtd">
<!-- Generated by graphviz version 2.43.0 (0)
 -->
<!-- Title: pastafarianism Pages: 1 -->
<svg width="1189pt" height="280pt"
 viewBox="0.00 0.00 1189.16 280.00" xmlns="http://www.w3.org/2000/svg" xmlns:xlink="http://www.w3.org/1999/xlink">
<g id="graph0" class="graph" transform="scale(1 1) rotate(0) translate(4 276)">
<title>pastafarianism</title>
<polygon fill="white" stroke="transparent" points="-4,4 -4,-276 1185.16,-276 1185.16,4 -4,4"/>
<!-- System Skill Pick and Place -->
<g id="node1" class="node">
<title>System Skill Pick and Place</title>
<polygon fill="gold" stroke="black" points="586.2,-272 350.75,-272 290.18,-216 525.63,-216 586.2,-272"/>
<text text-anchor="middle" x="438.19" y="-246.8" font-family="Times,serif" font-size="9.00">System Skill Pick and Place</text>
<text text-anchor="middle" x="438.19" y="-236.8" font-family="Times,serif" font-size="9.00">SuccessOnAll</text>
</g>
<!-- System Monitor -->
<g id="node2" class="node">
<title>System Monitor</title>
<polygon fill="orange" stroke="black" points="308.69,-180 207.69,-180 207.69,-144 308.69,-144 308.69,-180"/>
<text text-anchor="middle" x="258.19" y="-159.8" font-family="Times,serif" font-size="9.00">Ⓜ System Monitor</text>
</g>
<!-- System Skill Pick and Place&#45;&gt;System Monitor -->
<g id="edge1" class="edge">
<title>System Skill Pick and Place&#45;&gt;System Monitor</title>
<path fill="none" stroke="black" d="M377.25,-215.92C353.97,-205.57 327.79,-193.93 305.92,-184.21"/>
<polygon fill="black" stroke="black" points="307.07,-180.9 296.51,-180.03 304.23,-187.29 307.07,-180.9"/>
</g>
<!-- Workflow -->
<g id="node6" class="node">
<title>Workflow</title>
<polygon fill="cyan" stroke="black" points="742.43,-154.54 742.43,-169.46 716.51,-180 679.86,-180 653.95,-169.46 653.95,-154.54 679.86,-144 716.51,-144 742.43,-154.54"/>
<text text-anchor="middle" x="698.19" y="-159.8" font-family="Times,serif" font-size="9.00">Ⓜ Workflow</text>
</g>
<!-- System Skill Pick and Place&#45;&gt;Workflow -->
<g id="edge5" class="edge">
<title>System Skill Pick and Place&#45;&gt;Workflow</title>
<path fill="none" stroke="black" d="M525.85,-216.03C568.92,-202.77 618.95,-187.38 653.98,-176.6"/>
<polygon fill="black" stroke="black" points="655.36,-179.84 663.89,-173.55 653.3,-173.15 655.36,-179.84"/>
</g>
<!-- Report Status -->
<g id="node3" class="node">
<title>Report Status</title>
<ellipse fill="gray" stroke="black" cx="46.19" cy="-90" rx="46.38" ry="18"/>
<text text-anchor="middle" x="46.19" y="-87.8" font-family="Times,serif" font-size="9.00">Report Status</text>
</g>
<!-- System Monitor&#45;&gt;Report Status -->
<g id="edge2" class="edge">
<title>System Monitor&#45;&gt;Report Status</title>
<path fill="none" stroke="black" d="M207.68,-144.32C171.9,-132.51 124.37,-116.81 90.15,-105.52"/>
<polygon fill="black" stroke="black" points="91.02,-102.12 80.43,-102.31 88.83,-108.76 91.02,-102.12"/>
</g>
<!-- Bottle Detector Status -->
<g id="node4" class="node">
<title>Bottle Detector Status</title>
<ellipse fill="gray" stroke="black" cx="179.19" cy="-90" rx="69.06" ry="18"/>
<text text-anchor="middle" x="179.19" y="-87.8" font-family="Times,serif" font-size="9.00">Bottle Detector Status</text>
</g>
<!-- System Monitor&#45;&gt;Bottle Detector Status -->
<g id="edge3" class="edge">
<title>System Monitor&#45;&gt;Bottle Detector Status</title>
<path fill="none" stroke="black" d="M238.66,-143.7C228.59,-134.77 216.16,-123.76 205.27,-114.11"/>
<polygon fill="black" stroke="black" points="207.48,-111.4 197.68,-107.38 202.84,-116.63 207.48,-111.4"/>
</g>
<!-- User Requests Monitor -->
<g id="node5" class="node">
<title>User Requests Monitor</title>
<ellipse fill="gray" stroke="black" cx="337.19" cy="-90" rx="71.03" ry="18"/>
<text text-anchor="middle" x="337.19" y="-87.8" font-family="Times,serif" font-size="9.00">User Requests Monitor</text>
</g>
<!-- System Monitor&#45;&gt;User Requests Monitor -->
<g id="edge4" class="edge">
<title>System Monitor&#45;&gt;User Requests Monitor</title>
<path fill="none" stroke="black" d="M277.72,-143.7C287.79,-134.77 300.22,-123.76 311.1,-114.11"/>
<polygon fill="black" stroke="black" points="313.54,-116.63 318.7,-107.38 308.89,-111.4 313.54,-116.63"/>
</g>
<!-- Detect -->
<g id="node7" class="node">
<title>Detect</title>
<polygon fill="orange" stroke="black" points="485.69,-108 426.69,-108 426.69,-72 485.69,-72 485.69,-108"/>
<text text-anchor="middle" x="456.19" y="-87.8" font-family="Times,serif" font-size="9.00">Ⓜ Detect</text>
</g>
<!-- Workflow&#45;&gt;Detect -->
<g id="edge6" class="edge">
<title>Workflow&#45;&gt;Detect</title>
<path fill="none" stroke="black" d="M663,-150.82C618.42,-137.93 541.83,-115.77 495.42,-102.35"/>
<polygon fill="black" stroke="black" points="496.29,-98.96 485.71,-99.54 494.34,-105.68 496.29,-98.96"/>
</g>
<!-- Pick and Place -->
<g id="node11" class="node">
<title>Pick and Place</title>
<polygon fill="orange" stroke="black" points="746.19,-108 650.19,-108 650.19,-72 746.19,-72 746.19,-108"/>
<text text-anchor="middle" x="698.19" y="-87.8" font-family="Times,serif" font-size="9.00">Ⓜ Pick and Place</text>
</g>
<!-- Workflow&#45;&gt;Pick and Place -->
<g id="edge10" class="edge">
<title>Workflow&#45;&gt;Pick and Place</title>
<path fill="none" stroke="black" d="M698.19,-143.7C698.19,-135.98 698.19,-126.71 698.19,-118.11"/>
<polygon fill="black" stroke="black" points="701.69,-118.1 698.19,-108.1 694.69,-118.1 701.69,-118.1"/>
</g>
<!-- Finish System Skill -->
<g id="node15" class="node">
<title>Finish System Skill</title>
<polygon fill="orange" stroke="black" points="944.19,-108 828.19,-108 828.19,-72 944.19,-72 944.19,-108"/>
<text text-anchor="middle" x="886.19" y="-87.8" font-family="Times,serif" font-size="9.00">Ⓜ Finish System Skill</text>
</g>
<!-- Workflow&#45;&gt;Finish System Skill -->
<g id="edge14" class="edge">
<title>Workflow&#45;&gt;Finish System Skill</title>
<path fill="none" stroke="black" d="M729.65,-149.28C757.25,-139.01 797.99,-123.84 830.99,-111.55"/>
<polygon fill="black" stroke="black" points="832.37,-114.77 840.52,-108 829.93,-108.21 832.37,-114.77"/>
</g>
<!-- Idle Status -->
<g id="node18" class="node">
<title>Idle Status</title>
<ellipse fill="gray" stroke="black" cx="1001.19" cy="-90" rx="38.87" ry="18"/>
<text text-anchor="middle" x="1001.19" y="-87.8" font-family="Times,serif" font-size="9.00">Idle Status</text>
</g>
<!-- Workflow&#45;&gt;Idle Status -->
<g id="edge17" class="edge">
<title>Workflow&#45;&gt;Idle Status</title>
<path fill="none" stroke="black" d="M741.02,-153.93C792.04,-145.08 879.59,-128.58 953.19,-108 956.3,-107.13 959.49,-106.16 962.69,-105.15"/>
<polygon fill="black" stroke="black" points="963.82,-108.46 972.2,-101.98 961.61,-101.82 963.82,-108.46"/>
</g>
<!-- Pick Requested? -->
<g id="node8" class="node">
<title>Pick Requested?</title>
<ellipse fill="gray" stroke="black" cx="198.19" cy="-18" rx="53.23" ry="18"/>
<text text-anchor="middle" x="198.19" y="-15.8" font-family="Times,serif" font-size="9.00">Pick Requested?</text>
</g>
<!-- Detect&#45;&gt;Pick Requested? -->
<g id="edge7" class="edge">
<title>Detect&#45;&gt;Pick Requested?</title>
<path fill="none" stroke="black" d="M426.6,-75.43C423.45,-74.19 420.27,-73.02 417.19,-72 349.19,-49.6 329.61,-53.47 260.19,-36 256.11,-34.97 251.89,-33.88 247.65,-32.76"/>
<polygon fill="black" stroke="black" points="248.38,-29.33 237.81,-30.13 246.57,-36.1 248.38,-29.33"/>
</g>
<!-- Run Bottle Detection -->
<g id="node9" class="node">
<title>Run Bottle Detection</title>
<ellipse fill="gray" stroke="black" cx="335.19" cy="-18" rx="65.64" ry="18"/>
<text text-anchor="middle" x="335.19" y="-15.8" font-family="Times,serif" font-size="9.00">Run Bottle Detection</text>
</g>
<!-- Detect&#45;&gt;Run Bottle Detection -->
<g id="edge8" class="edge">
<title>Detect&#45;&gt;Run Bottle Detection</title>
<path fill="none" stroke="black" d="M426.59,-71.88C409.79,-62.16 388.64,-49.92 370.92,-39.67"/>
<polygon fill="black" stroke="black" points="372.41,-36.49 362.01,-34.51 368.91,-42.55 372.41,-36.49"/>
</g>
<!-- Wait 1 sec -->
<g id="node10" class="node">
<title>Wait 1 sec</title>
<ellipse fill="gray" stroke="black" cx="456.19" cy="-18" rx="36.9" ry="18"/>
<text text-anchor="middle" x="456.19" y="-15.8" font-family="Times,serif" font-size="9.00">Wait 1 sec</text>
</g>
<!-- Detect&#45;&gt;Wait 1 sec -->
<g id="edge9" class="edge">
<title>Detect&#45;&gt;Wait 1 sec</title>
<path fill="none" stroke="black" d="M456.19,-71.7C456.19,-63.98 456.19,-54.71 456.19,-46.11"/>
<polygon fill="black" stroke="black" points="459.69,-46.1 456.19,-36.1 452.69,-46.1 459.69,-46.1"/>
</g>
<!-- Bottle Detected? -->
<g id="node12" class="node">
<title>Bottle Detected?</title>
<ellipse fill="gray" stroke="black" cx="565.19" cy="-18" rx="54.04" ry="18"/>
<text text-anchor="middle" x="565.19" y="-15.8" font-family="Times,serif" font-size="9.00">Bottle Detected?</text>
</g>
<!-- Pick and Place&#45;&gt;Bottle Detected? -->
<g id="edge11" class="edge">
<title>Pick and Place&#45;&gt;Bottle Detected?</title>
<path fill="none" stroke="black" d="M665.65,-71.88C646.4,-61.74 621.95,-48.88 602,-38.37"/>
<polygon fill="black" stroke="black" points="603.37,-35.14 592.89,-33.58 600.11,-41.34 603.37,-35.14"/>
</g>
<!-- Run Pick and Place -->
<g id="node13" class="node">
<title>Run Pick and Place</title>
<ellipse fill="gray" stroke="black" cx="698.19" cy="-18" rx="61.4" ry="18"/>
<text text-anchor="middle" x="698.19" y="-15.8" font-family="Times,serif" font-size="9.00">Run Pick and Place</text>
</g>
<!-- Pick and Place&#45;&gt;Run Pick and Place -->
<g id="edge12" class="edge">
<title>Pick and Place&#45;&gt;Run Pick and Place</title>
<path fill="none" stroke="black" d="M698.19,-71.7C698.19,-63.98 698.19,-54.71 698.19,-46.11"/>
<polygon fill="black" stroke="black" points="701.69,-46.1 698.19,-36.1 694.69,-46.1 701.69,-46.1"/>
</g>
<!-- Wait 1 sec* -->
<g id="node14" class="node">
<title>Wait 1 sec*</title>
<ellipse fill="gray" stroke="black" cx="816.19" cy="-18" rx="39.02" ry="18"/>
<text text-anchor="middle" x="816.19" y="-15.8" font-family="Times,serif" font-size="9.00">Wait 1 sec*</text>
</g>
<!-- Pick and Place&#45;&gt;Wait 1 sec* -->
<g id="edge13" class="edge">
<title>Pick and Place&#45;&gt;Wait 1 sec*</title>
<path fill="none" stroke="black" d="M727.05,-71.88C744.37,-61.6 766.42,-48.53 784.25,-37.95"/>
<polygon fill="black" stroke="black" points="786.33,-40.78 793.15,-32.67 782.76,-34.76 786.33,-40.78"/>
</g>
<!-- Pick and Place Executed? -->
<g id="node16" class="node">
<title>Pick and Place Executed?</title>
<ellipse fill="gray" stroke="black" cx="951.19" cy="-18" rx="77.88" ry="18"/>
<text text-anchor="middle" x="951.19" y="-15.8" font-family="Times,serif" font-size="9.00">Pick and Place Executed?</text>
</g>
<!-- Finish System Skill&#45;&gt;Pick and Place Executed? -->
<g id="edge15" class="edge">
<title>Finish System Skill&#45;&gt;Pick and Place Executed?</title>
<path fill="none" stroke="black" d="M902.26,-71.7C910.13,-63.22 919.74,-52.86 928.36,-43.58"/>
<polygon fill="black" stroke="black" points="931.07,-45.81 935.31,-36.1 925.94,-41.05 931.07,-45.81"/>
</g>
<!-- Finish Pick and Place -->
<g id="node17" class="node">
<title>Finish Pick and Place</title>
<ellipse fill="gray" stroke="black" cx="1114.19" cy="-18" rx="66.95" ry="18"/>
<text text-anchor="middle" x="1114.19" y="-15.8" font-family="Times,serif" font-size="9.00">Finish Pick and Place</text>
</g>
<!-- Finish System Skill&#45;&gt;Finish Pick and Place -->
<g id="edge16" class="edge">
<title>Finish System Skill&#45;&gt;Finish Pick and Place</title>
<path fill="none" stroke="black" d="M941.67,-71.97C978.3,-60.72 1025.98,-46.08 1061.94,-35.04"/>
<polygon fill="black" stroke="black" points="1063.21,-38.31 1071.75,-32.03 1061.16,-31.62 1063.21,-38.31"/>
</g>
</g>
</svg>
