<?xml version="1.0" encoding="UTF-8" standalone="no"?>
<!DOCTYPE svg PUBLIC "-//W3C//DTD SVG 1.1//EN"
 "http://www.w3.org/Graphics/SVG/1.1/DTD/svg11.dtd">
<!-- Generated by graphviz version 2.43.0 (0)
 -->
<!-- Title: pastafarianism Pages: 1 -->
<svg width="2363pt" height="280pt"
 viewBox="0.00 0.00 2362.50 280.00" xmlns="http://www.w3.org/2000/svg" xmlns:xlink="http://www.w3.org/1999/xlink">
<g id="graph0" class="graph" transform="scale(1 1) rotate(0) translate(4 276)">
<title>pastafarianism</title>
<polygon fill="white" stroke="transparent" points="-4,4 -4,-276 2358.5,-276 2358.5,4 -4,4"/>
<!-- Task Pack Bottle -->
<g id="node1" class="node">
<title>Task Pack Bottle</title>
<polygon fill="gold" stroke="black" points="831.45,-272 679.91,-272 640.93,-216 792.47,-216 831.45,-272"/>
<text text-anchor="middle" x="736.19" y="-246.8" font-family="Times,serif" font-size="9.00">Task Pack Bottle</text>
<text text-anchor="middle" x="736.19" y="-236.8" font-family="Times,serif" font-size="9.00">SuccessOnAll</text>
</g>
<!-- System Monitor -->
<g id="node2" class="node">
<title>System Monitor</title>
<polygon fill="orange" stroke="black" points="387.69,-180 286.69,-180 286.69,-144 387.69,-144 387.69,-180"/>
<text text-anchor="middle" x="337.19" y="-159.8" font-family="Times,serif" font-size="9.00">Ⓜ System Monitor</text>
</g>
<!-- Task Pack Bottle&#45;&gt;System Monitor -->
<g id="edge1" class="edge">
<title>Task Pack Bottle&#45;&gt;System Monitor</title>
<path fill="none" stroke="black" d="M647.14,-225.15C571.23,-209.92 464.15,-188.46 397.79,-175.15"/>
<polygon fill="black" stroke="black" points="398.39,-171.7 387.9,-173.17 397.02,-178.57 398.39,-171.7"/>
</g>
<!-- Workflow -->
<g id="node7" class="node">
<title>Workflow</title>
<polygon fill="cyan" stroke="black" points="1314.43,-154.54 1314.43,-169.46 1288.51,-180 1251.86,-180 1225.95,-169.46 1225.95,-154.54 1251.86,-144 1288.51,-144 1314.43,-154.54"/>
<text text-anchor="middle" x="1270.19" y="-159.8" font-family="Times,serif" font-size="9.00">Ⓜ Workflow</text>
</g>
<!-- Task Pack Bottle&#45;&gt;Workflow -->
<g id="edge6" class="edge">
<title>Task Pack Bottle&#45;&gt;Workflow</title>
<path fill="none" stroke="black" d="M804.36,-232.79C911.76,-216.7 1118.19,-185.77 1216.1,-171.1"/>
<polygon fill="black" stroke="black" points="1216.71,-174.55 1226.08,-169.61 1215.67,-167.63 1216.71,-174.55"/>
</g>
<!-- Report Status -->
<g id="node3" class="node">
<title>Report Status</title>
<ellipse fill="gray" stroke="black" cx="46.19" cy="-90" rx="46.38" ry="18"/>
<text text-anchor="middle" x="46.19" y="-87.8" font-family="Times,serif" font-size="9.00">Report Status</text>
</g>
<!-- System Monitor&#45;&gt;Report Status -->
<g id="edge2" class="edge">
<title>System Monitor&#45;&gt;Report Status</title>
<path fill="none" stroke="black" d="M286.27,-150.78C238.28,-140.85 164.49,-124.86 101.19,-108 97.65,-107.06 93.99,-106.04 90.33,-104.98"/>
<polygon fill="black" stroke="black" points="91.27,-101.61 80.69,-102.12 89.28,-108.32 91.27,-101.61"/>
</g>
<!-- Bottle Detector Status -->
<g id="node4" class="node">
<title>Bottle Detector Status</title>
<ellipse fill="gray" stroke="black" cx="179.19" cy="-90" rx="69.06" ry="18"/>
<text text-anchor="middle" x="179.19" y="-87.8" font-family="Times,serif" font-size="9.00">Bottle Detector Status</text>
</g>
<!-- System Monitor&#45;&gt;Bottle Detector Status -->
<g id="edge3" class="edge">
<title>System Monitor&#45;&gt;Bottle Detector Status</title>
<path fill="none" stroke="black" d="M298.54,-143.88C275.31,-133.59 245.72,-120.48 221.81,-109.89"/>
<polygon fill="black" stroke="black" points="223.18,-106.66 212.62,-105.81 220.35,-113.06 223.18,-106.66"/>
</g>
<!-- User Requests Monitor -->
<g id="node5" class="node">
<title>User Requests Monitor</title>
<ellipse fill="gray" stroke="black" cx="337.19" cy="-90" rx="71.03" ry="18"/>
<text text-anchor="middle" x="337.19" y="-87.8" font-family="Times,serif" font-size="9.00">User Requests Monitor</text>
</g>
<!-- System Monitor&#45;&gt;User Requests Monitor -->
<g id="edge4" class="edge">
<title>System Monitor&#45;&gt;User Requests Monitor</title>
<path fill="none" stroke="black" d="M337.19,-143.7C337.19,-135.98 337.19,-126.71 337.19,-118.11"/>
<polygon fill="black" stroke="black" points="340.69,-118.1 337.19,-108.1 333.69,-118.1 340.69,-118.1"/>
</g>
<!-- Filling Station Status -->
<g id="node6" class="node">
<title>Filling Station Status</title>
<ellipse fill="gray" stroke="black" cx="492.19" cy="-90" rx="66.29" ry="18"/>
<text text-anchor="middle" x="492.19" y="-87.8" font-family="Times,serif" font-size="9.00">Filling Station Status</text>
</g>
<!-- System Monitor&#45;&gt;Filling Station Status -->
<g id="edge5" class="edge">
<title>System Monitor&#45;&gt;Filling Station Status</title>
<path fill="none" stroke="black" d="M375.11,-143.88C397.87,-133.6 426.86,-120.5 450.3,-109.92"/>
<polygon fill="black" stroke="black" points="451.97,-113 459.64,-105.7 449.09,-106.62 451.97,-113"/>
</g>
<!-- Detect -->
<g id="node8" class="node">
<title>Detect</title>
<polygon fill="orange" stroke="black" points="635.69,-108 576.69,-108 576.69,-72 635.69,-72 635.69,-108"/>
<text text-anchor="middle" x="606.19" y="-87.8" font-family="Times,serif" font-size="9.00">Ⓜ Detect</text>
</g>
<!-- Workflow&#45;&gt;Detect -->
<g id="edge7" class="edge">
<title>Workflow&#45;&gt;Detect</title>
<path fill="none" stroke="black" d="M1225.94,-157.26C1133.54,-149.33 913.35,-129.74 729.19,-108 701.4,-104.72 670.17,-100.4 646.14,-96.93"/>
<polygon fill="black" stroke="black" points="646.37,-93.43 635.97,-95.45 645.36,-100.35 646.37,-93.43"/>
</g>
<!-- Pick -->
<g id="node11" class="node">
<title>Pick</title>
<polygon fill="orange" stroke="black" points="792.19,-108 738.19,-108 738.19,-72 792.19,-72 792.19,-108"/>
<text text-anchor="middle" x="765.19" y="-87.8" font-family="Times,serif" font-size="9.00">Ⓜ Pick</text>
</g>
<!-- Workflow&#45;&gt;Pick -->
<g id="edge10" class="edge">
<title>Workflow&#45;&gt;Pick</title>
<path fill="none" stroke="black" d="M1225.82,-154.85C1127.65,-141.24 893.59,-108.8 802.43,-96.16"/>
<polygon fill="black" stroke="black" points="802.67,-92.66 792.29,-94.76 801.71,-99.6 802.67,-92.66"/>
</g>
<!-- Go to Fill -->
<g id="node14" class="node">
<title>Go to Fill</title>
<polygon fill="orange" stroke="black" points="994.69,-108 923.69,-108 923.69,-72 994.69,-72 994.69,-108"/>
<text text-anchor="middle" x="959.19" y="-87.8" font-family="Times,serif" font-size="9.00">Ⓜ Go to Fill</text>
</g>
<!-- Workflow&#45;&gt;Go to Fill -->
<g id="edge13" class="edge">
<title>Workflow&#45;&gt;Go to Fill</title>
<path fill="none" stroke="black" d="M1231.43,-152.28C1173.9,-139.33 1066.12,-115.07 1004.84,-101.28"/>
<polygon fill="black" stroke="black" points="1005.58,-97.86 995.06,-99.07 1004.05,-104.68 1005.58,-97.86"/>
</g>
<!-- Initiate Fill -->
<g id="node17" class="node">
<title>Initiate Fill</title>
<polygon fill="orange" stroke="black" points="1166.19,-108 1086.19,-108 1086.19,-72 1166.19,-72 1166.19,-108"/>
<text text-anchor="middle" x="1126.19" y="-87.8" font-family="Times,serif" font-size="9.00">Ⓜ Initiate Fill</text>
</g>
<!-- Workflow&#45;&gt;Initiate Fill -->
<g id="edge16" class="edge">
<title>Workflow&#45;&gt;Initiate Fill</title>
<path fill="none" stroke="black" d="M1242.76,-147.67C1222.3,-137.72 1193.93,-123.93 1170.3,-112.44"/>
<polygon fill="black" stroke="black" points="1171.69,-109.23 1161.16,-108 1168.63,-115.52 1171.69,-109.23"/>
</g>
<!-- Fill -->
<g id="node20" class="node">
<title>Fill</title>
<polygon fill="orange" stroke="black" points="1297.19,-108 1243.19,-108 1243.19,-72 1297.19,-72 1297.19,-108"/>
<text text-anchor="middle" x="1270.19" y="-87.8" font-family="Times,serif" font-size="9.00">Ⓜ Fill</text>
</g>
<!-- Workflow&#45;&gt;Fill -->
<g id="edge19" class="edge">
<title>Workflow&#45;&gt;Fill</title>
<path fill="none" stroke="black" d="M1270.19,-143.7C1270.19,-135.98 1270.19,-126.71 1270.19,-118.11"/>
<polygon fill="black" stroke="black" points="1273.69,-118.1 1270.19,-108.1 1266.69,-118.1 1273.69,-118.1"/>
</g>
<!-- Go to Cap -->
<g id="node23" class="node">
<title>Go to Cap</title>
<polygon fill="orange" stroke="black" points="1468.19,-108 1394.19,-108 1394.19,-72 1468.19,-72 1468.19,-108"/>
<text text-anchor="middle" x="1431.19" y="-87.8" font-family="Times,serif" font-size="9.00">Ⓜ Go to Cap</text>
</g>
<!-- Workflow&#45;&gt;Go to Cap -->
<g id="edge22" class="edge">
<title>Workflow&#45;&gt;Go to Cap</title>
<path fill="none" stroke="black" d="M1299.34,-148.32C1323.09,-138 1357.08,-123.22 1384.6,-111.26"/>
<polygon fill="black" stroke="black" points="1386.26,-114.35 1394.03,-107.16 1383.46,-107.93 1386.26,-114.35"/>
</g>
<!-- Cap -->
<g id="node26" class="node">
<title>Cap</title>
<polygon fill="orange" stroke="black" points="1683.19,-108 1629.19,-108 1629.19,-72 1683.19,-72 1683.19,-108"/>
<text text-anchor="middle" x="1656.19" y="-87.8" font-family="Times,serif" font-size="9.00">Ⓜ Cap</text>
</g>
<!-- Workflow&#45;&gt;Cap -->
<g id="edge25" class="edge">
<title>Workflow&#45;&gt;Cap</title>
<path fill="none" stroke="black" d="M1311.86,-153.44C1387.67,-139.69 1546.96,-110.81 1619.18,-97.71"/>
<polygon fill="black" stroke="black" points="1619.97,-101.13 1629.18,-95.9 1618.72,-94.24 1619.97,-101.13"/>
</g>
<!-- Handover -->
<g id="node29" class="node">
<title>Handover</title>
<polygon fill="orange" stroke="black" points="1920.19,-108 1846.19,-108 1846.19,-72 1920.19,-72 1920.19,-108"/>
<text text-anchor="middle" x="1883.19" y="-87.8" font-family="Times,serif" font-size="9.00">Ⓜ Handover</text>
</g>
<!-- Workflow&#45;&gt;Handover -->
<g id="edge28" class="edge">
<title>Workflow&#45;&gt;Handover</title>
<path fill="none" stroke="black" d="M1314.77,-155.91C1426.98,-143.1 1720.36,-109.59 1835.67,-96.43"/>
<polygon fill="black" stroke="black" points="1836.39,-99.87 1845.93,-95.25 1835.6,-92.91 1836.39,-99.87"/>
</g>
<!-- Finish Task -->
<g id="node32" class="node">
<title>Finish Task</title>
<polygon fill="orange" stroke="black" points="2106.19,-108 2026.19,-108 2026.19,-72 2106.19,-72 2106.19,-108"/>
<text text-anchor="middle" x="2066.19" y="-87.8" font-family="Times,serif" font-size="9.00">Ⓜ Finish Task</text>
</g>
<!-- Workflow&#45;&gt;Finish Task -->
<g id="edge31" class="edge">
<title>Workflow&#45;&gt;Finish Task</title>
<path fill="none" stroke="black" d="M1314.6,-158.09C1420.89,-150.99 1698.25,-131.6 1929.19,-108 1958.02,-105.05 1990.19,-101.1 2016.11,-97.74"/>
<polygon fill="black" stroke="black" points="2016.61,-101.21 2026.08,-96.44 2015.71,-94.26 2016.61,-101.21"/>
</g>
<!-- Idle Status -->
<g id="node35" class="node">
<title>Idle Status</title>
<ellipse fill="gray" stroke="black" cx="2163.19" cy="-90" rx="38.87" ry="18"/>
<text text-anchor="middle" x="2163.19" y="-87.8" font-family="Times,serif" font-size="9.00">Idle Status</text>
</g>
<!-- Workflow&#45;&gt;Idle Status -->
<g id="edge34" class="edge">
<title>Workflow&#45;&gt;Idle Status</title>
<path fill="none" stroke="black" d="M1314.5,-159.84C1465.59,-155.64 1959.74,-139.76 2115.19,-108 2118.58,-107.31 2122.06,-106.43 2125.52,-105.43"/>
<polygon fill="black" stroke="black" points="2126.65,-108.75 2135.13,-102.4 2124.54,-102.07 2126.65,-108.75"/>
</g>
<!-- Pick Requested? -->
<g id="node9" class="node">
<title>Pick Requested?</title>
<ellipse fill="gray" stroke="black" cx="384.19" cy="-18" rx="53.23" ry="18"/>
<text text-anchor="middle" x="384.19" y="-15.8" font-family="Times,serif" font-size="9.00">Pick Requested?</text>
</g>
<!-- Detect&#45;&gt;Pick Requested? -->
<g id="edge8" class="edge">
<title>Detect&#45;&gt;Pick Requested?</title>
<path fill="none" stroke="black" d="M576.54,-75.6C573.4,-74.33 570.24,-73.1 567.19,-72 542.7,-63.16 479.11,-45.14 433.78,-32.59"/>
<polygon fill="black" stroke="black" points="434.69,-29.21 424.12,-29.91 432.83,-35.95 434.69,-29.21"/>
</g>
<!-- Run Bottle Detection -->
<g id="node10" class="node">
<title>Run Bottle Detection</title>
<ellipse fill="gray" stroke="black" cx="521.19" cy="-18" rx="65.64" ry="18"/>
<text text-anchor="middle" x="521.19" y="-15.8" font-family="Times,serif" font-size="9.00">Run Bottle Detection</text>
</g>
<!-- Detect&#45;&gt;Run Bottle Detection -->
<g id="edge9" class="edge">
<title>Detect&#45;&gt;Run Bottle Detection</title>
<path fill="none" stroke="black" d="M585.18,-71.7C574.23,-62.68 560.71,-51.55 548.92,-41.83"/>
<polygon fill="black" stroke="black" points="551.03,-39.04 541.08,-35.38 546.58,-44.44 551.03,-39.04"/>
</g>
<!-- Bottle Detected? -->
<g id="node12" class="node">
<title>Bottle Detected?</title>
<ellipse fill="gray" stroke="black" cx="659.19" cy="-18" rx="54.04" ry="18"/>
<text text-anchor="middle" x="659.19" y="-15.8" font-family="Times,serif" font-size="9.00">Bottle Detected?</text>
</g>
<!-- Pick&#45;&gt;Bottle Detected? -->
<g id="edge11" class="edge">
<title>Pick&#45;&gt;Bottle Detected?</title>
<path fill="none" stroke="black" d="M739.26,-71.88C724.81,-62.33 706.69,-50.37 691.35,-40.24"/>
<polygon fill="black" stroke="black" points="692.95,-37.1 682.68,-34.51 689.1,-42.95 692.95,-37.1"/>
</g>
<!-- Run Pick -->
<g id="node13" class="node">
<title>Run Pick</title>
<ellipse fill="gray" stroke="black" cx="765.19" cy="-18" rx="33.47" ry="18"/>
<text text-anchor="middle" x="765.19" y="-15.8" font-family="Times,serif" font-size="9.00">Run Pick</text>
</g>
<!-- Pick&#45;&gt;Run Pick -->
<g id="edge12" class="edge">
<title>Pick&#45;&gt;Run Pick</title>
<path fill="none" stroke="black" d="M765.19,-71.7C765.19,-63.98 765.19,-54.71 765.19,-46.11"/>
<polygon fill="black" stroke="black" points="768.69,-46.1 765.19,-36.1 761.69,-46.1 768.69,-46.1"/>
</g>
<!-- Pick Ready? -->
<g id="node15" class="node">
<title>Pick Ready?</title>
<ellipse fill="gray" stroke="black" cx="858.19" cy="-18" rx="41.64" ry="18"/>
<text text-anchor="middle" x="858.19" y="-15.8" font-family="Times,serif" font-size="9.00">Pick Ready?</text>
</g>
<!-- Go to Fill&#45;&gt;Pick Ready? -->
<g id="edge14" class="edge">
<title>Go to Fill&#45;&gt;Pick Ready?</title>
<path fill="none" stroke="black" d="M934.48,-71.88C920.32,-62.06 902.47,-49.69 887.59,-39.38"/>
<polygon fill="black" stroke="black" points="889.44,-36.4 879.23,-33.58 885.45,-42.15 889.44,-36.4"/>
</g>
<!-- Move to Fill -->
<g id="node16" class="node">
<title>Move to Fill</title>
<ellipse fill="gray" stroke="black" cx="959.19" cy="-18" rx="40.98" ry="18"/>
<text text-anchor="middle" x="959.19" y="-15.8" font-family="Times,serif" font-size="9.00">Move to Fill</text>
</g>
<!-- Go to Fill&#45;&gt;Move to Fill -->
<g id="edge15" class="edge">
<title>Go to Fill&#45;&gt;Move to Fill</title>
<path fill="none" stroke="black" d="M959.19,-71.7C959.19,-63.98 959.19,-54.71 959.19,-46.11"/>
<polygon fill="black" stroke="black" points="962.69,-46.1 959.19,-36.1 955.69,-46.1 962.69,-46.1"/>
</g>
<!-- At Fill? -->
<g id="node18" class="node">
<title>At Fill?</title>
<ellipse fill="gray" stroke="black" cx="1046.19" cy="-18" rx="28.08" ry="18"/>
<text text-anchor="middle" x="1046.19" y="-15.8" font-family="Times,serif" font-size="9.00">At Fill?</text>
</g>
<!-- Initiate Fill&#45;&gt;At Fill? -->
<g id="edge17" class="edge">
<title>Initiate Fill&#45;&gt;At Fill?</title>
<path fill="none" stroke="black" d="M1106.41,-71.7C1095.36,-62.03 1081.51,-49.91 1069.88,-39.73"/>
<polygon fill="black" stroke="black" points="1072.08,-37 1062.25,-33.05 1067.47,-42.27 1072.08,-37"/>
</g>
<!-- Start Fill -->
<g id="node19" class="node">
<title>Start Fill</title>
<ellipse fill="gray" stroke="black" cx="1126.19" cy="-18" rx="33.47" ry="18"/>
<text text-anchor="middle" x="1126.19" y="-15.8" font-family="Times,serif" font-size="9.00">Start Fill</text>
</g>
<!-- Initiate Fill&#45;&gt;Start Fill -->
<g id="edge18" class="edge">
<title>Initiate Fill&#45;&gt;Start Fill</title>
<path fill="none" stroke="black" d="M1126.19,-71.7C1126.19,-63.98 1126.19,-54.71 1126.19,-46.11"/>
<polygon fill="black" stroke="black" points="1129.69,-46.1 1126.19,-36.1 1122.69,-46.1 1129.69,-46.1"/>
</g>
<!-- Fill Started? -->
<g id="node21" class="node">
<title>Fill Started?</title>
<ellipse fill="gray" stroke="black" cx="1220.19" cy="-18" rx="42.95" ry="18"/>
<text text-anchor="middle" x="1220.19" y="-15.8" font-family="Times,serif" font-size="9.00">Fill Started?</text>
</g>
<!-- Fill&#45;&gt;Fill Started? -->
<g id="edge20" class="edge">
<title>Fill&#45;&gt;Fill Started?</title>
<path fill="none" stroke="black" d="M1257.83,-71.7C1251.87,-63.35 1244.61,-53.18 1238.06,-44.02"/>
<polygon fill="black" stroke="black" points="1240.72,-41.73 1232.06,-35.62 1235.03,-45.79 1240.72,-41.73"/>
</g>
<!-- Wait Filling -->
<g id="node22" class="node">
<title>Wait Filling</title>
<ellipse fill="gray" stroke="black" cx="1321.19" cy="-18" rx="40.33" ry="18"/>
<text text-anchor="middle" x="1321.19" y="-15.8" font-family="Times,serif" font-size="9.00">Wait Filling</text>
</g>
<!-- Fill&#45;&gt;Wait Filling -->
<g id="edge21" class="edge">
<title>Fill&#45;&gt;Wait Filling</title>
<path fill="none" stroke="black" d="M1282.79,-71.7C1288.94,-63.27 1296.43,-52.97 1303.17,-43.73"/>
<polygon fill="black" stroke="black" points="1306.02,-45.77 1309.08,-35.62 1300.36,-41.64 1306.02,-45.77"/>
</g>
<!-- Fill Completed? -->
<g id="node24" class="node">
<title>Fill Completed?</title>
<ellipse fill="gray" stroke="black" cx="1431.19" cy="-18" rx="51.27" ry="18"/>
<text text-anchor="middle" x="1431.19" y="-15.8" font-family="Times,serif" font-size="9.00">Fill Completed?</text>
</g>
<!-- Go to Cap&#45;&gt;Fill Completed? -->
<g id="edge23" class="edge">
<title>Go to Cap&#45;&gt;Fill Completed?</title>
<path fill="none" stroke="black" d="M1431.19,-71.7C1431.19,-63.98 1431.19,-54.71 1431.19,-46.11"/>
<polygon fill="black" stroke="black" points="1434.69,-46.1 1431.19,-36.1 1427.69,-46.1 1434.69,-46.1"/>
</g>
<!-- Move to Cap -->
<g id="node25" class="node">
<title>Move to Cap</title>
<ellipse fill="gray" stroke="black" cx="1543.19" cy="-18" rx="42.95" ry="18"/>
<text text-anchor="middle" x="1543.19" y="-15.8" font-family="Times,serif" font-size="9.00">Move to Cap</text>
</g>
<!-- Go to Cap&#45;&gt;Move to Cap -->
<g id="edge24" class="edge">
<title>Go to Cap&#45;&gt;Move to Cap</title>
<path fill="none" stroke="black" d="M1458.59,-71.88C1474.54,-61.9 1494.73,-49.29 1511.39,-38.88"/>
<polygon fill="black" stroke="black" points="1513.6,-41.62 1520.23,-33.35 1509.89,-35.68 1513.6,-41.62"/>
</g>
<!-- Cap Requested? -->
<g id="node27" class="node">
<title>Cap Requested?</title>
<ellipse fill="gray" stroke="black" cx="1656.19" cy="-18" rx="52.58" ry="18"/>
<text text-anchor="middle" x="1656.19" y="-15.8" font-family="Times,serif" font-size="9.00">Cap Requested?</text>
</g>
<!-- Cap&#45;&gt;Cap Requested? -->
<g id="edge26" class="edge">
<title>Cap&#45;&gt;Cap Requested?</title>
<path fill="none" stroke="black" d="M1656.19,-71.7C1656.19,-63.98 1656.19,-54.71 1656.19,-46.11"/>
<polygon fill="black" stroke="black" points="1659.69,-46.1 1656.19,-36.1 1652.69,-46.1 1659.69,-46.1"/>
</g>
<!-- Start Cap -->
<g id="node28" class="node">
<title>Start Cap</title>
<ellipse fill="gray" stroke="black" cx="1762.19" cy="-18" rx="35.44" ry="18"/>
<text text-anchor="middle" x="1762.19" y="-15.8" font-family="Times,serif" font-size="9.00">Start Cap</text>
</g>
<!-- Cap&#45;&gt;Start Cap -->
<g id="edge27" class="edge">
<title>Cap&#45;&gt;Start Cap</title>
<path fill="none" stroke="black" d="M1682.12,-71.88C1697.53,-61.7 1717.11,-48.77 1733.06,-38.24"/>
<polygon fill="black" stroke="black" points="1735.07,-41.1 1741.49,-32.67 1731.22,-35.26 1735.07,-41.1"/>
</g>
<!-- Handover Requested? -->
<g id="node30" class="node">
<title>Handover Requested?</title>
<ellipse fill="gray" stroke="black" cx="1883.19" cy="-18" rx="68.25" ry="18"/>
<text text-anchor="middle" x="1883.19" y="-15.8" font-family="Times,serif" font-size="9.00">Handover Requested?</text>
</g>
<!-- Handover&#45;&gt;Handover Requested? -->
<g id="edge29" class="edge">
<title>Handover&#45;&gt;Handover Requested?</title>
<path fill="none" stroke="black" d="M1883.19,-71.7C1883.19,-63.98 1883.19,-54.71 1883.19,-46.11"/>
<polygon fill="black" stroke="black" points="1886.69,-46.1 1883.19,-36.1 1879.69,-46.1 1886.69,-46.1"/>
</g>
<!-- Start Handover -->
<g id="node31" class="node">
<title>Start Handover</title>
<ellipse fill="gray" stroke="black" cx="2020.19" cy="-18" rx="50.61" ry="18"/>
<text text-anchor="middle" x="2020.19" y="-15.8" font-family="Times,serif" font-size="9.00">Start Handover</text>
</g>
<!-- Handover&#45;&gt;Start Handover -->
<g id="edge30" class="edge">
<title>Handover&#45;&gt;Start Handover</title>
<path fill="none" stroke="black" d="M1916.7,-71.88C1936.9,-61.56 1962.64,-48.4 1983.4,-37.8"/>
<polygon fill="black" stroke="black" points="1985.24,-40.79 1992.55,-33.12 1982.05,-34.56 1985.24,-40.79"/>
</g>
<!-- Handover Executed? -->
<g id="node33" class="node">
<title>Handover Executed?</title>
<ellipse fill="gray" stroke="black" cx="2154.19" cy="-18" rx="65.48" ry="18"/>
<text text-anchor="middle" x="2154.19" y="-15.8" font-family="Times,serif" font-size="9.00">Handover Executed?</text>
</g>
<!-- Finish Task&#45;&gt;Handover Executed? -->
<g id="edge32" class="edge">
<title>Finish Task&#45;&gt;Handover Executed?</title>
<path fill="none" stroke="black" d="M2087.94,-71.7C2099.35,-62.62 2113.48,-51.38 2125.75,-41.62"/>
<polygon fill="black" stroke="black" points="2128.24,-44.11 2133.89,-35.14 2123.89,-38.63 2128.24,-44.11"/>
</g>
<!-- Finish Pack Bottle -->
<g id="node34" class="node">
<title>Finish Pack Bottle</title>
<ellipse fill="gray" stroke="black" cx="2296.19" cy="-18" rx="58.13" ry="18"/>
<text text-anchor="middle" x="2296.19" y="-15.8" font-family="Times,serif" font-size="9.00">Finish Pack Bottle</text>
</g>
<!-- Finish Task&#45;&gt;Finish Pack Bottle -->
<g id="edge33" class="edge">
<title>Finish Task&#45;&gt;Finish Pack Bottle</title>
<path fill="none" stroke="black" d="M2106.25,-74.92C2109.27,-73.92 2112.27,-72.93 2115.19,-72 2158.52,-58.15 2208.13,-43.72 2244.44,-33.42"/>
<polygon fill="black" stroke="black" points="2245.64,-36.72 2254.31,-30.63 2243.74,-29.98 2245.64,-36.72"/>
</g>
</g>
</svg>
