<?xml version="1.0" encoding="UTF-8" standalone="no"?>
<!DOCTYPE svg PUBLIC "-//W3C//DTD SVG 1.1//EN"
 "http://www.w3.org/Graphics/SVG/1.1/DTD/svg11.dtd">
<!-- Generated by graphviz version 2.43.0 (0)
 -->
<!-- Title: pastafarianism Pages: 1 -->
<svg width="1456pt" height="352pt"
 viewBox="0.00 0.00 1455.90 352.00" xmlns="http://www.w3.org/2000/svg" xmlns:xlink="http://www.w3.org/1999/xlink">
<g id="graph0" class="graph" transform="scale(1 1) rotate(0) translate(4 348)">
<title>pastafarianism</title>
<polygon fill="white" stroke="transparent" points="-4,4 -4,-348 1451.9,-348 1451.9,4 -4,4"/>
<!-- System Skill Pick and Place -->
<g id="node1" class="node">
<title>System Skill Pick and Place</title>
<polygon fill="gold" stroke="black" points="570.41,-344 334.95,-344 274.38,-288 509.84,-288 570.41,-344"/>
<text text-anchor="middle" x="422.4" y="-318.8" font-family="Times,serif" font-size="9.00">System Skill Pick and Place</text>
<text text-anchor="middle" x="422.4" y="-308.8" font-family="Times,serif" font-size="9.00">SuccessOnAll</text>
</g>
<!-- System Monitor -->
<g id="node2" class="node">
<title>System Monitor</title>
<polygon fill="orange" stroke="black" points="262.9,-108 161.9,-108 161.9,-72 262.9,-72 262.9,-108"/>
<text text-anchor="middle" x="212.4" y="-87.8" font-family="Times,serif" font-size="9.00">Ⓜ System Monitor</text>
</g>
<!-- System Skill Pick and Place&#45;&gt;System Monitor -->
<g id="edge1" class="edge">
<title>System Skill Pick and Place&#45;&gt;System Monitor</title>
<path fill="none" stroke="black" d="M397.07,-287.98C355.88,-244.05 275.04,-157.82 235.41,-115.54"/>
<polygon fill="black" stroke="black" points="237.9,-113.08 228.5,-108.18 232.79,-117.87 237.9,-113.08"/>
</g>
<!-- Workflow -->
<g id="node6" class="node">
<title>Workflow</title>
<polygon fill="cyan" stroke="black" points="789.64,-226.54 789.64,-241.46 763.72,-252 727.07,-252 701.16,-241.46 701.16,-226.54 727.07,-216 763.72,-216 789.64,-226.54"/>
<text text-anchor="middle" x="745.4" y="-231.8" font-family="Times,serif" font-size="9.00">Ⓜ Workflow</text>
</g>
<!-- System Skill Pick and Place&#45;&gt;Workflow -->
<g id="edge5" class="edge">
<title>System Skill Pick and Place&#45;&gt;Workflow</title>
<path fill="none" stroke="black" d="M514.52,-292.18C574.41,-277.35 650,-258.63 698.04,-246.73"/>
<polygon fill="black" stroke="black" points="698.99,-250.1 707.86,-244.3 697.31,-243.3 698.99,-250.1"/>
</g>
<!-- Report Status -->
<g id="node3" class="node">
<title>Report Status</title>
<ellipse fill="gray" stroke="blue" cx="37.4" cy="-18" rx="37.29" ry="18"/>
<text text-anchor="middle" x="37.4" y="-16.4" font-family="Times,serif" font-size="7.00" fill="blue">Report Status</text>
</g>
<!-- System Monitor&#45;&gt;Report Status -->
<g id="edge2" class="edge">
<title>System Monitor&#45;&gt;Report Status</title>
<path fill="none" stroke="black" d="M169.59,-71.88C140.53,-60.25 102.49,-45.04 74.68,-33.91"/>
<polygon fill="black" stroke="black" points="75.88,-30.63 65.3,-30.16 73.28,-37.12 75.88,-30.63"/>
</g>
<!-- Bottle Detector Status -->
<g id="node4" class="node">
<title>Bottle Detector Status</title>
<ellipse fill="gray" stroke="blue" cx="147.4" cy="-18" rx="54.9" ry="18"/>
<text text-anchor="middle" x="147.4" y="-16.4" font-family="Times,serif" font-size="7.00" fill="blue">Bottle Detector Status</text>
</g>
<!-- System Monitor&#45;&gt;Bottle Detector Status -->
<g id="edge3" class="edge">
<title>System Monitor&#45;&gt;Bottle Detector Status</title>
<path fill="none" stroke="black" d="M196.33,-71.7C188.34,-63.09 178.55,-52.55 169.84,-43.17"/>
<polygon fill="black" stroke="black" points="172.2,-40.57 162.83,-35.62 167.07,-45.33 172.2,-40.57"/>
</g>
<!-- User Requests Monitor -->
<g id="node5" class="node">
<title>User Requests Monitor</title>
<ellipse fill="gray" stroke="blue" cx="276.4" cy="-18" rx="56.25" ry="18"/>
<text text-anchor="middle" x="276.4" y="-16.4" font-family="Times,serif" font-size="7.00" fill="blue">User Requests Monitor</text>
</g>
<!-- System Monitor&#45;&gt;User Requests Monitor -->
<g id="edge4" class="edge">
<title>System Monitor&#45;&gt;User Requests Monitor</title>
<path fill="none" stroke="black" d="M228.22,-71.7C236.08,-63.09 245.72,-52.55 254.3,-43.17"/>
<polygon fill="black" stroke="black" points="257.03,-45.36 261.2,-35.62 251.87,-40.64 257.03,-45.36"/>
</g>
<!-- /stage -->
<g id="node19" class="node">
<title>/stage</title>
<polygon fill="white" stroke="blue" points="1334.9,-26.5 1285.9,-26.5 1285.9,-9.5 1334.9,-9.5 1334.9,-26.5"/>
<text text-anchor="middle" x="1310.4" y="-16.1" font-family="Times,serif" font-size="8.00" fill="blue">/stage: &#45;</text>
</g>
<!-- Bottle Detector Status&#45;&gt;/stage -->
<g id="edge23" class="edge">
<title>Bottle Detector Status&#45;&gt;/stage</title>
<path fill="none" stroke="blue" d="M172.66,-34.05C186.24,-41.73 203.61,-50.09 220.4,-54 277.1,-67.22 1213.79,-74.2 1268.4,-54 1279.11,-50.04 1288.94,-41.98 1296.39,-34.49"/>
<polygon fill="blue" stroke="blue" points="1299.26,-36.54 1303.47,-26.81 1294.12,-31.79 1299.26,-36.54"/>
</g>
<!-- /status -->
<g id="node20" class="node">
<title>/status</title>
<polygon fill="white" stroke="blue" points="1267.9,-26.5 1216.9,-26.5 1216.9,-9.5 1267.9,-9.5 1267.9,-26.5"/>
<text text-anchor="middle" x="1242.4" y="-16.1" font-family="Times,serif" font-size="8.00" fill="blue">/status: &#45;</text>
</g>
<!-- Bottle Detector Status&#45;&gt;/status -->
<g id="edge30" class="edge">
<title>Bottle Detector Status&#45;&gt;/status</title>
<path fill="none" stroke="blue" d="M172.66,-34.05C186.24,-41.73 203.61,-50.09 220.4,-54 273.31,-66.34 1147.23,-72.27 1198.4,-54 1209.69,-49.97 1220.18,-41.65 1228.07,-34.03"/>
<polygon fill="blue" stroke="blue" points="1230.61,-36.44 1235.05,-26.82 1225.58,-31.58 1230.61,-36.44"/>
</g>
<!-- /pick_and_place -->
<g id="node21" class="node">
<title>/pick_and_place</title>
<polygon fill="white" stroke="blue" points="1447.9,-26.5 1352.9,-26.5 1352.9,-9.5 1447.9,-9.5 1447.9,-26.5"/>
<text text-anchor="middle" x="1400.4" y="-16.1" font-family="Times,serif" font-size="8.00" fill="blue">/pick_and_place: {}</text>
</g>
<!-- Bottle Detector Status&#45;&gt;/pick_and_place -->
<g id="edge35" class="edge">
<title>Bottle Detector Status&#45;&gt;/pick_and_place</title>
<path fill="none" stroke="blue" d="M172.66,-34.05C186.24,-41.73 203.61,-50.09 220.4,-54 280.72,-68.07 1275.42,-69.5 1335.4,-54 1351.72,-49.78 1368.32,-40.49 1380.65,-32.4"/>
<polygon fill="blue" stroke="blue" points="1382.91,-35.1 1389.18,-26.56 1378.95,-29.32 1382.91,-35.1"/>
</g>
<!-- User Requests Monitor&#45;&gt;/stage -->
<g id="edge22" class="edge">
<title>User Requests Monitor&#45;&gt;/stage</title>
<path fill="none" stroke="blue" d="M302.03,-34.05C315.81,-41.73 333.41,-50.09 350.4,-54 400.1,-65.45 1220.56,-71.69 1268.4,-54 1279.11,-50.04 1288.94,-41.98 1296.39,-34.49"/>
<polygon fill="blue" stroke="blue" points="1299.26,-36.54 1303.47,-26.81 1294.12,-31.79 1299.26,-36.54"/>
</g>
<!-- User Requests Monitor&#45;&gt;/status -->
<g id="edge28" class="edge">
<title>User Requests Monitor&#45;&gt;/status</title>
<path fill="none" stroke="blue" d="M302.03,-34.05C315.81,-41.73 333.41,-50.09 350.4,-54 396.31,-64.57 1154.03,-69.84 1198.4,-54 1209.69,-49.97 1220.18,-41.65 1228.07,-34.03"/>
<polygon fill="blue" stroke="blue" points="1230.61,-36.44 1235.05,-26.82 1225.58,-31.58 1230.61,-36.44"/>
</g>
<!-- Detect -->
<g id="node7" class="node">
<title>Detect</title>
<polygon fill="orange" stroke="black" points="574.9,-108 515.9,-108 515.9,-72 574.9,-72 574.9,-108"/>
<text text-anchor="middle" x="545.4" y="-87.8" font-family="Times,serif" font-size="9.00">Ⓜ Detect</text>
</g>
<!-- Workflow&#45;&gt;Detect -->
<g id="edge6" class="edge">
<title>Workflow&#45;&gt;Detect</title>
<path fill="none" stroke="black" d="M723.23,-217.26C687.91,-192.18 618.68,-143.03 577.8,-114.01"/>
<polygon fill="black" stroke="black" points="579.71,-111.07 569.53,-108.13 575.65,-116.78 579.71,-111.07"/>
</g>
<!-- Pick and Place -->
<g id="node11" class="node">
<title>Pick and Place</title>
<polygon fill="orange" stroke="black" points="793.4,-180 697.4,-180 697.4,-144 793.4,-144 793.4,-180"/>
<text text-anchor="middle" x="745.4" y="-159.8" font-family="Times,serif" font-size="9.00">Ⓜ Pick and Place</text>
</g>
<!-- Workflow&#45;&gt;Pick and Place -->
<g id="edge10" class="edge">
<title>Workflow&#45;&gt;Pick and Place</title>
<path fill="none" stroke="black" d="M745.4,-215.7C745.4,-207.98 745.4,-198.71 745.4,-190.11"/>
<polygon fill="black" stroke="black" points="748.9,-190.1 745.4,-180.1 741.9,-190.1 748.9,-190.1"/>
</g>
<!-- Finish System Skill -->
<g id="node15" class="node">
<title>Finish System Skill</title>
<polygon fill="orange" stroke="black" points="993.4,-108 877.4,-108 877.4,-72 993.4,-72 993.4,-108"/>
<text text-anchor="middle" x="935.4" y="-87.8" font-family="Times,serif" font-size="9.00">Ⓜ Finish System Skill</text>
</g>
<!-- Workflow&#45;&gt;Finish System Skill -->
<g id="edge14" class="edge">
<title>Workflow&#45;&gt;Finish System Skill</title>
<path fill="none" stroke="black" d="M766.82,-216.99C800.39,-191.9 865.52,-143.22 904.26,-114.27"/>
<polygon fill="black" stroke="black" points="906.66,-116.85 912.58,-108.06 902.47,-111.24 906.66,-116.85"/>
</g>
<!-- Idle Status -->
<g id="node18" class="node">
<title>Idle Status</title>
<ellipse fill="gray" stroke="blue" cx="1167.4" cy="-18" rx="31.02" ry="18"/>
<text text-anchor="middle" x="1167.4" y="-16.4" font-family="Times,serif" font-size="7.00" fill="blue">Idle Status</text>
</g>
<!-- Workflow&#45;&gt;Idle Status -->
<g id="edge17" class="edge">
<title>Workflow&#45;&gt;Idle Status</title>
<path fill="none" stroke="black" d="M773.17,-219.5C795.2,-208.79 826.77,-193.44 854.4,-180 920.18,-148.01 937.3,-141.37 1002.4,-108 1049.58,-83.81 1103.54,-54.36 1136.53,-36.15"/>
<polygon fill="black" stroke="black" points="1138.61,-39 1145.66,-31.1 1135.22,-32.87 1138.61,-39"/>
</g>
<!-- Pick Requested? -->
<g id="node8" class="node">
<title>Pick Requested?</title>
<ellipse fill="gray" stroke="blue" cx="393.4" cy="-18" rx="42.96" ry="18"/>
<text text-anchor="middle" x="393.4" y="-16.4" font-family="Times,serif" font-size="7.00" fill="blue">Pick Requested?</text>
</g>
<!-- Detect&#45;&gt;Pick Requested? -->
<g id="edge7" class="edge">
<title>Detect&#45;&gt;Pick Requested?</title>
<path fill="none" stroke="black" d="M515.73,-75.34C491.34,-64.1 456.65,-48.13 430.44,-36.06"/>
<polygon fill="black" stroke="black" points="431.74,-32.81 421.2,-31.8 428.82,-39.16 431.74,-32.81"/>
</g>
<!-- Run Bottle Detection -->
<g id="node9" class="node">
<title>Run Bottle Detection</title>
<ellipse fill="gray" stroke="blue" cx="506.4" cy="-18" rx="51.82" ry="18"/>
<text text-anchor="middle" x="506.4" y="-16.4" font-family="Times,serif" font-size="7.00" fill="blue">Run Bottle Detection</text>
</g>
<!-- Detect&#45;&gt;Run Bottle Detection -->
<g id="edge8" class="edge">
<title>Detect&#45;&gt;Run Bottle Detection</title>
<path fill="none" stroke="black" d="M535.76,-71.7C531.27,-63.64 525.84,-53.89 520.87,-44.98"/>
<polygon fill="black" stroke="black" points="523.85,-43.14 515.93,-36.1 517.74,-46.54 523.85,-43.14"/>
</g>
<!-- Wait 1 sec -->
<g id="node10" class="node">
<title>Wait 1 sec</title>
<ellipse fill="gray" stroke="blue" cx="606.4" cy="-18" rx="30.28" ry="18"/>
<text text-anchor="middle" x="606.4" y="-16.4" font-family="Times,serif" font-size="7.00" fill="blue">Wait 1 sec</text>
</g>
<!-- Detect&#45;&gt;Wait 1 sec -->
<g id="edge9" class="edge">
<title>Detect&#45;&gt;Wait 1 sec</title>
<path fill="none" stroke="black" d="M560.48,-71.7C568.3,-62.71 577.97,-51.62 586.41,-41.93"/>
<polygon fill="black" stroke="black" points="589.22,-44.04 593.15,-34.2 583.94,-39.44 589.22,-44.04"/>
</g>
<!-- Run Bottle Detection&#45;&gt;/stage -->
<g id="edge21" class="edge">
<title>Run Bottle Detection&#45;&gt;/stage</title>
<path fill="none" stroke="blue" d="M530.54,-34.04C543.53,-41.72 560.19,-50.08 576.4,-54 651.13,-72.09 1196.28,-80.68 1268.4,-54 1279.11,-50.04 1288.94,-41.98 1296.39,-34.49"/>
<polygon fill="blue" stroke="blue" points="1299.26,-36.54 1303.47,-26.81 1294.12,-31.79 1299.26,-36.54"/>
</g>
<!-- Run Bottle Detection&#45;&gt;/status -->
<g id="edge27" class="edge">
<title>Run Bottle Detection&#45;&gt;/status</title>
<path fill="none" stroke="blue" d="M530.54,-34.04C543.53,-41.72 560.19,-50.08 576.4,-54 643.57,-70.26 1133.31,-77.23 1198.4,-54 1209.69,-49.97 1220.18,-41.65 1228.07,-34.03"/>
<polygon fill="blue" stroke="blue" points="1230.61,-36.44 1235.05,-26.82 1225.58,-31.58 1230.61,-36.44"/>
</g>
<!-- Wait 1 sec&#45;&gt;/status -->
<g id="edge29" class="edge">
<title>Wait 1 sec&#45;&gt;/status</title>
<path fill="none" stroke="blue" d="M623.54,-32.91C631.46,-38.83 641.33,-44.95 651.4,-48 680.64,-56.85 1172.35,-57.49 1201.4,-48 1210.36,-45.07 1218.98,-39.36 1225.99,-33.7"/>
<polygon fill="blue" stroke="blue" points="1228.69,-35.99 1233.9,-26.77 1224.07,-30.72 1228.69,-35.99"/>
</g>
<!-- Wait 1 sec&#45;&gt;/status -->
<g id="edge32" class="edge">
<title>Wait 1 sec&#45;&gt;/status</title>
<path fill="none" stroke="blue" d="M620.25,-33.99C629.63,-43.55 642.93,-54.81 657.4,-60 685.53,-70.09 1167.47,-70.66 1195.4,-60 1208.84,-54.87 1220.87,-43.93 1229.4,-34.5"/>
<polygon fill="blue" stroke="blue" points="1232.14,-36.68 1235.93,-26.79 1226.8,-32.16 1232.14,-36.68"/>
</g>
<!-- Bottle Detected? -->
<g id="node12" class="node">
<title>Bottle Detected?</title>
<ellipse fill="gray" stroke="blue" cx="698.4" cy="-18" rx="43.57" ry="18"/>
<text text-anchor="middle" x="698.4" y="-16.4" font-family="Times,serif" font-size="7.00" fill="blue">Bottle Detected?</text>
</g>
<!-- Pick and Place&#45;&gt;Bottle Detected? -->
<g id="edge11" class="edge">
<title>Pick and Place&#45;&gt;Bottle Detected?</title>
<path fill="none" stroke="black" d="M739.73,-143.87C731.68,-119.56 716.87,-74.82 707.34,-46.01"/>
<polygon fill="black" stroke="black" points="710.55,-44.58 704.09,-36.19 703.91,-46.78 710.55,-44.58"/>
</g>
<!-- Run Pick and Place -->
<g id="node13" class="node">
<title>Run Pick and Place</title>
<ellipse fill="gray" stroke="blue" cx="808.4" cy="-18" rx="48" ry="18"/>
<text text-anchor="middle" x="808.4" y="-16.4" font-family="Times,serif" font-size="7.00" fill="blue">Run Pick and Place</text>
</g>
<!-- Pick and Place&#45;&gt;Run Pick and Place -->
<g id="edge12" class="edge">
<title>Pick and Place&#45;&gt;Run Pick and Place</title>
<path fill="none" stroke="black" d="M746.61,-143.81C748.47,-125.28 753.09,-95.31 764.4,-72 769.51,-61.46 777.16,-51.22 784.65,-42.6"/>
<polygon fill="black" stroke="black" points="787.26,-44.92 791.41,-35.17 782.09,-40.21 787.26,-44.92"/>
</g>
<!-- Wait 1 sec* -->
<g id="node14" class="node">
<title>Wait 1 sec*</title>
<ellipse fill="gray" stroke="black" cx="812.4" cy="-90" rx="39.02" ry="18"/>
<text text-anchor="middle" x="812.4" y="-87.8" font-family="Times,serif" font-size="9.00">Wait 1 sec*</text>
</g>
<!-- Pick and Place&#45;&gt;Wait 1 sec* -->
<g id="edge13" class="edge">
<title>Pick and Place&#45;&gt;Wait 1 sec*</title>
<path fill="none" stroke="black" d="M761.96,-143.7C770.52,-134.75 781.08,-123.71 790.33,-114.06"/>
<polygon fill="black" stroke="black" points="793.01,-116.32 797.4,-106.67 787.95,-111.48 793.01,-116.32"/>
</g>
<!-- Run Pick and Place&#45;&gt;/stage -->
<g id="edge24" class="edge">
<title>Run Pick and Place&#45;&gt;/stage</title>
<path fill="none" stroke="blue" d="M831.03,-34.03C843.25,-41.71 858.97,-50.07 874.4,-54 916.82,-64.82 1227.34,-69.19 1268.4,-54 1279.11,-50.04 1288.94,-41.98 1296.39,-34.49"/>
<polygon fill="blue" stroke="blue" points="1299.26,-36.54 1303.47,-26.81 1294.12,-31.79 1299.26,-36.54"/>
</g>
<!-- Run Pick and Place&#45;&gt;/status -->
<g id="edge33" class="edge">
<title>Run Pick and Place&#45;&gt;/status</title>
<path fill="none" stroke="blue" d="M831.03,-34.03C843.25,-41.71 858.97,-50.07 874.4,-54 944.16,-71.79 1130.59,-78.21 1198.4,-54 1209.69,-49.97 1220.18,-41.65 1228.07,-34.03"/>
<polygon fill="blue" stroke="blue" points="1230.61,-36.44 1235.05,-26.82 1225.58,-31.58 1230.61,-36.44"/>
</g>
<!-- Run Pick and Place&#45;&gt;/pick_and_place -->
<g id="edge36" class="edge">
<title>Run Pick and Place&#45;&gt;/pick_and_place</title>
<path fill="none" stroke="blue" d="M831.03,-34.03C843.25,-41.71 858.97,-50.07 874.4,-54 924.03,-66.66 1285.8,-66.82 1335.4,-54 1351.72,-49.78 1368.32,-40.49 1380.65,-32.4"/>
<polygon fill="blue" stroke="blue" points="1382.91,-35.1 1389.18,-26.56 1378.95,-29.32 1382.91,-35.1"/>
</g>
<!-- Pick and Place Executed? -->
<g id="node16" class="node">
<title>Pick and Place Executed?</title>
<ellipse fill="gray" stroke="blue" cx="935.4" cy="-18" rx="60.68" ry="18"/>
<text text-anchor="middle" x="935.4" y="-16.4" font-family="Times,serif" font-size="7.00" fill="blue">Pick and Place Executed?</text>
</g>
<!-- Finish System Skill&#45;&gt;Pick and Place Executed? -->
<g id="edge15" class="edge">
<title>Finish System Skill&#45;&gt;Pick and Place Executed?</title>
<path fill="none" stroke="black" d="M935.4,-71.7C935.4,-63.98 935.4,-54.71 935.4,-46.11"/>
<polygon fill="black" stroke="black" points="938.9,-46.1 935.4,-36.1 931.9,-46.1 938.9,-46.1"/>
</g>
<!-- Finish Pick and Place -->
<g id="node17" class="node">
<title>Finish Pick and Place</title>
<ellipse fill="gray" stroke="blue" cx="1066.4" cy="-18" rx="51.82" ry="18"/>
<text text-anchor="middle" x="1066.4" y="-16.4" font-family="Times,serif" font-size="7.00" fill="blue">Finish Pick and Place</text>
</g>
<!-- Finish System Skill&#45;&gt;Finish Pick and Place -->
<g id="edge16" class="edge">
<title>Finish System Skill&#45;&gt;Finish Pick and Place</title>
<path fill="none" stroke="black" d="M967.44,-71.88C986.41,-61.74 1010.48,-48.88 1030.14,-38.37"/>
<polygon fill="black" stroke="black" points="1031.94,-41.38 1039.11,-33.58 1028.64,-35.21 1031.94,-41.38"/>
</g>
<!-- Finish Pick and Place&#45;&gt;/stage -->
<g id="edge25" class="edge">
<title>Finish Pick and Place&#45;&gt;/stage</title>
<path fill="none" stroke="blue" d="M1090.54,-34.04C1103.53,-41.72 1120.19,-50.08 1136.4,-54 1193.42,-67.8 1213.37,-74.35 1268.4,-54 1279.11,-50.04 1288.94,-41.98 1296.39,-34.49"/>
<polygon fill="blue" stroke="blue" points="1299.26,-36.54 1303.47,-26.81 1294.12,-31.79 1299.26,-36.54"/>
</g>
<!-- Finish Pick and Place&#45;&gt;/status -->
<g id="edge34" class="edge">
<title>Finish Pick and Place&#45;&gt;/status</title>
<path fill="none" stroke="blue" d="M1090.54,-34.04C1103.53,-41.72 1120.19,-50.08 1136.4,-54 1163.18,-60.48 1172.44,-63.26 1198.4,-54 1209.69,-49.97 1220.18,-41.65 1228.07,-34.03"/>
<polygon fill="blue" stroke="blue" points="1230.61,-36.44 1235.05,-26.82 1225.58,-31.58 1230.61,-36.44"/>
</g>
<!-- Idle Status&#45;&gt;/status -->
<g id="edge31" class="edge">
<title>Idle Status&#45;&gt;/status</title>
<path fill="none" stroke="blue" d="M1198.74,-18C1201.38,-18 1204.02,-18 1206.65,-18"/>
<polygon fill="blue" stroke="blue" points="1206.82,-21.5 1216.82,-18 1206.82,-14.5 1206.82,-21.5"/>
</g>
<!-- /stage&#45;&gt;Pick Requested? -->
<g id="edge18" class="edge">
<title>/stage&#45;&gt;Pick Requested?</title>
<path fill="none" stroke="green" d="M1303.47,-26.81C1295.93,-35.62 1282.99,-48.6 1268.4,-54 1225.98,-69.69 498.02,-65.91 454.4,-54 443.23,-50.95 432.02,-45.27 422.31,-39.31"/>
<polygon fill="green" stroke="green" points="424.16,-36.34 413.87,-33.83 420.35,-42.21 424.16,-36.34"/>
</g>
<!-- /stage&#45;&gt;Bottle Detected? -->
<g id="edge20" class="edge">
<title>/stage&#45;&gt;Bottle Detected?</title>
<path fill="none" stroke="green" d="M1303.47,-26.81C1295.93,-35.62 1282.99,-48.6 1268.4,-54 1215.46,-73.58 814.9,-68.68 760.4,-54 749.08,-50.95 737.7,-45.28 727.83,-39.32"/>
<polygon fill="green" stroke="green" points="729.55,-36.26 719.24,-33.83 725.79,-42.16 729.55,-36.26"/>
</g>
<!-- /stage&#45;&gt;Pick and Place Executed? -->
<g id="edge19" class="edge">
<title>/stage&#45;&gt;Pick and Place Executed?</title>
<path fill="none" stroke="green" d="M1303.47,-26.81C1295.93,-35.62 1282.99,-48.6 1268.4,-54 1215.46,-73.58 1069.56,-65.98 1014.4,-54 999.94,-50.86 984.95,-44.83 971.97,-38.6"/>
<polygon fill="green" stroke="green" points="973.41,-35.41 962.9,-34.06 970.28,-41.67 973.41,-35.41"/>
</g>
<!-- /status&#45;&gt;Report Status -->
<g id="edge26" class="edge">
<title>/status&#45;&gt;Report Status</title>
<path fill="none" stroke="green" d="M1235.05,-26.82C1227.08,-35.64 1213.46,-48.62 1198.4,-54 1140.53,-74.66 151.28,-71.56 92.4,-54 82.49,-51.05 72.72,-45.68 64.21,-39.97"/>
<polygon fill="green" stroke="green" points="66.03,-36.97 55.86,-33.99 61.95,-42.66 66.03,-36.97"/>
</g>
</g>
</svg>
