<?xml version="1.0" encoding="UTF-8" standalone="no"?>
<!DOCTYPE svg PUBLIC "-//W3C//DTD SVG 1.1//EN"
 "http://www.w3.org/Graphics/SVG/1.1/DTD/svg11.dtd">
<!-- Generated by graphviz version 2.43.0 (0)
 -->
<!-- Title: pastafarianism Pages: 1 -->
<svg width="2168pt" height="372pt"
 viewBox="0.00 0.00 2167.77 372.00" xmlns="http://www.w3.org/2000/svg" xmlns:xlink="http://www.w3.org/1999/xlink">
<g id="graph0" class="graph" transform="scale(1 1) rotate(0) translate(4 368)">
<title>pastafarianism</title>
<polygon fill="white" stroke="transparent" points="-4,4 -4,-368 2163.77,-368 2163.77,4 -4,4"/>
<!-- System Skill Handover -->
<g id="node1" class="node">
<title>System Skill Handover</title>
<polygon fill="gold" stroke="black" points="634.58,-364 435.11,-364 383.79,-308 583.27,-308 634.58,-364"/>
<text text-anchor="middle" x="509.19" y="-338.8" font-family="Times,serif" font-size="9.00">System Skill Handover</text>
<text text-anchor="middle" x="509.19" y="-328.8" font-family="Times,serif" font-size="9.00">SuccessOnAll</text>
</g>
<!-- System State -->
<g id="node2" class="node">
<title>System State</title>
<polygon fill="orange" stroke="black" points="334.69,-272 245.69,-272 245.69,-236 334.69,-236 334.69,-272"/>
<text text-anchor="middle" x="290.19" y="-251.8" font-family="Times,serif" font-size="9.00">Ⓜ System State</text>
</g>
<!-- System Skill Handover&#45;&gt;System State -->
<g id="edge1" class="edge">
<title>System Skill Handover&#45;&gt;System State</title>
<path fill="none" stroke="black" d="M435.04,-307.92C405.3,-297.05 371.65,-284.76 344.27,-274.76"/>
<polygon fill="black" stroke="black" points="345.46,-271.47 334.87,-271.32 343.06,-278.04 345.46,-271.47"/>
</g>
<!-- Handover -->
<g id="node7" class="node">
<title>Handover</title>
<polygon fill="orange" stroke="black" points="765.19,-272 691.19,-272 691.19,-236 765.19,-236 765.19,-272"/>
<text text-anchor="middle" x="728.19" y="-251.8" font-family="Times,serif" font-size="9.00">Ⓜ Handover</text>
</g>
<!-- System Skill Handover&#45;&gt;Handover -->
<g id="edge6" class="edge">
<title>System Skill Handover&#45;&gt;Handover</title>
<path fill="none" stroke="black" d="M583.33,-307.92C615.74,-296.08 652.79,-282.54 681.3,-272.13"/>
<polygon fill="black" stroke="black" points="682.81,-275.3 691.01,-268.58 680.41,-268.73 682.81,-275.3"/>
</g>
<!-- Report Status -->
<g id="node3" class="node">
<title>Report Status</title>
<ellipse fill="gray" stroke="black" cx="46.19" cy="-182" rx="46.38" ry="18"/>
<text text-anchor="middle" x="46.19" y="-179.8" font-family="Times,serif" font-size="9.00">Report Status</text>
</g>
<!-- System State&#45;&gt;Report Status -->
<g id="edge2" class="edge">
<title>System State&#45;&gt;Report Status</title>
<path fill="none" stroke="black" d="M245.41,-240.8C207.06,-230.27 150.38,-214.5 101.19,-200 97.83,-199.01 94.35,-197.97 90.86,-196.92"/>
<polygon fill="black" stroke="black" points="91.65,-193.5 81.06,-193.93 89.61,-200.19 91.65,-193.5"/>
</g>
<!-- Robot Status -->
<g id="node4" class="node">
<title>Robot Status</title>
<ellipse fill="gray" stroke="black" cx="154.19" cy="-182" rx="43.76" ry="18"/>
<text text-anchor="middle" x="154.19" y="-179.8" font-family="Times,serif" font-size="9.00">Robot Status</text>
</g>
<!-- System State&#45;&gt;Robot Status -->
<g id="edge3" class="edge">
<title>System State&#45;&gt;Robot Status</title>
<path fill="none" stroke="black" d="M256.92,-235.88C236.6,-225.42 210.62,-212.04 189.87,-201.37"/>
<polygon fill="black" stroke="black" points="191.24,-198.13 180.74,-196.67 188.03,-204.36 191.24,-198.13"/>
</g>
<!-- Gesture Detector Status -->
<g id="node5" class="node">
<title>Gesture Detector Status</title>
<ellipse fill="gray" stroke="black" cx="290.19" cy="-182" rx="74.46" ry="18"/>
<text text-anchor="middle" x="290.19" y="-179.8" font-family="Times,serif" font-size="9.00">Gesture Detector Status</text>
</g>
<!-- System State&#45;&gt;Gesture Detector Status -->
<g id="edge4" class="edge">
<title>System State&#45;&gt;Gesture Detector Status</title>
<path fill="none" stroke="black" d="M290.19,-235.7C290.19,-227.98 290.19,-218.71 290.19,-210.11"/>
<polygon fill="black" stroke="black" points="293.69,-210.1 290.19,-200.1 286.69,-210.1 293.69,-210.1"/>
</g>
<!-- Human Intent Detector Status -->
<g id="node6" class="node">
<title>Human Intent Detector Status</title>
<ellipse fill="gray" stroke="black" cx="473.19" cy="-182" rx="90.79" ry="18"/>
<text text-anchor="middle" x="473.19" y="-179.8" font-family="Times,serif" font-size="9.00">Human Intent Detector Status</text>
</g>
<!-- System State&#45;&gt;Human Intent Detector Status -->
<g id="edge5" class="edge">
<title>System State&#45;&gt;Human Intent Detector Status</title>
<path fill="none" stroke="black" d="M334.95,-235.88C361.84,-225.59 396.07,-212.5 423.75,-201.91"/>
<polygon fill="black" stroke="black" points="425.15,-205.12 433.24,-198.28 422.65,-198.58 425.15,-205.12"/>
</g>
<!-- Active? -->
<g id="node8" class="node">
<title>Active?</title>
<ellipse fill="gray" stroke="black" cx="611.19" cy="-182" rx="28.74" ry="18"/>
<text text-anchor="middle" x="611.19" y="-179.8" font-family="Times,serif" font-size="9.00">Active?</text>
</g>
<!-- Handover&#45;&gt;Active? -->
<g id="edge7" class="edge">
<title>Handover&#45;&gt;Active?</title>
<path fill="none" stroke="black" d="M699.57,-235.88C681.59,-225.12 658.47,-211.29 640.39,-200.47"/>
<polygon fill="black" stroke="black" points="641.83,-197.25 631.45,-195.12 638.23,-203.26 641.83,-197.25"/>
</g>
<!-- Go to Handover Position -->
<g id="node9" class="node">
<title>Go to Handover Position</title>
<polygon fill="orange" stroke="black" points="798.69,-200 657.69,-200 657.69,-164 798.69,-164 798.69,-200"/>
<text text-anchor="middle" x="728.19" y="-179.8" font-family="Times,serif" font-size="9.00">Ⓜ Go to Handover Position</text>
</g>
<!-- Handover&#45;&gt;Go to Handover Position -->
<g id="edge8" class="edge">
<title>Handover&#45;&gt;Go to Handover Position</title>
<path fill="none" stroke="black" d="M728.19,-235.7C728.19,-227.98 728.19,-218.71 728.19,-210.11"/>
<polygon fill="black" stroke="black" points="731.69,-210.1 728.19,-200.1 724.69,-210.1 731.69,-210.1"/>
</g>
<!-- Execute Handover -->
<g id="node13" class="node">
<title>Execute Handover</title>
<polygon fill="orange" stroke="black" points="1195.19,-200 1081.19,-200 1081.19,-164 1195.19,-164 1195.19,-200"/>
<text text-anchor="middle" x="1138.19" y="-179.8" font-family="Times,serif" font-size="9.00">Ⓜ Execute Handover</text>
</g>
<!-- Handover&#45;&gt;Execute Handover -->
<g id="edge12" class="edge">
<title>Handover&#45;&gt;Execute Handover</title>
<path fill="none" stroke="black" d="M765.3,-246.66C834.41,-234.86 983.73,-209.37 1071,-194.47"/>
<polygon fill="black" stroke="black" points="1071.8,-197.89 1081.07,-192.75 1070.62,-190.99 1071.8,-197.89"/>
</g>
<!-- Finish Handover -->
<g id="node21" class="node">
<title>Finish Handover</title>
<polygon fill="orange" stroke="black" points="1841.69,-200 1736.69,-200 1736.69,-164 1841.69,-164 1841.69,-200"/>
<text text-anchor="middle" x="1789.19" y="-179.8" font-family="Times,serif" font-size="9.00">Ⓜ Finish Handover</text>
</g>
<!-- Handover&#45;&gt;Finish Handover -->
<g id="edge20" class="edge">
<title>Handover&#45;&gt;Finish Handover</title>
<path fill="none" stroke="black" d="M765.33,-250.55C921.8,-240.23 1528.36,-200.21 1726.32,-187.15"/>
<polygon fill="black" stroke="black" points="1726.8,-190.62 1736.55,-186.47 1726.34,-183.64 1726.8,-190.62"/>
</g>
<!-- Robot Stationary -->
<g id="node10" class="node">
<title>Robot Stationary</title>
<ellipse fill="gray" stroke="black" cx="452.19" cy="-100" rx="54.7" ry="18"/>
<text text-anchor="middle" x="452.19" y="-97.8" font-family="Times,serif" font-size="9.00">Robot Stationary</text>
</g>
<!-- Go to Handover Position&#45;&gt;Robot Stationary -->
<g id="edge9" class="edge">
<title>Go to Handover Position&#45;&gt;Robot Stationary</title>
<path fill="none" stroke="black" d="M657.63,-164.6C606.6,-152.5 542.23,-136.69 516.19,-128 508.3,-125.37 500.02,-122.19 492.12,-118.96"/>
<polygon fill="black" stroke="black" points="493.32,-115.67 482.74,-115.02 490.61,-122.12 493.32,-115.67"/>
</g>
<!-- Send Handover Position -->
<g id="node11" class="node">
<title>Send Handover Position</title>
<ellipse fill="gray" stroke="black" cx="599.19" cy="-100" rx="73.8" ry="18"/>
<text text-anchor="middle" x="599.19" y="-97.8" font-family="Times,serif" font-size="9.00">Send Handover Position</text>
</g>
<!-- Go to Handover Position&#45;&gt;Send Handover Position -->
<g id="edge10" class="edge">
<title>Go to Handover Position&#45;&gt;Send Handover Position</title>
<path fill="none" stroke="black" d="M700.51,-163.84C680.95,-151.71 654.59,-135.36 633.66,-122.38"/>
<polygon fill="black" stroke="black" points="635.4,-119.34 625.06,-117.04 631.71,-125.29 635.4,-119.34"/>
</g>
<!-- Wait 1 sec -->
<g id="node12" class="node">
<title>Wait 1 sec</title>
<ellipse fill="gray" stroke="black" cx="728.19" cy="-100" rx="36.9" ry="18"/>
<text text-anchor="middle" x="728.19" y="-97.8" font-family="Times,serif" font-size="9.00">Wait 1 sec</text>
</g>
<!-- Go to Handover Position&#45;&gt;Wait 1 sec -->
<g id="edge11" class="edge">
<title>Go to Handover Position&#45;&gt;Wait 1 sec</title>
<path fill="none" stroke="black" d="M728.19,-163.64C728.19,-153.3 728.19,-139.94 728.19,-128.22"/>
<polygon fill="black" stroke="black" points="731.69,-128.05 728.19,-118.05 724.69,-128.05 731.69,-128.05"/>
</g>
<!-- Robot at Handover Position? -->
<g id="node14" class="node">
<title>Robot at Handover Position?</title>
<ellipse fill="gray" stroke="black" cx="868.19" cy="-100" rx="85.4" ry="18"/>
<text text-anchor="middle" x="868.19" y="-97.8" font-family="Times,serif" font-size="9.00">Robot at Handover Position?</text>
</g>
<!-- Execute Handover&#45;&gt;Robot at Handover Position? -->
<g id="edge13" class="edge">
<title>Execute Handover&#45;&gt;Robot at Handover Position?</title>
<path fill="none" stroke="black" d="M1080.93,-164.03C1035.07,-150.45 971.05,-131.48 925.24,-117.91"/>
<polygon fill="black" stroke="black" points="926.05,-114.49 915.47,-115.01 924.06,-121.21 926.05,-114.49"/>
</g>
<!-- Detectors -->
<g id="node15" class="node">
<title>Detectors</title>
<polygon fill="gold" stroke="black" points="1150.51,-128 1008.42,-128 971.87,-72 1113.96,-72 1150.51,-128"/>
<text text-anchor="middle" x="1061.19" y="-102.8" font-family="Times,serif" font-size="9.00">Detectors</text>
<text text-anchor="middle" x="1061.19" y="-92.8" font-family="Times,serif" font-size="9.00">SuccessOnOne</text>
</g>
<!-- Execute Handover&#45;&gt;Detectors -->
<g id="edge14" class="edge">
<title>Execute Handover&#45;&gt;Detectors</title>
<path fill="none" stroke="black" d="M1121.48,-163.64C1113.51,-155.37 1103.69,-145.16 1094.31,-135.41"/>
<polygon fill="black" stroke="black" points="1096.71,-132.86 1087.25,-128.08 1091.66,-137.71 1096.71,-132.86"/>
</g>
<!-- Release Bottle -->
<g id="node18" class="node">
<title>Release Bottle</title>
<ellipse fill="gray" stroke="black" cx="1216.19" cy="-100" rx="47.84" ry="18"/>
<text text-anchor="middle" x="1216.19" y="-97.8" font-family="Times,serif" font-size="9.00">Release Bottle</text>
</g>
<!-- Execute Handover&#45;&gt;Release Bottle -->
<g id="edge17" class="edge">
<title>Execute Handover&#45;&gt;Release Bottle</title>
<path fill="none" stroke="black" d="M1155.11,-163.64C1166.24,-152.22 1180.95,-137.14 1193.15,-124.63"/>
<polygon fill="black" stroke="black" points="1195.88,-126.84 1200.36,-117.23 1190.87,-121.95 1195.88,-126.84"/>
</g>
<!-- Wait 1 sec* -->
<g id="node19" class="node">
<title>Wait 1 sec*</title>
<ellipse fill="gray" stroke="black" cx="1321.19" cy="-100" rx="39.02" ry="18"/>
<text text-anchor="middle" x="1321.19" y="-97.8" font-family="Times,serif" font-size="9.00">Wait 1 sec*</text>
</g>
<!-- Execute Handover&#45;&gt;Wait 1 sec* -->
<g id="edge18" class="edge">
<title>Execute Handover&#45;&gt;Wait 1 sec*</title>
<path fill="none" stroke="black" d="M1186.35,-163.94C1212.43,-154.24 1244.98,-141.39 1273.19,-128 1278.37,-125.54 1283.76,-122.75 1288.98,-119.92"/>
<polygon fill="black" stroke="black" points="1291.06,-122.77 1298.09,-114.84 1287.65,-116.65 1291.06,-122.77"/>
</g>
<!-- Robot Stationary? -->
<g id="node20" class="node">
<title>Robot Stationary?</title>
<ellipse fill="gray" stroke="black" cx="1435.19" cy="-100" rx="57.32" ry="18"/>
<text text-anchor="middle" x="1435.19" y="-97.8" font-family="Times,serif" font-size="9.00">Robot Stationary?</text>
</g>
<!-- Execute Handover&#45;&gt;Robot Stationary? -->
<g id="edge19" class="edge">
<title>Execute Handover&#45;&gt;Robot Stationary?</title>
<path fill="none" stroke="black" d="M1195.37,-170.58C1242.54,-161.34 1310.94,-146.46 1369.19,-128 1377.42,-125.39 1386.06,-122.2 1394.28,-118.94"/>
<polygon fill="black" stroke="black" points="1395.74,-122.12 1403.68,-115.11 1393.1,-115.64 1395.74,-122.12"/>
</g>
<!-- Human Requested Bottle Release? -->
<g id="node16" class="node">
<title>Human Requested Bottle Release?</title>
<ellipse fill="gray" stroke="black" cx="965.19" cy="-18" rx="101.07" ry="18"/>
<text text-anchor="middle" x="965.19" y="-15.8" font-family="Times,serif" font-size="9.00">Human Requested Bottle Release?</text>
</g>
<!-- Detectors&#45;&gt;Human Requested Bottle Release? -->
<g id="edge15" class="edge">
<title>Detectors&#45;&gt;Human Requested Bottle Release?</title>
<path fill="none" stroke="black" d="M1028.69,-71.92C1017.13,-62.29 1004.23,-51.54 993.1,-42.26"/>
<polygon fill="black" stroke="black" points="995.26,-39.51 985.34,-35.79 990.78,-44.89 995.26,-39.51"/>
</g>
<!-- Gesture Bottle Holded? -->
<g id="node17" class="node">
<title>Gesture Bottle Holded?</title>
<ellipse fill="gray" stroke="black" cx="1156.19" cy="-18" rx="72.34" ry="18"/>
<text text-anchor="middle" x="1156.19" y="-15.8" font-family="Times,serif" font-size="9.00">Gesture Bottle Holded?</text>
</g>
<!-- Detectors&#45;&gt;Gesture Bottle Holded? -->
<g id="edge16" class="edge">
<title>Detectors&#45;&gt;Gesture Bottle Holded?</title>
<path fill="none" stroke="black" d="M1093.35,-71.92C1104.87,-62.21 1117.74,-51.37 1128.82,-42.05"/>
<polygon fill="black" stroke="black" points="1131.13,-44.68 1136.53,-35.56 1126.62,-39.32 1131.13,-44.68"/>
</g>
<!-- Reset Gripper Rotation -->
<g id="node22" class="node">
<title>Reset Gripper Rotation</title>
<ellipse fill="gray" stroke="black" cx="1582.19" cy="-100" rx="71.68" ry="18"/>
<text text-anchor="middle" x="1582.19" y="-97.8" font-family="Times,serif" font-size="9.00">Reset Gripper Rotation</text>
</g>
<!-- Finish Handover&#45;&gt;Reset Gripper Rotation -->
<g id="edge21" class="edge">
<title>Finish Handover&#45;&gt;Reset Gripper Rotation</title>
<path fill="none" stroke="black" d="M1745.04,-163.94C1710.96,-150.77 1663.91,-132.58 1629.15,-119.15"/>
<polygon fill="black" stroke="black" points="1630.28,-115.83 1619.69,-115.49 1627.75,-122.36 1630.28,-115.83"/>
</g>
<!-- Set Home Position -->
<g id="node23" class="node">
<title>Set Home Position</title>
<ellipse fill="gray" stroke="black" cx="1730.19" cy="-100" rx="58.13" ry="18"/>
<text text-anchor="middle" x="1730.19" y="-97.8" font-family="Times,serif" font-size="9.00">Set Home Position</text>
</g>
<!-- Finish Handover&#45;&gt;Set Home Position -->
<g id="edge22" class="edge">
<title>Finish Handover&#45;&gt;Set Home Position</title>
<path fill="none" stroke="black" d="M1776.39,-163.64C1768.24,-152.59 1757.55,-138.1 1748.51,-125.84"/>
<polygon fill="black" stroke="black" points="1751.31,-123.75 1742.56,-117.78 1745.68,-127.9 1751.31,-123.75"/>
</g>
<!-- Wait 1 sec** -->
<g id="node24" class="node">
<title>Wait 1 sec**</title>
<ellipse fill="gray" stroke="black" cx="1848.19" cy="-100" rx="42.29" ry="18"/>
<text text-anchor="middle" x="1848.19" y="-97.8" font-family="Times,serif" font-size="9.00">Wait 1 sec**</text>
</g>
<!-- Finish Handover&#45;&gt;Wait 1 sec** -->
<g id="edge23" class="edge">
<title>Finish Handover&#45;&gt;Wait 1 sec**</title>
<path fill="none" stroke="black" d="M1801.99,-163.64C1810.2,-152.51 1820.97,-137.9 1830.05,-125.59"/>
<polygon fill="black" stroke="black" points="1832.9,-127.63 1836.02,-117.5 1827.26,-123.48 1832.9,-127.63"/>
</g>
<!-- Robot Stationary?* -->
<g id="node25" class="node">
<title>Robot Stationary?*</title>
<ellipse fill="gray" stroke="black" cx="1968.19" cy="-100" rx="60.09" ry="18"/>
<text text-anchor="middle" x="1968.19" y="-97.8" font-family="Times,serif" font-size="9.00">Robot Stationary?*</text>
</g>
<!-- Finish Handover&#45;&gt;Robot Stationary?* -->
<g id="edge24" class="edge">
<title>Finish Handover&#45;&gt;Robot Stationary?*</title>
<path fill="none" stroke="black" d="M1827.59,-163.84C1856.79,-150.79 1896.9,-132.86 1926.81,-119.49"/>
<polygon fill="black" stroke="black" points="1928.43,-122.6 1936.13,-115.33 1925.57,-116.21 1928.43,-122.6"/>
</g>
<!-- Finish Handover* -->
<g id="node26" class="node">
<title>Finish Handover*</title>
<ellipse fill="gray" stroke="black" cx="2103.19" cy="-100" rx="56.66" ry="18"/>
<text text-anchor="middle" x="2103.19" y="-97.8" font-family="Times,serif" font-size="9.00">Finish Handover*</text>
</g>
<!-- Finish Handover&#45;&gt;Finish Handover* -->
<g id="edge25" class="edge">
<title>Finish Handover&#45;&gt;Finish Handover*</title>
<path fill="none" stroke="black" d="M1842.14,-172.5C1892.83,-163.7 1971.14,-148.39 2037.19,-128 2045.52,-125.43 2054.26,-122.23 2062.56,-118.94"/>
<polygon fill="black" stroke="black" points="2064.11,-122.09 2072.05,-115.07 2061.47,-115.61 2064.11,-122.09"/>
</g>
</g>
</svg>
