<?xml version="1.0" encoding="UTF-8" standalone="no"?>
<!DOCTYPE svg PUBLIC "-//W3C//DTD SVG 1.1//EN"
 "http://www.w3.org/Graphics/SVG/1.1/DTD/svg11.dtd">
<!-- Generated by graphviz version 2.43.0 (0)
 -->
<!-- Title: pastafarianism Pages: 1 -->
<svg width="1624pt" height="372pt"
 viewBox="0.00 0.00 1624.18 372.00" xmlns="http://www.w3.org/2000/svg" xmlns:xlink="http://www.w3.org/1999/xlink">
<g id="graph0" class="graph" transform="scale(1 1) rotate(0) translate(4 368)">
<title>pastafarianism</title>
<polygon fill="white" stroke="transparent" points="-4,4 -4,-368 1620.18,-368 1620.18,4 -4,4"/>
<!-- System Skill Cap -->
<g id="node1" class="node">
<title>System Skill Cap</title>
<polygon fill="gold" stroke="black" points="599.6,-364 444.64,-364 404.78,-308 559.74,-308 599.6,-364"/>
<text text-anchor="middle" x="502.19" y="-338.8" font-family="Times,serif" font-size="9.00">System Skill Cap</text>
<text text-anchor="middle" x="502.19" y="-328.8" font-family="Times,serif" font-size="9.00">SuccessOnAll</text>
</g>
<!-- System State -->
<g id="node2" class="node">
<title>System State</title>
<polygon fill="orange" stroke="black" points="334.69,-272 245.69,-272 245.69,-236 334.69,-236 334.69,-272"/>
<text text-anchor="middle" x="290.19" y="-251.8" font-family="Times,serif" font-size="9.00">Ⓜ System State</text>
</g>
<!-- System Skill Cap&#45;&gt;System State -->
<g id="edge1" class="edge">
<title>System Skill Cap&#45;&gt;System State</title>
<path fill="none" stroke="black" d="M430.41,-307.92C402.17,-297.26 370.3,-285.23 344.08,-275.34"/>
<polygon fill="black" stroke="black" points="345.29,-272.05 334.69,-271.79 342.82,-278.6 345.29,-272.05"/>
</g>
<!-- Cap -->
<g id="node7" class="node">
<title>Cap</title>
<polygon fill="orange" stroke="black" points="742.19,-272 688.19,-272 688.19,-236 742.19,-236 742.19,-272"/>
<text text-anchor="middle" x="715.19" y="-251.8" font-family="Times,serif" font-size="9.00">Ⓜ Cap</text>
</g>
<!-- System Skill Cap&#45;&gt;Cap -->
<g id="edge6" class="edge">
<title>System Skill Cap&#45;&gt;Cap</title>
<path fill="none" stroke="black" d="M562.94,-312.18C600.11,-298.22 646.46,-280.81 678.19,-268.9"/>
<polygon fill="black" stroke="black" points="679.82,-272.02 687.95,-265.23 677.36,-265.47 679.82,-272.02"/>
</g>
<!-- Report Status -->
<g id="node3" class="node">
<title>Report Status</title>
<ellipse fill="gray" stroke="black" cx="46.19" cy="-182" rx="46.38" ry="18"/>
<text text-anchor="middle" x="46.19" y="-179.8" font-family="Times,serif" font-size="9.00">Report Status</text>
</g>
<!-- System State&#45;&gt;Report Status -->
<g id="edge2" class="edge">
<title>System State&#45;&gt;Report Status</title>
<path fill="none" stroke="black" d="M245.41,-240.8C207.06,-230.27 150.38,-214.5 101.19,-200 97.83,-199.01 94.35,-197.97 90.86,-196.92"/>
<polygon fill="black" stroke="black" points="91.65,-193.5 81.06,-193.93 89.61,-200.19 91.65,-193.5"/>
</g>
<!-- Robot Status -->
<g id="node4" class="node">
<title>Robot Status</title>
<ellipse fill="gray" stroke="black" cx="154.19" cy="-182" rx="43.76" ry="18"/>
<text text-anchor="middle" x="154.19" y="-179.8" font-family="Times,serif" font-size="9.00">Robot Status</text>
</g>
<!-- System State&#45;&gt;Robot Status -->
<g id="edge3" class="edge">
<title>System State&#45;&gt;Robot Status</title>
<path fill="none" stroke="black" d="M256.92,-235.88C236.6,-225.42 210.62,-212.04 189.87,-201.37"/>
<polygon fill="black" stroke="black" points="191.24,-198.13 180.74,-196.67 188.03,-204.36 191.24,-198.13"/>
</g>
<!-- Gesture Detector Status -->
<g id="node5" class="node">
<title>Gesture Detector Status</title>
<ellipse fill="gray" stroke="black" cx="290.19" cy="-182" rx="74.46" ry="18"/>
<text text-anchor="middle" x="290.19" y="-179.8" font-family="Times,serif" font-size="9.00">Gesture Detector Status</text>
</g>
<!-- System State&#45;&gt;Gesture Detector Status -->
<g id="edge4" class="edge">
<title>System State&#45;&gt;Gesture Detector Status</title>
<path fill="none" stroke="black" d="M290.19,-235.7C290.19,-227.98 290.19,-218.71 290.19,-210.11"/>
<polygon fill="black" stroke="black" points="293.69,-210.1 290.19,-200.1 286.69,-210.1 293.69,-210.1"/>
</g>
<!-- Human Intent Detector Status -->
<g id="node6" class="node">
<title>Human Intent Detector Status</title>
<ellipse fill="gray" stroke="black" cx="473.19" cy="-182" rx="90.79" ry="18"/>
<text text-anchor="middle" x="473.19" y="-179.8" font-family="Times,serif" font-size="9.00">Human Intent Detector Status</text>
</g>
<!-- System State&#45;&gt;Human Intent Detector Status -->
<g id="edge5" class="edge">
<title>System State&#45;&gt;Human Intent Detector Status</title>
<path fill="none" stroke="black" d="M334.95,-235.88C361.84,-225.59 396.07,-212.5 423.75,-201.91"/>
<polygon fill="black" stroke="black" points="425.15,-205.12 433.24,-198.28 422.65,-198.58 425.15,-205.12"/>
</g>
<!-- Active? -->
<g id="node8" class="node">
<title>Active?</title>
<ellipse fill="gray" stroke="black" cx="611.19" cy="-182" rx="28.74" ry="18"/>
<text text-anchor="middle" x="611.19" y="-179.8" font-family="Times,serif" font-size="9.00">Active?</text>
</g>
<!-- Cap&#45;&gt;Active? -->
<g id="edge7" class="edge">
<title>Cap&#45;&gt;Active?</title>
<path fill="none" stroke="black" d="M689.75,-235.88C674.22,-225.43 654.38,-212.07 638.52,-201.39"/>
<polygon fill="black" stroke="black" points="640.42,-198.46 630.17,-195.78 636.51,-204.26 640.42,-198.46"/>
</g>
<!-- Go to Cap Position -->
<g id="node9" class="node">
<title>Go to Cap Position</title>
<polygon fill="orange" stroke="black" points="772.19,-200 658.19,-200 658.19,-164 772.19,-164 772.19,-200"/>
<text text-anchor="middle" x="715.19" y="-179.8" font-family="Times,serif" font-size="9.00">Ⓜ Go to Cap Position</text>
</g>
<!-- Cap&#45;&gt;Go to Cap Position -->
<g id="edge8" class="edge">
<title>Cap&#45;&gt;Go to Cap Position</title>
<path fill="none" stroke="black" d="M715.19,-235.7C715.19,-227.98 715.19,-218.71 715.19,-210.11"/>
<polygon fill="black" stroke="black" points="718.69,-210.1 715.19,-200.1 711.69,-210.1 718.69,-210.1"/>
</g>
<!-- Rotate Bottle -->
<g id="node13" class="node">
<title>Rotate Bottle</title>
<polygon fill="orange" stroke="black" points="1061.69,-200 972.69,-200 972.69,-164 1061.69,-164 1061.69,-200"/>
<text text-anchor="middle" x="1017.19" y="-179.8" font-family="Times,serif" font-size="9.00">Ⓜ Rotate Bottle</text>
</g>
<!-- Cap&#45;&gt;Rotate Bottle -->
<g id="edge12" class="edge">
<title>Cap&#45;&gt;Rotate Bottle</title>
<path fill="none" stroke="black" d="M742.25,-246.73C791.73,-235.26 897.63,-210.71 962.6,-195.65"/>
<polygon fill="black" stroke="black" points="963.71,-198.99 972.66,-193.32 962.13,-192.17 963.71,-198.99"/>
</g>
<!-- Finish Cap -->
<g id="node20" class="node">
<title>Finish Cap</title>
<polygon fill="orange" stroke="black" points="1495.19,-200 1417.19,-200 1417.19,-164 1495.19,-164 1495.19,-200"/>
<text text-anchor="middle" x="1456.19" y="-179.8" font-family="Times,serif" font-size="9.00">Ⓜ Finish Cap</text>
</g>
<!-- Cap&#45;&gt;Finish Cap -->
<g id="edge19" class="edge">
<title>Cap&#45;&gt;Finish Cap</title>
<path fill="none" stroke="black" d="M742.44,-250.43C852.36,-240.04 1264.03,-201.15 1406.94,-187.65"/>
<polygon fill="black" stroke="black" points="1407.53,-191.11 1417.16,-186.69 1406.87,-184.14 1407.53,-191.11"/>
</g>
<!-- Robot Stationary? -->
<g id="node10" class="node">
<title>Robot Stationary?</title>
<ellipse fill="gray" stroke="black" cx="469.19" cy="-100" rx="57.32" ry="18"/>
<text text-anchor="middle" x="469.19" y="-97.8" font-family="Times,serif" font-size="9.00">Robot Stationary?</text>
</g>
<!-- Go to Cap Position&#45;&gt;Robot Stationary? -->
<g id="edge9" class="edge">
<title>Go to Cap Position&#45;&gt;Robot Stationary?</title>
<path fill="none" stroke="black" d="M657.97,-165.76C622.35,-155.88 575.77,-142.23 535.19,-128 527.3,-125.23 518.98,-122.05 511,-118.85"/>
<polygon fill="black" stroke="black" points="512.08,-115.51 501.5,-114.99 509.44,-122 512.08,-115.51"/>
</g>
<!-- Send Cap Position -->
<g id="node11" class="node">
<title>Send Cap Position</title>
<ellipse fill="gray" stroke="black" cx="602.19" cy="-100" rx="58.13" ry="18"/>
<text text-anchor="middle" x="602.19" y="-97.8" font-family="Times,serif" font-size="9.00">Send Cap Position</text>
</g>
<!-- Go to Cap Position&#45;&gt;Send Cap Position -->
<g id="edge10" class="edge">
<title>Go to Cap Position&#45;&gt;Send Cap Position</title>
<path fill="none" stroke="black" d="M690.95,-163.84C674,-151.84 651.24,-135.73 633.01,-122.82"/>
<polygon fill="black" stroke="black" points="634.66,-119.7 624.47,-116.78 630.61,-125.41 634.66,-119.7"/>
</g>
<!-- Wait 1 sec -->
<g id="node12" class="node">
<title>Wait 1 sec</title>
<ellipse fill="gray" stroke="black" cx="715.19" cy="-100" rx="36.9" ry="18"/>
<text text-anchor="middle" x="715.19" y="-97.8" font-family="Times,serif" font-size="9.00">Wait 1 sec</text>
</g>
<!-- Go to Cap Position&#45;&gt;Wait 1 sec -->
<g id="edge11" class="edge">
<title>Go to Cap Position&#45;&gt;Wait 1 sec</title>
<path fill="none" stroke="black" d="M715.19,-163.64C715.19,-153.3 715.19,-139.94 715.19,-128.22"/>
<polygon fill="black" stroke="black" points="718.69,-128.05 715.19,-118.05 711.69,-128.05 718.69,-128.05"/>
</g>
<!-- Robot at Cap Position? -->
<g id="node14" class="node">
<title>Robot at Cap Position?</title>
<ellipse fill="gray" stroke="black" cx="840.19" cy="-100" rx="69.72" ry="18"/>
<text text-anchor="middle" x="840.19" y="-97.8" font-family="Times,serif" font-size="9.00">Robot at Cap Position?</text>
</g>
<!-- Rotate Bottle&#45;&gt;Robot at Cap Position? -->
<g id="edge13" class="edge">
<title>Rotate Bottle&#45;&gt;Robot at Cap Position?</title>
<path fill="none" stroke="black" d="M979.22,-163.84C950.8,-151 911.94,-133.43 882.52,-120.13"/>
<polygon fill="black" stroke="black" points="883.88,-116.91 873.33,-115.98 881,-123.29 883.88,-116.91"/>
</g>
<!-- Detectors -->
<g id="node15" class="node">
<title>Detectors</title>
<polygon fill="gold" stroke="black" points="1106.51,-128 964.42,-128 927.87,-72 1069.96,-72 1106.51,-128"/>
<text text-anchor="middle" x="1017.19" y="-102.8" font-family="Times,serif" font-size="9.00">Detectors</text>
<text text-anchor="middle" x="1017.19" y="-92.8" font-family="Times,serif" font-size="9.00">SuccessOnOne</text>
</g>
<!-- Rotate Bottle&#45;&gt;Detectors -->
<g id="edge14" class="edge">
<title>Rotate Bottle&#45;&gt;Detectors</title>
<path fill="none" stroke="black" d="M1017.19,-163.64C1017.19,-156.18 1017.19,-147.14 1017.19,-138.29"/>
<polygon fill="black" stroke="black" points="1020.69,-138.08 1017.19,-128.08 1013.69,-138.08 1020.69,-138.08"/>
</g>
<!-- Send Bottle Rotate Action -->
<g id="node18" class="node">
<title>Send Bottle Rotate Action</title>
<ellipse fill="gray" stroke="black" cx="1203.19" cy="-100" rx="79.19" ry="18"/>
<text text-anchor="middle" x="1203.19" y="-97.8" font-family="Times,serif" font-size="9.00">Send Bottle Rotate Action</text>
</g>
<!-- Rotate Bottle&#45;&gt;Send Bottle Rotate Action -->
<g id="edge17" class="edge">
<title>Rotate Bottle&#45;&gt;Send Bottle Rotate Action</title>
<path fill="none" stroke="black" d="M1057.09,-163.84C1086.88,-151.02 1127.61,-133.5 1158.5,-120.22"/>
<polygon fill="black" stroke="black" points="1159.94,-123.41 1167.75,-116.24 1157.18,-116.98 1159.94,-123.41"/>
</g>
<!-- Wait 1 sec* -->
<g id="node19" class="node">
<title>Wait 1 sec*</title>
<ellipse fill="gray" stroke="black" cx="1339.19" cy="-100" rx="39.02" ry="18"/>
<text text-anchor="middle" x="1339.19" y="-97.8" font-family="Times,serif" font-size="9.00">Wait 1 sec*</text>
</g>
<!-- Rotate Bottle&#45;&gt;Wait 1 sec* -->
<g id="edge18" class="edge">
<title>Rotate Bottle&#45;&gt;Wait 1 sec*</title>
<path fill="none" stroke="black" d="M1062.03,-176.79C1117.28,-170.6 1213.41,-156.54 1291.19,-128 1296.94,-125.89 1302.82,-123.14 1308.4,-120.22"/>
<polygon fill="black" stroke="black" points="1310.4,-123.11 1317.44,-115.19 1307,-116.99 1310.4,-123.11"/>
</g>
<!-- Human Requested Rotation? -->
<g id="node16" class="node">
<title>Human Requested Rotation?</title>
<ellipse fill="gray" stroke="black" cx="919.19" cy="-18" rx="85.4" ry="18"/>
<text text-anchor="middle" x="919.19" y="-15.8" font-family="Times,serif" font-size="9.00">Human Requested Rotation?</text>
</g>
<!-- Detectors&#45;&gt;Human Requested Rotation? -->
<g id="edge15" class="edge">
<title>Detectors&#45;&gt;Human Requested Rotation?</title>
<path fill="none" stroke="black" d="M984.01,-71.92C972.12,-62.21 958.85,-51.37 947.42,-42.05"/>
<polygon fill="black" stroke="black" points="949.43,-39.17 939.47,-35.56 945,-44.59 949.43,-39.17"/>
</g>
<!-- Gesture Cap Holded Detected? -->
<g id="node17" class="node">
<title>Gesture Cap Holded Detected?</title>
<ellipse fill="gray" stroke="black" cx="1115.19" cy="-18" rx="92.25" ry="18"/>
<text text-anchor="middle" x="1115.19" y="-15.8" font-family="Times,serif" font-size="9.00">Gesture Cap Holded Detected?</text>
</g>
<!-- Detectors&#45;&gt;Gesture Cap Holded Detected? -->
<g id="edge16" class="edge">
<title>Detectors&#45;&gt;Gesture Cap Holded Detected?</title>
<path fill="none" stroke="black" d="M1050.37,-71.92C1062.16,-62.29 1075.33,-51.54 1086.7,-42.26"/>
<polygon fill="black" stroke="black" points="1089.08,-44.83 1094.61,-35.79 1084.65,-39.41 1089.08,-44.83"/>
</g>
<!-- Robot Stationary?* -->
<g id="node21" class="node">
<title>Robot Stationary?*</title>
<ellipse fill="gray" stroke="black" cx="1456.19" cy="-100" rx="60.09" ry="18"/>
<text text-anchor="middle" x="1456.19" y="-97.8" font-family="Times,serif" font-size="9.00">Robot Stationary?*</text>
</g>
<!-- Finish Cap&#45;&gt;Robot Stationary?* -->
<g id="edge20" class="edge">
<title>Finish Cap&#45;&gt;Robot Stationary?*</title>
<path fill="none" stroke="black" d="M1456.19,-163.64C1456.19,-153.3 1456.19,-139.94 1456.19,-128.22"/>
<polygon fill="black" stroke="black" points="1459.69,-128.05 1456.19,-118.05 1452.69,-128.05 1459.69,-128.05"/>
</g>
<!-- Finish Cap* -->
<g id="node22" class="node">
<title>Finish Cap*</title>
<ellipse fill="gray" stroke="black" cx="1575.19" cy="-100" rx="40.98" ry="18"/>
<text text-anchor="middle" x="1575.19" y="-97.8" font-family="Times,serif" font-size="9.00">Finish Cap*</text>
</g>
<!-- Finish Cap&#45;&gt;Finish Cap* -->
<g id="edge21" class="edge">
<title>Finish Cap&#45;&gt;Finish Cap*</title>
<path fill="none" stroke="black" d="M1481.72,-163.84C1500.31,-151.34 1525.57,-134.36 1545.14,-121.2"/>
<polygon fill="black" stroke="black" points="1547.34,-123.94 1553.68,-115.46 1543.43,-118.13 1547.34,-123.94"/>
</g>
</g>
</svg>
