<?xml version="1.0" encoding="UTF-8" standalone="no"?>
<!DOCTYPE svg PUBLIC "-//W3C//DTD SVG 1.1//EN"
 "http://www.w3.org/Graphics/SVG/1.1/DTD/svg11.dtd">
<!-- Generated by graphviz version 2.43.0 (0)
 -->
<!-- Title: pastafarianism Pages: 1 -->
<svg width="1456pt" height="280pt"
 viewBox="0.00 0.00 1455.84 280.00" xmlns="http://www.w3.org/2000/svg" xmlns:xlink="http://www.w3.org/1999/xlink">
<g id="graph0" class="graph" transform="scale(1 1) rotate(0) translate(4 276)">
<title>pastafarianism</title>
<polygon fill="white" stroke="transparent" points="-4,4 -4,-276 1451.84,-276 1451.84,4 -4,4"/>
<!-- System Skill Pick -->
<g id="node1" class="node">
<title>System Skill Pick</title>
<polygon fill="gold" stroke="black" points="451.75,-272 295.09,-272 254.79,-216 411.45,-216 451.75,-272"/>
<text text-anchor="middle" x="353.27" y="-246.8" font-family="Times,serif" font-size="9.00">System Skill Pick</text>
<text text-anchor="middle" x="353.27" y="-236.8" font-family="Times,serif" font-size="9.00">SuccessOnAll</text>
</g>
<!-- System State -->
<g id="node2" class="node">
<title>System State</title>
<polygon fill="orange" stroke="black" points="282.77,-180 193.77,-180 193.77,-144 282.77,-144 282.77,-180"/>
<text text-anchor="middle" x="238.27" y="-159.8" font-family="Times,serif" font-size="9.00">Ⓜ System State</text>
</g>
<!-- System Skill Pick&#45;&gt;System State -->
<g id="edge1" class="edge">
<title>System Skill Pick&#45;&gt;System State</title>
<path fill="none" stroke="black" d="M314.34,-215.92C300.33,-206.17 284.68,-195.29 271.24,-185.93"/>
<polygon fill="black" stroke="black" points="272.96,-182.87 262.76,-180.03 268.97,-188.62 272.96,-182.87"/>
</g>
<!-- Pick -->
<g id="node6" class="node">
<title>Pick</title>
<polygon fill="orange" stroke="black" points="561.27,-180 507.27,-180 507.27,-144 561.27,-144 561.27,-180"/>
<text text-anchor="middle" x="534.27" y="-159.8" font-family="Times,serif" font-size="9.00">Ⓜ Pick</text>
</g>
<!-- System Skill Pick&#45;&gt;Pick -->
<g id="edge5" class="edge">
<title>System Skill Pick&#45;&gt;Pick</title>
<path fill="none" stroke="black" d="M412.54,-216.81C440.57,-204.41 473.16,-190.01 497.56,-179.22"/>
<polygon fill="black" stroke="black" points="499.09,-182.38 506.82,-175.13 496.26,-175.98 499.09,-182.38"/>
</g>
<!-- Report Status -->
<g id="node3" class="node">
<title>Report Status</title>
<ellipse fill="gray" stroke="black" cx="64.27" cy="-90" rx="46.38" ry="18"/>
<text text-anchor="middle" x="64.27" y="-87.8" font-family="Times,serif" font-size="9.00">Report Status</text>
</g>
<!-- System State&#45;&gt;Report Status -->
<g id="edge2" class="edge">
<title>System State&#45;&gt;Report Status</title>
<path fill="none" stroke="black" d="M195.71,-143.88C168.02,-132.74 132.12,-118.3 104.84,-107.32"/>
<polygon fill="black" stroke="black" points="105.79,-103.93 95.21,-103.45 103.18,-110.43 105.79,-103.93"/>
</g>
<!-- Robot Status -->
<g id="node4" class="node">
<title>Robot Status</title>
<ellipse fill="gray" stroke="black" cx="172.27" cy="-90" rx="43.76" ry="18"/>
<text text-anchor="middle" x="172.27" y="-87.8" font-family="Times,serif" font-size="9.00">Robot Status</text>
</g>
<!-- System State&#45;&gt;Robot Status -->
<g id="edge3" class="edge">
<title>System State&#45;&gt;Robot Status</title>
<path fill="none" stroke="black" d="M221.96,-143.7C213.64,-134.88 203.41,-124.03 194.4,-114.47"/>
<polygon fill="black" stroke="black" points="196.9,-112.02 187.49,-107.14 191.81,-116.82 196.9,-112.02"/>
</g>
<!-- Bottle Detector Status -->
<g id="node5" class="node">
<title>Bottle Detector Status</title>
<ellipse fill="gray" stroke="black" cx="303.27" cy="-90" rx="69.06" ry="18"/>
<text text-anchor="middle" x="303.27" y="-87.8" font-family="Times,serif" font-size="9.00">Bottle Detector Status</text>
</g>
<!-- System State&#45;&gt;Bottle Detector Status -->
<g id="edge4" class="edge">
<title>System State&#45;&gt;Bottle Detector Status</title>
<path fill="none" stroke="black" d="M254.34,-143.7C262.33,-135.09 272.11,-124.55 280.83,-115.17"/>
<polygon fill="black" stroke="black" points="283.6,-117.33 287.84,-107.62 278.47,-112.57 283.6,-117.33"/>
</g>
<!-- Active? -->
<g id="node7" class="node">
<title>Active?</title>
<ellipse fill="gray" stroke="black" cx="419.27" cy="-90" rx="28.74" ry="18"/>
<text text-anchor="middle" x="419.27" y="-87.8" font-family="Times,serif" font-size="9.00">Active?</text>
</g>
<!-- Pick&#45;&gt;Active? -->
<g id="edge6" class="edge">
<title>Pick&#45;&gt;Active?</title>
<path fill="none" stroke="black" d="M507.02,-144.41C489.26,-133.6 466.12,-119.51 448.06,-108.52"/>
<polygon fill="black" stroke="black" points="449.49,-105.3 439.13,-103.09 445.85,-111.28 449.49,-105.3"/>
</g>
<!-- Move to Grasp Position -->
<g id="node8" class="node">
<title>Move to Grasp Position</title>
<polygon fill="orange" stroke="black" points="602.27,-108 466.27,-108 466.27,-72 602.27,-72 602.27,-108"/>
<text text-anchor="middle" x="534.27" y="-87.8" font-family="Times,serif" font-size="9.00">Ⓜ Move to Grasp Position</text>
</g>
<!-- Pick&#45;&gt;Move to Grasp Position -->
<g id="edge7" class="edge">
<title>Pick&#45;&gt;Move to Grasp Position</title>
<path fill="none" stroke="black" d="M534.27,-143.7C534.27,-135.98 534.27,-126.71 534.27,-118.11"/>
<polygon fill="black" stroke="black" points="537.77,-118.1 534.27,-108.1 530.77,-118.1 537.77,-118.1"/>
</g>
<!-- Grasp -->
<g id="node16" class="node">
<title>Grasp</title>
<polygon fill="orange" stroke="black" points="1028.27,-108 972.27,-108 972.27,-72 1028.27,-72 1028.27,-108"/>
<text text-anchor="middle" x="1000.27" y="-87.8" font-family="Times,serif" font-size="9.00">Ⓜ Grasp</text>
</g>
<!-- Pick&#45;&gt;Grasp -->
<g id="edge15" class="edge">
<title>Pick&#45;&gt;Grasp</title>
<path fill="none" stroke="black" d="M561.34,-156.93C640.36,-145.06 870.92,-110.43 962.32,-96.7"/>
<polygon fill="black" stroke="black" points="962.88,-100.16 972.25,-95.21 961.84,-93.23 962.88,-100.16"/>
</g>
<!-- Finish Pick -->
<g id="node20" class="node">
<title>Finish Pick</title>
<polygon fill="orange" stroke="black" points="1332.27,-108 1252.27,-108 1252.27,-72 1332.27,-72 1332.27,-108"/>
<text text-anchor="middle" x="1292.27" y="-87.8" font-family="Times,serif" font-size="9.00">Ⓜ Finish Pick</text>
</g>
<!-- Pick&#45;&gt;Finish Pick -->
<g id="edge19" class="edge">
<title>Pick&#45;&gt;Finish Pick</title>
<path fill="none" stroke="black" d="M561.7,-158.47C673.54,-148.14 1096.15,-109.11 1242.23,-95.62"/>
<polygon fill="black" stroke="black" points="1242.63,-99.1 1252.26,-94.69 1241.98,-92.13 1242.63,-99.1"/>
</g>
<!-- Bottle Detected? -->
<g id="node9" class="node">
<title>Bottle Detected?</title>
<ellipse fill="gray" stroke="black" cx="54.27" cy="-18" rx="54.04" ry="18"/>
<text text-anchor="middle" x="54.27" y="-15.8" font-family="Times,serif" font-size="9.00">Bottle Detected?</text>
</g>
<!-- Move to Grasp Position&#45;&gt;Bottle Detected? -->
<g id="edge8" class="edge">
<title>Move to Grasp Position&#45;&gt;Bottle Detected?</title>
<path fill="none" stroke="black" d="M465.91,-73.49C463,-72.96 460.11,-72.46 457.27,-72 307.29,-47.58 266.65,-63.88 117.27,-36 112.64,-35.14 107.86,-34.1 103.09,-32.98"/>
<polygon fill="black" stroke="black" points="103.92,-29.58 93.37,-30.58 102.24,-36.38 103.92,-29.58"/>
</g>
<!-- Robot Stationary? -->
<g id="node10" class="node">
<title>Robot Stationary?</title>
<ellipse fill="gray" stroke="black" cx="183.27" cy="-18" rx="57.32" ry="18"/>
<text text-anchor="middle" x="183.27" y="-15.8" font-family="Times,serif" font-size="9.00">Robot Stationary?</text>
</g>
<!-- Move to Grasp Position&#45;&gt;Robot Stationary? -->
<g id="edge9" class="edge">
<title>Move to Grasp Position&#45;&gt;Robot Stationary?</title>
<path fill="none" stroke="black" d="M465.87,-73.73C462.97,-73.13 460.09,-72.56 457.27,-72 365.22,-53.88 340.99,-55.72 249.27,-36 244.6,-35 239.76,-33.89 234.92,-32.73"/>
<polygon fill="black" stroke="black" points="235.59,-29.29 225.05,-30.3 233.92,-36.09 235.59,-29.29"/>
</g>
<!-- Release Gripper -->
<g id="node11" class="node">
<title>Release Gripper</title>
<ellipse fill="gray" stroke="black" cx="311.27" cy="-18" rx="53.23" ry="18"/>
<text text-anchor="middle" x="311.27" y="-15.8" font-family="Times,serif" font-size="9.00">Release Gripper</text>
</g>
<!-- Move to Grasp Position&#45;&gt;Release Gripper -->
<g id="edge10" class="edge">
<title>Move to Grasp Position&#45;&gt;Release Gripper</title>
<path fill="none" stroke="black" d="M480,-71.97C442.88,-60.31 394.15,-45.02 358.61,-33.86"/>
<polygon fill="black" stroke="black" points="359.54,-30.48 348.95,-30.83 357.44,-37.16 359.54,-30.48"/>
</g>
<!-- Wait 1 sec -->
<g id="node12" class="node">
<title>Wait 1 sec</title>
<ellipse fill="gray" stroke="black" cx="419.27" cy="-18" rx="36.9" ry="18"/>
<text text-anchor="middle" x="419.27" y="-15.8" font-family="Times,serif" font-size="9.00">Wait 1 sec</text>
</g>
<!-- Move to Grasp Position&#45;&gt;Wait 1 sec -->
<g id="edge11" class="edge">
<title>Move to Grasp Position&#45;&gt;Wait 1 sec</title>
<path fill="none" stroke="black" d="M506.14,-71.88C489.15,-61.54 467.49,-48.35 450.05,-37.73"/>
<polygon fill="black" stroke="black" points="451.72,-34.65 441.36,-32.44 448.08,-40.63 451.72,-34.65"/>
</g>
<!-- Robot Stationary?* -->
<g id="node13" class="node">
<title>Robot Stationary?*</title>
<ellipse fill="gray" stroke="black" cx="534.27" cy="-18" rx="60.09" ry="18"/>
<text text-anchor="middle" x="534.27" y="-15.8" font-family="Times,serif" font-size="9.00">Robot Stationary?*</text>
</g>
<!-- Move to Grasp Position&#45;&gt;Robot Stationary?* -->
<g id="edge12" class="edge">
<title>Move to Grasp Position&#45;&gt;Robot Stationary?*</title>
<path fill="none" stroke="black" d="M534.27,-71.7C534.27,-63.98 534.27,-54.71 534.27,-46.11"/>
<polygon fill="black" stroke="black" points="537.77,-46.1 534.27,-36.1 530.77,-46.1 537.77,-46.1"/>
</g>
<!-- Send Grasp Position -->
<g id="node14" class="node">
<title>Send Grasp Position</title>
<ellipse fill="gray" stroke="black" cx="676.27" cy="-18" rx="63.52" ry="18"/>
<text text-anchor="middle" x="676.27" y="-15.8" font-family="Times,serif" font-size="9.00">Send Grasp Position</text>
</g>
<!-- Move to Grasp Position&#45;&gt;Send Grasp Position -->
<g id="edge13" class="edge">
<title>Move to Grasp Position&#45;&gt;Send Grasp Position</title>
<path fill="none" stroke="black" d="M569.01,-71.88C589.46,-61.79 615.41,-49 636.66,-38.53"/>
<polygon fill="black" stroke="black" points="638.33,-41.61 645.75,-34.05 635.23,-35.33 638.33,-41.61"/>
</g>
<!-- Wait 1 sec* -->
<g id="node15" class="node">
<title>Wait 1 sec*</title>
<ellipse fill="gray" stroke="black" cx="797.27" cy="-18" rx="39.02" ry="18"/>
<text text-anchor="middle" x="797.27" y="-15.8" font-family="Times,serif" font-size="9.00">Wait 1 sec*</text>
</g>
<!-- Move to Grasp Position&#45;&gt;Wait 1 sec* -->
<g id="edge14" class="edge">
<title>Move to Grasp Position&#45;&gt;Wait 1 sec*</title>
<path fill="none" stroke="black" d="M602.52,-73.99C645.02,-64.2 700.66,-50.56 749.27,-36 752.18,-35.13 755.18,-34.18 758.18,-33.2"/>
<polygon fill="black" stroke="black" points="759.37,-36.5 767.72,-29.98 757.13,-29.86 759.37,-36.5"/>
</g>
<!-- Robot At Grasp Position? -->
<g id="node17" class="node">
<title>Robot At Grasp Position?</title>
<ellipse fill="gray" stroke="black" cx="930.27" cy="-18" rx="75.77" ry="18"/>
<text text-anchor="middle" x="930.27" y="-15.8" font-family="Times,serif" font-size="9.00">Robot At Grasp Position?</text>
</g>
<!-- Grasp&#45;&gt;Robot At Grasp Position? -->
<g id="edge16" class="edge">
<title>Grasp&#45;&gt;Robot At Grasp Position?</title>
<path fill="none" stroke="black" d="M982.97,-71.7C974.28,-63.01 963.61,-52.34 954.16,-42.89"/>
<polygon fill="black" stroke="black" points="956.44,-40.22 946.89,-35.62 951.49,-45.17 956.44,-40.22"/>
</g>
<!-- Close Gripper -->
<g id="node18" class="node">
<title>Close Gripper</title>
<ellipse fill="gray" stroke="black" cx="1070.27" cy="-18" rx="46.53" ry="18"/>
<text text-anchor="middle" x="1070.27" y="-15.8" font-family="Times,serif" font-size="9.00">Close Gripper</text>
</g>
<!-- Grasp&#45;&gt;Close Gripper -->
<g id="edge17" class="edge">
<title>Grasp&#45;&gt;Close Gripper</title>
<path fill="none" stroke="black" d="M1017.57,-71.7C1026.39,-62.88 1037.24,-52.03 1046.8,-42.47"/>
<polygon fill="black" stroke="black" points="1049.53,-44.69 1054.13,-35.14 1044.58,-39.74 1049.53,-44.69"/>
</g>
<!-- Wait 1 sec** -->
<g id="node19" class="node">
<title>Wait 1 sec**</title>
<ellipse fill="gray" stroke="black" cx="1177.27" cy="-18" rx="42.29" ry="18"/>
<text text-anchor="middle" x="1177.27" y="-15.8" font-family="Times,serif" font-size="9.00">Wait 1 sec**</text>
</g>
<!-- Grasp&#45;&gt;Wait 1 sec** -->
<g id="edge18" class="edge">
<title>Grasp&#45;&gt;Wait 1 sec**</title>
<path fill="none" stroke="black" d="M1028.32,-77.91C1057.86,-66.22 1104.62,-47.73 1137.87,-34.58"/>
<polygon fill="black" stroke="black" points="1139.27,-37.79 1147.29,-30.86 1136.7,-31.28 1139.27,-37.79"/>
</g>
<!-- Robot Stationary -->
<g id="node21" class="node">
<title>Robot Stationary</title>
<ellipse fill="gray" stroke="black" cx="1292.27" cy="-18" rx="54.7" ry="18"/>
<text text-anchor="middle" x="1292.27" y="-15.8" font-family="Times,serif" font-size="9.00">Robot Stationary</text>
</g>
<!-- Finish Pick&#45;&gt;Robot Stationary -->
<g id="edge20" class="edge">
<title>Finish Pick&#45;&gt;Robot Stationary</title>
<path fill="none" stroke="black" d="M1292.27,-71.7C1292.27,-63.98 1292.27,-54.71 1292.27,-46.11"/>
<polygon fill="black" stroke="black" points="1295.77,-46.1 1292.27,-36.1 1288.77,-46.1 1295.77,-46.1"/>
</g>
<!-- Finish Pick* -->
<g id="node22" class="node">
<title>Finish Pick*</title>
<ellipse fill="gray" stroke="black" cx="1406.27" cy="-18" rx="41.64" ry="18"/>
<text text-anchor="middle" x="1406.27" y="-15.8" font-family="Times,serif" font-size="9.00">Finish Pick*</text>
</g>
<!-- Finish Pick&#45;&gt;Finish Pick* -->
<g id="edge21" class="edge">
<title>Finish Pick&#45;&gt;Finish Pick*</title>
<path fill="none" stroke="black" d="M1320.16,-71.88C1336.66,-61.74 1357.61,-48.88 1374.72,-38.37"/>
<polygon fill="black" stroke="black" points="1376.58,-41.34 1383.27,-33.12 1372.92,-35.37 1376.58,-41.34"/>
</g>
</g>
</svg>
