<?xml version="1.0" encoding="UTF-8" standalone="no"?>
<!DOCTYPE svg PUBLIC "-//W3C//DTD SVG 1.1//EN"
 "http://www.w3.org/Graphics/SVG/1.1/DTD/svg11.dtd">
<!-- Generated by graphviz version 2.43.0 (0)
 -->
<!-- Title: pastafarianism Pages: 1 -->
<svg width="2120pt" height="352pt"
 viewBox="0.00 0.00 2120.40 352.00" xmlns="http://www.w3.org/2000/svg" xmlns:xlink="http://www.w3.org/1999/xlink">
<g id="graph0" class="graph" transform="scale(1 1) rotate(0) translate(4 348)">
<title>pastafarianism</title>
<polygon fill="white" stroke="transparent" points="-4,4 -4,-348 2116.4,-348 2116.4,4 -4,4"/>
<!-- System Skill Pick -->
<g id="node1" class="node">
<title>System Skill Pick</title>
<polygon fill="gold" stroke="black" points="529.88,-344 373.22,-344 332.91,-288 489.58,-288 529.88,-344"/>
<text text-anchor="middle" x="431.4" y="-318.8" font-family="Times,serif" font-size="9.00">System Skill Pick</text>
<text text-anchor="middle" x="431.4" y="-308.8" font-family="Times,serif" font-size="9.00">SuccessOnAll</text>
</g>
<!-- System State -->
<g id="node2" class="node">
<title>System State</title>
<polygon fill="orange" stroke="black" points="226.9,-108 137.9,-108 137.9,-72 226.9,-72 226.9,-108"/>
<text text-anchor="middle" x="182.4" y="-87.8" font-family="Times,serif" font-size="9.00">Ⓜ System State</text>
</g>
<!-- System Skill Pick&#45;&gt;System State -->
<g id="edge1" class="edge">
<title>System Skill Pick&#45;&gt;System State</title>
<path fill="none" stroke="black" d="M401.36,-287.98C352.33,-243.87 255.88,-157.1 209.1,-115.02"/>
<polygon fill="black" stroke="black" points="211.27,-112.27 201.5,-108.18 206.59,-117.47 211.27,-112.27"/>
</g>
<!-- Pick -->
<g id="node6" class="node">
<title>Pick</title>
<polygon fill="orange" stroke="black" points="666.4,-252 612.4,-252 612.4,-216 666.4,-216 666.4,-252"/>
<text text-anchor="middle" x="639.4" y="-231.8" font-family="Times,serif" font-size="9.00">Ⓜ Pick</text>
</g>
<!-- System Skill Pick&#45;&gt;Pick -->
<g id="edge5" class="edge">
<title>System Skill Pick&#45;&gt;Pick</title>
<path fill="none" stroke="black" d="M492.4,-291.54C528.2,-277.77 572.26,-260.82 602.75,-249.09"/>
<polygon fill="black" stroke="black" points="604.07,-252.34 612.15,-245.48 601.56,-245.8 604.07,-252.34"/>
</g>
<!-- Report Status -->
<g id="node3" class="node">
<title>Report Status</title>
<ellipse fill="gray" stroke="blue" cx="37.4" cy="-18" rx="37.29" ry="18"/>
<text text-anchor="middle" x="37.4" y="-16.4" font-family="Times,serif" font-size="7.00" fill="blue">Report Status</text>
</g>
<!-- System State&#45;&gt;Report Status -->
<g id="edge2" class="edge">
<title>System State&#45;&gt;Report Status</title>
<path fill="none" stroke="black" d="M146.93,-71.88C124.18,-60.9 94.8,-46.71 72.19,-35.8"/>
<polygon fill="black" stroke="black" points="73.48,-32.53 62.95,-31.34 70.44,-38.84 73.48,-32.53"/>
</g>
<!-- Robot Status -->
<g id="node4" class="node">
<title>Robot Status</title>
<ellipse fill="gray" stroke="blue" cx="128.4" cy="-18" rx="35.95" ry="18"/>
<text text-anchor="middle" x="128.4" y="-16.4" font-family="Times,serif" font-size="7.00" fill="blue">Robot Status</text>
</g>
<!-- System State&#45;&gt;Robot Status -->
<g id="edge3" class="edge">
<title>System State&#45;&gt;Robot Status</title>
<path fill="none" stroke="black" d="M169.05,-71.7C162.45,-63.14 154.37,-52.67 147.16,-43.33"/>
<polygon fill="black" stroke="black" points="149.73,-40.92 140.85,-35.14 144.19,-45.2 149.73,-40.92"/>
</g>
<!-- Bottle Detector Status -->
<g id="node5" class="node">
<title>Bottle Detector Status</title>
<ellipse fill="gray" stroke="blue" cx="236.4" cy="-18" rx="54.9" ry="18"/>
<text text-anchor="middle" x="236.4" y="-16.4" font-family="Times,serif" font-size="7.00" fill="blue">Bottle Detector Status</text>
</g>
<!-- System State&#45;&gt;Bottle Detector Status -->
<g id="edge4" class="edge">
<title>System State&#45;&gt;Bottle Detector Status</title>
<path fill="none" stroke="black" d="M195.74,-71.7C202.25,-63.27 210.19,-52.97 217.32,-43.73"/>
<polygon fill="black" stroke="black" points="220.24,-45.68 223.57,-35.62 214.69,-41.4 220.24,-45.68"/>
</g>
<!-- /robot_pose -->
<g id="node23" class="node">
<title>/robot_pose</title>
<polygon fill="white" stroke="blue" points="1788.4,-26.5 1660.4,-26.5 1660.4,-9.5 1788.4,-9.5 1788.4,-26.5"/>
<text text-anchor="middle" x="1724.4" y="-16.1" font-family="Times,serif" font-size="8.00" fill="blue">/robot_pose: {&#39;x&#39;: 0, &#39;y&#39;: 0, ...</text>
</g>
<!-- Robot Status&#45;&gt;/robot_pose -->
<g id="edge26" class="edge">
<title>Robot Status&#45;&gt;/robot_pose</title>
<path fill="none" stroke="blue" d="M146.1,-33.99C155.78,-41.65 168.43,-50.01 181.4,-54 258.98,-77.86 1562.96,-70.67 1642.4,-54 1663.06,-49.66 1684.88,-39.8 1700.81,-31.49"/>
<polygon fill="blue" stroke="blue" points="1702.77,-34.41 1709.91,-26.58 1699.44,-28.25 1702.77,-34.41"/>
</g>
<!-- /robot_gripper -->
<g id="node25" class="node">
<title>/robot_gripper</title>
<polygon fill="white" stroke="blue" points="1953.9,-26.5 1806.9,-26.5 1806.9,-9.5 1953.9,-9.5 1953.9,-26.5"/>
<text text-anchor="middle" x="1880.4" y="-16.1" font-family="Times,serif" font-size="8.00" fill="blue">/robot_gripper: {&#39;rotation&#39;: 0.0,...</text>
</g>
<!-- Robot Status&#45;&gt;/robot_gripper -->
<g id="edge34" class="edge">
<title>Robot Status&#45;&gt;/robot_gripper</title>
<path fill="none" stroke="blue" d="M146.1,-33.99C155.78,-41.65 168.43,-50.01 181.4,-54 266.73,-80.24 1700.67,-70.55 1788.4,-54 1811.72,-49.6 1836.71,-39.44 1854.75,-31.03"/>
<polygon fill="blue" stroke="blue" points="1856.5,-34.07 1864,-26.59 1853.47,-27.76 1856.5,-34.07"/>
</g>
<!-- /robot_status -->
<g id="node27" class="node">
<title>/robot_status</title>
<polygon fill="white" stroke="blue" points="2112.4,-26.5 1972.4,-26.5 1972.4,-9.5 2112.4,-9.5 2112.4,-26.5"/>
<text text-anchor="middle" x="2042.4" y="-16.1" font-family="Times,serif" font-size="8.00" fill="blue">/robot_status: {&#39;status&#39;: &#39;busy&#39;}</text>
</g>
<!-- Robot Status&#45;&gt;/robot_status -->
<g id="edge42" class="edge">
<title>Robot Status&#45;&gt;/robot_status</title>
<path fill="none" stroke="blue" d="M146.1,-33.99C155.78,-41.65 168.43,-50.01 181.4,-54 228.47,-68.48 1906.07,-63.5 1954.4,-54 1976.6,-49.63 2000.26,-39.62 2017.45,-31.26"/>
<polygon fill="blue" stroke="blue" points="2019.4,-34.2 2026.76,-26.58 2016.25,-27.94 2019.4,-34.2"/>
</g>
<!-- /detected_bottle -->
<g id="node24" class="node">
<title>/detected_bottle</title>
<polygon fill="white" stroke="blue" points="1641.9,-26.5 1492.9,-26.5 1492.9,-9.5 1641.9,-9.5 1641.9,-26.5"/>
<text text-anchor="middle" x="1567.4" y="-16.1" font-family="Times,serif" font-size="8.00" fill="blue">/detected_bottle: {&#39;found&#39;: False}</text>
</g>
<!-- Bottle Detector Status&#45;&gt;/detected_bottle -->
<g id="edge29" class="edge">
<title>Bottle Detector Status&#45;&gt;/detected_bottle</title>
<path fill="none" stroke="blue" d="M261.66,-34.05C275.24,-41.73 292.61,-50.09 309.4,-54 372.48,-68.71 1411.74,-66.01 1475.4,-54 1498.72,-49.6 1523.71,-39.44 1541.75,-31.03"/>
<polygon fill="blue" stroke="blue" points="1543.5,-34.07 1551,-26.59 1540.47,-27.76 1543.5,-34.07"/>
</g>
<!-- Active? -->
<g id="node7" class="node">
<title>Active?</title>
<ellipse fill="gray" stroke="blue" cx="336.4" cy="-18" rx="27" ry="18"/>
<text text-anchor="middle" x="336.4" y="-16.4" font-family="Times,serif" font-size="7.00" fill="blue">Active?</text>
</g>
<!-- Pick&#45;&gt;Active? -->
<g id="edge6" class="edge">
<title>Pick&#45;&gt;Active?</title>
<path fill="none" stroke="black" d="M612.31,-218.8C571.86,-197.12 493.95,-153.46 433.4,-108 405.6,-87.14 376.61,-59.66 357.64,-40.79"/>
<polygon fill="black" stroke="black" points="359.94,-38.13 350.4,-33.51 354.98,-43.07 359.94,-38.13"/>
</g>
<!-- Move to Grasp Position -->
<g id="node8" class="node">
<title>Move to Grasp Position</title>
<polygon fill="orange" stroke="black" points="707.4,-180 571.4,-180 571.4,-144 707.4,-144 707.4,-180"/>
<text text-anchor="middle" x="639.4" y="-159.8" font-family="Times,serif" font-size="9.00">Ⓜ Move to Grasp Position</text>
</g>
<!-- Pick&#45;&gt;Move to Grasp Position -->
<g id="edge7" class="edge">
<title>Pick&#45;&gt;Move to Grasp Position</title>
<path fill="none" stroke="black" d="M639.4,-215.7C639.4,-207.98 639.4,-198.71 639.4,-190.11"/>
<polygon fill="black" stroke="black" points="642.9,-190.1 639.4,-180.1 635.9,-190.1 642.9,-190.1"/>
</g>
<!-- Grasp -->
<g id="node16" class="node">
<title>Grasp</title>
<polygon fill="orange" stroke="black" points="1041.4,-180 985.4,-180 985.4,-144 1041.4,-144 1041.4,-180"/>
<text text-anchor="middle" x="1013.4" y="-159.8" font-family="Times,serif" font-size="9.00">Ⓜ Grasp</text>
</g>
<!-- Pick&#45;&gt;Grasp -->
<g id="edge15" class="edge">
<title>Pick&#45;&gt;Grasp</title>
<path fill="none" stroke="black" d="M666.59,-227.91C732.26,-215.62 899.59,-184.3 975.24,-170.14"/>
<polygon fill="black" stroke="black" points="976.1,-173.54 985.29,-168.26 974.81,-166.66 976.1,-173.54"/>
</g>
<!-- Finish Pick -->
<g id="node20" class="node">
<title>Finish Pick</title>
<ellipse fill="gray" stroke="blue" cx="1263.4" cy="-18" rx="31.02" ry="18"/>
<text text-anchor="middle" x="1263.4" y="-16.4" font-family="Times,serif" font-size="7.00" fill="blue">Finish Pick</text>
</g>
<!-- Pick&#45;&gt;Finish Pick -->
<g id="edge19" class="edge">
<title>Pick&#45;&gt;Finish Pick</title>
<path fill="none" stroke="black" d="M666.89,-232.26C733.79,-229.85 909.9,-219.9 1050.4,-180 1125.02,-158.81 1151.35,-159.46 1209.4,-108 1228.95,-90.67 1243.64,-64.53 1252.72,-45.05"/>
<polygon fill="black" stroke="black" points="1255.96,-46.39 1256.84,-35.83 1249.57,-43.53 1255.96,-46.39"/>
</g>
<!-- Bottle Detected? -->
<g id="node9" class="node">
<title>Bottle Detected?</title>
<ellipse fill="gray" stroke="blue" cx="425.4" cy="-18" rx="43.57" ry="18"/>
<text text-anchor="middle" x="425.4" y="-16.4" font-family="Times,serif" font-size="7.00" fill="blue">Bottle Detected?</text>
</g>
<!-- Move to Grasp Position&#45;&gt;Bottle Detected? -->
<g id="edge8" class="edge">
<title>Move to Grasp Position&#45;&gt;Bottle Detected?</title>
<path fill="none" stroke="black" d="M571.05,-155.51C533.96,-149.24 489.66,-135.97 459.4,-108 442,-91.92 433.42,-65.96 429.25,-46.22"/>
<polygon fill="black" stroke="black" points="432.67,-45.47 427.4,-36.28 425.78,-46.75 432.67,-45.47"/>
</g>
<!-- Robot Stationary? -->
<g id="node10" class="node">
<title>Robot Stationary?</title>
<ellipse fill="gray" stroke="blue" cx="532.4" cy="-18" rx="45.54" ry="18"/>
<text text-anchor="middle" x="532.4" y="-16.4" font-family="Times,serif" font-size="7.00" fill="blue">Robot Stationary?</text>
</g>
<!-- Move to Grasp Position&#45;&gt;Robot Stationary? -->
<g id="edge9" class="edge">
<title>Move to Grasp Position&#45;&gt;Robot Stationary?</title>
<path fill="none" stroke="black" d="M571.12,-158.28C534.68,-152.92 492.66,-139.63 469.4,-108 459.91,-95.11 462.64,-86.51 469.4,-72 475.61,-58.65 487.02,-47.47 498.44,-38.86"/>
<polygon fill="black" stroke="black" points="500.52,-41.68 506.69,-33.06 496.5,-35.95 500.52,-41.68"/>
</g>
<!-- Release Gripper -->
<g id="node11" class="node">
<title>Release Gripper</title>
<ellipse fill="gray" stroke="black" cx="531.4" cy="-90" rx="53.23" ry="18"/>
<text text-anchor="middle" x="531.4" y="-87.8" font-family="Times,serif" font-size="9.00">Release Gripper</text>
</g>
<!-- Move to Grasp Position&#45;&gt;Release Gripper -->
<g id="edge10" class="edge">
<title>Move to Grasp Position&#45;&gt;Release Gripper</title>
<path fill="none" stroke="black" d="M612.98,-143.88C598.01,-134.18 579.19,-121.97 563.39,-111.74"/>
<polygon fill="black" stroke="black" points="565.27,-108.78 554.97,-106.28 561.46,-114.66 565.27,-108.78"/>
</g>
<!-- Wait 1 sec -->
<g id="node12" class="node">
<title>Wait 1 sec</title>
<ellipse fill="gray" stroke="black" cx="639.4" cy="-90" rx="36.9" ry="18"/>
<text text-anchor="middle" x="639.4" y="-87.8" font-family="Times,serif" font-size="9.00">Wait 1 sec</text>
</g>
<!-- Move to Grasp Position&#45;&gt;Wait 1 sec -->
<g id="edge11" class="edge">
<title>Move to Grasp Position&#45;&gt;Wait 1 sec</title>
<path fill="none" stroke="black" d="M639.4,-143.7C639.4,-135.98 639.4,-126.71 639.4,-118.11"/>
<polygon fill="black" stroke="black" points="642.9,-118.1 639.4,-108.1 635.9,-118.1 642.9,-118.1"/>
</g>
<!-- Robot Stationary?* -->
<g id="node13" class="node">
<title>Robot Stationary?*</title>
<ellipse fill="gray" stroke="black" cx="754.4" cy="-90" rx="60.09" ry="18"/>
<text text-anchor="middle" x="754.4" y="-87.8" font-family="Times,serif" font-size="9.00">Robot Stationary?*</text>
</g>
<!-- Move to Grasp Position&#45;&gt;Robot Stationary?* -->
<g id="edge12" class="edge">
<title>Move to Grasp Position&#45;&gt;Robot Stationary?*</title>
<path fill="none" stroke="black" d="M667.53,-143.88C683.35,-134.25 703.23,-122.15 719.97,-111.95"/>
<polygon fill="black" stroke="black" points="722.19,-114.7 728.91,-106.51 718.55,-108.72 722.19,-114.7"/>
</g>
<!-- Send Grasp Position -->
<g id="node14" class="node">
<title>Send Grasp Position</title>
<ellipse fill="gray" stroke="blue" cx="842.4" cy="-18" rx="49.85" ry="18"/>
<text text-anchor="middle" x="842.4" y="-16.4" font-family="Times,serif" font-size="7.00" fill="blue">Send Grasp Position</text>
</g>
<!-- Move to Grasp Position&#45;&gt;Send Grasp Position -->
<g id="edge13" class="edge">
<title>Move to Grasp Position&#45;&gt;Send Grasp Position</title>
<path fill="none" stroke="black" d="M707.82,-158.09C746.94,-152.78 793.93,-139.61 823.4,-108 838.76,-91.52 842.9,-65.79 843.56,-46.22"/>
<polygon fill="black" stroke="black" points="847.06,-46.1 843.61,-36.08 840.06,-46.06 847.06,-46.1"/>
</g>
<!-- Wait 1 sec* -->
<g id="node15" class="node">
<title>Wait 1 sec*</title>
<ellipse fill="gray" stroke="black" cx="909.4" cy="-90" rx="39.02" ry="18"/>
<text text-anchor="middle" x="909.4" y="-87.8" font-family="Times,serif" font-size="9.00">Wait 1 sec*</text>
</g>
<!-- Move to Grasp Position&#45;&gt;Wait 1 sec* -->
<g id="edge14" class="edge">
<title>Move to Grasp Position&#45;&gt;Wait 1 sec*</title>
<path fill="none" stroke="black" d="M707.65,-145.64C750.55,-135.66 806.94,-121.95 856.4,-108 860.48,-106.85 864.72,-105.59 868.94,-104.3"/>
<polygon fill="black" stroke="black" points="870.18,-107.58 878.68,-101.26 868.09,-100.9 870.18,-107.58"/>
</g>
<!-- Robot At Grasp Position? -->
<g id="node17" class="node">
<title>Robot At Grasp Position?</title>
<ellipse fill="gray" stroke="blue" cx="976.4" cy="-18" rx="59.95" ry="18"/>
<text text-anchor="middle" x="976.4" y="-16.4" font-family="Times,serif" font-size="7.00" fill="blue">Robot At Grasp Position?</text>
</g>
<!-- Grasp&#45;&gt;Robot At Grasp Position? -->
<g id="edge16" class="edge">
<title>Grasp&#45;&gt;Robot At Grasp Position?</title>
<path fill="none" stroke="black" d="M1007.05,-143.97C1003.34,-133.66 998.75,-120.18 995.4,-108 989.77,-87.57 984.82,-64.11 981.39,-46.4"/>
<polygon fill="black" stroke="black" points="984.75,-45.38 979.45,-36.21 977.88,-46.68 984.75,-45.38"/>
</g>
<!-- Close Gripper -->
<g id="node18" class="node">
<title>Close Gripper</title>
<ellipse fill="gray" stroke="black" cx="1051.4" cy="-90" rx="46.53" ry="18"/>
<text text-anchor="middle" x="1051.4" y="-87.8" font-family="Times,serif" font-size="9.00">Close Gripper</text>
</g>
<!-- Grasp&#45;&gt;Close Gripper -->
<g id="edge17" class="edge">
<title>Grasp&#45;&gt;Close Gripper</title>
<path fill="none" stroke="black" d="M1022.79,-143.7C1027.16,-135.64 1032.45,-125.89 1037.29,-116.98"/>
<polygon fill="black" stroke="black" points="1040.42,-118.56 1042.11,-108.1 1034.26,-115.22 1040.42,-118.56"/>
</g>
<!-- Wait 1 sec** -->
<g id="node19" class="node">
<title>Wait 1 sec**</title>
<ellipse fill="gray" stroke="black" cx="1158.4" cy="-90" rx="42.29" ry="18"/>
<text text-anchor="middle" x="1158.4" y="-87.8" font-family="Times,serif" font-size="9.00">Wait 1 sec**</text>
</g>
<!-- Grasp&#45;&gt;Wait 1 sec** -->
<g id="edge18" class="edge">
<title>Grasp&#45;&gt;Wait 1 sec**</title>
<path fill="none" stroke="black" d="M1041.7,-147.34C1064.79,-136.19 1097.56,-120.37 1122.5,-108.33"/>
<polygon fill="black" stroke="black" points="1124.15,-111.42 1131.63,-103.92 1121.11,-105.11 1124.15,-111.42"/>
</g>
<!-- Robot Stationary -->
<g id="node21" class="node">
<title>Robot Stationary</title>
<ellipse fill="gray" stroke="blue" cx="1356.4" cy="-18" rx="43.57" ry="18"/>
<text text-anchor="middle" x="1356.4" y="-16.4" font-family="Times,serif" font-size="7.00" fill="blue">Robot Stationary</text>
</g>
<!-- Finish Pick&#45;&gt;Robot Stationary -->
<g id="edge20" class="edge">
<title>Finish Pick&#45;&gt;Robot Stationary</title>
<path fill="none" stroke="black" d="M1295,-18C1297.5,-18 1299.99,-18 1302.49,-18"/>
<polygon fill="black" stroke="black" points="1302.75,-21.5 1312.75,-18 1302.75,-14.5 1302.75,-21.5"/>
</g>
<!-- Finish Pick* -->
<g id="node22" class="node">
<title>Finish Pick*</title>
<ellipse fill="gray" stroke="black" cx="1298.4" cy="-90" rx="41.64" ry="18"/>
<text text-anchor="middle" x="1298.4" y="-87.8" font-family="Times,serif" font-size="9.00">Finish Pick*</text>
</g>
<!-- Finish Pick&#45;&gt;Finish Pick* -->
<g id="edge21" class="edge">
<title>Finish Pick&#45;&gt;Finish Pick*</title>
<path fill="none" stroke="black" d="M1271.79,-35.79C1275.86,-43.93 1280.85,-53.9 1285.4,-63"/>
<polygon fill="black" stroke="black" points="1282.32,-64.68 1289.92,-72.05 1288.58,-61.55 1282.32,-64.68"/>
</g>
<!-- /picking -->
<g id="node26" class="node">
<title>/picking</title>
<polygon fill="white" stroke="blue" points="1474.9,-26.5 1417.9,-26.5 1417.9,-9.5 1474.9,-9.5 1474.9,-26.5"/>
<text text-anchor="middle" x="1446.4" y="-16.1" font-family="Times,serif" font-size="8.00" fill="blue">/picking: &#45;</text>
</g>
<!-- Finish Pick&#45;&gt;/picking -->
<g id="edge37" class="edge">
<title>Finish Pick&#45;&gt;/picking</title>
<path fill="none" stroke="blue" d="M1279.12,-33.59C1288.07,-41.35 1299.96,-49.92 1312.4,-54 1349.56,-66.18 1363.42,-66.75 1400.4,-54 1412.19,-49.93 1423.27,-41.46 1431.6,-33.76"/>
<polygon fill="blue" stroke="blue" points="1434.29,-36.03 1438.94,-26.51 1429.36,-31.05 1434.29,-36.03"/>
</g>
<!-- /robot_pose&#45;&gt;Robot Stationary? -->
<g id="edge24" class="edge">
<title>/robot_pose&#45;&gt;Robot Stationary?</title>
<path fill="none" stroke="green" d="M1707.35,-26.55C1691.69,-33.89 1667.62,-43.92 1645.4,-48 1551.85,-65.16 884.35,-53.52 789.4,-48 718.56,-43.88 637.28,-33.42 585.43,-26.02"/>
<polygon fill="green" stroke="green" points="585.86,-22.54 575.46,-24.58 584.86,-29.47 585.86,-22.54"/>
</g>
<!-- /robot_pose&#45;&gt;Robot Stationary? -->
<g id="edge25" class="edge">
<title>/robot_pose&#45;&gt;Robot Stationary?</title>
<path fill="none" stroke="green" d="M1711.85,-26.52C1695.86,-36.81 1666.97,-53.56 1639.4,-60 1548.08,-81.33 888.88,-67.42 795.4,-60 721.07,-54.1 636.03,-38.97 583.27,-28.58"/>
<polygon fill="green" stroke="green" points="583.65,-25.09 573.15,-26.57 582.28,-31.95 583.65,-25.09"/>
</g>
<!-- /robot_pose&#45;&gt;Robot At Grasp Position? -->
<g id="edge22" class="edge">
<title>/robot_pose&#45;&gt;Robot At Grasp Position?</title>
<path fill="none" stroke="green" d="M1709.91,-26.58C1693.99,-35.46 1667.35,-48.76 1642.4,-54 1553.23,-72.71 1323.29,-60.36 1232.4,-54 1165.45,-49.32 1089.37,-37.82 1037.66,-29.07"/>
<polygon fill="green" stroke="green" points="1038.11,-25.6 1027.66,-27.36 1036.93,-32.5 1038.11,-25.6"/>
</g>
<!-- /robot_pose&#45;&gt;Robot Stationary -->
<g id="edge23" class="edge">
<title>/robot_pose&#45;&gt;Robot Stationary</title>
<path fill="none" stroke="green" d="M1709.91,-26.58C1693.99,-35.46 1667.35,-48.76 1642.4,-54 1544.96,-74.45 1514.53,-79.89 1418.4,-54 1407.08,-50.95 1395.7,-45.28 1385.83,-39.32"/>
<polygon fill="green" stroke="green" points="1387.55,-36.26 1377.24,-33.83 1383.79,-42.16 1387.55,-36.26"/>
</g>
<!-- /detected_bottle&#45;&gt;Bottle Detected? -->
<g id="edge27" class="edge">
<title>/detected_bottle&#45;&gt;Bottle Detected?</title>
<path fill="none" stroke="green" d="M1551,-26.59C1533.02,-35.48 1503.04,-48.78 1475.4,-54 1421.4,-64.19 539.4,-68.47 486.4,-54 475.32,-50.97 464.2,-45.36 454.55,-39.46"/>
<polygon fill="green" stroke="green" points="456.44,-36.51 446.14,-34.02 452.64,-42.39 456.44,-36.51"/>
</g>
<!-- /detected_bottle&#45;&gt;Send Grasp Position -->
<g id="edge28" class="edge">
<title>/detected_bottle&#45;&gt;Send Grasp Position</title>
<path fill="none" stroke="green" d="M1551,-26.59C1533.02,-35.48 1503.04,-48.78 1475.4,-54 1414.36,-65.52 976.92,-67.94 916.4,-54 902.64,-50.83 888.48,-44.75 876.27,-38.47"/>
<polygon fill="green" stroke="green" points="877.83,-35.33 867.36,-33.67 874.51,-41.49 877.83,-35.33"/>
</g>
<!-- /robot_gripper&#45;&gt;Robot Stationary? -->
<g id="edge32" class="edge">
<title>/robot_gripper&#45;&gt;Robot Stationary?</title>
<path fill="none" stroke="green" d="M1861.07,-26.56C1843.35,-33.91 1816.18,-43.94 1791.4,-48 1681.53,-66.02 900.54,-54.47 789.4,-48 718.56,-43.88 637.28,-33.42 585.43,-26.02"/>
<polygon fill="green" stroke="green" points="585.86,-22.54 575.46,-24.58 584.86,-29.47 585.86,-22.54"/>
</g>
<!-- /robot_gripper&#45;&gt;Robot Stationary? -->
<g id="edge33" class="edge">
<title>/robot_gripper&#45;&gt;Robot Stationary?</title>
<path fill="none" stroke="green" d="M1866.23,-26.53C1848.2,-36.83 1815.74,-53.59 1785.4,-60 1731.58,-71.36 850.22,-64.35 795.4,-60 721.07,-54.1 636.03,-38.97 583.27,-28.58"/>
<polygon fill="green" stroke="green" points="583.65,-25.09 573.15,-26.57 582.28,-31.95 583.65,-25.09"/>
</g>
<!-- /robot_gripper&#45;&gt;Robot At Grasp Position? -->
<g id="edge30" class="edge">
<title>/robot_gripper&#45;&gt;Robot At Grasp Position?</title>
<path fill="none" stroke="green" d="M1864,-26.59C1846.02,-35.48 1816.04,-48.78 1788.4,-54 1666.98,-76.91 1355.65,-62.62 1232.4,-54 1165.45,-49.32 1089.37,-37.82 1037.66,-29.07"/>
<polygon fill="green" stroke="green" points="1038.11,-25.6 1027.66,-27.36 1036.93,-32.5 1038.11,-25.6"/>
</g>
<!-- /robot_gripper&#45;&gt;Robot Stationary -->
<g id="edge31" class="edge">
<title>/robot_gripper&#45;&gt;Robot Stationary</title>
<path fill="none" stroke="green" d="M1864,-26.59C1846.02,-35.48 1816.04,-48.78 1788.4,-54 1707.6,-69.25 1497.79,-75.38 1418.4,-54 1407.08,-50.95 1395.7,-45.28 1385.83,-39.32"/>
<polygon fill="green" stroke="green" points="1387.55,-36.26 1377.24,-33.83 1383.79,-42.16 1387.55,-36.26"/>
</g>
<!-- /picking&#45;&gt;Report Status -->
<g id="edge35" class="edge">
<title>/picking&#45;&gt;Report Status</title>
<path fill="none" stroke="green" d="M1438.94,-26.51C1430.58,-35.33 1416.12,-48.58 1400.4,-54 1331.7,-77.69 162.03,-74.76 92.4,-54 82.49,-51.05 72.72,-45.68 64.21,-39.97"/>
<polygon fill="green" stroke="green" points="66.03,-36.97 55.86,-33.99 61.95,-42.66 66.03,-36.97"/>
</g>
<!-- /picking&#45;&gt;Active? -->
<g id="edge36" class="edge">
<title>/picking&#45;&gt;Active?</title>
<path fill="none" stroke="green" d="M1438.94,-26.51C1430.58,-35.33 1416.12,-48.58 1400.4,-54 1346.88,-72.45 434.82,-72.74 381.4,-54 373.17,-51.11 365.32,-46.02 358.56,-40.55"/>
<polygon fill="green" stroke="green" points="360.43,-37.54 350.61,-33.57 355.81,-42.8 360.43,-37.54"/>
</g>
<!-- /robot_status&#45;&gt;Robot Stationary? -->
<g id="edge40" class="edge">
<title>/robot_status&#45;&gt;Robot Stationary?</title>
<path fill="none" stroke="green" d="M2023.98,-26.55C2007.08,-33.9 1981.15,-43.93 1957.4,-48 1829.48,-69.91 918.96,-55.54 789.4,-48 718.56,-43.88 637.28,-33.42 585.43,-26.02"/>
<polygon fill="green" stroke="green" points="585.86,-22.54 575.46,-24.58 584.86,-29.47 585.86,-22.54"/>
</g>
<!-- /robot_status&#45;&gt;Robot Stationary? -->
<g id="edge41" class="edge">
<title>/robot_status&#45;&gt;Robot Stationary?</title>
<path fill="none" stroke="green" d="M2028.88,-26.52C2011.66,-36.83 1980.63,-53.58 1951.4,-60 1888.67,-73.78 859.42,-65.08 795.4,-60 721.07,-54.1 636.03,-38.97 583.27,-28.58"/>
<polygon fill="green" stroke="green" points="583.65,-25.09 573.15,-26.57 582.28,-31.95 583.65,-25.09"/>
</g>
<!-- /robot_status&#45;&gt;Robot At Grasp Position? -->
<g id="edge38" class="edge">
<title>/robot_status&#45;&gt;Robot At Grasp Position?</title>
<path fill="none" stroke="green" d="M2026.76,-26.58C2009.6,-35.47 1980.96,-48.78 1954.4,-54 1796.97,-84.96 1392.45,-65.2 1232.4,-54 1165.45,-49.32 1089.37,-37.82 1037.66,-29.07"/>
<polygon fill="green" stroke="green" points="1038.11,-25.6 1027.66,-27.36 1036.93,-32.5 1038.11,-25.6"/>
</g>
<!-- /robot_status&#45;&gt;Robot Stationary -->
<g id="edge39" class="edge">
<title>/robot_status&#45;&gt;Robot Stationary</title>
<path fill="none" stroke="green" d="M2026.76,-26.58C2009.6,-35.47 1980.96,-48.78 1954.4,-54 1895.96,-65.49 1475.9,-69.49 1418.4,-54 1407.08,-50.95 1395.7,-45.28 1385.83,-39.32"/>
<polygon fill="green" stroke="green" points="1387.55,-36.26 1377.24,-33.83 1383.79,-42.16 1387.55,-36.26"/>
</g>
</g>
</svg>
