<?xml version="1.0" encoding="UTF-8" standalone="no"?>
<!DOCTYPE svg PUBLIC "-//W3C//DTD SVG 1.1//EN"
 "http://www.w3.org/Graphics/SVG/1.1/DTD/svg11.dtd">
<!-- Generated by graphviz version 2.43.0 (0)
 -->
<!-- Title: pastafarianism Pages: 1 -->
<svg width="2276pt" height="372pt"
 viewBox="0.00 0.00 2275.90 372.00" xmlns="http://www.w3.org/2000/svg" xmlns:xlink="http://www.w3.org/1999/xlink">
<g id="graph0" class="graph" transform="scale(1 1) rotate(0) translate(4 368)">
<title>pastafarianism</title>
<polygon fill="white" stroke="transparent" points="-4,4 -4,-368 2271.9,-368 2271.9,4 -4,4"/>
<!-- System Skill Cap -->
<g id="node1" class="node">
<title>System Skill Cap</title>
<polygon fill="gold" stroke="black" points="531.81,-364 376.85,-364 336.99,-308 491.94,-308 531.81,-364"/>
<text text-anchor="middle" x="434.4" y="-338.8" font-family="Times,serif" font-size="9.00">System Skill Cap</text>
<text text-anchor="middle" x="434.4" y="-328.8" font-family="Times,serif" font-size="9.00">SuccessOnAll</text>
</g>
<!-- System State -->
<g id="node2" class="node">
<title>System State</title>
<polygon fill="orange" stroke="black" points="284.9,-118 195.9,-118 195.9,-82 284.9,-82 284.9,-118"/>
<text text-anchor="middle" x="240.4" y="-97.8" font-family="Times,serif" font-size="9.00">Ⓜ System State</text>
</g>
<!-- System Skill Cap&#45;&gt;System State -->
<g id="edge1" class="edge">
<title>System Skill Cap&#45;&gt;System State</title>
<path fill="none" stroke="black" d="M411.76,-307.7C373.83,-261.94 297.97,-170.44 261.25,-126.16"/>
<polygon fill="black" stroke="black" points="263.74,-123.67 254.66,-118.21 258.35,-128.14 263.74,-123.67"/>
</g>
<!-- Cap -->
<g id="node7" class="node">
<title>Cap</title>
<polygon fill="orange" stroke="black" points="654.4,-272 600.4,-272 600.4,-236 654.4,-236 654.4,-272"/>
<text text-anchor="middle" x="627.4" y="-251.8" font-family="Times,serif" font-size="9.00">Ⓜ Cap</text>
</g>
<!-- System Skill Cap&#45;&gt;Cap -->
<g id="edge6" class="edge">
<title>System Skill Cap&#45;&gt;Cap</title>
<path fill="none" stroke="black" d="M493.88,-310.34C525.54,-297.22 563.47,-281.5 590.8,-270.17"/>
<polygon fill="black" stroke="black" points="592.46,-273.27 600.36,-266.21 589.78,-266.8 592.46,-273.27"/>
</g>
<!-- Report Status -->
<g id="node3" class="node">
<title>Report Status</title>
<ellipse fill="gray" stroke="blue" cx="37.4" cy="-18" rx="37.29" ry="18"/>
<text text-anchor="middle" x="37.4" y="-16.4" font-family="Times,serif" font-size="7.00" fill="blue">Report Status</text>
</g>
<!-- System State&#45;&gt;Report Status -->
<g id="edge2" class="edge">
<title>System State&#45;&gt;Report Status</title>
<path fill="none" stroke="black" d="M196.85,-81.84C160.69,-67.59 109.78,-47.52 75.28,-33.93"/>
<polygon fill="black" stroke="black" points="76.17,-30.52 65.58,-30.11 73.6,-37.03 76.17,-30.52"/>
</g>
<!-- Robot Status -->
<g id="node4" class="node">
<title>Robot Status</title>
<ellipse fill="gray" stroke="blue" cx="128.4" cy="-18" rx="35.95" ry="18"/>
<text text-anchor="middle" x="128.4" y="-16.4" font-family="Times,serif" font-size="7.00" fill="blue">Robot Status</text>
</g>
<!-- System State&#45;&gt;Robot Status -->
<g id="edge3" class="edge">
<title>System State&#45;&gt;Robot Status</title>
<path fill="none" stroke="black" d="M216.37,-81.84C198.84,-69.31 175.01,-52.3 156.58,-39.13"/>
<polygon fill="black" stroke="black" points="158.44,-36.16 148.27,-33.2 154.38,-41.86 158.44,-36.16"/>
</g>
<!-- Gesture Detector Status -->
<g id="node5" class="node">
<title>Gesture Detector Status</title>
<ellipse fill="gray" stroke="blue" cx="240.4" cy="-18" rx="58.1" ry="18"/>
<text text-anchor="middle" x="240.4" y="-16.4" font-family="Times,serif" font-size="7.00" fill="blue">Gesture Detector Status</text>
</g>
<!-- System State&#45;&gt;Gesture Detector Status -->
<g id="edge4" class="edge">
<title>System State&#45;&gt;Gesture Detector Status</title>
<path fill="none" stroke="black" d="M240.4,-81.64C240.4,-71.3 240.4,-57.94 240.4,-46.22"/>
<polygon fill="black" stroke="black" points="243.9,-46.05 240.4,-36.05 236.9,-46.05 243.9,-46.05"/>
</g>
<!-- Human Intent Detector Status -->
<g id="node6" class="node">
<title>Human Intent Detector Status</title>
<ellipse fill="gray" stroke="blue" cx="387.4" cy="-18" rx="70.77" ry="18"/>
<text text-anchor="middle" x="387.4" y="-16.4" font-family="Times,serif" font-size="7.00" fill="blue">Human Intent Detector Status</text>
</g>
<!-- System State&#45;&gt;Human Intent Detector Status -->
<g id="edge5" class="edge">
<title>System State&#45;&gt;Human Intent Detector Status</title>
<path fill="none" stroke="black" d="M271.93,-81.84C294.82,-69.38 325.88,-52.48 350.02,-39.34"/>
<polygon fill="black" stroke="black" points="351.79,-42.36 358.9,-34.51 348.44,-36.21 351.79,-42.36"/>
</g>
<!-- /robot_pose -->
<g id="node24" class="node">
<title>/robot_pose</title>
<polygon fill="white" stroke="blue" points="1654.4,-26.5 1526.4,-26.5 1526.4,-9.5 1654.4,-9.5 1654.4,-26.5"/>
<text text-anchor="middle" x="1590.4" y="-16.1" font-family="Times,serif" font-size="8.00" fill="blue">/robot_pose: {&#39;x&#39;: 0, &#39;y&#39;: 0, ...</text>
</g>
<!-- Robot Status&#45;&gt;/robot_pose -->
<g id="edge28" class="edge">
<title>Robot Status&#45;&gt;/robot_pose</title>
<path fill="none" stroke="blue" d="M146.48,-33.99C156.36,-41.65 169.24,-50.02 182.4,-54 252.9,-75.35 1436.3,-69.13 1508.4,-54 1529.06,-49.66 1550.88,-39.8 1566.81,-31.49"/>
<polygon fill="blue" stroke="blue" points="1568.77,-34.41 1575.91,-26.58 1565.44,-28.25 1568.77,-34.41"/>
</g>
<!-- /robot_status -->
<g id="node25" class="node">
<title>/robot_status</title>
<polygon fill="white" stroke="blue" points="2102.4,-26.5 1962.4,-26.5 1962.4,-9.5 2102.4,-9.5 2102.4,-26.5"/>
<text text-anchor="middle" x="2032.4" y="-16.1" font-family="Times,serif" font-size="8.00" fill="blue">/robot_status: {&#39;status&#39;: &#39;busy&#39;}</text>
</g>
<!-- Robot Status&#45;&gt;/robot_status -->
<g id="edge32" class="edge">
<title>Robot Status&#45;&gt;/robot_status</title>
<path fill="none" stroke="blue" d="M146.48,-33.99C156.36,-41.65 169.24,-50.02 182.4,-54 276.09,-82.37 1848.35,-72.89 1944.4,-54 1966.6,-49.63 1990.26,-39.62 2007.45,-31.26"/>
<polygon fill="blue" stroke="blue" points="2009.4,-34.2 2016.76,-26.58 2006.25,-27.94 2009.4,-34.2"/>
</g>
<!-- /robot_gripper -->
<g id="node28" class="node">
<title>/robot_gripper</title>
<polygon fill="white" stroke="blue" points="2267.9,-26.5 2120.9,-26.5 2120.9,-9.5 2267.9,-9.5 2267.9,-26.5"/>
<text text-anchor="middle" x="2194.4" y="-16.1" font-family="Times,serif" font-size="8.00" fill="blue">/robot_gripper: {&#39;rotation&#39;: 0.0,...</text>
</g>
<!-- Robot Status&#45;&gt;/robot_gripper -->
<g id="edge40" class="edge">
<title>Robot Status&#45;&gt;/robot_gripper</title>
<path fill="none" stroke="blue" d="M146.48,-33.99C156.36,-41.65 169.24,-50.02 182.4,-54 233.44,-69.46 2049.99,-63.89 2102.4,-54 2125.72,-49.6 2150.71,-39.44 2168.75,-31.03"/>
<polygon fill="blue" stroke="blue" points="2170.5,-34.07 2178,-26.59 2167.47,-27.76 2170.5,-34.07"/>
</g>
<!-- /detected_gesture -->
<g id="node26" class="node">
<title>/detected_gesture</title>
<polygon fill="white" stroke="blue" points="1944.4,-26.5 1814.4,-26.5 1814.4,-9.5 1944.4,-9.5 1944.4,-26.5"/>
<text text-anchor="middle" x="1879.4" y="-16.1" font-family="Times,serif" font-size="8.00" fill="blue">/detected_gesture: unknown</text>
</g>
<!-- Gesture Detector Status&#45;&gt;/detected_gesture -->
<g id="edge34" class="edge">
<title>Gesture Detector Status&#45;&gt;/detected_gesture</title>
<path fill="none" stroke="blue" d="M266.78,-34.05C280.94,-41.73 299.02,-50.09 316.4,-54 396.62,-72.04 1715.89,-70.71 1796.4,-54 1817.28,-49.67 1839.37,-39.8 1855.5,-31.49"/>
<polygon fill="blue" stroke="blue" points="1857.54,-34.37 1864.71,-26.58 1854.24,-28.19 1857.54,-34.37"/>
</g>
<!-- /detected_intent -->
<g id="node27" class="node">
<title>/detected_intent</title>
<polygon fill="white" stroke="blue" points="1795.9,-26.5 1672.9,-26.5 1672.9,-9.5 1795.9,-9.5 1795.9,-26.5"/>
<text text-anchor="middle" x="1734.4" y="-16.1" font-family="Times,serif" font-size="8.00" fill="blue">/detected_intent: unknown</text>
</g>
<!-- Human Intent Detector Status&#45;&gt;/detected_intent -->
<g id="edge36" class="edge">
<title>Human Intent Detector Status&#45;&gt;/detected_intent</title>
<path fill="none" stroke="blue" d="M419.03,-34.26C435.63,-41.89 456.6,-50.15 476.4,-54 540.64,-66.5 1590.41,-67.73 1654.4,-54 1674.62,-49.66 1695.9,-39.79 1711.43,-31.48"/>
<polygon fill="blue" stroke="blue" points="1713.24,-34.48 1720.29,-26.58 1709.85,-28.36 1713.24,-34.48"/>
</g>
<!-- Active? -->
<g id="node8" class="node">
<title>Active?</title>
<ellipse fill="gray" stroke="blue" cx="503.4" cy="-18" rx="27" ry="18"/>
<text text-anchor="middle" x="503.4" y="-16.4" font-family="Times,serif" font-size="7.00" fill="blue">Active?</text>
</g>
<!-- Cap&#45;&gt;Active? -->
<g id="edge7" class="edge">
<title>Cap&#45;&gt;Active?</title>
<path fill="none" stroke="black" d="M600.09,-236.55C586.76,-227.3 571.47,-214.65 561.4,-200 528.31,-151.86 513.25,-83.75 507.1,-46.3"/>
<polygon fill="black" stroke="black" points="510.52,-45.51 505.54,-36.16 503.6,-46.58 510.52,-45.51"/>
</g>
<!-- Go to Cap Position -->
<g id="node9" class="node">
<title>Go to Cap Position</title>
<polygon fill="orange" stroke="black" points="684.4,-200 570.4,-200 570.4,-164 684.4,-164 684.4,-200"/>
<text text-anchor="middle" x="627.4" y="-179.8" font-family="Times,serif" font-size="9.00">Ⓜ Go to Cap Position</text>
</g>
<!-- Cap&#45;&gt;Go to Cap Position -->
<g id="edge8" class="edge">
<title>Cap&#45;&gt;Go to Cap Position</title>
<path fill="none" stroke="black" d="M627.4,-235.7C627.4,-227.98 627.4,-218.71 627.4,-210.11"/>
<polygon fill="black" stroke="black" points="630.9,-210.1 627.4,-200.1 623.9,-210.1 630.9,-210.1"/>
</g>
<!-- Rotate Bottle -->
<g id="node13" class="node">
<title>Rotate Bottle</title>
<polygon fill="orange" stroke="black" points="966.9,-200 877.9,-200 877.9,-164 966.9,-164 966.9,-200"/>
<text text-anchor="middle" x="922.4" y="-179.8" font-family="Times,serif" font-size="9.00">Ⓜ Rotate Bottle</text>
</g>
<!-- Cap&#45;&gt;Rotate Bottle -->
<g id="edge12" class="edge">
<title>Cap&#45;&gt;Rotate Bottle</title>
<path fill="none" stroke="black" d="M654.62,-246.54C703.02,-235.05 804.89,-210.88 868.1,-195.89"/>
<polygon fill="black" stroke="black" points="868.97,-199.27 877.89,-193.56 867.35,-192.46 868.97,-199.27"/>
</g>
<!-- Finish Cap -->
<g id="node20" class="node">
<title>Finish Cap</title>
<ellipse fill="gray" stroke="blue" cx="1399.4" cy="-18" rx="30.9" ry="18"/>
<text text-anchor="middle" x="1399.4" y="-16.4" font-family="Times,serif" font-size="7.00" fill="blue">Finish Cap</text>
</g>
<!-- Cap&#45;&gt;Finish Cap -->
<g id="edge19" class="edge">
<title>Cap&#45;&gt;Finish Cap</title>
<path fill="none" stroke="black" d="M654.52,-250.8C765.6,-241.35 1184.94,-201.35 1292.4,-128 1317.24,-111.04 1309.76,-93.88 1330.4,-72 1342.47,-59.2 1357.84,-47.07 1371.01,-37.66"/>
<polygon fill="black" stroke="black" points="1373.09,-40.48 1379.29,-31.89 1369.08,-34.74 1373.09,-40.48"/>
</g>
<!-- Robot Stationary? -->
<g id="node10" class="node">
<title>Robot Stationary?</title>
<ellipse fill="gray" stroke="blue" cx="594.4" cy="-18" rx="45.54" ry="18"/>
<text text-anchor="middle" x="594.4" y="-16.4" font-family="Times,serif" font-size="7.00" fill="blue">Robot Stationary?</text>
</g>
<!-- Go to Cap Position&#45;&gt;Robot Stationary? -->
<g id="edge9" class="edge">
<title>Go to Cap Position&#45;&gt;Robot Stationary?</title>
<path fill="none" stroke="black" d="M594.87,-163.98C581.61,-155.18 567.7,-143.09 560.4,-128 549.55,-105.6 553.39,-95.88 560.4,-72 563.32,-62.03 568.75,-52.17 574.43,-43.7"/>
<polygon fill="black" stroke="black" points="577.38,-45.6 580.35,-35.43 571.68,-41.53 577.38,-45.6"/>
</g>
<!-- Send Cap Position -->
<g id="node11" class="node">
<title>Send Cap Position</title>
<ellipse fill="gray" stroke="black" cx="627.4" cy="-100" rx="58.13" ry="18"/>
<text text-anchor="middle" x="627.4" y="-97.8" font-family="Times,serif" font-size="9.00">Send Cap Position</text>
</g>
<!-- Go to Cap Position&#45;&gt;Send Cap Position -->
<g id="edge10" class="edge">
<title>Go to Cap Position&#45;&gt;Send Cap Position</title>
<path fill="none" stroke="black" d="M627.4,-163.64C627.4,-153.3 627.4,-139.94 627.4,-128.22"/>
<polygon fill="black" stroke="black" points="630.9,-128.05 627.4,-118.05 623.9,-128.05 630.9,-128.05"/>
</g>
<!-- Wait 1 sec -->
<g id="node12" class="node">
<title>Wait 1 sec</title>
<ellipse fill="gray" stroke="black" cx="740.4" cy="-100" rx="36.9" ry="18"/>
<text text-anchor="middle" x="740.4" y="-97.8" font-family="Times,serif" font-size="9.00">Wait 1 sec</text>
</g>
<!-- Go to Cap Position&#45;&gt;Wait 1 sec -->
<g id="edge11" class="edge">
<title>Go to Cap Position&#45;&gt;Wait 1 sec</title>
<path fill="none" stroke="black" d="M651.64,-163.84C669.33,-151.31 693.36,-134.3 711.96,-121.13"/>
<polygon fill="black" stroke="black" points="714.2,-123.83 720.34,-115.2 710.16,-118.12 714.2,-123.83"/>
</g>
<!-- Robot at Cap Position? -->
<g id="node14" class="node">
<title>Robot at Cap Position?</title>
<ellipse fill="gray" stroke="blue" cx="780.4" cy="-18" rx="55.63" ry="18"/>
<text text-anchor="middle" x="780.4" y="-16.4" font-family="Times,serif" font-size="7.00" fill="blue">Robot at Cap Position?</text>
</g>
<!-- Rotate Bottle&#45;&gt;Robot at Cap Position? -->
<g id="edge13" class="edge">
<title>Rotate Bottle&#45;&gt;Robot at Cap Position?</title>
<path fill="none" stroke="black" d="M877.46,-164.66C859.03,-156.1 838.7,-144.01 824.4,-128 803.43,-104.54 791.76,-69.8 785.79,-45.88"/>
<polygon fill="black" stroke="black" points="789.18,-44.99 783.5,-36.04 782.36,-46.57 789.18,-44.99"/>
</g>
<!-- Detectors -->
<g id="node15" class="node">
<title>Detectors</title>
<polygon fill="gold" stroke="black" points="1011.72,-128 869.63,-128 833.07,-72 975.17,-72 1011.72,-128"/>
<text text-anchor="middle" x="922.4" y="-102.8" font-family="Times,serif" font-size="9.00">Detectors</text>
<text text-anchor="middle" x="922.4" y="-92.8" font-family="Times,serif" font-size="9.00">SuccessOnOne</text>
</g>
<!-- Rotate Bottle&#45;&gt;Detectors -->
<g id="edge14" class="edge">
<title>Rotate Bottle&#45;&gt;Detectors</title>
<path fill="none" stroke="black" d="M922.4,-163.64C922.4,-156.18 922.4,-147.14 922.4,-138.29"/>
<polygon fill="black" stroke="black" points="925.9,-138.08 922.4,-128.08 918.9,-138.08 925.9,-138.08"/>
</g>
<!-- Send Bottle Rotate Action -->
<g id="node18" class="node">
<title>Send Bottle Rotate Action</title>
<ellipse fill="gray" stroke="black" cx="1108.4" cy="-100" rx="79.19" ry="18"/>
<text text-anchor="middle" x="1108.4" y="-97.8" font-family="Times,serif" font-size="9.00">Send Bottle Rotate Action</text>
</g>
<!-- Rotate Bottle&#45;&gt;Send Bottle Rotate Action -->
<g id="edge17" class="edge">
<title>Rotate Bottle&#45;&gt;Send Bottle Rotate Action</title>
<path fill="none" stroke="black" d="M962.3,-163.84C992.09,-151.02 1032.82,-133.5 1063.71,-120.22"/>
<polygon fill="black" stroke="black" points="1065.15,-123.41 1072.96,-116.24 1062.39,-116.98 1065.15,-123.41"/>
</g>
<!-- Wait 1 sec* -->
<g id="node19" class="node">
<title>Wait 1 sec*</title>
<ellipse fill="gray" stroke="black" cx="1244.4" cy="-100" rx="39.02" ry="18"/>
<text text-anchor="middle" x="1244.4" y="-97.8" font-family="Times,serif" font-size="9.00">Wait 1 sec*</text>
</g>
<!-- Rotate Bottle&#45;&gt;Wait 1 sec* -->
<g id="edge18" class="edge">
<title>Rotate Bottle&#45;&gt;Wait 1 sec*</title>
<path fill="none" stroke="black" d="M967.23,-176.79C1022.49,-170.6 1118.62,-156.54 1196.4,-128 1202.15,-125.89 1208.02,-123.14 1213.61,-120.22"/>
<polygon fill="black" stroke="black" points="1215.61,-123.11 1222.65,-115.19 1212.21,-116.99 1215.61,-123.11"/>
</g>
<!-- Human Requested Rotation? -->
<g id="node16" class="node">
<title>Human Requested Rotation?</title>
<ellipse fill="gray" stroke="blue" cx="922.4" cy="-18" rx="68.19" ry="18"/>
<text text-anchor="middle" x="922.4" y="-16.4" font-family="Times,serif" font-size="7.00" fill="blue">Human Requested Rotation?</text>
</g>
<!-- Detectors&#45;&gt;Human Requested Rotation? -->
<g id="edge15" class="edge">
<title>Detectors&#45;&gt;Human Requested Rotation?</title>
<path fill="none" stroke="black" d="M922.4,-71.92C922.4,-63.72 922.4,-54.72 922.4,-46.49"/>
<polygon fill="black" stroke="black" points="925.9,-46.27 922.4,-36.27 918.9,-46.27 925.9,-46.27"/>
</g>
<!-- Gesture Cap Holded Detected? -->
<g id="node17" class="node">
<title>Gesture Cap Holded Detected?</title>
<ellipse fill="gray" stroke="blue" cx="1080.4" cy="-18" rx="72" ry="18"/>
<text text-anchor="middle" x="1080.4" y="-16.4" font-family="Times,serif" font-size="7.00" fill="blue">Gesture Cap Holded Detected?</text>
</g>
<!-- Detectors&#45;&gt;Gesture Cap Holded Detected? -->
<g id="edge16" class="edge">
<title>Detectors&#45;&gt;Gesture Cap Holded Detected?</title>
<path fill="none" stroke="black" d="M975.45,-72.14C996.81,-61.32 1021.02,-49.07 1040.79,-39.05"/>
<polygon fill="black" stroke="black" points="1042.49,-42.12 1049.83,-34.48 1039.33,-35.87 1042.49,-42.12"/>
</g>
<!-- Robot Stationary?* -->
<g id="node21" class="node">
<title>Robot Stationary?*</title>
<ellipse fill="gray" stroke="black" cx="1399.4" cy="-100" rx="60.09" ry="18"/>
<text text-anchor="middle" x="1399.4" y="-97.8" font-family="Times,serif" font-size="9.00">Robot Stationary?*</text>
</g>
<!-- Finish Cap&#45;&gt;Robot Stationary?* -->
<g id="edge20" class="edge">
<title>Finish Cap&#45;&gt;Robot Stationary?*</title>
<path fill="none" stroke="black" d="M1399.4,-36.05C1399.4,-46.33 1399.4,-59.68 1399.4,-71.43"/>
<polygon fill="black" stroke="black" points="1395.9,-71.64 1399.4,-81.64 1402.9,-71.64 1395.9,-71.64"/>
</g>
<!-- Finish Cap* -->
<g id="node22" class="node">
<title>Finish Cap*</title>
<ellipse fill="gray" stroke="black" cx="1518.4" cy="-100" rx="40.98" ry="18"/>
<text text-anchor="middle" x="1518.4" y="-97.8" font-family="Times,serif" font-size="9.00">Finish Cap*</text>
</g>
<!-- Finish Cap&#45;&gt;Finish Cap* -->
<g id="edge21" class="edge">
<title>Finish Cap&#45;&gt;Finish Cap*</title>
<path fill="none" stroke="black" d="M1418.82,-32.06C1437.64,-44.71 1466.48,-64.09 1488.28,-78.75"/>
<polygon fill="black" stroke="black" points="1486.59,-81.84 1496.85,-84.51 1490.5,-76.03 1486.59,-81.84"/>
</g>
<!-- /capping -->
<g id="node23" class="node">
<title>/capping</title>
<polygon fill="white" stroke="blue" points="1508.4,-26.5 1448.4,-26.5 1448.4,-9.5 1508.4,-9.5 1508.4,-26.5"/>
<text text-anchor="middle" x="1478.4" y="-16.1" font-family="Times,serif" font-size="8.00" fill="blue">/capping: &#45;</text>
</g>
<!-- Finish Cap&#45;&gt;/capping -->
<g id="edge24" class="edge">
<title>Finish Cap&#45;&gt;/capping</title>
<path fill="none" stroke="blue" d="M1430.26,-18C1432.89,-18 1435.52,-18 1438.15,-18"/>
<polygon fill="blue" stroke="blue" points="1438.31,-21.5 1448.31,-18 1438.31,-14.5 1438.31,-21.5"/>
</g>
<!-- /capping&#45;&gt;Report Status -->
<g id="edge22" class="edge">
<title>/capping&#45;&gt;Report Status</title>
<path fill="none" stroke="green" d="M1470.53,-26.51C1461.74,-35.34 1446.6,-48.6 1430.4,-54 1359.88,-77.51 163.63,-75.24 92.4,-54 82.49,-51.05 72.72,-45.68 64.21,-39.97"/>
<polygon fill="green" stroke="green" points="66.03,-36.97 55.86,-33.99 61.95,-42.66 66.03,-36.97"/>
</g>
<!-- /capping&#45;&gt;Active? -->
<g id="edge23" class="edge">
<title>/capping&#45;&gt;Active?</title>
<path fill="none" stroke="green" d="M1470.53,-26.51C1461.74,-35.34 1446.6,-48.6 1430.4,-54 1383.91,-69.5 594.63,-70.22 548.4,-54 540.17,-51.11 532.32,-46.02 525.56,-40.55"/>
<polygon fill="green" stroke="green" points="527.43,-37.54 517.61,-33.57 522.81,-42.8 527.43,-37.54"/>
</g>
<!-- /robot_pose&#45;&gt;Robot Stationary? -->
<g id="edge25" class="edge">
<title>/robot_pose&#45;&gt;Robot Stationary?</title>
<path fill="none" stroke="green" d="M1573.35,-26.55C1557.69,-33.89 1533.62,-43.92 1511.4,-48 1425.06,-63.84 808.58,-58.16 721.4,-48 694.32,-44.85 664.65,-38.03 640.79,-31.69"/>
<polygon fill="green" stroke="green" points="641.52,-28.26 630.95,-29.02 639.68,-35.02 641.52,-28.26"/>
</g>
<!-- /robot_pose&#45;&gt;Robot Stationary? -->
<g id="edge27" class="edge">
<title>/robot_pose&#45;&gt;Robot Stationary?</title>
<path fill="none" stroke="green" d="M1577.85,-26.52C1561.86,-36.81 1532.97,-53.56 1505.4,-60 1463.31,-69.83 770.11,-66.58 727.4,-60 695.88,-55.14 661.6,-44.17 635.74,-34.66"/>
<polygon fill="green" stroke="green" points="636.85,-31.34 626.26,-31.1 634.39,-37.89 636.85,-31.34"/>
</g>
<!-- /robot_pose&#45;&gt;Robot at Cap Position? -->
<g id="edge26" class="edge">
<title>/robot_pose&#45;&gt;Robot at Cap Position?</title>
<path fill="none" stroke="green" d="M1575.91,-26.58C1559.99,-35.46 1533.35,-48.76 1508.4,-54 1437.28,-68.92 925.21,-70.31 854.4,-54 840.86,-50.88 826.93,-44.94 814.87,-38.77"/>
<polygon fill="green" stroke="green" points="816.5,-35.68 806.03,-34.05 813.2,-41.85 816.5,-35.68"/>
</g>
<!-- /robot_status&#45;&gt;Robot Stationary? -->
<g id="edge29" class="edge">
<title>/robot_status&#45;&gt;Robot Stationary?</title>
<path fill="none" stroke="green" d="M2013.98,-26.55C1997.08,-33.9 1971.15,-43.93 1947.4,-48 1880.26,-59.5 789.05,-55.88 721.4,-48 694.32,-44.85 664.65,-38.03 640.79,-31.69"/>
<polygon fill="green" stroke="green" points="641.52,-28.26 630.95,-29.02 639.68,-35.02 641.52,-28.26"/>
</g>
<!-- /robot_status&#45;&gt;Robot Stationary? -->
<g id="edge31" class="edge">
<title>/robot_status&#45;&gt;Robot Stationary?</title>
<path fill="none" stroke="green" d="M2018.88,-26.52C2001.66,-36.83 1970.63,-53.58 1941.4,-60 1875.52,-74.47 794.05,-70.27 727.4,-60 695.88,-55.14 661.6,-44.17 635.74,-34.66"/>
<polygon fill="green" stroke="green" points="636.85,-31.34 626.26,-31.1 634.39,-37.89 636.85,-31.34"/>
</g>
<!-- /robot_status&#45;&gt;Robot at Cap Position? -->
<g id="edge30" class="edge">
<title>/robot_status&#45;&gt;Robot at Cap Position?</title>
<path fill="none" stroke="green" d="M2016.76,-26.58C1999.6,-35.47 1970.96,-48.78 1944.4,-54 1884.98,-65.68 913.41,-67.59 854.4,-54 840.86,-50.88 826.93,-44.94 814.87,-38.77"/>
<polygon fill="green" stroke="green" points="816.5,-35.68 806.03,-34.05 813.2,-41.85 816.5,-35.68"/>
</g>
<!-- /detected_gesture&#45;&gt;Gesture Cap Holded Detected? -->
<g id="edge33" class="edge">
<title>/detected_gesture&#45;&gt;Gesture Cap Holded Detected?</title>
<path fill="none" stroke="green" d="M1864.71,-26.58C1848.59,-35.46 1821.62,-48.77 1796.4,-54 1703.27,-73.33 1463.32,-59.91 1368.4,-54 1293.91,-49.36 1209.21,-38.04 1151.05,-29.32"/>
<polygon fill="green" stroke="green" points="1151.28,-25.82 1140.87,-27.78 1150.24,-32.74 1151.28,-25.82"/>
</g>
<!-- /detected_intent&#45;&gt;Human Requested Rotation? -->
<g id="edge35" class="edge">
<title>/detected_intent&#45;&gt;Human Requested Rotation?</title>
<path fill="none" stroke="green" d="M1720.29,-26.58C1704.78,-35.46 1678.82,-48.76 1654.4,-54 1584.22,-69.06 1078.77,-68.13 1008.4,-54 992.8,-50.87 976.49,-44.83 962.33,-38.58"/>
<polygon fill="green" stroke="green" points="963.45,-35.25 952.9,-34.26 960.53,-41.61 963.45,-35.25"/>
</g>
<!-- /robot_gripper&#45;&gt;Robot Stationary? -->
<g id="edge37" class="edge">
<title>/robot_gripper&#45;&gt;Robot Stationary?</title>
<path fill="none" stroke="green" d="M2175.07,-26.56C2157.35,-33.91 2130.18,-43.94 2105.4,-48 2029.52,-60.44 797.77,-56.9 721.4,-48 694.32,-44.85 664.65,-38.03 640.79,-31.69"/>
<polygon fill="green" stroke="green" points="641.52,-28.26 630.95,-29.02 639.68,-35.02 641.52,-28.26"/>
</g>
<!-- /robot_gripper&#45;&gt;Robot Stationary? -->
<g id="edge39" class="edge">
<title>/robot_gripper&#45;&gt;Robot Stationary?</title>
<path fill="none" stroke="green" d="M2180.23,-26.53C2162.2,-36.83 2129.74,-53.59 2099.4,-60 2024.82,-75.75 802.73,-71.61 727.4,-60 695.88,-55.14 661.6,-44.17 635.74,-34.66"/>
<polygon fill="green" stroke="green" points="636.85,-31.34 626.26,-31.1 634.39,-37.89 636.85,-31.34"/>
</g>
<!-- /robot_gripper&#45;&gt;Robot at Cap Position? -->
<g id="edge38" class="edge">
<title>/robot_gripper&#45;&gt;Robot at Cap Position?</title>
<path fill="none" stroke="green" d="M2178,-26.59C2160.02,-35.48 2130.04,-48.78 2102.4,-54 2034.27,-66.86 921.96,-69.56 854.4,-54 840.86,-50.88 826.93,-44.94 814.87,-38.77"/>
<polygon fill="green" stroke="green" points="816.5,-35.68 806.03,-34.05 813.2,-41.85 816.5,-35.68"/>
</g>
</g>
</svg>
