<?xml version="1.0" encoding="UTF-8" standalone="no"?>
<!DOCTYPE svg PUBLIC "-//W3C//DTD SVG 1.1//EN"
 "http://www.w3.org/Graphics/SVG/1.1/DTD/svg11.dtd">
<!-- Generated by graphviz version 2.43.0 (0)
 -->
<!-- Title: pastafarianism Pages: 1 -->
<svg width="1954pt" height="352pt"
 viewBox="0.00 0.00 1954.40 352.00" xmlns="http://www.w3.org/2000/svg" xmlns:xlink="http://www.w3.org/1999/xlink">
<g id="graph0" class="graph" transform="scale(1 1) rotate(0) translate(4 348)">
<title>pastafarianism</title>
<polygon fill="white" stroke="transparent" points="-4,4 -4,-348 1950.4,-348 1950.4,4 -4,4"/>
<!-- System Skill Fill -->
<g id="node1" class="node">
<title>System Skill Fill</title>
<polygon fill="gold" stroke="black" points="411.59,-344 261.75,-344 223.21,-288 373.04,-288 411.59,-344"/>
<text text-anchor="middle" x="317.4" y="-318.8" font-family="Times,serif" font-size="9.00">System Skill Fill</text>
<text text-anchor="middle" x="317.4" y="-308.8" font-family="Times,serif" font-size="9.00">SuccessOnAll</text>
</g>
<!-- System State -->
<g id="node2" class="node">
<title>System State</title>
<polygon fill="orange" stroke="black" points="225.9,-108 136.9,-108 136.9,-72 225.9,-72 225.9,-108"/>
<text text-anchor="middle" x="181.4" y="-87.8" font-family="Times,serif" font-size="9.00">Ⓜ System State</text>
</g>
<!-- System Skill Fill&#45;&gt;System State -->
<g id="edge1" class="edge">
<title>System Skill Fill&#45;&gt;System State</title>
<path fill="none" stroke="black" d="M300.99,-287.98C274.6,-244.51 223.05,-159.6 197.1,-116.87"/>
<polygon fill="black" stroke="black" points="200.01,-114.91 191.83,-108.18 194.03,-118.55 200.01,-114.91"/>
</g>
<!-- Fill -->
<g id="node6" class="node">
<title>Fill</title>
<polygon fill="orange" stroke="black" points="501.4,-252 447.4,-252 447.4,-216 501.4,-216 501.4,-252"/>
<text text-anchor="middle" x="474.4" y="-231.8" font-family="Times,serif" font-size="9.00">Ⓜ Fill</text>
</g>
<!-- System Skill Fill&#45;&gt;Fill -->
<g id="edge5" class="edge">
<title>System Skill Fill&#45;&gt;Fill</title>
<path fill="none" stroke="black" d="M370.55,-287.92C392.82,-276.57 418.14,-263.67 438.2,-253.44"/>
<polygon fill="black" stroke="black" points="439.99,-256.46 447.31,-248.8 436.81,-250.23 439.99,-256.46"/>
</g>
<!-- Report Status -->
<g id="node3" class="node">
<title>Report Status</title>
<ellipse fill="gray" stroke="blue" cx="37.4" cy="-18" rx="37.29" ry="18"/>
<text text-anchor="middle" x="37.4" y="-16.4" font-family="Times,serif" font-size="7.00" fill="blue">Report Status</text>
</g>
<!-- System State&#45;&gt;Report Status -->
<g id="edge2" class="edge">
<title>System State&#45;&gt;Report Status</title>
<path fill="none" stroke="black" d="M146.17,-71.88C123.58,-60.9 94.4,-46.71 71.95,-35.8"/>
<polygon fill="black" stroke="black" points="73.3,-32.56 62.78,-31.34 70.24,-38.86 73.3,-32.56"/>
</g>
<!-- Robot Status -->
<g id="node4" class="node">
<title>Robot Status</title>
<ellipse fill="gray" stroke="blue" cx="128.4" cy="-18" rx="35.95" ry="18"/>
<text text-anchor="middle" x="128.4" y="-16.4" font-family="Times,serif" font-size="7.00" fill="blue">Robot Status</text>
</g>
<!-- System State&#45;&gt;Robot Status -->
<g id="edge3" class="edge">
<title>System State&#45;&gt;Robot Status</title>
<path fill="none" stroke="black" d="M168.3,-71.7C161.82,-63.14 153.89,-52.67 146.81,-43.33"/>
<polygon fill="black" stroke="black" points="149.45,-41 140.62,-35.14 143.87,-45.23 149.45,-41"/>
</g>
<!-- Filling Station Status -->
<g id="node5" class="node">
<title>Filling Station Status</title>
<ellipse fill="gray" stroke="blue" cx="234.4" cy="-18" rx="51.82" ry="18"/>
<text text-anchor="middle" x="234.4" y="-16.4" font-family="Times,serif" font-size="7.00" fill="blue">Filling Station Status</text>
</g>
<!-- System State&#45;&gt;Filling Station Status -->
<g id="edge4" class="edge">
<title>System State&#45;&gt;Filling Station Status</title>
<path fill="none" stroke="black" d="M194.5,-71.7C200.88,-63.27 208.67,-52.97 215.67,-43.73"/>
<polygon fill="black" stroke="black" points="218.57,-45.71 221.81,-35.62 212.98,-41.48 218.57,-45.71"/>
</g>
<!-- /robot_status -->
<g id="node20" class="node">
<title>/robot_status</title>
<polygon fill="white" stroke="blue" points="1634.4,-26.5 1494.4,-26.5 1494.4,-9.5 1634.4,-9.5 1634.4,-26.5"/>
<text text-anchor="middle" x="1564.4" y="-16.1" font-family="Times,serif" font-size="8.00" fill="blue">/robot_status: {&#39;status&#39;: &#39;busy&#39;}</text>
</g>
<!-- Robot Status&#45;&gt;/robot_status -->
<g id="edge21" class="edge">
<title>Robot Status&#45;&gt;/robot_status</title>
<path fill="none" stroke="blue" d="M146.48,-33.99C156.36,-41.65 169.24,-50.02 182.4,-54 251.2,-74.83 1405.86,-67.87 1476.4,-54 1498.6,-49.63 1522.26,-39.62 1539.45,-31.26"/>
<polygon fill="blue" stroke="blue" points="1541.4,-34.2 1548.76,-26.58 1538.25,-27.94 1541.4,-34.2"/>
</g>
<!-- /robot_gripper -->
<g id="node23" class="node">
<title>/robot_gripper</title>
<polygon fill="white" stroke="blue" points="1799.9,-26.5 1652.9,-26.5 1652.9,-9.5 1799.9,-9.5 1799.9,-26.5"/>
<text text-anchor="middle" x="1726.4" y="-16.1" font-family="Times,serif" font-size="8.00" fill="blue">/robot_gripper: {&#39;rotation&#39;: 0.0,...</text>
</g>
<!-- Robot Status&#45;&gt;/robot_gripper -->
<g id="edge29" class="edge">
<title>Robot Status&#45;&gt;/robot_gripper</title>
<path fill="none" stroke="blue" d="M146.48,-33.99C156.36,-41.65 169.24,-50.02 182.4,-54 259.6,-77.38 1555.13,-68.96 1634.4,-54 1657.72,-49.6 1682.71,-39.44 1700.75,-31.03"/>
<polygon fill="blue" stroke="blue" points="1702.5,-34.07 1710,-26.59 1699.47,-27.76 1702.5,-34.07"/>
</g>
<!-- /robot_pose -->
<g id="node24" class="node">
<title>/robot_pose</title>
<polygon fill="white" stroke="blue" points="1946.4,-26.5 1818.4,-26.5 1818.4,-9.5 1946.4,-9.5 1946.4,-26.5"/>
<text text-anchor="middle" x="1882.4" y="-16.1" font-family="Times,serif" font-size="8.00" fill="blue">/robot_pose: {&#39;x&#39;: 0, &#39;y&#39;: 0, ...</text>
</g>
<!-- Robot Status&#45;&gt;/robot_pose -->
<g id="edge32" class="edge">
<title>Robot Status&#45;&gt;/robot_pose</title>
<path fill="none" stroke="blue" d="M146.48,-33.99C156.36,-41.65 169.24,-50.02 182.4,-54 268.43,-80.05 1712.42,-72.46 1800.4,-54 1821.06,-49.66 1842.88,-39.8 1858.81,-31.49"/>
<polygon fill="blue" stroke="blue" points="1860.77,-34.41 1867.91,-26.58 1857.44,-28.25 1860.77,-34.41"/>
</g>
<!-- /fill_progress -->
<g id="node21" class="node">
<title>/fill_progress</title>
<polygon fill="white" stroke="blue" points="1475.9,-26.5 1386.9,-26.5 1386.9,-9.5 1475.9,-9.5 1475.9,-26.5"/>
<text text-anchor="middle" x="1431.4" y="-16.1" font-family="Times,serif" font-size="8.00" fill="blue">/fill_progress: 100</text>
</g>
<!-- Filling Station Status&#45;&gt;/fill_progress -->
<g id="edge23" class="edge">
<title>Filling Station Status&#45;&gt;/fill_progress</title>
<path fill="none" stroke="blue" d="M258.54,-34.04C271.53,-41.72 288.19,-50.08 304.4,-54 361.9,-67.92 1312.26,-69.38 1369.4,-54 1384.95,-49.81 1400.62,-40.66 1412.32,-32.63"/>
<polygon fill="blue" stroke="blue" points="1414.69,-35.23 1420.77,-26.55 1410.61,-29.55 1414.69,-35.23"/>
</g>
<!-- /status -->
<g id="node25" class="node">
<title>/status</title>
<polygon fill="white" stroke="blue" points="1368.9,-26.5 1303.9,-26.5 1303.9,-9.5 1368.9,-9.5 1368.9,-26.5"/>
<text text-anchor="middle" x="1336.4" y="-16.1" font-family="Times,serif" font-size="8.00" fill="blue">/status: wait</text>
</g>
<!-- Filling Station Status&#45;&gt;/status -->
<g id="edge34" class="edge">
<title>Filling Station Status&#45;&gt;/status</title>
<path fill="none" stroke="blue" d="M258.54,-34.04C271.53,-41.72 288.19,-50.08 304.4,-54 357.37,-66.82 1233.45,-70.49 1285.4,-54 1298.37,-49.88 1310.88,-41.14 1320.27,-33.31"/>
<polygon fill="blue" stroke="blue" points="1322.77,-35.77 1327.93,-26.52 1318.13,-30.53 1322.77,-35.77"/>
</g>
<!-- Active? -->
<g id="node7" class="node">
<title>Active?</title>
<ellipse fill="gray" stroke="blue" cx="331.4" cy="-18" rx="27" ry="18"/>
<text text-anchor="middle" x="331.4" y="-16.4" font-family="Times,serif" font-size="7.00" fill="blue">Active?</text>
</g>
<!-- Fill&#45;&gt;Active? -->
<g id="edge6" class="edge">
<title>Fill&#45;&gt;Active?</title>
<path fill="none" stroke="black" d="M462.94,-215.85C437.63,-177.98 376.91,-87.11 347.67,-43.35"/>
<polygon fill="black" stroke="black" points="350.4,-41.14 341.93,-34.77 344.58,-45.03 350.4,-41.14"/>
</g>
<!-- Filling Station Ready? -->
<g id="node8" class="node">
<title>Filling Station Ready?</title>
<ellipse fill="gray" stroke="blue" cx="430.4" cy="-18" rx="53.67" ry="18"/>
<text text-anchor="middle" x="430.4" y="-16.4" font-family="Times,serif" font-size="7.00" fill="blue">Filling Station Ready?</text>
</g>
<!-- Fill&#45;&gt;Filling Station Ready? -->
<g id="edge7" class="edge">
<title>Fill&#45;&gt;Filling Station Ready?</title>
<path fill="none" stroke="black" d="M470.87,-215.85C463.24,-178.75 445.16,-90.81 435.97,-46.1"/>
<polygon fill="black" stroke="black" points="439.38,-45.32 433.94,-36.23 432.53,-46.73 439.38,-45.32"/>
</g>
<!-- Go to Filling Station -->
<g id="node9" class="node">
<title>Go to Filling Station</title>
<polygon fill="orange" stroke="black" points="596.4,-180 474.4,-180 474.4,-144 596.4,-144 596.4,-180"/>
<text text-anchor="middle" x="535.4" y="-159.8" font-family="Times,serif" font-size="9.00">Ⓜ Go to Filling Station</text>
</g>
<!-- Fill&#45;&gt;Go to Filling Station -->
<g id="edge8" class="edge">
<title>Fill&#45;&gt;Go to Filling Station</title>
<path fill="none" stroke="black" d="M489.48,-215.7C496.79,-207.3 505.71,-197.07 513.73,-187.86"/>
<polygon fill="black" stroke="black" points="516.56,-189.94 520.49,-180.1 511.28,-185.34 516.56,-189.94"/>
</g>
<!-- Bottle Fill -->
<g id="node13" class="node">
<title>Bottle Fill</title>
<polygon fill="orange" stroke="black" points="858.4,-180 784.4,-180 784.4,-144 858.4,-144 858.4,-180"/>
<text text-anchor="middle" x="821.4" y="-159.8" font-family="Times,serif" font-size="9.00">Ⓜ Bottle Fill</text>
</g>
<!-- Fill&#45;&gt;Bottle Fill -->
<g id="edge12" class="edge">
<title>Fill&#45;&gt;Bottle Fill</title>
<path fill="none" stroke="black" d="M501.62,-227.51C560.6,-215.61 700.75,-187.34 774.38,-172.49"/>
<polygon fill="black" stroke="black" points="775.2,-175.89 784.31,-170.48 773.81,-169.03 775.2,-175.89"/>
</g>
<!-- Finish Fill -->
<g id="node17" class="node">
<title>Finish Fill</title>
<ellipse fill="gray" stroke="blue" cx="1098.4" cy="-18" rx="29.05" ry="18"/>
<text text-anchor="middle" x="1098.4" y="-16.4" font-family="Times,serif" font-size="7.00" fill="blue">Finish Fill</text>
</g>
<!-- Fill&#45;&gt;Finish Fill -->
<g id="edge16" class="edge">
<title>Fill&#45;&gt;Finish Fill</title>
<path fill="none" stroke="black" d="M501.53,-231.66C565.98,-227.98 732.94,-215.52 867.4,-180 950.3,-158.1 981.49,-164.04 1046.4,-108 1066.1,-90.99 1080.19,-64.59 1088.7,-44.95"/>
<polygon fill="black" stroke="black" points="1091.96,-46.23 1092.53,-35.65 1085.48,-43.56 1091.96,-46.23"/>
</g>
<!-- Robot Stationary? -->
<g id="node10" class="node">
<title>Robot Stationary?</title>
<ellipse fill="gray" stroke="blue" cx="547.4" cy="-18" rx="45.54" ry="18"/>
<text text-anchor="middle" x="547.4" y="-16.4" font-family="Times,serif" font-size="7.00" fill="blue">Robot Stationary?</text>
</g>
<!-- Go to Filling Station&#45;&gt;Robot Stationary? -->
<g id="edge9" class="edge">
<title>Go to Filling Station&#45;&gt;Robot Stationary?</title>
<path fill="none" stroke="black" d="M504.63,-143.91C491.85,-135.02 478.4,-122.88 471.4,-108 464.59,-93.52 463.99,-86.19 471.4,-72 479.35,-56.76 493.9,-45.02 508.15,-36.5"/>
<polygon fill="black" stroke="black" points="509.9,-39.53 516.93,-31.61 506.49,-33.42 509.9,-39.53"/>
</g>
<!-- Send Filling Station Position -->
<g id="node11" class="node">
<title>Send Filling Station Position</title>
<ellipse fill="gray" stroke="black" cx="566.4" cy="-90" rx="86.05" ry="18"/>
<text text-anchor="middle" x="566.4" y="-87.8" font-family="Times,serif" font-size="9.00">Send Filling Station Position</text>
</g>
<!-- Go to Filling Station&#45;&gt;Send Filling Station Position -->
<g id="edge10" class="edge">
<title>Go to Filling Station&#45;&gt;Send Filling Station Position</title>
<path fill="none" stroke="black" d="M543.06,-143.7C546.59,-135.73 550.85,-126.1 554.77,-117.26"/>
<polygon fill="black" stroke="black" points="557.97,-118.67 558.82,-108.1 551.57,-115.83 557.97,-118.67"/>
</g>
<!-- Wait 1 sec -->
<g id="node12" class="node">
<title>Wait 1 sec</title>
<ellipse fill="gray" stroke="black" cx="707.4" cy="-90" rx="36.9" ry="18"/>
<text text-anchor="middle" x="707.4" y="-87.8" font-family="Times,serif" font-size="9.00">Wait 1 sec</text>
</g>
<!-- Go to Filling Station&#45;&gt;Wait 1 sec -->
<g id="edge11" class="edge">
<title>Go to Filling Station&#45;&gt;Wait 1 sec</title>
<path fill="none" stroke="black" d="M577.47,-143.88C605.91,-132.3 643.09,-117.17 670.4,-106.06"/>
<polygon fill="black" stroke="black" points="672.03,-109.17 679.97,-102.16 669.39,-102.69 672.03,-109.17"/>
</g>
<!-- Robot at Fill Position? -->
<g id="node14" class="node">
<title>Robot at Fill Position?</title>
<ellipse fill="gray" stroke="blue" cx="772.4" cy="-18" rx="54.28" ry="18"/>
<text text-anchor="middle" x="772.4" y="-16.4" font-family="Times,serif" font-size="7.00" fill="blue">Robot at Fill Position?</text>
</g>
<!-- Bottle Fill&#45;&gt;Robot at Fill Position? -->
<g id="edge13" class="edge">
<title>Bottle Fill&#45;&gt;Robot at Fill Position?</title>
<path fill="none" stroke="black" d="M810,-143.99C803.7,-133.9 796.2,-120.65 791.4,-108 783.79,-87.97 778.91,-64.18 776.01,-46.24"/>
<polygon fill="black" stroke="black" points="779.44,-45.53 774.48,-36.17 772.52,-46.58 779.44,-45.53"/>
</g>
<!-- Send Fill Bottle Action -->
<g id="node15" class="node">
<title>Send Fill Bottle Action</title>
<ellipse fill="gray" stroke="black" cx="870.4" cy="-90" rx="70.37" ry="18"/>
<text text-anchor="middle" x="870.4" y="-87.8" font-family="Times,serif" font-size="9.00">Send Fill Bottle Action</text>
</g>
<!-- Bottle Fill&#45;&gt;Send Fill Bottle Action -->
<g id="edge14" class="edge">
<title>Bottle Fill&#45;&gt;Send Fill Bottle Action</title>
<path fill="none" stroke="black" d="M833.51,-143.7C839.26,-135.47 846.26,-125.48 852.6,-116.42"/>
<polygon fill="black" stroke="black" points="855.56,-118.3 858.42,-108.1 849.82,-114.29 855.56,-118.3"/>
</g>
<!-- Wait 1 sec* -->
<g id="node16" class="node">
<title>Wait 1 sec*</title>
<ellipse fill="gray" stroke="black" cx="998.4" cy="-90" rx="39.02" ry="18"/>
<text text-anchor="middle" x="998.4" y="-87.8" font-family="Times,serif" font-size="9.00">Wait 1 sec*</text>
</g>
<!-- Bottle Fill&#45;&gt;Wait 1 sec* -->
<g id="edge15" class="edge">
<title>Bottle Fill&#45;&gt;Wait 1 sec*</title>
<path fill="none" stroke="black" d="M858.5,-146.33C888.32,-134.53 930.05,-118.03 960.17,-106.12"/>
<polygon fill="black" stroke="black" points="961.5,-109.36 969.51,-102.43 958.92,-102.85 961.5,-109.36"/>
</g>
<!-- Bottle Filled? -->
<g id="node18" class="node">
<title>Bottle Filled?</title>
<ellipse fill="gray" stroke="blue" cx="1181.4" cy="-18" rx="36.06" ry="18"/>
<text text-anchor="middle" x="1181.4" y="-16.4" font-family="Times,serif" font-size="7.00" fill="blue">Bottle Filled?</text>
</g>
<!-- Finish Fill&#45;&gt;Bottle Filled? -->
<g id="edge17" class="edge">
<title>Finish Fill&#45;&gt;Bottle Filled?</title>
<path fill="none" stroke="black" d="M1127.58,-18C1129.91,-18 1132.25,-18 1134.58,-18"/>
<polygon fill="black" stroke="black" points="1134.82,-21.5 1144.82,-18 1134.82,-14.5 1134.82,-21.5"/>
</g>
<!-- Finish Fill* -->
<g id="node19" class="node">
<title>Finish Fill*</title>
<ellipse fill="gray" stroke="black" cx="1132.4" cy="-90" rx="39.02" ry="18"/>
<text text-anchor="middle" x="1132.4" y="-87.8" font-family="Times,serif" font-size="9.00">Finish Fill*</text>
</g>
<!-- Finish Fill&#45;&gt;Finish Fill* -->
<g id="edge18" class="edge">
<title>Finish Fill&#45;&gt;Finish Fill*</title>
<path fill="none" stroke="black" d="M1106.55,-35.79C1110.51,-43.93 1115.35,-53.9 1119.77,-63"/>
<polygon fill="black" stroke="black" points="1116.65,-64.59 1124.17,-72.05 1122.95,-61.53 1116.65,-64.59"/>
</g>
<!-- /filling -->
<g id="node22" class="node">
<title>/filling</title>
<polygon fill="white" stroke="blue" points="1285.4,-26.5 1235.4,-26.5 1235.4,-9.5 1285.4,-9.5 1285.4,-26.5"/>
<text text-anchor="middle" x="1260.4" y="-16.1" font-family="Times,serif" font-size="8.00" fill="blue">/filling: &#45;</text>
</g>
<!-- Finish Fill&#45;&gt;/filling -->
<g id="edge26" class="edge">
<title>Finish Fill&#45;&gt;/filling</title>
<path fill="none" stroke="blue" d="M1113.37,-33.58C1121.92,-41.33 1133.33,-49.91 1145.4,-54 1175.7,-64.27 1187.32,-64.93 1217.4,-54 1228.28,-50.04 1238.34,-41.99 1245.98,-34.5"/>
<polygon fill="blue" stroke="blue" points="1248.92,-36.49 1253.26,-26.82 1243.84,-31.67 1248.92,-36.49"/>
</g>
<!-- /robot_status&#45;&gt;Robot Stationary? -->
<g id="edge19" class="edge">
<title>/robot_status&#45;&gt;Robot Stationary?</title>
<path fill="none" stroke="green" d="M1548.76,-26.58C1531.6,-35.47 1502.96,-48.78 1476.4,-54 1393.76,-70.25 802.17,-62.72 718.4,-54 676.28,-49.62 629.27,-39.31 595.21,-30.85"/>
<polygon fill="green" stroke="green" points="595.63,-27.34 585.07,-28.29 593.91,-34.13 595.63,-27.34"/>
</g>
<!-- /robot_status&#45;&gt;Robot at Fill Position? -->
<g id="edge20" class="edge">
<title>/robot_status&#45;&gt;Robot at Fill Position?</title>
<path fill="none" stroke="green" d="M1548.76,-26.58C1531.6,-35.47 1502.96,-48.78 1476.4,-54 1387.65,-71.45 1159.68,-59.45 1069.4,-54 986.45,-48.99 891.17,-36.18 831.38,-27.28"/>
<polygon fill="green" stroke="green" points="831.78,-23.8 821.37,-25.77 830.74,-30.72 831.78,-23.8"/>
</g>
<!-- /fill_progress&#45;&gt;Bottle Filled? -->
<g id="edge22" class="edge">
<title>/fill_progress&#45;&gt;Bottle Filled?</title>
<path fill="none" stroke="green" d="M1420.77,-26.55C1409.01,-35.41 1389.11,-48.69 1369.4,-54 1311.89,-69.49 1292.4,-71.26 1235.4,-54 1225.63,-51.04 1216.02,-45.67 1207.67,-39.97"/>
<polygon fill="green" stroke="green" points="1209.62,-37.06 1199.48,-33.99 1205.49,-42.71 1209.62,-37.06"/>
</g>
<!-- /filling&#45;&gt;Report Status -->
<g id="edge25" class="edge">
<title>/filling&#45;&gt;Report Status</title>
<path fill="none" stroke="green" d="M1253.26,-26.82C1245.5,-35.63 1232.22,-48.61 1217.4,-54 1158.65,-75.34 152.29,-71.86 92.4,-54 82.49,-51.05 72.72,-45.68 64.21,-39.97"/>
<polygon fill="green" stroke="green" points="66.03,-36.97 55.86,-33.99 61.95,-42.66 66.03,-36.97"/>
</g>
<!-- /filling&#45;&gt;Active? -->
<g id="edge24" class="edge">
<title>/filling&#45;&gt;Active?</title>
<path fill="none" stroke="green" d="M1253.26,-26.82C1245.5,-35.63 1232.22,-48.61 1217.4,-54 1173.48,-69.96 420.48,-69.47 376.4,-54 368.17,-51.11 360.32,-46.02 353.56,-40.55"/>
<polygon fill="green" stroke="green" points="355.43,-37.54 345.61,-33.57 350.81,-42.8 355.43,-37.54"/>
</g>
<!-- /robot_gripper&#45;&gt;Robot Stationary? -->
<g id="edge27" class="edge">
<title>/robot_gripper&#45;&gt;Robot Stationary?</title>
<path fill="none" stroke="green" d="M1710,-26.59C1692.02,-35.48 1662.04,-48.78 1634.4,-54 1534.38,-72.87 819.63,-64.54 718.4,-54 676.28,-49.62 629.27,-39.31 595.21,-30.85"/>
<polygon fill="green" stroke="green" points="595.63,-27.34 585.07,-28.29 593.91,-34.13 595.63,-27.34"/>
</g>
<!-- /robot_gripper&#45;&gt;Robot at Fill Position? -->
<g id="edge28" class="edge">
<title>/robot_gripper&#45;&gt;Robot at Fill Position?</title>
<path fill="none" stroke="green" d="M1710,-26.59C1692.02,-35.48 1662.04,-48.78 1634.4,-54 1511.02,-77.28 1194.72,-61.57 1069.4,-54 986.45,-48.99 891.17,-36.18 831.38,-27.28"/>
<polygon fill="green" stroke="green" points="831.78,-23.8 821.37,-25.77 830.74,-30.72 831.78,-23.8"/>
</g>
<!-- /robot_pose&#45;&gt;Robot Stationary? -->
<g id="edge30" class="edge">
<title>/robot_pose&#45;&gt;Robot Stationary?</title>
<path fill="none" stroke="green" d="M1867.91,-26.58C1851.99,-35.46 1825.35,-48.76 1800.4,-54 1682.74,-78.69 837.97,-66.45 718.4,-54 676.28,-49.62 629.27,-39.31 595.21,-30.85"/>
<polygon fill="green" stroke="green" points="595.63,-27.34 585.07,-28.29 593.91,-34.13 595.63,-27.34"/>
</g>
<!-- /robot_pose&#45;&gt;Robot at Fill Position? -->
<g id="edge31" class="edge">
<title>/robot_pose&#45;&gt;Robot at Fill Position?</title>
<path fill="none" stroke="green" d="M1867.91,-26.58C1851.99,-35.46 1825.35,-48.76 1800.4,-54 1641.41,-87.36 1231.55,-63.79 1069.4,-54 986.45,-48.99 891.17,-36.18 831.38,-27.28"/>
<polygon fill="green" stroke="green" points="831.78,-23.8 821.37,-25.77 830.74,-30.72 831.78,-23.8"/>
</g>
<!-- /status&#45;&gt;Filling Station Ready? -->
<g id="edge33" class="edge">
<title>/status&#45;&gt;Filling Station Ready?</title>
<path fill="none" stroke="green" d="M1327.93,-26.52C1318.5,-35.36 1302.34,-48.62 1285.4,-54 1202.37,-80.35 586.12,-74.25 501.4,-54 488.46,-50.91 475.21,-45.05 463.71,-38.94"/>
<polygon fill="green" stroke="green" points="465.35,-35.85 454.91,-34.04 461.95,-41.97 465.35,-35.85"/>
</g>
</g>
</svg>
