<?xml version="1.0" encoding="UTF-8" standalone="no"?>
<!DOCTYPE svg PUBLIC "-//W3C//DTD SVG 1.1//EN"
 "http://www.w3.org/Graphics/SVG/1.1/DTD/svg11.dtd">
<!-- Generated by graphviz version 2.43.0 (0)
 -->
<!-- Title: pastafarianism Pages: 1 -->
<svg width="2532pt" height="372pt"
 viewBox="0.00 0.00 2531.90 372.00" xmlns="http://www.w3.org/2000/svg" xmlns:xlink="http://www.w3.org/1999/xlink">
<g id="graph0" class="graph" transform="scale(1 1) rotate(0) translate(4 368)">
<title>pastafarianism</title>
<polygon fill="white" stroke="transparent" points="-4,4 -4,-368 2527.9,-368 2527.9,4 -4,4"/>
<!-- System Skill Handover -->
<g id="node1" class="node">
<title>System Skill Handover</title>
<polygon fill="gold" stroke="black" points="567.79,-364 368.32,-364 317,-308 516.48,-308 567.79,-364"/>
<text text-anchor="middle" x="442.4" y="-338.8" font-family="Times,serif" font-size="9.00">System Skill Handover</text>
<text text-anchor="middle" x="442.4" y="-328.8" font-family="Times,serif" font-size="9.00">SuccessOnAll</text>
</g>
<!-- System State -->
<g id="node2" class="node">
<title>System State</title>
<polygon fill="orange" stroke="black" points="284.9,-118 195.9,-118 195.9,-82 284.9,-82 284.9,-118"/>
<text text-anchor="middle" x="240.4" y="-97.8" font-family="Times,serif" font-size="9.00">Ⓜ System State</text>
</g>
<!-- System Skill Handover&#45;&gt;System State -->
<g id="edge1" class="edge">
<title>System Skill Handover&#45;&gt;System State</title>
<path fill="none" stroke="black" d="M418.83,-307.7C379.25,-261.85 300.01,-170.06 261.88,-125.88"/>
<polygon fill="black" stroke="black" points="264.44,-123.49 255.25,-118.21 259.14,-128.07 264.44,-123.49"/>
</g>
<!-- Handover -->
<g id="node7" class="node">
<title>Handover</title>
<polygon fill="orange" stroke="black" points="680.4,-272 606.4,-272 606.4,-236 680.4,-236 680.4,-272"/>
<text text-anchor="middle" x="643.4" y="-251.8" font-family="Times,serif" font-size="9.00">Ⓜ Handover</text>
</g>
<!-- System Skill Handover&#45;&gt;Handover -->
<g id="edge6" class="edge">
<title>System Skill Handover&#45;&gt;Handover</title>
<path fill="none" stroke="black" d="M510.45,-307.92C538.82,-296.62 571.07,-283.79 596.7,-273.59"/>
<polygon fill="black" stroke="black" points="598.17,-276.77 606.17,-269.82 595.59,-270.26 598.17,-276.77"/>
</g>
<!-- Report Status -->
<g id="node3" class="node">
<title>Report Status</title>
<ellipse fill="gray" stroke="blue" cx="37.4" cy="-18" rx="37.29" ry="18"/>
<text text-anchor="middle" x="37.4" y="-16.4" font-family="Times,serif" font-size="7.00" fill="blue">Report Status</text>
</g>
<!-- System State&#45;&gt;Report Status -->
<g id="edge2" class="edge">
<title>System State&#45;&gt;Report Status</title>
<path fill="none" stroke="black" d="M196.85,-81.84C160.69,-67.59 109.78,-47.52 75.28,-33.93"/>
<polygon fill="black" stroke="black" points="76.17,-30.52 65.58,-30.11 73.6,-37.03 76.17,-30.52"/>
</g>
<!-- Robot Status -->
<g id="node4" class="node">
<title>Robot Status</title>
<ellipse fill="gray" stroke="blue" cx="128.4" cy="-18" rx="35.95" ry="18"/>
<text text-anchor="middle" x="128.4" y="-16.4" font-family="Times,serif" font-size="7.00" fill="blue">Robot Status</text>
</g>
<!-- System State&#45;&gt;Robot Status -->
<g id="edge3" class="edge">
<title>System State&#45;&gt;Robot Status</title>
<path fill="none" stroke="black" d="M216.37,-81.84C198.84,-69.31 175.01,-52.3 156.58,-39.13"/>
<polygon fill="black" stroke="black" points="158.44,-36.16 148.27,-33.2 154.38,-41.86 158.44,-36.16"/>
</g>
<!-- Gesture Detector Status -->
<g id="node5" class="node">
<title>Gesture Detector Status</title>
<ellipse fill="gray" stroke="blue" cx="240.4" cy="-18" rx="58.1" ry="18"/>
<text text-anchor="middle" x="240.4" y="-16.4" font-family="Times,serif" font-size="7.00" fill="blue">Gesture Detector Status</text>
</g>
<!-- System State&#45;&gt;Gesture Detector Status -->
<g id="edge4" class="edge">
<title>System State&#45;&gt;Gesture Detector Status</title>
<path fill="none" stroke="black" d="M240.4,-81.64C240.4,-71.3 240.4,-57.94 240.4,-46.22"/>
<polygon fill="black" stroke="black" points="243.9,-46.05 240.4,-36.05 236.9,-46.05 243.9,-46.05"/>
</g>
<!-- Human Intent Detector Status -->
<g id="node6" class="node">
<title>Human Intent Detector Status</title>
<ellipse fill="gray" stroke="blue" cx="387.4" cy="-18" rx="70.77" ry="18"/>
<text text-anchor="middle" x="387.4" y="-16.4" font-family="Times,serif" font-size="7.00" fill="blue">Human Intent Detector Status</text>
</g>
<!-- System State&#45;&gt;Human Intent Detector Status -->
<g id="edge5" class="edge">
<title>System State&#45;&gt;Human Intent Detector Status</title>
<path fill="none" stroke="black" d="M271.93,-81.84C294.82,-69.38 325.88,-52.48 350.02,-39.34"/>
<polygon fill="black" stroke="black" points="351.79,-42.36 358.9,-34.51 348.44,-36.21 351.79,-42.36"/>
</g>
<!-- /robot_status -->
<g id="node27" class="node">
<title>/robot_status</title>
<polygon fill="white" stroke="blue" points="1922.4,-26.5 1782.4,-26.5 1782.4,-9.5 1922.4,-9.5 1922.4,-26.5"/>
<text text-anchor="middle" x="1852.4" y="-16.1" font-family="Times,serif" font-size="8.00" fill="blue">/robot_status: {&#39;status&#39;: &#39;busy&#39;}</text>
</g>
<!-- Robot Status&#45;&gt;/robot_status -->
<g id="edge30" class="edge">
<title>Robot Status&#45;&gt;/robot_status</title>
<path fill="none" stroke="blue" d="M146.48,-33.99C156.36,-41.65 169.24,-50.02 182.4,-54 266.51,-79.47 1678.16,-70.96 1764.4,-54 1786.6,-49.63 1810.26,-39.62 1827.45,-31.26"/>
<polygon fill="blue" stroke="blue" points="1829.4,-34.2 1836.76,-26.58 1826.25,-27.94 1829.4,-34.2"/>
</g>
<!-- /robot_pose -->
<g id="node28" class="node">
<title>/robot_pose</title>
<polygon fill="white" stroke="blue" points="2358.4,-26.5 2230.4,-26.5 2230.4,-9.5 2358.4,-9.5 2358.4,-26.5"/>
<text text-anchor="middle" x="2294.4" y="-16.1" font-family="Times,serif" font-size="8.00" fill="blue">/robot_pose: {&#39;x&#39;: 0, &#39;y&#39;: 0, ...</text>
</g>
<!-- Robot Status&#45;&gt;/robot_pose -->
<g id="edge35" class="edge">
<title>Robot Status&#45;&gt;/robot_pose</title>
<path fill="none" stroke="blue" d="M146.48,-33.99C156.36,-41.65 169.24,-50.02 182.4,-54 236.37,-70.34 2157.21,-65.58 2212.4,-54 2233.06,-49.66 2254.88,-39.8 2270.81,-31.49"/>
<polygon fill="blue" stroke="blue" points="2272.77,-34.41 2279.91,-26.58 2269.44,-28.25 2272.77,-34.41"/>
</g>
<!-- /robot_gripper -->
<g id="node32" class="node">
<title>/robot_gripper</title>
<polygon fill="white" stroke="blue" points="2523.9,-26.5 2376.9,-26.5 2376.9,-9.5 2523.9,-9.5 2523.9,-26.5"/>
<text text-anchor="middle" x="2450.4" y="-16.1" font-family="Times,serif" font-size="8.00" fill="blue">/robot_gripper: {&#39;rotation&#39;: 0.0,...</text>
</g>
<!-- Robot Status&#45;&gt;/robot_gripper -->
<g id="edge47" class="edge">
<title>Robot Status&#45;&gt;/robot_gripper</title>
<path fill="none" stroke="blue" d="M146.48,-33.99C156.36,-41.65 169.24,-50.02 182.4,-54 240.25,-71.52 2299,-65.21 2358.4,-54 2381.72,-49.6 2406.71,-39.44 2424.75,-31.03"/>
<polygon fill="blue" stroke="blue" points="2426.5,-34.07 2434,-26.59 2423.47,-27.76 2426.5,-34.07"/>
</g>
<!-- /detected_gesture -->
<g id="node30" class="node">
<title>/detected_gesture</title>
<polygon fill="white" stroke="blue" points="2212.4,-26.5 2082.4,-26.5 2082.4,-9.5 2212.4,-9.5 2212.4,-26.5"/>
<text text-anchor="middle" x="2147.4" y="-16.1" font-family="Times,serif" font-size="8.00" fill="blue">/detected_gesture: unknown</text>
</g>
<!-- Gesture Detector Status&#45;&gt;/detected_gesture -->
<g id="edge40" class="edge">
<title>Gesture Detector Status&#45;&gt;/detected_gesture</title>
<path fill="none" stroke="blue" d="M266.78,-34.05C280.94,-41.73 299.02,-50.09 316.4,-54 411.14,-75.31 1969.31,-73.73 2064.4,-54 2085.28,-49.67 2107.37,-39.8 2123.5,-31.49"/>
<polygon fill="blue" stroke="blue" points="2125.54,-34.37 2132.71,-26.58 2122.24,-28.19 2125.54,-34.37"/>
</g>
<!-- /detected_intent -->
<g id="node31" class="node">
<title>/detected_intent</title>
<polygon fill="white" stroke="blue" points="2063.9,-26.5 1940.9,-26.5 1940.9,-9.5 2063.9,-9.5 2063.9,-26.5"/>
<text text-anchor="middle" x="2002.4" y="-16.1" font-family="Times,serif" font-size="8.00" fill="blue">/detected_intent: unknown</text>
</g>
<!-- Human Intent Detector Status&#45;&gt;/detected_intent -->
<g id="edge42" class="edge">
<title>Human Intent Detector Status&#45;&gt;/detected_intent</title>
<path fill="none" stroke="blue" d="M419.03,-34.26C435.63,-41.89 456.6,-50.15 476.4,-54 555.25,-69.34 1843.85,-70.86 1922.4,-54 1942.62,-49.66 1963.9,-39.79 1979.43,-31.48"/>
<polygon fill="blue" stroke="blue" points="1981.24,-34.48 1988.29,-26.58 1977.85,-28.36 1981.24,-34.48"/>
</g>
<!-- Active? -->
<g id="node8" class="node">
<title>Active?</title>
<ellipse fill="gray" stroke="blue" cx="503.4" cy="-18" rx="27" ry="18"/>
<text text-anchor="middle" x="503.4" y="-16.4" font-family="Times,serif" font-size="7.00" fill="blue">Active?</text>
</g>
<!-- Handover&#45;&gt;Active? -->
<g id="edge7" class="edge">
<title>Handover&#45;&gt;Active?</title>
<path fill="none" stroke="black" d="M607.1,-235.86C591.76,-227.03 574.83,-214.95 563.4,-200 527.7,-153.33 512.66,-84.37 506.79,-46.47"/>
<polygon fill="black" stroke="black" points="510.2,-45.6 505.31,-36.2 503.28,-46.6 510.2,-45.6"/>
</g>
<!-- Go to Handover Position -->
<g id="node9" class="node">
<title>Go to Handover Position</title>
<polygon fill="orange" stroke="black" points="713.9,-200 572.9,-200 572.9,-164 713.9,-164 713.9,-200"/>
<text text-anchor="middle" x="643.4" y="-179.8" font-family="Times,serif" font-size="9.00">Ⓜ Go to Handover Position</text>
</g>
<!-- Handover&#45;&gt;Go to Handover Position -->
<g id="edge8" class="edge">
<title>Handover&#45;&gt;Go to Handover Position</title>
<path fill="none" stroke="black" d="M643.4,-235.7C643.4,-227.98 643.4,-218.71 643.4,-210.11"/>
<polygon fill="black" stroke="black" points="646.9,-210.1 643.4,-200.1 639.9,-210.1 646.9,-210.1"/>
</g>
<!-- Execute Handover -->
<g id="node13" class="node">
<title>Execute Handover</title>
<polygon fill="orange" stroke="black" points="1088.4,-200 974.4,-200 974.4,-164 1088.4,-164 1088.4,-200"/>
<text text-anchor="middle" x="1031.4" y="-179.8" font-family="Times,serif" font-size="9.00">Ⓜ Execute Handover</text>
</g>
<!-- Handover&#45;&gt;Execute Handover -->
<g id="edge12" class="edge">
<title>Handover&#45;&gt;Execute Handover</title>
<path fill="none" stroke="black" d="M680.6,-246.29C745.97,-234.5 882.27,-209.9 964.4,-195.09"/>
<polygon fill="black" stroke="black" points="965.16,-198.51 974.38,-193.29 963.92,-191.62 965.16,-198.51"/>
</g>
<!-- Finish Handover -->
<g id="node21" class="node">
<title>Finish Handover</title>
<ellipse fill="gray" stroke="blue" cx="1626.4" cy="-18" rx="42.34" ry="18"/>
<text text-anchor="middle" x="1626.4" y="-16.4" font-family="Times,serif" font-size="7.00" fill="blue">Finish Handover</text>
</g>
<!-- Handover&#45;&gt;Finish Handover -->
<g id="edge20" class="edge">
<title>Handover&#45;&gt;Finish Handover</title>
<path fill="none" stroke="black" d="M680.42,-251.75C758.54,-248.46 945.52,-237.04 1097.4,-200 1185.13,-178.6 1212.72,-178.78 1287.4,-128 1315.23,-109.07 1308.97,-88.35 1338.4,-72 1412.76,-30.69 1512.95,-20.74 1573.43,-18.8"/>
<polygon fill="black" stroke="black" points="1573.61,-22.3 1583.52,-18.54 1573.43,-15.3 1573.61,-22.3"/>
</g>
<!-- Robot Stationary -->
<g id="node10" class="node">
<title>Robot Stationary</title>
<ellipse fill="gray" stroke="blue" cx="592.4" cy="-18" rx="43.57" ry="18"/>
<text text-anchor="middle" x="592.4" y="-16.4" font-family="Times,serif" font-size="7.00" fill="blue">Robot Stationary</text>
</g>
<!-- Go to Handover Position&#45;&gt;Robot Stationary -->
<g id="edge9" class="edge">
<title>Go to Handover Position&#45;&gt;Robot Stationary</title>
<path fill="none" stroke="black" d="M599.83,-163.87C584.54,-155.49 569.02,-143.74 560.4,-128 548.44,-106.17 553.72,-95.98 560.4,-72 563.11,-62.27 568.14,-52.54 573.43,-44.12"/>
<polygon fill="black" stroke="black" points="576.5,-45.81 579.16,-35.56 570.69,-41.92 576.5,-45.81"/>
</g>
<!-- Send Handover Position -->
<g id="node11" class="node">
<title>Send Handover Position</title>
<ellipse fill="gray" stroke="black" cx="643.4" cy="-100" rx="73.8" ry="18"/>
<text text-anchor="middle" x="643.4" y="-97.8" font-family="Times,serif" font-size="9.00">Send Handover Position</text>
</g>
<!-- Go to Handover Position&#45;&gt;Send Handover Position -->
<g id="edge10" class="edge">
<title>Go to Handover Position&#45;&gt;Send Handover Position</title>
<path fill="none" stroke="black" d="M643.4,-163.64C643.4,-153.3 643.4,-139.94 643.4,-128.22"/>
<polygon fill="black" stroke="black" points="646.9,-128.05 643.4,-118.05 639.9,-128.05 646.9,-128.05"/>
</g>
<!-- Wait 1 sec -->
<g id="node12" class="node">
<title>Wait 1 sec</title>
<ellipse fill="gray" stroke="black" cx="772.4" cy="-100" rx="36.9" ry="18"/>
<text text-anchor="middle" x="772.4" y="-97.8" font-family="Times,serif" font-size="9.00">Wait 1 sec</text>
</g>
<!-- Go to Handover Position&#45;&gt;Wait 1 sec -->
<g id="edge11" class="edge">
<title>Go to Handover Position&#45;&gt;Wait 1 sec</title>
<path fill="none" stroke="black" d="M671.07,-163.84C691.8,-150.98 720.16,-133.39 741.61,-120.1"/>
<polygon fill="black" stroke="black" points="743.68,-122.93 750.33,-114.68 739.99,-116.98 743.68,-122.93"/>
</g>
<!-- Robot at Handover Position? -->
<g id="node14" class="node">
<title>Robot at Handover Position?</title>
<ellipse fill="gray" stroke="blue" cx="788.4" cy="-18" rx="67.57" ry="18"/>
<text text-anchor="middle" x="788.4" y="-16.4" font-family="Times,serif" font-size="7.00" fill="blue">Robot at Handover Position?</text>
</g>
<!-- Execute Handover&#45;&gt;Robot at Handover Position? -->
<g id="edge13" class="edge">
<title>Execute Handover&#45;&gt;Robot at Handover Position?</title>
<path fill="none" stroke="black" d="M974.28,-174.21C937.57,-167.47 890.55,-154.15 856.4,-128 848.81,-122.19 820.94,-75.36 803.32,-45"/>
<polygon fill="black" stroke="black" points="806.25,-43.08 798.21,-36.17 800.19,-46.58 806.25,-43.08"/>
</g>
<!-- Detectors -->
<g id="node15" class="node">
<title>Detectors</title>
<polygon fill="gold" stroke="black" points="1043.72,-128 901.63,-128 865.07,-72 1007.17,-72 1043.72,-128"/>
<text text-anchor="middle" x="954.4" y="-102.8" font-family="Times,serif" font-size="9.00">Detectors</text>
<text text-anchor="middle" x="954.4" y="-92.8" font-family="Times,serif" font-size="9.00">SuccessOnOne</text>
</g>
<!-- Execute Handover&#45;&gt;Detectors -->
<g id="edge14" class="edge">
<title>Execute Handover&#45;&gt;Detectors</title>
<path fill="none" stroke="black" d="M1014.69,-163.64C1006.72,-155.37 996.9,-145.16 987.52,-135.41"/>
<polygon fill="black" stroke="black" points="989.92,-132.86 980.46,-128.08 984.87,-137.71 989.92,-132.86"/>
</g>
<!-- Release Bottle -->
<g id="node18" class="node">
<title>Release Bottle</title>
<ellipse fill="gray" stroke="black" cx="1109.4" cy="-100" rx="47.84" ry="18"/>
<text text-anchor="middle" x="1109.4" y="-97.8" font-family="Times,serif" font-size="9.00">Release Bottle</text>
</g>
<!-- Execute Handover&#45;&gt;Release Bottle -->
<g id="edge17" class="edge">
<title>Execute Handover&#45;&gt;Release Bottle</title>
<path fill="none" stroke="black" d="M1048.32,-163.64C1059.45,-152.22 1074.16,-137.14 1086.36,-124.63"/>
<polygon fill="black" stroke="black" points="1089.09,-126.84 1093.57,-117.23 1084.08,-121.95 1089.09,-126.84"/>
</g>
<!-- Wait 1 sec* -->
<g id="node19" class="node">
<title>Wait 1 sec*</title>
<ellipse fill="gray" stroke="black" cx="1214.4" cy="-100" rx="39.02" ry="18"/>
<text text-anchor="middle" x="1214.4" y="-97.8" font-family="Times,serif" font-size="9.00">Wait 1 sec*</text>
</g>
<!-- Execute Handover&#45;&gt;Wait 1 sec* -->
<g id="edge18" class="edge">
<title>Execute Handover&#45;&gt;Wait 1 sec*</title>
<path fill="none" stroke="black" d="M1079.56,-163.94C1105.64,-154.24 1138.19,-141.39 1166.4,-128 1171.58,-125.54 1176.97,-122.75 1182.18,-119.92"/>
<polygon fill="black" stroke="black" points="1184.27,-122.77 1191.3,-114.84 1180.86,-116.65 1184.27,-122.77"/>
</g>
<!-- Robot Stationary? -->
<g id="node20" class="node">
<title>Robot Stationary?</title>
<ellipse fill="gray" stroke="blue" cx="1281.4" cy="-18" rx="45.54" ry="18"/>
<text text-anchor="middle" x="1281.4" y="-16.4" font-family="Times,serif" font-size="7.00" fill="blue">Robot Stationary?</text>
</g>
<!-- Execute Handover&#45;&gt;Robot Stationary? -->
<g id="edge19" class="edge">
<title>Execute Handover&#45;&gt;Robot Stationary?</title>
<path fill="none" stroke="black" d="M1088.53,-175.11C1149.01,-167.66 1238.93,-152.74 1262.4,-128 1282.89,-106.39 1285.53,-70.97 1284.42,-46.4"/>
<polygon fill="black" stroke="black" points="1287.91,-46.02 1283.73,-36.28 1280.92,-46.5 1287.91,-46.02"/>
</g>
<!-- Human Requested Bottle Release? -->
<g id="node16" class="node">
<title>Human Requested Bottle Release?</title>
<ellipse fill="gray" stroke="blue" cx="954.4" cy="-18" rx="80.25" ry="18"/>
<text text-anchor="middle" x="954.4" y="-16.4" font-family="Times,serif" font-size="7.00" fill="blue">Human Requested Bottle Release?</text>
</g>
<!-- Detectors&#45;&gt;Human Requested Bottle Release? -->
<g id="edge15" class="edge">
<title>Detectors&#45;&gt;Human Requested Bottle Release?</title>
<path fill="none" stroke="black" d="M954.4,-71.92C954.4,-63.72 954.4,-54.72 954.4,-46.49"/>
<polygon fill="black" stroke="black" points="957.9,-46.27 954.4,-36.27 950.9,-46.27 957.9,-46.27"/>
</g>
<!-- Gesture Bottle Holded? -->
<g id="node17" class="node">
<title>Gesture Bottle Holded?</title>
<ellipse fill="gray" stroke="blue" cx="1109.4" cy="-18" rx="56.86" ry="18"/>
<text text-anchor="middle" x="1109.4" y="-16.4" font-family="Times,serif" font-size="7.00" fill="blue">Gesture Bottle Holded?</text>
</g>
<!-- Detectors&#45;&gt;Gesture Bottle Holded? -->
<g id="edge16" class="edge">
<title>Detectors&#45;&gt;Gesture Bottle Holded?</title>
<path fill="none" stroke="black" d="M1006.87,-71.92C1028.25,-60.88 1052.48,-48.38 1072.01,-38.29"/>
<polygon fill="black" stroke="black" points="1073.63,-41.4 1080.91,-33.7 1070.42,-35.18 1073.63,-41.4"/>
</g>
<!-- Reset Gripper Rotation -->
<g id="node22" class="node">
<title>Reset Gripper Rotation</title>
<ellipse fill="gray" stroke="black" cx="1419.4" cy="-100" rx="71.68" ry="18"/>
<text text-anchor="middle" x="1419.4" y="-97.8" font-family="Times,serif" font-size="9.00">Reset Gripper Rotation</text>
</g>
<!-- Finish Handover&#45;&gt;Reset Gripper Rotation -->
<g id="edge21" class="edge">
<title>Finish Handover&#45;&gt;Reset Gripper Rotation</title>
<path fill="none" stroke="black" d="M1595.92,-30.78C1561.79,-43.97 1506.06,-65.51 1466.36,-80.85"/>
<polygon fill="black" stroke="black" points="1464.95,-77.64 1456.88,-84.51 1467.47,-84.17 1464.95,-77.64"/>
</g>
<!-- Set Home Position -->
<g id="node23" class="node">
<title>Set Home Position</title>
<ellipse fill="gray" stroke="black" cx="1567.4" cy="-100" rx="58.13" ry="18"/>
<text text-anchor="middle" x="1567.4" y="-97.8" font-family="Times,serif" font-size="9.00">Set Home Position</text>
</g>
<!-- Finish Handover&#45;&gt;Set Home Position -->
<g id="edge22" class="edge">
<title>Finish Handover&#45;&gt;Set Home Position</title>
<path fill="none" stroke="black" d="M1614.31,-35.39C1606.15,-46.45 1595.24,-61.25 1585.99,-73.79"/>
<polygon fill="black" stroke="black" points="1583.03,-71.91 1579.91,-82.03 1588.66,-76.06 1583.03,-71.91"/>
</g>
<!-- Wait 1 sec** -->
<g id="node24" class="node">
<title>Wait 1 sec**</title>
<ellipse fill="gray" stroke="black" cx="1685.4" cy="-100" rx="42.29" ry="18"/>
<text text-anchor="middle" x="1685.4" y="-97.8" font-family="Times,serif" font-size="9.00">Wait 1 sec**</text>
</g>
<!-- Finish Handover&#45;&gt;Wait 1 sec** -->
<g id="edge23" class="edge">
<title>Finish Handover&#45;&gt;Wait 1 sec**</title>
<path fill="none" stroke="black" d="M1638.4,-35.28C1646.64,-46.44 1657.71,-61.46 1667.05,-74.12"/>
<polygon fill="black" stroke="black" points="1664.42,-76.45 1673.17,-82.42 1670.05,-72.3 1664.42,-76.45"/>
</g>
<!-- Robot Stationary?* -->
<g id="node25" class="node">
<title>Robot Stationary?*</title>
<ellipse fill="gray" stroke="black" cx="1805.4" cy="-100" rx="60.09" ry="18"/>
<text text-anchor="middle" x="1805.4" y="-97.8" font-family="Times,serif" font-size="9.00">Robot Stationary?*</text>
</g>
<!-- Finish Handover&#45;&gt;Robot Stationary?* -->
<g id="edge24" class="edge">
<title>Finish Handover&#45;&gt;Robot Stationary?*</title>
<path fill="none" stroke="black" d="M1654.59,-31.6C1683.96,-44.73 1730.29,-65.43 1763.86,-80.44"/>
<polygon fill="black" stroke="black" points="1762.84,-83.81 1773.39,-84.7 1765.69,-77.42 1762.84,-83.81"/>
</g>
<!-- Finish Handover* -->
<g id="node26" class="node">
<title>Finish Handover*</title>
<ellipse fill="gray" stroke="black" cx="1940.4" cy="-100" rx="56.66" ry="18"/>
<text text-anchor="middle" x="1940.4" y="-97.8" font-family="Times,serif" font-size="9.00">Finish Handover*</text>
</g>
<!-- Finish Handover&#45;&gt;Finish Handover* -->
<g id="edge25" class="edge">
<title>Finish Handover&#45;&gt;Finish Handover*</title>
<path fill="none" stroke="black" d="M1657.75,-30.22C1664.2,-32.31 1670.98,-34.35 1677.4,-36 1763.61,-58.13 1788.97,-47.02 1874.4,-72 1882.94,-74.5 1891.9,-77.73 1900.36,-81.07"/>
<polygon fill="black" stroke="black" points="1899.07,-84.33 1909.65,-84.87 1901.72,-77.85 1899.07,-84.33"/>
</g>
<!-- /handingover -->
<g id="node29" class="node">
<title>/handingover</title>
<polygon fill="white" stroke="blue" points="1764.4,-26.5 1686.4,-26.5 1686.4,-9.5 1764.4,-9.5 1764.4,-26.5"/>
<text text-anchor="middle" x="1725.4" y="-16.1" font-family="Times,serif" font-size="8.00" fill="blue">/handingover: &#45;</text>
</g>
<!-- Finish Handover&#45;&gt;/handingover -->
<g id="edge38" class="edge">
<title>Finish Handover&#45;&gt;/handingover</title>
<path fill="none" stroke="blue" d="M1668.94,-18C1671.27,-18 1673.59,-18 1675.92,-18"/>
<polygon fill="blue" stroke="blue" points="1676.14,-21.5 1686.14,-18 1676.14,-14.5 1676.14,-21.5"/>
</g>
<!-- /robot_status&#45;&gt;Robot Stationary -->
<g id="edge28" class="edge">
<title>/robot_status&#45;&gt;Robot Stationary</title>
<path fill="none" stroke="green" d="M1836.76,-26.58C1819.6,-35.47 1790.96,-48.78 1764.4,-54 1650.58,-76.38 835.31,-69.85 720.4,-54 691.35,-49.99 659.62,-41.1 635.02,-33.16"/>
<polygon fill="green" stroke="green" points="635.88,-29.76 625.28,-29.94 633.68,-36.4 635.88,-29.76"/>
</g>
<!-- /robot_status&#45;&gt;Robot at Handover Position? -->
<g id="edge29" class="edge">
<title>/robot_status&#45;&gt;Robot at Handover Position?</title>
<path fill="none" stroke="green" d="M1836.76,-26.58C1819.6,-35.47 1790.96,-48.78 1764.4,-54 1667.37,-73.08 971.35,-73.47 874.4,-54 858.8,-50.87 842.49,-44.83 828.33,-38.58"/>
<polygon fill="green" stroke="green" points="829.45,-35.25 818.9,-34.26 826.53,-41.61 829.45,-35.25"/>
</g>
<!-- /robot_status&#45;&gt;Robot Stationary? -->
<g id="edge26" class="edge">
<title>/robot_status&#45;&gt;Robot Stationary?</title>
<path fill="none" stroke="green" d="M1833.98,-26.55C1817.08,-33.9 1791.15,-43.93 1767.4,-48 1610.1,-74.94 1420.52,-45.84 1331.8,-28.69"/>
<polygon fill="green" stroke="green" points="1332.23,-25.21 1321.74,-26.72 1330.88,-32.08 1332.23,-25.21"/>
</g>
<!-- /robot_status&#45;&gt;Robot Stationary? -->
<g id="edge27" class="edge">
<title>/robot_status&#45;&gt;Robot Stationary?</title>
<path fill="none" stroke="green" d="M1838.88,-26.52C1821.66,-36.83 1790.63,-53.58 1761.4,-60 1685.86,-76.59 1664.55,-65.27 1587.4,-60 1497.63,-53.87 1394.08,-37.73 1333.38,-27.34"/>
<polygon fill="green" stroke="green" points="1333.73,-23.85 1323.28,-25.6 1332.54,-30.75 1333.73,-23.85"/>
</g>
<!-- /robot_pose&#45;&gt;Robot Stationary -->
<g id="edge33" class="edge">
<title>/robot_pose&#45;&gt;Robot Stationary</title>
<path fill="none" stroke="green" d="M2279.91,-26.58C2263.99,-35.46 2237.35,-48.76 2212.4,-54 2131.27,-71.02 802.51,-65.33 720.4,-54 691.35,-49.99 659.62,-41.1 635.02,-33.16"/>
<polygon fill="green" stroke="green" points="635.88,-29.76 625.28,-29.94 633.68,-36.4 635.88,-29.76"/>
</g>
<!-- /robot_pose&#45;&gt;Robot at Handover Position? -->
<g id="edge34" class="edge">
<title>/robot_pose&#45;&gt;Robot at Handover Position?</title>
<path fill="none" stroke="green" d="M2279.91,-26.58C2263.99,-35.46 2237.35,-48.76 2212.4,-54 2139.65,-69.27 947.27,-68.64 874.4,-54 858.8,-50.87 842.49,-44.83 828.33,-38.58"/>
<polygon fill="green" stroke="green" points="829.45,-35.25 818.9,-34.26 826.53,-41.61 829.45,-35.25"/>
</g>
<!-- /robot_pose&#45;&gt;Robot Stationary? -->
<g id="edge31" class="edge">
<title>/robot_pose&#45;&gt;Robot Stationary?</title>
<path fill="none" stroke="green" d="M2277.35,-26.55C2261.69,-33.89 2237.62,-43.92 2215.4,-48 2146.11,-60.71 1651.75,-51.51 1581.4,-48 1494.91,-43.69 1394.93,-32.42 1335,-24.99"/>
<polygon fill="green" stroke="green" points="1335.37,-21.51 1325.02,-23.74 1334.5,-28.45 1335.37,-21.51"/>
</g>
<!-- /robot_pose&#45;&gt;Robot Stationary? -->
<g id="edge32" class="edge">
<title>/robot_pose&#45;&gt;Robot Stationary?</title>
<path fill="none" stroke="green" d="M2281.85,-26.52C2265.86,-36.81 2236.97,-53.56 2209.4,-60 2142.1,-75.72 1656.35,-64.71 1587.4,-60 1497.63,-53.87 1394.08,-37.73 1333.38,-27.34"/>
<polygon fill="green" stroke="green" points="1333.73,-23.85 1323.28,-25.6 1332.54,-30.75 1333.73,-23.85"/>
</g>
<!-- /handingover&#45;&gt;Report Status -->
<g id="edge37" class="edge">
<title>/handingover&#45;&gt;Report Status</title>
<path fill="none" stroke="green" d="M1715.75,-26.54C1705.04,-35.39 1686.84,-48.66 1668.4,-54 1626.34,-66.17 134.35,-66.51 92.4,-54 82.49,-51.05 72.72,-45.68 64.21,-39.97"/>
<polygon fill="green" stroke="green" points="66.03,-36.97 55.86,-33.99 61.95,-42.66 66.03,-36.97"/>
</g>
<!-- /handingover&#45;&gt;Active? -->
<g id="edge36" class="edge">
<title>/handingover&#45;&gt;Active?</title>
<path fill="none" stroke="green" d="M1715.75,-26.54C1705.04,-35.39 1686.84,-48.66 1668.4,-54 1608.63,-71.29 607.11,-74.6 548.4,-54 540.17,-51.11 532.32,-46.02 525.56,-40.55"/>
<polygon fill="green" stroke="green" points="527.43,-37.54 517.61,-33.57 522.81,-42.8 527.43,-37.54"/>
</g>
<!-- /detected_gesture&#45;&gt;Gesture Bottle Holded? -->
<g id="edge39" class="edge">
<title>/detected_gesture&#45;&gt;Gesture Bottle Holded?</title>
<path fill="none" stroke="green" d="M2132.71,-26.58C2116.59,-35.46 2089.62,-48.77 2064.4,-54 1974.21,-72.72 1326.62,-66.78 1235.4,-54 1208.78,-50.27 1179.9,-42.32 1156.51,-34.84"/>
<polygon fill="green" stroke="green" points="1157.44,-31.46 1146.85,-31.67 1155.26,-38.11 1157.44,-31.46"/>
</g>
<!-- /detected_intent&#45;&gt;Human Requested Bottle Release? -->
<g id="edge41" class="edge">
<title>/detected_intent&#45;&gt;Human Requested Bottle Release?</title>
<path fill="none" stroke="green" d="M1988.29,-26.58C1972.78,-35.46 1946.82,-48.76 1922.4,-54 1827.88,-74.29 1147.57,-70.93 1052.4,-54 1034.35,-50.79 1015.26,-44.5 998.78,-38.06"/>
<polygon fill="green" stroke="green" points="999.98,-34.77 989.4,-34.27 997.36,-41.26 999.98,-34.77"/>
</g>
<!-- /robot_gripper&#45;&gt;Robot Stationary -->
<g id="edge45" class="edge">
<title>/robot_gripper&#45;&gt;Robot Stationary</title>
<path fill="none" stroke="green" d="M2434,-26.59C2416.02,-35.48 2386.04,-48.78 2358.4,-54 2268.97,-70.87 810.54,-66.44 720.4,-54 691.35,-49.99 659.62,-41.1 635.02,-33.16"/>
<polygon fill="green" stroke="green" points="635.88,-29.76 625.28,-29.94 633.68,-36.4 635.88,-29.76"/>
</g>
<!-- /robot_gripper&#45;&gt;Robot at Handover Position? -->
<g id="edge46" class="edge">
<title>/robot_gripper&#45;&gt;Robot at Handover Position?</title>
<path fill="none" stroke="green" d="M2434,-26.59C2416.02,-35.48 2386.04,-48.78 2358.4,-54 2277.38,-69.29 955.23,-70.24 874.4,-54 858.8,-50.87 842.49,-44.83 828.33,-38.58"/>
<polygon fill="green" stroke="green" points="829.45,-35.25 818.9,-34.26 826.53,-41.61 829.45,-35.25"/>
</g>
<!-- /robot_gripper&#45;&gt;Robot Stationary? -->
<g id="edge43" class="edge">
<title>/robot_gripper&#45;&gt;Robot Stationary?</title>
<path fill="none" stroke="green" d="M2431.07,-26.56C2413.35,-33.91 2386.18,-43.94 2361.4,-48 2275.87,-62.03 1667.96,-52.32 1581.4,-48 1494.91,-43.69 1394.93,-32.42 1335,-24.99"/>
<polygon fill="green" stroke="green" points="1335.37,-21.51 1325.02,-23.74 1334.5,-28.45 1335.37,-21.51"/>
</g>
<!-- /robot_gripper&#45;&gt;Robot Stationary? -->
<g id="edge44" class="edge">
<title>/robot_gripper&#45;&gt;Robot Stationary?</title>
<path fill="none" stroke="green" d="M2436.23,-26.53C2418.2,-36.83 2385.74,-53.59 2355.4,-60 2271.9,-77.63 1672.53,-65.82 1587.4,-60 1497.63,-53.87 1394.08,-37.73 1333.38,-27.34"/>
<polygon fill="green" stroke="green" points="1333.73,-23.85 1323.28,-25.6 1332.54,-30.75 1333.73,-23.85"/>
</g>
</g>
</svg>
