<?xml version="1.0" encoding="UTF-8" standalone="no"?>
<!DOCTYPE svg PUBLIC "-//W3C//DTD SVG 1.1//EN"
 "http://www.w3.org/Graphics/SVG/1.1/DTD/svg11.dtd">
<!-- Generated by graphviz version 2.43.0 (0)
 -->
<!-- Title: pastafarianism Pages: 1 -->
<svg width="1318pt" height="280pt"
 viewBox="0.00 0.00 1318.45 280.00" xmlns="http://www.w3.org/2000/svg" xmlns:xlink="http://www.w3.org/1999/xlink">
<g id="graph0" class="graph" transform="scale(1 1) rotate(0) translate(4 276)">
<title>pastafarianism</title>
<polygon fill="white" stroke="transparent" points="-4,4 -4,-276 1314.45,-276 1314.45,4 -4,4"/>
<!-- System Skill Fill -->
<g id="node1" class="node">
<title>System Skill Fill</title>
<polygon fill="gold" stroke="black" points="426.38,-272 276.54,-272 238,-216 387.83,-216 426.38,-272"/>
<text text-anchor="middle" x="332.19" y="-246.8" font-family="Times,serif" font-size="9.00">System Skill Fill</text>
<text text-anchor="middle" x="332.19" y="-236.8" font-family="Times,serif" font-size="9.00">SuccessOnAll</text>
</g>
<!-- System State -->
<g id="node2" class="node">
<title>System State</title>
<polygon fill="orange" stroke="black" points="262.69,-180 173.69,-180 173.69,-144 262.69,-144 262.69,-180"/>
<text text-anchor="middle" x="218.19" y="-159.8" font-family="Times,serif" font-size="9.00">Ⓜ System State</text>
</g>
<!-- System Skill Fill&#45;&gt;System State -->
<g id="edge1" class="edge">
<title>System Skill Fill&#45;&gt;System State</title>
<path fill="none" stroke="black" d="M293.59,-215.92C279.71,-206.17 264.2,-195.29 250.87,-185.93"/>
<polygon fill="black" stroke="black" points="252.66,-182.91 242.46,-180.03 248.64,-188.64 252.66,-182.91"/>
</g>
<!-- Fill -->
<g id="node6" class="node">
<title>Fill</title>
<polygon fill="orange" stroke="black" points="612.19,-180 558.19,-180 558.19,-144 612.19,-144 612.19,-180"/>
<text text-anchor="middle" x="585.19" y="-159.8" font-family="Times,serif" font-size="9.00">Ⓜ Fill</text>
</g>
<!-- System Skill Fill&#45;&gt;Fill -->
<g id="edge5" class="edge">
<title>System Skill Fill&#45;&gt;Fill</title>
<path fill="none" stroke="black" d="M393.43,-223.63C441.83,-208.33 507.78,-187.48 548.37,-174.64"/>
<polygon fill="black" stroke="black" points="549.64,-177.91 558.12,-171.56 547.53,-171.24 549.64,-177.91"/>
</g>
<!-- Report Status -->
<g id="node3" class="node">
<title>Report Status</title>
<ellipse fill="gray" stroke="black" cx="46.19" cy="-90" rx="46.38" ry="18"/>
<text text-anchor="middle" x="46.19" y="-87.8" font-family="Times,serif" font-size="9.00">Report Status</text>
</g>
<!-- System State&#45;&gt;Report Status -->
<g id="edge2" class="edge">
<title>System State&#45;&gt;Report Status</title>
<path fill="none" stroke="black" d="M176.11,-143.88C148.83,-132.77 113.49,-118.39 86.55,-107.43"/>
<polygon fill="black" stroke="black" points="87.62,-104.08 77.04,-103.56 84.98,-110.57 87.62,-104.08"/>
</g>
<!-- Robot Status -->
<g id="node4" class="node">
<title>Robot Status</title>
<ellipse fill="gray" stroke="black" cx="154.19" cy="-90" rx="43.76" ry="18"/>
<text text-anchor="middle" x="154.19" y="-87.8" font-family="Times,serif" font-size="9.00">Robot Status</text>
</g>
<!-- System State&#45;&gt;Robot Status -->
<g id="edge3" class="edge">
<title>System State&#45;&gt;Robot Status</title>
<path fill="none" stroke="black" d="M202.37,-143.7C194.39,-134.97 184.58,-124.24 175.91,-114.75"/>
<polygon fill="black" stroke="black" points="178.28,-112.16 168.95,-107.14 173.11,-116.89 178.28,-112.16"/>
</g>
<!-- Filling Station Status -->
<g id="node5" class="node">
<title>Filling Station Status</title>
<ellipse fill="gray" stroke="black" cx="282.19" cy="-90" rx="66.29" ry="18"/>
<text text-anchor="middle" x="282.19" y="-87.8" font-family="Times,serif" font-size="9.00">Filling Station Status</text>
</g>
<!-- System State&#45;&gt;Filling Station Status -->
<g id="edge4" class="edge">
<title>System State&#45;&gt;Filling Station Status</title>
<path fill="none" stroke="black" d="M234.01,-143.7C241.87,-135.09 251.51,-124.55 260.09,-115.17"/>
<polygon fill="black" stroke="black" points="262.83,-117.36 266.99,-107.62 257.66,-112.64 262.83,-117.36"/>
</g>
<!-- Active? -->
<g id="node7" class="node">
<title>Active?</title>
<ellipse fill="gray" stroke="black" cx="395.19" cy="-90" rx="28.74" ry="18"/>
<text text-anchor="middle" x="395.19" y="-87.8" font-family="Times,serif" font-size="9.00">Active?</text>
</g>
<!-- Fill&#45;&gt;Active? -->
<g id="edge6" class="edge">
<title>Fill&#45;&gt;Active?</title>
<path fill="none" stroke="black" d="M558.02,-152.3C527.42,-142.33 476.3,-125.13 433.19,-108 431.11,-107.18 428.99,-106.3 426.85,-105.41"/>
<polygon fill="black" stroke="black" points="428.13,-102.14 417.56,-101.39 425.35,-108.57 428.13,-102.14"/>
</g>
<!-- Filling Station Ready? -->
<g id="node8" class="node">
<title>Filling Station Ready?</title>
<ellipse fill="gray" stroke="black" cx="511.19" cy="-90" rx="68.91" ry="18"/>
<text text-anchor="middle" x="511.19" y="-87.8" font-family="Times,serif" font-size="9.00">Filling Station Ready?</text>
</g>
<!-- Fill&#45;&gt;Filling Station Ready? -->
<g id="edge7" class="edge">
<title>Fill&#45;&gt;Filling Station Ready?</title>
<path fill="none" stroke="black" d="M566.9,-143.7C557.62,-134.92 546.21,-124.13 536.14,-114.61"/>
<polygon fill="black" stroke="black" points="538.43,-111.95 528.76,-107.62 533.62,-117.04 538.43,-111.95"/>
</g>
<!-- Go to Filling Station -->
<g id="node9" class="node">
<title>Go to Filling Station</title>
<polygon fill="orange" stroke="black" points="720.19,-108 598.19,-108 598.19,-72 720.19,-72 720.19,-108"/>
<text text-anchor="middle" x="659.19" y="-87.8" font-family="Times,serif" font-size="9.00">Ⓜ Go to Filling Station</text>
</g>
<!-- Fill&#45;&gt;Go to Filling Station -->
<g id="edge8" class="edge">
<title>Fill&#45;&gt;Go to Filling Station</title>
<path fill="none" stroke="black" d="M603.48,-143.7C612.62,-135.05 623.83,-124.45 633.79,-115.03"/>
<polygon fill="black" stroke="black" points="636.25,-117.52 641.11,-108.1 631.44,-112.43 636.25,-117.52"/>
</g>
<!-- Bottle Fill -->
<g id="node13" class="node">
<title>Bottle Fill</title>
<polygon fill="orange" stroke="black" points="898.19,-108 824.19,-108 824.19,-72 898.19,-72 898.19,-108"/>
<text text-anchor="middle" x="861.19" y="-87.8" font-family="Times,serif" font-size="9.00">Ⓜ Bottle Fill</text>
</g>
<!-- Fill&#45;&gt;Bottle Fill -->
<g id="edge12" class="edge">
<title>Fill&#45;&gt;Bottle Fill</title>
<path fill="none" stroke="black" d="M612.41,-154.1C659.36,-142.19 756.12,-117.65 814.16,-102.93"/>
<polygon fill="black" stroke="black" points="815.35,-106.24 824.18,-100.39 813.63,-99.45 815.35,-106.24"/>
</g>
<!-- Finish Fill -->
<g id="node17" class="node">
<title>Finish Fill</title>
<polygon fill="orange" stroke="black" points="1206.69,-108 1131.69,-108 1131.69,-72 1206.69,-72 1206.69,-108"/>
<text text-anchor="middle" x="1169.19" y="-87.8" font-family="Times,serif" font-size="9.00">Ⓜ Finish Fill</text>
</g>
<!-- Fill&#45;&gt;Finish Fill -->
<g id="edge16" class="edge">
<title>Fill&#45;&gt;Finish Fill</title>
<path fill="none" stroke="black" d="M612.57,-157.72C704.73,-146.67 1004.38,-110.75 1121.58,-96.71"/>
<polygon fill="black" stroke="black" points="1122.17,-100.16 1131.69,-95.5 1121.34,-93.21 1122.17,-100.16"/>
</g>
<!-- Robot Stationary? -->
<g id="node10" class="node">
<title>Robot Stationary?</title>
<ellipse fill="gray" stroke="black" cx="357.19" cy="-18" rx="57.32" ry="18"/>
<text text-anchor="middle" x="357.19" y="-15.8" font-family="Times,serif" font-size="9.00">Robot Stationary?</text>
</g>
<!-- Go to Filling Station&#45;&gt;Robot Stationary? -->
<g id="edge9" class="edge">
<title>Go to Filling Station&#45;&gt;Robot Stationary?</title>
<path fill="none" stroke="black" d="M598.13,-74.08C595.11,-73.37 592.11,-72.67 589.19,-72 515.61,-55.09 496.64,-53.42 423.19,-36 418.8,-34.96 414.25,-33.85 409.68,-32.72"/>
<polygon fill="black" stroke="black" points="410.28,-29.26 399.73,-30.22 408.58,-36.05 410.28,-29.26"/>
</g>
<!-- Send Filling Station Position -->
<g id="node11" class="node">
<title>Send Filling Station Position</title>
<ellipse fill="gray" stroke="black" cx="518.19" cy="-18" rx="86.05" ry="18"/>
<text text-anchor="middle" x="518.19" y="-15.8" font-family="Times,serif" font-size="9.00">Send Filling Station Position</text>
</g>
<!-- Go to Filling Station&#45;&gt;Send Filling Station Position -->
<g id="edge10" class="edge">
<title>Go to Filling Station&#45;&gt;Send Filling Station Position</title>
<path fill="none" stroke="black" d="M624.7,-71.88C604.9,-62.05 579.93,-49.65 559.14,-39.33"/>
<polygon fill="black" stroke="black" points="560.43,-36.06 549.91,-34.75 557.31,-42.33 560.43,-36.06"/>
</g>
<!-- Wait 1 sec -->
<g id="node12" class="node">
<title>Wait 1 sec</title>
<ellipse fill="gray" stroke="black" cx="659.19" cy="-18" rx="36.9" ry="18"/>
<text text-anchor="middle" x="659.19" y="-15.8" font-family="Times,serif" font-size="9.00">Wait 1 sec</text>
</g>
<!-- Go to Filling Station&#45;&gt;Wait 1 sec -->
<g id="edge11" class="edge">
<title>Go to Filling Station&#45;&gt;Wait 1 sec</title>
<path fill="none" stroke="black" d="M659.19,-71.7C659.19,-63.98 659.19,-54.71 659.19,-46.11"/>
<polygon fill="black" stroke="black" points="662.69,-46.1 659.19,-36.1 655.69,-46.1 662.69,-46.1"/>
</g>
<!-- Robot at Fill Position? -->
<g id="node14" class="node">
<title>Robot at Fill Position?</title>
<ellipse fill="gray" stroke="black" cx="782.19" cy="-18" rx="68.25" ry="18"/>
<text text-anchor="middle" x="782.19" y="-15.8" font-family="Times,serif" font-size="9.00">Robot at Fill Position?</text>
</g>
<!-- Bottle Fill&#45;&gt;Robot at Fill Position? -->
<g id="edge13" class="edge">
<title>Bottle Fill&#45;&gt;Robot at Fill Position?</title>
<path fill="none" stroke="black" d="M841.66,-71.7C831.59,-62.77 819.16,-51.76 808.27,-42.11"/>
<polygon fill="black" stroke="black" points="810.48,-39.4 800.68,-35.38 805.84,-44.63 810.48,-39.4"/>
</g>
<!-- Send Fill Bottle Action -->
<g id="node15" class="node">
<title>Send Fill Bottle Action</title>
<ellipse fill="gray" stroke="black" cx="939.19" cy="-18" rx="70.37" ry="18"/>
<text text-anchor="middle" x="939.19" y="-15.8" font-family="Times,serif" font-size="9.00">Send Fill Bottle Action</text>
</g>
<!-- Bottle Fill&#45;&gt;Send Fill Bottle Action -->
<g id="edge14" class="edge">
<title>Bottle Fill&#45;&gt;Send Fill Bottle Action</title>
<path fill="none" stroke="black" d="M880.47,-71.7C890.34,-62.84 902.51,-51.92 913.2,-42.33"/>
<polygon fill="black" stroke="black" points="915.56,-44.91 920.67,-35.62 910.89,-39.7 915.56,-44.91"/>
</g>
<!-- Wait 1 sec* -->
<g id="node16" class="node">
<title>Wait 1 sec*</title>
<ellipse fill="gray" stroke="black" cx="1067.19" cy="-18" rx="39.02" ry="18"/>
<text text-anchor="middle" x="1067.19" y="-15.8" font-family="Times,serif" font-size="9.00">Wait 1 sec*</text>
</g>
<!-- Bottle Fill&#45;&gt;Wait 1 sec* -->
<g id="edge15" class="edge">
<title>Bottle Fill&#45;&gt;Wait 1 sec*</title>
<path fill="none" stroke="black" d="M898.33,-76.56C930.16,-65.87 977.22,-50.02 1018.19,-36 1021.12,-35 1024.14,-33.96 1027.19,-32.91"/>
<polygon fill="black" stroke="black" points="1028.57,-36.13 1036.88,-29.56 1026.29,-29.52 1028.57,-36.13"/>
</g>
<!-- Bottle Filled? -->
<g id="node18" class="node">
<title>Bottle Filled?</title>
<ellipse fill="gray" stroke="black" cx="1169.19" cy="-18" rx="45.07" ry="18"/>
<text text-anchor="middle" x="1169.19" y="-15.8" font-family="Times,serif" font-size="9.00">Bottle Filled?</text>
</g>
<!-- Finish Fill&#45;&gt;Bottle Filled? -->
<g id="edge17" class="edge">
<title>Finish Fill&#45;&gt;Bottle Filled?</title>
<path fill="none" stroke="black" d="M1169.19,-71.7C1169.19,-63.98 1169.19,-54.71 1169.19,-46.11"/>
<polygon fill="black" stroke="black" points="1172.69,-46.1 1169.19,-36.1 1165.69,-46.1 1172.69,-46.1"/>
</g>
<!-- Finish Fill* -->
<g id="node19" class="node">
<title>Finish Fill*</title>
<ellipse fill="gray" stroke="black" cx="1271.19" cy="-18" rx="39.02" ry="18"/>
<text text-anchor="middle" x="1271.19" y="-15.8" font-family="Times,serif" font-size="9.00">Finish Fill*</text>
</g>
<!-- Finish Fill&#45;&gt;Finish Fill* -->
<g id="edge18" class="edge">
<title>Finish Fill&#45;&gt;Finish Fill*</title>
<path fill="none" stroke="black" d="M1194.14,-71.88C1208.54,-62 1226.72,-49.52 1241.8,-39.17"/>
<polygon fill="black" stroke="black" points="1244.01,-41.9 1250.28,-33.35 1240.05,-36.12 1244.01,-41.9"/>
</g>
</g>
</svg>
