<?xml version="1.0" encoding="UTF-8" standalone="no"?>
<!DOCTYPE svg PUBLIC "-//W3C//DTD SVG 1.1//EN"
 "http://www.w3.org/Graphics/SVG/1.1/DTD/svg11.dtd">
<!-- Generated by graphviz version 2.43.0 (0)
 -->
<!-- Title: pastafarianism Pages: 1 -->
<svg width="2844pt" height="568pt"
 viewBox="0.00 0.00 2843.61 568.00" xmlns="http://www.w3.org/2000/svg" xmlns:xlink="http://www.w3.org/1999/xlink">
<g id="graph0" class="graph" transform="scale(1 1) rotate(0) translate(4 564)">
<title>pastafarianism</title>
<polygon fill="white" stroke="transparent" points="-4,4 -4,-564 2839.61,-564 2839.61,4 -4,4"/>
<!-- Task Pack Bottle -->
<g id="node1" class="node">
<title>Task Pack Bottle</title>
<polygon fill="gold" stroke="black" points="843.66,-560 692.12,-560 653.13,-504 804.68,-504 843.66,-560"/>
<text text-anchor="middle" x="748.4" y="-534.8" font-family="Times,serif" font-size="9.00">Task Pack Bottle</text>
<text text-anchor="middle" x="748.4" y="-524.8" font-family="Times,serif" font-size="9.00">SuccessOnAll</text>
</g>
<!-- System State -->
<g id="node2" class="node">
<title>System State</title>
<polygon fill="orange" stroke="black" points="249.9,-108 160.9,-108 160.9,-72 249.9,-72 249.9,-108"/>
<text text-anchor="middle" x="205.4" y="-87.8" font-family="Times,serif" font-size="9.00">Ⓜ System State</text>
</g>
<!-- Task Pack Bottle&#45;&gt;System State -->
<g id="edge1" class="edge">
<title>Task Pack Bottle&#45;&gt;System State</title>
<path fill="none" stroke="black" d="M732.78,-503.98C717.15,-474.32 695.4,-424.83 695.4,-379 695.4,-379 695.4,-379 695.4,-233 695.4,-143.21 388.02,-106.57 260.16,-95.22"/>
<polygon fill="black" stroke="black" points="260.45,-91.73 250.18,-94.35 259.84,-98.7 260.45,-91.73"/>
</g>
<!-- System Monitor -->
<g id="node6" class="node">
<title>System Monitor</title>
<polygon fill="cyan" stroke="black" points="1356.63,-442.54 1356.63,-457.46 1319.59,-468 1267.2,-468 1230.16,-457.46 1230.16,-442.54 1267.2,-432 1319.59,-432 1356.63,-442.54"/>
<text text-anchor="middle" x="1293.4" y="-447.8" font-family="Times,serif" font-size="9.00">Ⓜ System Monitor</text>
</g>
<!-- Task Pack Bottle&#45;&gt;System Monitor -->
<g id="edge5" class="edge">
<title>Task Pack Bottle&#45;&gt;System Monitor</title>
<path fill="none" stroke="black" d="M816.59,-520.99C921.77,-505.55 1122.29,-476.12 1226.61,-460.8"/>
<polygon fill="black" stroke="black" points="1227.32,-464.24 1236.7,-459.32 1226.3,-457.31 1227.32,-464.24"/>
</g>
<!-- Report Status -->
<g id="node3" class="node">
<title>Report Status</title>
<ellipse fill="gray" stroke="blue" cx="37.4" cy="-18" rx="37.29" ry="18"/>
<text text-anchor="middle" x="37.4" y="-16.4" font-family="Times,serif" font-size="7.00" fill="blue">Report Status</text>
</g>
<!-- System State&#45;&gt;Report Status -->
<g id="edge2" class="edge">
<title>System State&#45;&gt;Report Status</title>
<path fill="none" stroke="black" d="M164.3,-71.88C136.7,-60.38 100.66,-45.36 74.04,-34.27"/>
<polygon fill="black" stroke="black" points="75.27,-30.99 64.69,-30.37 72.57,-37.45 75.27,-30.99"/>
</g>
<!-- System Skills Status -->
<g id="node4" class="node">
<title>System Skills Status</title>
<ellipse fill="gray" stroke="blue" cx="143.4" cy="-18" rx="50.47" ry="18"/>
<text text-anchor="middle" x="143.4" y="-16.4" font-family="Times,serif" font-size="7.00" fill="blue">System Skills Status</text>
</g>
<!-- System State&#45;&gt;System Skills Status -->
<g id="edge3" class="edge">
<title>System State&#45;&gt;System Skills Status</title>
<path fill="none" stroke="black" d="M190.07,-71.7C182.45,-63.09 173.12,-52.55 164.8,-43.17"/>
<polygon fill="black" stroke="black" points="167.37,-40.79 158.12,-35.62 162.13,-45.43 167.37,-40.79"/>
</g>
<!-- System Monitor Status -->
<g id="node5" class="node">
<title>System Monitor Status</title>
<ellipse fill="gray" stroke="blue" cx="267.4" cy="-18" rx="55.63" ry="18"/>
<text text-anchor="middle" x="267.4" y="-16.4" font-family="Times,serif" font-size="7.00" fill="blue">System Monitor Status</text>
</g>
<!-- System State&#45;&gt;System Monitor Status -->
<g id="edge4" class="edge">
<title>System State&#45;&gt;System Monitor Status</title>
<path fill="none" stroke="black" d="M220.72,-71.7C228.34,-63.09 237.68,-52.55 245.99,-43.17"/>
<polygon fill="black" stroke="black" points="248.66,-45.43 252.67,-35.62 243.42,-40.79 248.66,-45.43"/>
</g>
<!-- /cap_status -->
<g id="node40" class="node">
<title>/cap_status</title>
<polygon fill="white" stroke="blue" points="479.4,-26.5 341.4,-26.5 341.4,-9.5 479.4,-9.5 479.4,-26.5"/>
<text text-anchor="middle" x="410.4" y="-16.1" font-family="Times,serif" font-size="8.00" fill="blue">/cap_status: {&#39;status&#39;: &#39;unkno...</text>
</g>
<!-- System Skills Status&#45;&gt;/cap_status -->
<g id="edge43" class="edge">
<title>System Skills Status&#45;&gt;/cap_status</title>
<path fill="none" stroke="blue" d="M166.79,-34.04C179.4,-41.71 195.58,-50.07 211.4,-54 259.71,-66 274.57,-63.7 323.4,-54 345.38,-49.63 368.76,-39.62 385.75,-31.26"/>
<polygon fill="blue" stroke="blue" points="387.62,-34.23 394.95,-26.58 384.45,-27.99 387.62,-34.23"/>
</g>
<!-- /stage -->
<g id="node41" class="node">
<title>/stage</title>
<polygon fill="white" stroke="blue" points="1492.9,-26.5 1443.9,-26.5 1443.9,-9.5 1492.9,-9.5 1492.9,-26.5"/>
<text text-anchor="middle" x="1468.4" y="-16.1" font-family="Times,serif" font-size="8.00" fill="blue">/stage: &#45;</text>
</g>
<!-- System Skills Status&#45;&gt;/stage -->
<g id="edge53" class="edge">
<title>System Skills Status&#45;&gt;/stage</title>
<path fill="none" stroke="blue" d="M166.79,-34.04C179.4,-41.71 195.58,-50.07 211.4,-54 276.91,-70.27 1363.09,-77.42 1426.4,-54 1437.11,-50.04 1446.94,-41.98 1454.39,-34.49"/>
<polygon fill="blue" stroke="blue" points="1457.26,-36.54 1461.47,-26.81 1452.12,-31.79 1457.26,-36.54"/>
</g>
<!-- /fill_status -->
<g id="node43" class="node">
<title>/fill_status</title>
<polygon fill="white" stroke="blue" points="631.4,-26.5 497.4,-26.5 497.4,-9.5 631.4,-9.5 631.4,-26.5"/>
<text text-anchor="middle" x="564.4" y="-16.1" font-family="Times,serif" font-size="8.00" fill="blue">/fill_status: {&#39;status&#39;: &#39;unkno...</text>
</g>
<!-- System Skills Status&#45;&gt;/fill_status -->
<g id="edge63" class="edge">
<title>System Skills Status&#45;&gt;/fill_status</title>
<path fill="none" stroke="blue" d="M166.79,-34.04C179.4,-41.71 195.58,-50.07 211.4,-54 269.2,-68.36 421.03,-65.85 479.4,-54 500.93,-49.63 523.77,-39.61 540.35,-31.26"/>
<polygon fill="blue" stroke="blue" points="542.08,-34.3 549.33,-26.58 538.85,-28.09 542.08,-34.3"/>
</g>
<!-- /pick_status -->
<g id="node44" class="node">
<title>/pick_status</title>
<polygon fill="white" stroke="blue" points="789.4,-26.5 649.4,-26.5 649.4,-9.5 789.4,-9.5 789.4,-26.5"/>
<text text-anchor="middle" x="719.4" y="-16.1" font-family="Times,serif" font-size="8.00" fill="blue">/pick_status: {&#39;status&#39;: &#39;unkno...</text>
</g>
<!-- System Skills Status&#45;&gt;/pick_status -->
<g id="edge64" class="edge">
<title>System Skills Status&#45;&gt;/pick_status</title>
<path fill="none" stroke="blue" d="M166.79,-34.04C179.4,-41.71 195.58,-50.07 211.4,-54 301.98,-76.5 539.82,-72.01 631.4,-54 653.6,-49.63 677.26,-39.62 694.45,-31.26"/>
<polygon fill="blue" stroke="blue" points="696.4,-34.2 703.76,-26.58 693.25,-27.94 696.4,-34.2"/>
</g>
<!-- /handover_status -->
<g id="node45" class="node">
<title>/handover_status</title>
<polygon fill="white" stroke="blue" points="968.9,-26.5 807.9,-26.5 807.9,-9.5 968.9,-9.5 968.9,-26.5"/>
<text text-anchor="middle" x="888.4" y="-16.1" font-family="Times,serif" font-size="8.00" fill="blue">/handover_status: {&#39;status&#39;: &#39;unkno...</text>
</g>
<!-- System Skills Status&#45;&gt;/handover_status -->
<g id="edge65" class="edge">
<title>System Skills Status&#45;&gt;/handover_status</title>
<path fill="none" stroke="blue" d="M166.79,-34.04C179.4,-41.71 195.58,-50.07 211.4,-54 273.72,-69.48 726.15,-65.14 789.4,-54 814.67,-49.55 841.97,-39.16 861.49,-30.69"/>
<polygon fill="blue" stroke="blue" points="862.97,-33.86 870.67,-26.59 860.11,-27.47 862.97,-33.86"/>
</g>
<!-- /system_status -->
<g id="node42" class="node">
<title>/system_status</title>
<polygon fill="white" stroke="blue" points="1256.4,-26.5 1140.4,-26.5 1140.4,-9.5 1256.4,-9.5 1256.4,-26.5"/>
<text text-anchor="middle" x="1198.4" y="-16.1" font-family="Times,serif" font-size="8.00" fill="blue">/system_status: unknown</text>
</g>
<!-- System Monitor Status&#45;&gt;/system_status -->
<g id="edge62" class="edge">
<title>System Monitor Status&#45;&gt;/system_status</title>
<path fill="none" stroke="blue" d="M293.03,-34.05C306.81,-41.73 324.41,-50.09 341.4,-54 425.96,-73.48 1037.73,-73.04 1122.4,-54 1141.56,-49.69 1161.57,-39.97 1176.25,-31.71"/>
<polygon fill="blue" stroke="blue" points="1178.18,-34.63 1185.06,-26.57 1174.66,-28.59 1178.18,-34.63"/>
</g>
<!-- Workflow -->
<g id="node7" class="node">
<title>Workflow</title>
<polygon fill="orange" stroke="black" points="1328.9,-396 1257.9,-396 1257.9,-360 1328.9,-360 1328.9,-396"/>
<text text-anchor="middle" x="1293.4" y="-375.8" font-family="Times,serif" font-size="9.00">Ⓜ Workflow</text>
</g>
<!-- System Monitor&#45;&gt;Workflow -->
<g id="edge6" class="edge">
<title>System Monitor&#45;&gt;Workflow</title>
<path fill="none" stroke="black" d="M1293.4,-431.7C1293.4,-423.98 1293.4,-414.71 1293.4,-406.11"/>
<polygon fill="black" stroke="black" points="1296.9,-406.1 1293.4,-396.1 1289.9,-406.1 1296.9,-406.1"/>
</g>
<!-- Fallback -->
<g id="node32" class="node">
<title>Fallback</title>
<polygon fill="orange" stroke="black" points="2564.4,-180 2496.4,-180 2496.4,-144 2564.4,-144 2564.4,-180"/>
<text text-anchor="middle" x="2530.4" y="-159.8" font-family="Times,serif" font-size="9.00">Ⓜ Fallback</text>
</g>
<!-- System Monitor&#45;&gt;Fallback -->
<g id="edge31" class="edge">
<title>System Monitor&#45;&gt;Fallback</title>
<path fill="none" stroke="black" d="M1341.13,-437.96C1539.18,-392.17 2294.75,-217.48 2486.13,-173.23"/>
<polygon fill="black" stroke="black" points="2487.16,-176.59 2496.12,-170.93 2485.59,-169.77 2487.16,-176.59"/>
</g>
<!-- System OK? -->
<g id="node8" class="node">
<title>System OK?</title>
<ellipse fill="gray" stroke="blue" cx="1089.4" cy="-18" rx="33.48" ry="18"/>
<text text-anchor="middle" x="1089.4" y="-16.4" font-family="Times,serif" font-size="7.00" fill="blue">System OK?</text>
</g>
<!-- Workflow&#45;&gt;System OK? -->
<g id="edge7" class="edge">
<title>Workflow&#45;&gt;System OK?</title>
<path fill="none" stroke="black" d="M1260.09,-359.87C1220.98,-337.09 1161.4,-292.89 1161.4,-235 1161.4,-235 1161.4,-235 1161.4,-161 1161.4,-115.36 1131.44,-69.51 1110.17,-42.72"/>
<polygon fill="black" stroke="black" points="1112.66,-40.24 1103.62,-34.72 1107.25,-44.67 1112.66,-40.24"/>
</g>
<!-- Pack Bottle -->
<g id="node9" class="node">
<title>Pack Bottle</title>
<polygon fill="orange" stroke="black" points="1341.9,-324 1260.9,-324 1260.9,-288 1341.9,-288 1341.9,-324"/>
<text text-anchor="middle" x="1301.4" y="-303.8" font-family="Times,serif" font-size="9.00">Ⓜ Pack Bottle</text>
</g>
<!-- Workflow&#45;&gt;Pack Bottle -->
<g id="edge8" class="edge">
<title>Workflow&#45;&gt;Pack Bottle</title>
<path fill="none" stroke="black" d="M1295.37,-359.7C1296.26,-351.98 1297.32,-342.71 1298.3,-334.11"/>
<polygon fill="black" stroke="black" points="1301.78,-334.44 1299.44,-324.1 1294.83,-333.64 1301.78,-334.44"/>
</g>
<!-- Active? -->
<g id="node10" class="node">
<title>Active?</title>
<ellipse fill="gray" stroke="blue" cx="1301.4" cy="-18" rx="27" ry="18"/>
<text text-anchor="middle" x="1301.4" y="-16.4" font-family="Times,serif" font-size="7.00" fill="blue">Active?</text>
</g>
<!-- Pack Bottle&#45;&gt;Active? -->
<g id="edge9" class="edge">
<title>Pack Bottle&#45;&gt;Active?</title>
<path fill="none" stroke="black" d="M1301.4,-287.97C1301.4,-240.29 1301.4,-105.18 1301.4,-46.63"/>
<polygon fill="black" stroke="black" points="1304.9,-46.31 1301.4,-36.31 1297.9,-46.31 1304.9,-46.31"/>
</g>
<!-- System Skills -->
<g id="node11" class="node">
<title>System Skills</title>
<polygon fill="cyan" stroke="black" points="1877.13,-226.54 1877.13,-241.46 1844.48,-252 1798.31,-252 1765.66,-241.46 1765.66,-226.54 1798.31,-216 1844.48,-216 1877.13,-226.54"/>
<text text-anchor="middle" x="1821.4" y="-231.8" font-family="Times,serif" font-size="9.00">Ⓜ System Skills</text>
</g>
<!-- Pack Bottle&#45;&gt;System Skills -->
<g id="edge10" class="edge">
<title>Pack Bottle&#45;&gt;System Skills</title>
<path fill="none" stroke="black" d="M1342.2,-299.51C1432.43,-287.36 1649.43,-258.15 1757.71,-243.57"/>
<polygon fill="black" stroke="black" points="1758.4,-247.01 1767.84,-242.21 1757.46,-240.07 1758.4,-247.01"/>
</g>
<!-- Pick -->
<g id="node12" class="node">
<title>Pick</title>
<polygon fill="orange" stroke="black" points="1540.4,-180 1486.4,-180 1486.4,-144 1540.4,-144 1540.4,-180"/>
<text text-anchor="middle" x="1513.4" y="-159.8" font-family="Times,serif" font-size="9.00">Ⓜ Pick</text>
</g>
<!-- System Skills&#45;&gt;Pick -->
<g id="edge11" class="edge">
<title>System Skills&#45;&gt;Pick</title>
<path fill="none" stroke="black" d="M1776.94,-222.9C1715.93,-209.03 1607.37,-184.36 1550.49,-171.43"/>
<polygon fill="black" stroke="black" points="1551.02,-167.96 1540.5,-169.16 1549.47,-174.79 1551.02,-167.96"/>
</g>
<!-- Fill -->
<g id="node16" class="node">
<title>Fill</title>
<polygon fill="orange" stroke="black" points="1709.4,-180 1655.4,-180 1655.4,-144 1709.4,-144 1709.4,-180"/>
<text text-anchor="middle" x="1682.4" y="-159.8" font-family="Times,serif" font-size="9.00">Ⓜ Fill</text>
</g>
<!-- System Skills&#45;&gt;Fill -->
<g id="edge15" class="edge">
<title>System Skills&#45;&gt;Fill</title>
<path fill="none" stroke="black" d="M1791.58,-217.98C1770.26,-207.25 1741.46,-192.75 1718.79,-181.33"/>
<polygon fill="black" stroke="black" points="1720.31,-178.18 1709.81,-176.8 1717.16,-184.43 1720.31,-178.18"/>
</g>
<!-- Cap -->
<g id="node20" class="node">
<title>Cap</title>
<polygon fill="orange" stroke="black" points="1848.4,-180 1794.4,-180 1794.4,-144 1848.4,-144 1848.4,-180"/>
<text text-anchor="middle" x="1821.4" y="-159.8" font-family="Times,serif" font-size="9.00">Ⓜ Cap</text>
</g>
<!-- System Skills&#45;&gt;Cap -->
<g id="edge19" class="edge">
<title>System Skills&#45;&gt;Cap</title>
<path fill="none" stroke="black" d="M1821.4,-215.7C1821.4,-207.98 1821.4,-198.71 1821.4,-190.11"/>
<polygon fill="black" stroke="black" points="1824.9,-190.1 1821.4,-180.1 1817.9,-190.1 1824.9,-190.1"/>
</g>
<!-- Handover -->
<g id="node24" class="node">
<title>Handover</title>
<polygon fill="orange" stroke="black" points="2017.4,-180 1943.4,-180 1943.4,-144 2017.4,-144 2017.4,-180"/>
<text text-anchor="middle" x="1980.4" y="-159.8" font-family="Times,serif" font-size="9.00">Ⓜ Handover</text>
</g>
<!-- System Skills&#45;&gt;Handover -->
<g id="edge23" class="edge">
<title>System Skills&#45;&gt;Handover</title>
<path fill="none" stroke="black" d="M1853.57,-218.83C1876.69,-208.66 1908.19,-194.79 1934.02,-183.42"/>
<polygon fill="black" stroke="black" points="1935.51,-186.59 1943.25,-179.35 1932.69,-180.18 1935.51,-186.59"/>
</g>
<!-- Finish Pack Bottle -->
<g id="node28" class="node">
<title>Finish Pack Bottle</title>
<ellipse fill="gray" stroke="blue" cx="2163.4" cy="-18" rx="46.15" ry="18"/>
<text text-anchor="middle" x="2163.4" y="-16.4" font-family="Times,serif" font-size="7.00" fill="blue">Finish Pack Bottle</text>
</g>
<!-- System Skills&#45;&gt;Finish Pack Bottle -->
<g id="edge27" class="edge">
<title>System Skills&#45;&gt;Finish Pack Bottle</title>
<path fill="none" stroke="black" d="M1875.71,-225.92C1983.44,-210.65 2217.78,-170.8 2264.4,-108 2273.93,-95.15 2272.67,-85.69 2264.4,-72 2257.4,-60.43 2229.13,-46.12 2204.27,-35.29"/>
<polygon fill="black" stroke="black" points="2205.54,-32.02 2194.96,-31.32 2202.79,-38.46 2205.54,-32.02"/>
</g>
<!-- Idle Status -->
<g id="node31" class="node">
<title>Idle Status</title>
<ellipse fill="gray" stroke="blue" cx="2366.4" cy="-18" rx="31.02" ry="18"/>
<text text-anchor="middle" x="2366.4" y="-16.4" font-family="Times,serif" font-size="7.00" fill="blue">Idle Status</text>
</g>
<!-- System Skills&#45;&gt;Idle Status -->
<g id="edge30" class="edge">
<title>System Skills&#45;&gt;Idle Status</title>
<path fill="none" stroke="black" d="M1877.2,-232.35C1948.85,-229.81 2075.92,-219.51 2176.4,-180 2250.84,-150.73 2316.92,-79.68 2347.84,-42.52"/>
<polygon fill="black" stroke="black" points="2350.61,-44.66 2354.24,-34.71 2345.2,-40.23 2350.61,-44.66"/>
</g>
<!-- System Active? -->
<g id="node13" class="node">
<title>System Active?</title>
<ellipse fill="gray" stroke="blue" cx="1386.4" cy="-18" rx="39.76" ry="18"/>
<text text-anchor="middle" x="1386.4" y="-16.4" font-family="Times,serif" font-size="7.00" fill="blue">System Active?</text>
</g>
<!-- Pick&#45;&gt;System Active? -->
<g id="edge12" class="edge">
<title>Pick&#45;&gt;System Active?</title>
<path fill="none" stroke="black" d="M1498.08,-143.87C1475.4,-118.52 1432.85,-70.94 1407.32,-42.39"/>
<polygon fill="black" stroke="black" points="1409.87,-40 1400.6,-34.88 1404.66,-44.67 1409.87,-40"/>
</g>
<!-- Call Pick -->
<g id="node14" class="node">
<title>Call Pick</title>
<ellipse fill="gray" stroke="blue" cx="1538.4" cy="-18" rx="27" ry="18"/>
<text text-anchor="middle" x="1538.4" y="-16.4" font-family="Times,serif" font-size="7.00" fill="blue">Call Pick</text>
</g>
<!-- Pick&#45;&gt;Call Pick -->
<g id="edge13" class="edge">
<title>Pick&#45;&gt;Call Pick</title>
<path fill="none" stroke="black" d="M1506.41,-143.89C1500.01,-125.69 1492.61,-96.23 1500.4,-72 1503.97,-60.89 1510.82,-50.14 1517.74,-41.25"/>
<polygon fill="black" stroke="black" points="1520.6,-43.29 1524.28,-33.36 1515.21,-38.82 1520.6,-43.29"/>
</g>
<!-- Wait 1 sec -->
<g id="node15" class="node">
<title>Wait 1 sec</title>
<ellipse fill="gray" stroke="black" cx="1546.4" cy="-90" rx="36.9" ry="18"/>
<text text-anchor="middle" x="1546.4" y="-87.8" font-family="Times,serif" font-size="9.00">Wait 1 sec</text>
</g>
<!-- Pick&#45;&gt;Wait 1 sec -->
<g id="edge14" class="edge">
<title>Pick&#45;&gt;Wait 1 sec</title>
<path fill="none" stroke="black" d="M1521.55,-143.7C1525.37,-135.61 1529.99,-125.81 1534.2,-116.87"/>
<polygon fill="black" stroke="black" points="1537.46,-118.16 1538.56,-107.62 1531.13,-115.18 1537.46,-118.16"/>
</g>
<!-- Call Pick&#45;&gt;/stage -->
<g id="edge60" class="edge">
<title>Call Pick&#45;&gt;/stage</title>
<path fill="none" stroke="blue" d="M1511.09,-18C1508.45,-18 1505.82,-18 1503.18,-18"/>
<polygon fill="blue" stroke="blue" points="1503.01,-14.5 1493.01,-18 1503.01,-21.5 1503.01,-14.5"/>
</g>
<!-- Pick Ready? -->
<g id="node17" class="node">
<title>Pick Ready?</title>
<ellipse fill="gray" stroke="blue" cx="1616.4" cy="-18" rx="33.48" ry="18"/>
<text text-anchor="middle" x="1616.4" y="-16.4" font-family="Times,serif" font-size="7.00" fill="blue">Pick Ready?</text>
</g>
<!-- Fill&#45;&gt;Pick Ready? -->
<g id="edge16" class="edge">
<title>Fill&#45;&gt;Pick Ready?</title>
<path fill="none" stroke="black" d="M1674.44,-143.87C1663.03,-119.33 1641.93,-73.94 1628.56,-45.17"/>
<polygon fill="black" stroke="black" points="1631.57,-43.34 1624.18,-35.75 1625.22,-46.29 1631.57,-43.34"/>
</g>
<!-- Call Fill -->
<g id="node18" class="node">
<title>Call Fill</title>
<ellipse fill="gray" stroke="blue" cx="1694.4" cy="-18" rx="27" ry="18"/>
<text text-anchor="middle" x="1694.4" y="-16.4" font-family="Times,serif" font-size="7.00" fill="blue">Call Fill</text>
</g>
<!-- Fill&#45;&gt;Call Fill -->
<g id="edge17" class="edge">
<title>Fill&#45;&gt;Call Fill</title>
<path fill="none" stroke="black" d="M1675.8,-143.8C1669.8,-125.77 1662.67,-96.68 1668.4,-72 1670.62,-62.43 1674.82,-52.59 1679.22,-44.02"/>
<polygon fill="black" stroke="black" points="1682.43,-45.44 1684.16,-34.98 1676.29,-42.08 1682.43,-45.44"/>
</g>
<!-- Wait 1 sec* -->
<g id="node19" class="node">
<title>Wait 1 sec*</title>
<ellipse fill="gray" stroke="black" cx="1716.4" cy="-90" rx="39.02" ry="18"/>
<text text-anchor="middle" x="1716.4" y="-87.8" font-family="Times,serif" font-size="9.00">Wait 1 sec*</text>
</g>
<!-- Fill&#45;&gt;Wait 1 sec* -->
<g id="edge18" class="edge">
<title>Fill&#45;&gt;Wait 1 sec*</title>
<path fill="none" stroke="black" d="M1690.8,-143.7C1694.73,-135.61 1699.49,-125.81 1703.83,-116.87"/>
<polygon fill="black" stroke="black" points="1707.1,-118.15 1708.32,-107.62 1700.81,-115.09 1707.1,-118.15"/>
</g>
<!-- Call Fill&#45;&gt;/stage -->
<g id="edge50" class="edge">
<title>Call Fill&#45;&gt;/stage</title>
<path fill="none" stroke="blue" d="M1680.18,-33.57C1672.03,-41.32 1661.1,-49.89 1649.4,-54 1591.52,-74.3 1569.04,-74.95 1511.4,-54 1500.51,-50.04 1490.46,-41.99 1482.81,-34.5"/>
<polygon fill="blue" stroke="blue" points="1484.95,-31.67 1475.54,-26.82 1479.87,-36.49 1484.95,-31.67"/>
</g>
<!-- Fill Ready? -->
<g id="node21" class="node">
<title>Fill Ready?</title>
<ellipse fill="gray" stroke="blue" cx="1779.4" cy="-18" rx="31.02" ry="18"/>
<text text-anchor="middle" x="1779.4" y="-16.4" font-family="Times,serif" font-size="7.00" fill="blue">Fill Ready?</text>
</g>
<!-- Cap&#45;&gt;Fill Ready? -->
<g id="edge20" class="edge">
<title>Cap&#45;&gt;Fill Ready?</title>
<path fill="none" stroke="black" d="M1816.33,-143.87C1809.14,-119.56 1795.91,-74.82 1787.39,-46.01"/>
<polygon fill="black" stroke="black" points="1790.67,-44.79 1784.48,-36.19 1783.96,-46.77 1790.67,-44.79"/>
</g>
<!-- Call Cap -->
<g id="node22" class="node">
<title>Call Cap</title>
<ellipse fill="gray" stroke="blue" cx="1855.4" cy="-18" rx="27" ry="18"/>
<text text-anchor="middle" x="1855.4" y="-16.4" font-family="Times,serif" font-size="7.00" fill="blue">Call Cap</text>
</g>
<!-- Cap&#45;&gt;Call Cap -->
<g id="edge21" class="edge">
<title>Cap&#45;&gt;Call Cap</title>
<path fill="none" stroke="black" d="M1824.71,-143.86C1828.26,-125.88 1834.24,-96.84 1840.4,-72 1842.52,-63.42 1845.07,-54.13 1847.46,-45.76"/>
<polygon fill="black" stroke="black" points="1850.83,-46.69 1850.25,-36.11 1844.11,-44.74 1850.83,-46.69"/>
</g>
<!-- Wait 1 sec** -->
<g id="node23" class="node">
<title>Wait 1 sec**</title>
<ellipse fill="gray" stroke="black" cx="1891.4" cy="-90" rx="42.29" ry="18"/>
<text text-anchor="middle" x="1891.4" y="-87.8" font-family="Times,serif" font-size="9.00">Wait 1 sec**</text>
</g>
<!-- Cap&#45;&gt;Wait 1 sec** -->
<g id="edge22" class="edge">
<title>Cap&#45;&gt;Wait 1 sec**</title>
<path fill="none" stroke="black" d="M1838.7,-143.7C1847.52,-134.88 1858.37,-124.03 1867.93,-114.47"/>
<polygon fill="black" stroke="black" points="1870.66,-116.69 1875.25,-107.14 1865.71,-111.74 1870.66,-116.69"/>
</g>
<!-- Call Cap&#45;&gt;/stage -->
<g id="edge54" class="edge">
<title>Call Cap&#45;&gt;/stage</title>
<path fill="none" stroke="blue" d="M1841.18,-33.57C1833.03,-41.32 1822.1,-49.89 1810.4,-54 1747.7,-75.99 1573.85,-76.69 1511.4,-54 1500.51,-50.04 1490.46,-41.99 1482.81,-34.5"/>
<polygon fill="blue" stroke="blue" points="1484.95,-31.67 1475.54,-26.82 1479.87,-36.49 1484.95,-31.67"/>
</g>
<!-- Cap Ready? -->
<g id="node25" class="node">
<title>Cap Ready?</title>
<ellipse fill="gray" stroke="blue" cx="1945.4" cy="-18" rx="32.86" ry="18"/>
<text text-anchor="middle" x="1945.4" y="-16.4" font-family="Times,serif" font-size="7.00" fill="blue">Cap Ready?</text>
</g>
<!-- Handover&#45;&gt;Cap Ready? -->
<g id="edge24" class="edge">
<title>Handover&#45;&gt;Cap Ready?</title>
<path fill="none" stroke="black" d="M1976.17,-143.87C1970.18,-119.56 1959.15,-74.82 1952.05,-46.01"/>
<polygon fill="black" stroke="black" points="1955.42,-45.06 1949.63,-36.19 1948.63,-46.74 1955.42,-45.06"/>
</g>
<!-- Call Handover -->
<g id="node26" class="node">
<title>Call Handover</title>
<ellipse fill="gray" stroke="blue" cx="2034.4" cy="-18" rx="37.91" ry="18"/>
<text text-anchor="middle" x="2034.4" y="-16.4" font-family="Times,serif" font-size="7.00" fill="blue">Call Handover</text>
</g>
<!-- Handover&#45;&gt;Call Handover -->
<g id="edge25" class="edge">
<title>Handover&#45;&gt;Call Handover</title>
<path fill="none" stroke="black" d="M1986.91,-143.87C1996.24,-119.33 2013.5,-73.94 2024.44,-45.17"/>
<polygon fill="black" stroke="black" points="2027.74,-46.34 2028.03,-35.75 2021.2,-43.85 2027.74,-46.34"/>
</g>
<!-- Wait 1 sec*** -->
<g id="node27" class="node">
<title>Wait 1 sec***</title>
<ellipse fill="gray" stroke="black" cx="2071.4" cy="-90" rx="44.41" ry="18"/>
<text text-anchor="middle" x="2071.4" y="-87.8" font-family="Times,serif" font-size="9.00">Wait 1 sec***</text>
</g>
<!-- Handover&#45;&gt;Wait 1 sec*** -->
<g id="edge26" class="edge">
<title>Handover&#45;&gt;Wait 1 sec***</title>
<path fill="none" stroke="black" d="M2002.89,-143.7C2015.15,-134.26 2030.44,-122.51 2043.46,-112.49"/>
<polygon fill="black" stroke="black" points="2045.84,-115.07 2051.63,-106.2 2041.57,-109.53 2045.84,-115.07"/>
</g>
<!-- Call Handover&#45;&gt;/stage -->
<g id="edge52" class="edge">
<title>Call Handover&#45;&gt;/stage</title>
<path fill="none" stroke="blue" d="M2015.8,-33.81C2005.5,-41.53 1992.04,-49.99 1978.4,-54 1928.61,-68.62 1560.17,-71.72 1511.4,-54 1500.51,-50.04 1490.46,-41.99 1482.81,-34.5"/>
<polygon fill="blue" stroke="blue" points="1484.95,-31.67 1475.54,-26.82 1479.87,-36.49 1484.95,-31.67"/>
</g>
<!-- Handover Ready? -->
<g id="node29" class="node">
<title>Handover Ready?</title>
<ellipse fill="gray" stroke="blue" cx="2272.4" cy="-18" rx="44.81" ry="18"/>
<text text-anchor="middle" x="2272.4" y="-16.4" font-family="Times,serif" font-size="7.00" fill="blue">Handover Ready?</text>
</g>
<!-- Finish Pack Bottle&#45;&gt;Handover Ready? -->
<g id="edge28" class="edge">
<title>Finish Pack Bottle&#45;&gt;Handover Ready?</title>
<path fill="none" stroke="black" d="M2209.81,-18C2212.28,-18 2214.76,-18 2217.23,-18"/>
<polygon fill="black" stroke="black" points="2217.41,-21.5 2227.41,-18 2217.41,-14.5 2217.41,-21.5"/>
</g>
<!-- Finish Pack Bottle* -->
<g id="node30" class="node">
<title>Finish Pack Bottle*</title>
<ellipse fill="gray" stroke="black" cx="2194.4" cy="-90" rx="60.74" ry="18"/>
<text text-anchor="middle" x="2194.4" y="-87.8" font-family="Times,serif" font-size="9.00">Finish Pack Bottle*</text>
</g>
<!-- Finish Pack Bottle&#45;&gt;Finish Pack Bottle* -->
<g id="edge29" class="edge">
<title>Finish Pack Bottle&#45;&gt;Finish Pack Bottle*</title>
<path fill="none" stroke="black" d="M2170.83,-35.79C2174.4,-43.85 2178.76,-53.69 2182.76,-62.71"/>
<polygon fill="black" stroke="black" points="2179.64,-64.33 2186.89,-72.05 2186.04,-61.49 2179.64,-64.33"/>
</g>
<!-- /active -->
<g id="node39" class="node">
<title>/active</title>
<polygon fill="white" stroke="blue" points="1037.9,-26.5 986.9,-26.5 986.9,-9.5 1037.9,-9.5 1037.9,-26.5"/>
<text text-anchor="middle" x="1012.4" y="-16.1" font-family="Times,serif" font-size="8.00" fill="blue">/active: &#45;</text>
</g>
<!-- Finish Pack Bottle&#45;&gt;/active -->
<g id="edge42" class="edge">
<title>Finish Pack Bottle&#45;&gt;/active</title>
<path fill="none" stroke="blue" d="M2135.13,-32.39C2117.58,-40.5 2094.26,-49.83 2072.4,-54 2016.95,-64.57 1109.56,-72.98 1056.4,-54 1045.1,-49.97 1034.62,-41.65 1026.72,-34.03"/>
<polygon fill="blue" stroke="blue" points="1029.21,-31.58 1019.75,-26.82 1024.18,-36.44 1029.21,-31.58"/>
</g>
<!-- Finish Pack Bottle&#45;&gt;/stage -->
<g id="edge57" class="edge">
<title>Finish Pack Bottle&#45;&gt;/stage</title>
<path fill="none" stroke="blue" d="M2135.13,-32.39C2117.58,-40.5 2094.26,-49.83 2072.4,-54 2011.17,-65.67 1569.98,-75.29 1511.4,-54 1500.51,-50.04 1490.46,-41.99 1482.81,-34.5"/>
<polygon fill="blue" stroke="blue" points="1484.95,-31.67 1475.54,-26.82 1479.87,-36.49 1484.95,-31.67"/>
</g>
<!-- Active?* -->
<g id="node33" class="node">
<title>Active?*</title>
<ellipse fill="gray" stroke="black" cx="2432.4" cy="-90" rx="31.51" ry="18"/>
<text text-anchor="middle" x="2432.4" y="-87.8" font-family="Times,serif" font-size="9.00">Active?*</text>
</g>
<!-- Fallback&#45;&gt;Active?* -->
<g id="edge32" class="edge">
<title>Fallback&#45;&gt;Active?*</title>
<path fill="none" stroke="black" d="M2506.42,-143.88C2492.31,-133.79 2474.4,-121 2459.74,-110.53"/>
<polygon fill="black" stroke="black" points="2461.7,-107.63 2451.53,-104.67 2457.64,-113.33 2461.7,-107.63"/>
</g>
<!-- Abort Pick -->
<g id="node34" class="node">
<title>Abort Pick</title>
<ellipse fill="gray" stroke="blue" cx="2445.4" cy="-18" rx="30.28" ry="18"/>
<text text-anchor="middle" x="2445.4" y="-16.4" font-family="Times,serif" font-size="7.00" fill="blue">Abort Pick</text>
</g>
<!-- Fallback&#45;&gt;Abort Pick -->
<g id="edge33" class="edge">
<title>Fallback&#45;&gt;Abort Pick</title>
<path fill="none" stroke="black" d="M2520.14,-143.87C2505.24,-118.98 2477.51,-72.65 2460.34,-43.96"/>
<polygon fill="black" stroke="black" points="2463.3,-42.09 2455.16,-35.31 2457.29,-45.69 2463.3,-42.09"/>
</g>
<!-- Abort Fill -->
<g id="node35" class="node">
<title>Abort Fill</title>
<ellipse fill="gray" stroke="blue" cx="2521.4" cy="-18" rx="27.82" ry="18"/>
<text text-anchor="middle" x="2521.4" y="-16.4" font-family="Times,serif" font-size="7.00" fill="blue">Abort Fill</text>
</g>
<!-- Fallback&#45;&gt;Abort Fill -->
<g id="edge34" class="edge">
<title>Fallback&#45;&gt;Abort Fill</title>
<path fill="none" stroke="black" d="M2529.31,-143.87C2527.78,-119.67 2524.96,-75.21 2523.13,-46.39"/>
<polygon fill="black" stroke="black" points="2526.61,-45.95 2522.49,-36.19 2519.63,-46.39 2526.61,-45.95"/>
</g>
<!-- Abort Cap -->
<g id="node36" class="node">
<title>Abort Cap</title>
<ellipse fill="gray" stroke="blue" cx="2596.4" cy="-18" rx="29.66" ry="18"/>
<text text-anchor="middle" x="2596.4" y="-16.4" font-family="Times,serif" font-size="7.00" fill="blue">Abort Cap</text>
</g>
<!-- Fallback&#45;&gt;Abort Cap -->
<g id="edge35" class="edge">
<title>Fallback&#45;&gt;Abort Cap</title>
<path fill="none" stroke="black" d="M2538.36,-143.87C2549.77,-119.33 2570.86,-73.94 2584.23,-45.17"/>
<polygon fill="black" stroke="black" points="2587.57,-46.29 2588.61,-35.75 2581.22,-43.34 2587.57,-46.29"/>
</g>
<!-- Abort Handover -->
<g id="node37" class="node">
<title>Abort Handover</title>
<ellipse fill="gray" stroke="blue" cx="2685.4" cy="-18" rx="41.11" ry="18"/>
<text text-anchor="middle" x="2685.4" y="-16.4" font-family="Times,serif" font-size="7.00" fill="blue">Abort Handover</text>
</g>
<!-- Fallback&#45;&gt;Abort Handover -->
<g id="edge36" class="edge">
<title>Fallback&#45;&gt;Abort Handover</title>
<path fill="none" stroke="black" d="M2549.09,-143.87C2577.15,-118.17 2630.15,-69.61 2661.15,-41.21"/>
<polygon fill="black" stroke="black" points="2663.52,-43.79 2668.53,-34.45 2658.79,-38.63 2663.52,-43.79"/>
</g>
<!-- Abort Pack Bottle -->
<g id="node38" class="node">
<title>Abort Pack Bottle</title>
<ellipse fill="gray" stroke="blue" cx="2790.4" cy="-18" rx="45.42" ry="18"/>
<text text-anchor="middle" x="2790.4" y="-16.4" font-family="Times,serif" font-size="7.00" fill="blue">Abort Pack Bottle</text>
</g>
<!-- Fallback&#45;&gt;Abort Pack Bottle -->
<g id="edge37" class="edge">
<title>Fallback&#45;&gt;Abort Pack Bottle</title>
<path fill="none" stroke="black" d="M2561.76,-143.87C2610.71,-117.14 2704.93,-65.68 2755.8,-37.9"/>
<polygon fill="black" stroke="black" points="2757.67,-40.86 2764.77,-33 2754.32,-34.72 2757.67,-40.86"/>
</g>
<!-- Abort Pick&#45;&gt;/stage -->
<g id="edge56" class="edge">
<title>Abort Pick&#45;&gt;/stage</title>
<path fill="none" stroke="blue" d="M2430.05,-33.59C2421.29,-41.34 2409.65,-49.92 2397.4,-54 2350.7,-69.57 1557.66,-70.81 1511.4,-54 1500.51,-50.04 1490.46,-41.99 1482.81,-34.5"/>
<polygon fill="blue" stroke="blue" points="1484.95,-31.67 1475.54,-26.82 1479.87,-36.49 1484.95,-31.67"/>
</g>
<!-- Abort Fill&#45;&gt;/stage -->
<g id="edge58" class="edge">
<title>Abort Fill&#45;&gt;/stage</title>
<path fill="none" stroke="blue" d="M2506.8,-33.57C2498.45,-41.33 2487.28,-49.9 2475.4,-54 2424.77,-71.46 1561.73,-72.29 1511.4,-54 1500.51,-50.04 1490.46,-41.99 1482.81,-34.5"/>
<polygon fill="blue" stroke="blue" points="1484.95,-31.67 1475.54,-26.82 1479.87,-36.49 1484.95,-31.67"/>
</g>
<!-- Abort Cap&#45;&gt;/stage -->
<g id="edge51" class="edge">
<title>Abort Cap&#45;&gt;/stage</title>
<path fill="none" stroke="blue" d="M2581.42,-33.58C2572.87,-41.33 2561.47,-49.91 2549.4,-54 2494.78,-72.51 1565.6,-73.69 1511.4,-54 1500.51,-50.04 1490.46,-41.99 1482.81,-34.5"/>
<polygon fill="blue" stroke="blue" points="1484.95,-31.67 1475.54,-26.82 1479.87,-36.49 1484.95,-31.67"/>
</g>
<!-- Abort Handover&#45;&gt;/stage -->
<g id="edge55" class="edge">
<title>Abort Handover&#45;&gt;/stage</title>
<path fill="none" stroke="blue" d="M2665.67,-33.82C2654.78,-41.54 2640.61,-50.01 2626.4,-54 2566.76,-70.76 1569.62,-75.15 1511.4,-54 1500.51,-50.04 1490.46,-41.99 1482.81,-34.5"/>
<polygon fill="blue" stroke="blue" points="1484.95,-31.67 1475.54,-26.82 1479.87,-36.49 1484.95,-31.67"/>
</g>
<!-- Abort Pack Bottle&#45;&gt;/active -->
<g id="edge41" class="edge">
<title>Abort Pack Bottle&#45;&gt;/active</title>
<path fill="none" stroke="blue" d="M2768.81,-33.84C2756.93,-41.56 2741.57,-50.03 2726.4,-54 2681.52,-65.76 1100.09,-69.6 1056.4,-54 1045.1,-49.97 1034.62,-41.65 1026.72,-34.03"/>
<polygon fill="blue" stroke="blue" points="1029.21,-31.58 1019.75,-26.82 1024.18,-36.44 1029.21,-31.58"/>
</g>
<!-- Abort Pack Bottle&#45;&gt;/stage -->
<g id="edge59" class="edge">
<title>Abort Pack Bottle&#45;&gt;/stage</title>
<path fill="none" stroke="blue" d="M2768.81,-33.84C2756.93,-41.56 2741.57,-50.03 2726.4,-54 2661.1,-71.1 1574.84,-77.05 1511.4,-54 1500.51,-50.04 1490.46,-41.99 1482.81,-34.5"/>
<polygon fill="blue" stroke="blue" points="1484.95,-31.67 1475.54,-26.82 1479.87,-36.49 1484.95,-31.67"/>
</g>
<!-- /active&#45;&gt;Report Status -->
<g id="edge39" class="edge">
<title>/active&#45;&gt;Report Status</title>
<path fill="none" stroke="green" d="M1005.05,-26.82C997.08,-35.64 983.46,-48.62 968.4,-54 922.61,-70.34 140.04,-67.7 93.4,-54 83.17,-51 73.04,-45.48 64.27,-39.66"/>
<polygon fill="green" stroke="green" points="66.18,-36.72 55.99,-33.81 62.14,-42.44 66.18,-36.72"/>
</g>
<!-- /active&#45;&gt;Active? -->
<g id="edge38" class="edge">
<title>/active&#45;&gt;Active?</title>
<path fill="none" stroke="green" d="M1020.89,-26.77C1028.59,-34.04 1040.65,-43.84 1053.4,-48 1096.91,-62.22 1215.8,-61.97 1259.4,-48 1265.67,-45.99 1271.8,-42.66 1277.36,-38.94"/>
<polygon fill="green" stroke="green" points="1279.58,-41.64 1285.55,-32.89 1275.43,-36.01 1279.58,-41.64"/>
</g>
<!-- /active&#45;&gt;Active? -->
<g id="edge40" class="edge">
<title>/active&#45;&gt;Active?</title>
<path fill="none" stroke="green" d="M1018.86,-26.79C1026.99,-37.02 1042.02,-53.37 1059.4,-60 1099.67,-75.37 1213.04,-75.16 1253.4,-60 1263.81,-56.09 1273.45,-48.77 1281.31,-41.33"/>
<polygon fill="green" stroke="green" points="1284.03,-43.55 1288.55,-33.97 1279.04,-38.65 1284.03,-43.55"/>
</g>
<!-- /stage&#45;&gt;System Active? -->
<g id="edge44" class="edge">
<title>/stage&#45;&gt;System Active?</title>
<path fill="none" stroke="green" d="M1443.62,-18C1441.16,-18 1438.7,-18 1436.24,-18"/>
<polygon fill="green" stroke="green" points="1436.12,-14.5 1426.12,-18 1436.12,-21.5 1436.12,-14.5"/>
</g>
<!-- /stage&#45;&gt;Pick Ready? -->
<g id="edge46" class="edge">
<title>/stage&#45;&gt;Pick Ready?</title>
<path fill="none" stroke="green" d="M1475.54,-26.82C1483.29,-35.63 1496.57,-48.61 1511.4,-54 1533.95,-62.2 1542.52,-61.26 1565.4,-54 1574.65,-51.06 1583.68,-45.77 1591.5,-40.13"/>
<polygon fill="green" stroke="green" points="1593.69,-42.86 1599.46,-33.98 1589.41,-37.32 1593.69,-42.86"/>
</g>
<!-- /stage&#45;&gt;Fill Ready? -->
<g id="edge45" class="edge">
<title>/stage&#45;&gt;Fill Ready?</title>
<path fill="none" stroke="green" d="M1475.54,-26.82C1483.29,-35.63 1496.57,-48.61 1511.4,-54 1555.26,-69.94 1676.52,-66.8 1721.4,-54 1732.45,-50.85 1743.46,-44.92 1752.86,-38.76"/>
<polygon fill="green" stroke="green" points="1755.12,-41.46 1761.34,-32.88 1751.13,-35.71 1755.12,-41.46"/>
</g>
<!-- /stage&#45;&gt;Cap Ready? -->
<g id="edge48" class="edge">
<title>/stage&#45;&gt;Cap Ready?</title>
<path fill="none" stroke="green" d="M1475.54,-26.82C1483.29,-35.63 1496.57,-48.61 1511.4,-54 1550.14,-68.08 1842.56,-64.58 1882.4,-54 1894.54,-50.77 1906.79,-44.59 1917.22,-38.25"/>
<polygon fill="green" stroke="green" points="1919.33,-41.05 1925.86,-32.71 1915.55,-35.16 1919.33,-41.05"/>
</g>
<!-- /stage&#45;&gt;Handover Ready? -->
<g id="edge47" class="edge">
<title>/stage&#45;&gt;Handover Ready?</title>
<path fill="none" stroke="green" d="M1475.54,-26.82C1483.29,-35.63 1496.57,-48.61 1511.4,-54 1584.29,-80.49 2134.44,-73.91 2209.4,-54 2220.77,-50.98 2232.23,-45.37 2242.2,-39.46"/>
<polygon fill="green" stroke="green" points="2244.27,-42.3 2250.89,-34.02 2240.56,-36.36 2244.27,-42.3"/>
</g>
<!-- /stage&#45;&gt;Idle Status -->
<g id="edge49" class="edge">
<title>/stage&#45;&gt;Idle Status</title>
<path fill="none" stroke="green" d="M1475.54,-26.82C1483.29,-35.63 1496.57,-48.61 1511.4,-54 1553.48,-69.29 2274.85,-67.95 2317.4,-54 2326.34,-51.07 2334.99,-45.82 2342.47,-40.21"/>
<polygon fill="green" stroke="green" points="2345.09,-42.6 2350.67,-33.59 2340.69,-37.15 2345.09,-42.6"/>
</g>
<!-- /system_status&#45;&gt;System OK? -->
<g id="edge61" class="edge">
<title>/system_status&#45;&gt;System OK?</title>
<path fill="none" stroke="green" d="M1140.11,-18C1137.8,-18 1135.48,-18 1133.17,-18"/>
<polygon fill="green" stroke="green" points="1133.03,-14.5 1123.03,-18 1133.03,-21.5 1133.03,-14.5"/>
</g>
</g>
</svg>
