<?xml version="1.0" encoding="UTF-8" standalone="no"?>
<!DOCTYPE svg PUBLIC "-//W3C//DTD SVG 1.1//EN"
 "http://www.w3.org/Graphics/SVG/1.1/DTD/svg11.dtd">
<!-- Generated by graphviz version 2.43.0 (0)
 -->
<!-- Title: pastafarianism Pages: 1 -->
<svg width="1448pt" height="496pt"
 viewBox="0.00 0.00 1448.23 496.00" xmlns="http://www.w3.org/2000/svg" xmlns:xlink="http://www.w3.org/1999/xlink">
<g id="graph0" class="graph" transform="scale(1 1) rotate(0) translate(4 492)">
<title>pastafarianism</title>
<polygon fill="white" stroke="transparent" points="-4,4 -4,-492 1444.23,-492 1444.23,4 -4,4"/>
<!-- Task Pack Bottle -->
<g id="node1" class="node">
<title>Task Pack Bottle</title>
<polygon fill="gold" stroke="black" points="748.91,-488 597.37,-488 558.39,-432 709.93,-432 748.91,-488"/>
<text text-anchor="middle" x="653.65" y="-462.8" font-family="Times,serif" font-size="9.00">Task Pack Bottle</text>
<text text-anchor="middle" x="653.65" y="-452.8" font-family="Times,serif" font-size="9.00">SuccessOnAll</text>
</g>
<!-- System State -->
<g id="node2" class="node">
<title>System State</title>
<polygon fill="orange" stroke="black" points="635.15,-396 546.15,-396 546.15,-360 635.15,-360 635.15,-396"/>
<text text-anchor="middle" x="590.65" y="-375.8" font-family="Times,serif" font-size="9.00">Ⓜ System State</text>
</g>
<!-- Task Pack Bottle&#45;&gt;System State -->
<g id="edge1" class="edge">
<title>Task Pack Bottle&#45;&gt;System State</title>
<path fill="none" stroke="black" d="M632.32,-431.92C625.29,-422.98 617.5,-413.09 610.57,-404.3"/>
<polygon fill="black" stroke="black" points="613.19,-401.96 604.25,-396.27 607.69,-406.29 613.19,-401.96"/>
</g>
<!-- System Monitor -->
<g id="node6" class="node">
<title>System Monitor</title>
<polygon fill="cyan" stroke="black" points="854.89,-370.54 854.89,-385.46 817.84,-396 765.46,-396 728.42,-385.46 728.42,-370.54 765.46,-360 817.84,-360 854.89,-370.54"/>
<text text-anchor="middle" x="791.65" y="-375.8" font-family="Times,serif" font-size="9.00">Ⓜ System Monitor</text>
</g>
<!-- Task Pack Bottle&#45;&gt;System Monitor -->
<g id="edge5" class="edge">
<title>Task Pack Bottle&#45;&gt;System Monitor</title>
<path fill="none" stroke="black" d="M700.37,-431.92C717.92,-421.74 737.63,-410.32 754.22,-400.7"/>
<polygon fill="black" stroke="black" points="756.19,-403.6 763.09,-395.56 752.68,-397.55 756.19,-403.6"/>
</g>
<!-- Report Status -->
<g id="node3" class="node">
<title>Report Status</title>
<ellipse fill="gray" stroke="black" cx="387.65" cy="-306" rx="46.38" ry="18"/>
<text text-anchor="middle" x="387.65" y="-303.8" font-family="Times,serif" font-size="9.00">Report Status</text>
</g>
<!-- System State&#45;&gt;Report Status -->
<g id="edge2" class="edge">
<title>System State&#45;&gt;Report Status</title>
<path fill="none" stroke="black" d="M546.1,-361.64C511.79,-349.81 464.64,-333.55 430.71,-321.85"/>
<polygon fill="black" stroke="black" points="431.67,-318.48 421.07,-318.53 429.39,-325.09 431.67,-318.48"/>
</g>
<!-- System Skills Status -->
<g id="node4" class="node">
<title>System Skills Status</title>
<ellipse fill="gray" stroke="black" cx="515.65" cy="-306" rx="63.52" ry="18"/>
<text text-anchor="middle" x="515.65" y="-303.8" font-family="Times,serif" font-size="9.00">System Skills Status</text>
</g>
<!-- System State&#45;&gt;System Skills Status -->
<g id="edge3" class="edge">
<title>System State&#45;&gt;System Skills Status</title>
<path fill="none" stroke="black" d="M572.11,-359.7C562.64,-350.86 550.98,-339.97 540.72,-330.4"/>
<polygon fill="black" stroke="black" points="542.9,-327.65 533.21,-323.38 538.13,-332.76 542.9,-327.65"/>
</g>
<!-- System Monitor Status -->
<g id="node5" class="node">
<title>System Monitor Status</title>
<ellipse fill="gray" stroke="black" cx="667.65" cy="-306" rx="70.37" ry="18"/>
<text text-anchor="middle" x="667.65" y="-303.8" font-family="Times,serif" font-size="9.00">System Monitor Status</text>
</g>
<!-- System State&#45;&gt;System Monitor Status -->
<g id="edge4" class="edge">
<title>System State&#45;&gt;System Monitor Status</title>
<path fill="none" stroke="black" d="M609.69,-359.7C619.34,-350.92 631.21,-340.13 641.69,-330.61"/>
<polygon fill="black" stroke="black" points="644.32,-332.94 649.37,-323.62 639.61,-327.76 644.32,-332.94"/>
</g>
<!-- Workflow -->
<g id="node7" class="node">
<title>Workflow</title>
<polygon fill="orange" stroke="black" points="827.15,-324 756.15,-324 756.15,-288 827.15,-288 827.15,-324"/>
<text text-anchor="middle" x="791.65" y="-303.8" font-family="Times,serif" font-size="9.00">Ⓜ Workflow</text>
</g>
<!-- System Monitor&#45;&gt;Workflow -->
<g id="edge6" class="edge">
<title>System Monitor&#45;&gt;Workflow</title>
<path fill="none" stroke="black" d="M791.65,-359.7C791.65,-351.98 791.65,-342.71 791.65,-334.11"/>
<polygon fill="black" stroke="black" points="795.15,-334.1 791.65,-324.1 788.15,-334.1 795.15,-334.1"/>
</g>
<!-- Fallback -->
<g id="node32" class="node">
<title>Fallback</title>
<polygon fill="orange" stroke="black" points="1093.65,-324 1025.65,-324 1025.65,-288 1093.65,-288 1093.65,-324"/>
<text text-anchor="middle" x="1059.65" y="-303.8" font-family="Times,serif" font-size="9.00">Ⓜ Fallback</text>
</g>
<!-- System Monitor&#45;&gt;Fallback -->
<g id="edge31" class="edge">
<title>System Monitor&#45;&gt;Fallback</title>
<path fill="none" stroke="black" d="M836.51,-365.28C886.28,-352.28 966.07,-331.44 1015.54,-318.52"/>
<polygon fill="black" stroke="black" points="1016.52,-321.88 1025.31,-315.97 1014.75,-315.11 1016.52,-321.88"/>
</g>
<!-- System OK? -->
<g id="node8" class="node">
<title>System OK?</title>
<ellipse fill="gray" stroke="black" cx="692.65" cy="-234" rx="40.98" ry="18"/>
<text text-anchor="middle" x="692.65" y="-231.8" font-family="Times,serif" font-size="9.00">System OK?</text>
</g>
<!-- Workflow&#45;&gt;System OK? -->
<g id="edge7" class="edge">
<title>Workflow&#45;&gt;System OK?</title>
<path fill="none" stroke="black" d="M767.43,-287.88C753.56,-278.06 736.06,-265.69 721.47,-255.38"/>
<polygon fill="black" stroke="black" points="723.46,-252.5 713.27,-249.58 719.42,-258.21 723.46,-252.5"/>
</g>
<!-- Pack Bottle -->
<g id="node9" class="node">
<title>Pack Bottle</title>
<polygon fill="orange" stroke="black" points="832.15,-252 751.15,-252 751.15,-216 832.15,-216 832.15,-252"/>
<text text-anchor="middle" x="791.65" y="-231.8" font-family="Times,serif" font-size="9.00">Ⓜ Pack Bottle</text>
</g>
<!-- Workflow&#45;&gt;Pack Bottle -->
<g id="edge8" class="edge">
<title>Workflow&#45;&gt;Pack Bottle</title>
<path fill="none" stroke="black" d="M791.65,-287.7C791.65,-279.98 791.65,-270.71 791.65,-262.11"/>
<polygon fill="black" stroke="black" points="795.15,-262.1 791.65,-252.1 788.15,-262.1 795.15,-262.1"/>
</g>
<!-- Active? -->
<g id="node10" class="node">
<title>Active?</title>
<ellipse fill="gray" stroke="black" cx="740.65" cy="-162" rx="28.74" ry="18"/>
<text text-anchor="middle" x="740.65" y="-159.8" font-family="Times,serif" font-size="9.00">Active?</text>
</g>
<!-- Pack Bottle&#45;&gt;Active? -->
<g id="edge9" class="edge">
<title>Pack Bottle&#45;&gt;Active?</title>
<path fill="none" stroke="black" d="M779.05,-215.7C772.72,-207.02 764.96,-196.37 758.08,-186.92"/>
<polygon fill="black" stroke="black" points="760.79,-184.69 752.07,-178.67 755.13,-188.81 760.79,-184.69"/>
</g>
<!-- System Skills -->
<g id="node11" class="node">
<title>System Skills</title>
<polygon fill="cyan" stroke="black" points="898.39,-154.54 898.39,-169.46 865.74,-180 819.57,-180 786.92,-169.46 786.92,-154.54 819.57,-144 865.74,-144 898.39,-154.54"/>
<text text-anchor="middle" x="842.65" y="-159.8" font-family="Times,serif" font-size="9.00">Ⓜ System Skills</text>
</g>
<!-- Pack Bottle&#45;&gt;System Skills -->
<g id="edge10" class="edge">
<title>Pack Bottle&#45;&gt;System Skills</title>
<path fill="none" stroke="black" d="M804.26,-215.7C810.25,-207.47 817.53,-197.48 824.13,-188.42"/>
<polygon fill="black" stroke="black" points="827.13,-190.25 830.19,-180.1 821.47,-186.13 827.13,-190.25"/>
</g>
<!-- Pick -->
<g id="node12" class="node">
<title>Pick</title>
<polygon fill="orange" stroke="black" points="221.65,-108 167.65,-108 167.65,-72 221.65,-72 221.65,-108"/>
<text text-anchor="middle" x="194.65" y="-87.8" font-family="Times,serif" font-size="9.00">Ⓜ Pick</text>
</g>
<!-- System Skills&#45;&gt;Pick -->
<g id="edge11" class="edge">
<title>System Skills&#45;&gt;Pick</title>
<path fill="none" stroke="black" d="M802.94,-149.34C794.95,-147.31 786.58,-145.4 778.65,-144 672.67,-125.25 343.4,-101.32 231.96,-93.56"/>
<polygon fill="black" stroke="black" points="232.09,-90.06 221.87,-92.86 231.6,-97.04 232.09,-90.06"/>
</g>
<!-- Fill -->
<g id="node16" class="node">
<title>Fill</title>
<polygon fill="orange" stroke="black" points="496.65,-108 442.65,-108 442.65,-72 496.65,-72 496.65,-108"/>
<text text-anchor="middle" x="469.65" y="-87.8" font-family="Times,serif" font-size="9.00">Ⓜ Fill</text>
</g>
<!-- System Skills&#45;&gt;Fill -->
<g id="edge15" class="edge">
<title>System Skills&#45;&gt;Fill</title>
<path fill="none" stroke="black" d="M801.81,-149.57C794.15,-147.59 786.18,-145.64 778.65,-144 681.28,-122.76 565.12,-104.79 506.86,-96.28"/>
<polygon fill="black" stroke="black" points="507.07,-92.77 496.68,-94.8 506.07,-99.7 507.07,-92.77"/>
</g>
<!-- Cap -->
<g id="node20" class="node">
<title>Cap</title>
<polygon fill="orange" stroke="black" points="773.65,-108 719.65,-108 719.65,-72 773.65,-72 773.65,-108"/>
<text text-anchor="middle" x="746.65" y="-87.8" font-family="Times,serif" font-size="9.00">Ⓜ Cap</text>
</g>
<!-- System Skills&#45;&gt;Cap -->
<g id="edge19" class="edge">
<title>System Skills&#45;&gt;Cap</title>
<path fill="none" stroke="black" d="M818.92,-143.7C806.72,-134.8 791.67,-123.82 778.47,-114.2"/>
<polygon fill="black" stroke="black" points="780.25,-111.17 770.11,-108.1 776.13,-116.82 780.25,-111.17"/>
</g>
<!-- Handover -->
<g id="node24" class="node">
<title>Handover</title>
<polygon fill="orange" stroke="black" points="983.65,-108 909.65,-108 909.65,-72 983.65,-72 983.65,-108"/>
<text text-anchor="middle" x="946.65" y="-87.8" font-family="Times,serif" font-size="9.00">Ⓜ Handover</text>
</g>
<!-- System Skills&#45;&gt;Handover -->
<g id="edge23" class="edge">
<title>System Skills&#45;&gt;Handover</title>
<path fill="none" stroke="black" d="M867.3,-144.41C880.86,-135.29 897.88,-123.83 912.68,-113.86"/>
<polygon fill="black" stroke="black" points="914.75,-116.69 921.1,-108.2 910.85,-110.88 914.75,-116.69"/>
</g>
<!-- Finish Pack Bottle -->
<g id="node28" class="node">
<title>Finish Pack Bottle</title>
<polygon fill="orange" stroke="black" points="1227.15,-108 1114.15,-108 1114.15,-72 1227.15,-72 1227.15,-108"/>
<text text-anchor="middle" x="1170.65" y="-87.8" font-family="Times,serif" font-size="9.00">Ⓜ Finish Pack Bottle</text>
</g>
<!-- System Skills&#45;&gt;Finish Pack Bottle -->
<g id="edge27" class="edge">
<title>System Skills&#45;&gt;Finish Pack Bottle</title>
<path fill="none" stroke="black" d="M888.26,-151.27C944.23,-139.32 1039.61,-118.97 1103.85,-105.26"/>
<polygon fill="black" stroke="black" points="1104.83,-108.63 1113.88,-103.12 1103.37,-101.78 1104.83,-108.63"/>
</g>
<!-- Idle Status -->
<g id="node31" class="node">
<title>Idle Status</title>
<ellipse fill="gray" stroke="black" cx="1283.65" cy="-90" rx="38.87" ry="18"/>
<text text-anchor="middle" x="1283.65" y="-87.8" font-family="Times,serif" font-size="9.00">Idle Status</text>
</g>
<!-- System Skills&#45;&gt;Idle Status -->
<g id="edge30" class="edge">
<title>System Skills&#45;&gt;Idle Status</title>
<path fill="none" stroke="black" d="M898.49,-157.26C975.48,-151.25 1118.17,-137.04 1236.65,-108 1239.59,-107.28 1242.6,-106.44 1245.61,-105.53"/>
<polygon fill="black" stroke="black" points="1246.7,-108.85 1255.12,-102.42 1244.53,-102.2 1246.7,-108.85"/>
</g>
<!-- System Active? -->
<g id="node13" class="node">
<title>System Active?</title>
<ellipse fill="gray" stroke="black" cx="49.65" cy="-18" rx="49.8" ry="18"/>
<text text-anchor="middle" x="49.65" y="-15.8" font-family="Times,serif" font-size="9.00">System Active?</text>
</g>
<!-- Pick&#45;&gt;System Active? -->
<g id="edge12" class="edge">
<title>Pick&#45;&gt;System Active?</title>
<path fill="none" stroke="black" d="M167.38,-75.83C144.83,-64.95 112.56,-49.37 87.5,-37.27"/>
<polygon fill="black" stroke="black" points="88.82,-34.02 78.29,-32.83 85.78,-40.33 88.82,-34.02"/>
</g>
<!-- Call Pick -->
<g id="node14" class="node">
<title>Call Pick</title>
<ellipse fill="gray" stroke="black" cx="150.65" cy="-18" rx="32.82" ry="18"/>
<text text-anchor="middle" x="150.65" y="-15.8" font-family="Times,serif" font-size="9.00">Call Pick</text>
</g>
<!-- Pick&#45;&gt;Call Pick -->
<g id="edge13" class="edge">
<title>Pick&#45;&gt;Call Pick</title>
<path fill="none" stroke="black" d="M183.78,-71.7C178.45,-63.23 171.95,-52.89 166.12,-43.61"/>
<polygon fill="black" stroke="black" points="169.09,-41.75 160.8,-35.14 163.16,-45.47 169.09,-41.75"/>
</g>
<!-- Wait 1 sec -->
<g id="node15" class="node">
<title>Wait 1 sec</title>
<ellipse fill="gray" stroke="black" cx="238.65" cy="-18" rx="36.9" ry="18"/>
<text text-anchor="middle" x="238.65" y="-15.8" font-family="Times,serif" font-size="9.00">Wait 1 sec</text>
</g>
<!-- Pick&#45;&gt;Wait 1 sec -->
<g id="edge14" class="edge">
<title>Pick&#45;&gt;Wait 1 sec</title>
<path fill="none" stroke="black" d="M205.53,-71.7C210.72,-63.44 217.03,-53.39 222.75,-44.3"/>
<polygon fill="black" stroke="black" points="225.85,-45.95 228.2,-35.62 219.92,-42.23 225.85,-45.95"/>
</g>
<!-- Pick Ready? -->
<g id="node17" class="node">
<title>Pick Ready?</title>
<ellipse fill="gray" stroke="black" cx="335.65" cy="-18" rx="41.64" ry="18"/>
<text text-anchor="middle" x="335.65" y="-15.8" font-family="Times,serif" font-size="9.00">Pick Ready?</text>
</g>
<!-- Fill&#45;&gt;Pick Ready? -->
<g id="edge16" class="edge">
<title>Fill&#45;&gt;Pick Ready?</title>
<path fill="none" stroke="black" d="M442.54,-74.83C421.7,-63.95 392.77,-48.84 370.26,-37.08"/>
<polygon fill="black" stroke="black" points="371.85,-33.96 361.36,-32.43 368.61,-40.16 371.85,-33.96"/>
</g>
<!-- Call Fill -->
<g id="node18" class="node">
<title>Call Fill</title>
<ellipse fill="gray" stroke="black" cx="425.65" cy="-18" rx="30.7" ry="18"/>
<text text-anchor="middle" x="425.65" y="-15.8" font-family="Times,serif" font-size="9.00">Call Fill</text>
</g>
<!-- Fill&#45;&gt;Call Fill -->
<g id="edge17" class="edge">
<title>Fill&#45;&gt;Call Fill</title>
<path fill="none" stroke="black" d="M458.78,-71.7C453.45,-63.23 446.95,-52.89 441.12,-43.61"/>
<polygon fill="black" stroke="black" points="444.09,-41.75 435.8,-35.14 438.16,-45.47 444.09,-41.75"/>
</g>
<!-- Wait 1 sec* -->
<g id="node19" class="node">
<title>Wait 1 sec*</title>
<ellipse fill="gray" stroke="black" cx="513.65" cy="-18" rx="39.02" ry="18"/>
<text text-anchor="middle" x="513.65" y="-15.8" font-family="Times,serif" font-size="9.00">Wait 1 sec*</text>
</g>
<!-- Fill&#45;&gt;Wait 1 sec* -->
<g id="edge18" class="edge">
<title>Fill&#45;&gt;Wait 1 sec*</title>
<path fill="none" stroke="black" d="M480.53,-71.7C485.72,-63.44 492.03,-53.39 497.75,-44.3"/>
<polygon fill="black" stroke="black" points="500.85,-45.95 503.2,-35.62 494.92,-42.23 500.85,-45.95"/>
</g>
<!-- Fill Ready? -->
<g id="node21" class="node">
<title>Fill Ready?</title>
<ellipse fill="gray" stroke="black" cx="610.65" cy="-18" rx="39.02" ry="18"/>
<text text-anchor="middle" x="610.65" y="-15.8" font-family="Times,serif" font-size="9.00">Fill Ready?</text>
</g>
<!-- Cap&#45;&gt;Fill Ready? -->
<g id="edge20" class="edge">
<title>Cap&#45;&gt;Fill Ready?</title>
<path fill="none" stroke="black" d="M719.46,-75C698.06,-63.99 668.12,-48.58 645.06,-36.71"/>
<polygon fill="black" stroke="black" points="646.46,-33.49 635.96,-32.03 643.25,-39.72 646.46,-33.49"/>
</g>
<!-- Call Cap -->
<g id="node22" class="node">
<title>Call Cap</title>
<ellipse fill="gray" stroke="black" cx="700.65" cy="-18" rx="32.16" ry="18"/>
<text text-anchor="middle" x="700.65" y="-15.8" font-family="Times,serif" font-size="9.00">Call Cap</text>
</g>
<!-- Cap&#45;&gt;Call Cap -->
<g id="edge21" class="edge">
<title>Cap&#45;&gt;Call Cap</title>
<path fill="none" stroke="black" d="M735.28,-71.7C729.72,-63.23 722.92,-52.89 716.83,-43.61"/>
<polygon fill="black" stroke="black" points="719.68,-41.58 711.26,-35.14 713.83,-45.42 719.68,-41.58"/>
</g>
<!-- Wait 1 sec** -->
<g id="node23" class="node">
<title>Wait 1 sec**</title>
<ellipse fill="gray" stroke="black" cx="792.65" cy="-18" rx="42.29" ry="18"/>
<text text-anchor="middle" x="792.65" y="-15.8" font-family="Times,serif" font-size="9.00">Wait 1 sec**</text>
</g>
<!-- Cap&#45;&gt;Wait 1 sec** -->
<g id="edge22" class="edge">
<title>Cap&#45;&gt;Wait 1 sec**</title>
<path fill="none" stroke="black" d="M758.02,-71.7C763.51,-63.35 770.19,-53.18 776.21,-44.02"/>
<polygon fill="black" stroke="black" points="779.16,-45.9 781.73,-35.62 773.31,-42.06 779.16,-45.9"/>
</g>
<!-- Cap Ready? -->
<g id="node25" class="node">
<title>Cap Ready?</title>
<ellipse fill="gray" stroke="black" cx="893.65" cy="-18" rx="40.98" ry="18"/>
<text text-anchor="middle" x="893.65" y="-15.8" font-family="Times,serif" font-size="9.00">Cap Ready?</text>
</g>
<!-- Handover&#45;&gt;Cap Ready? -->
<g id="edge24" class="edge">
<title>Handover&#45;&gt;Cap Ready?</title>
<path fill="none" stroke="black" d="M933.55,-71.7C927.17,-63.27 919.38,-52.97 912.38,-43.73"/>
<polygon fill="black" stroke="black" points="915.06,-41.48 906.24,-35.62 909.48,-45.71 915.06,-41.48"/>
</g>
<!-- Call Handover -->
<g id="node26" class="node">
<title>Call Handover</title>
<ellipse fill="gray" stroke="black" cx="1000.65" cy="-18" rx="47.84" ry="18"/>
<text text-anchor="middle" x="1000.65" y="-15.8" font-family="Times,serif" font-size="9.00">Call Handover</text>
</g>
<!-- Handover&#45;&gt;Call Handover -->
<g id="edge25" class="edge">
<title>Handover&#45;&gt;Call Handover</title>
<path fill="none" stroke="black" d="M960,-71.7C966.5,-63.27 974.44,-52.97 981.57,-43.73"/>
<polygon fill="black" stroke="black" points="984.49,-45.68 987.83,-35.62 978.95,-41.4 984.49,-45.68"/>
</g>
<!-- Wait 1 sec*** -->
<g id="node27" class="node">
<title>Wait 1 sec***</title>
<ellipse fill="gray" stroke="black" cx="1110.65" cy="-18" rx="44.41" ry="18"/>
<text text-anchor="middle" x="1110.65" y="-15.8" font-family="Times,serif" font-size="9.00">Wait 1 sec***</text>
</g>
<!-- Handover&#45;&gt;Wait 1 sec*** -->
<g id="edge26" class="edge">
<title>Handover&#45;&gt;Wait 1 sec***</title>
<path fill="none" stroke="black" d="M983.87,-73.12C1010.13,-61.91 1045.23,-46.93 1071.84,-35.57"/>
<polygon fill="black" stroke="black" points="1073.4,-38.7 1081.23,-31.56 1070.65,-32.27 1073.4,-38.7"/>
</g>
<!-- Handover Ready? -->
<g id="node29" class="node">
<title>Handover Ready?</title>
<ellipse fill="gray" stroke="black" cx="1229.65" cy="-18" rx="56.66" ry="18"/>
<text text-anchor="middle" x="1229.65" y="-15.8" font-family="Times,serif" font-size="9.00">Handover Ready?</text>
</g>
<!-- Finish Pack Bottle&#45;&gt;Handover Ready? -->
<g id="edge28" class="edge">
<title>Finish Pack Bottle&#45;&gt;Handover Ready?</title>
<path fill="none" stroke="black" d="M1185.24,-71.7C1192.42,-63.18 1201.19,-52.76 1209.04,-43.45"/>
<polygon fill="black" stroke="black" points="1211.87,-45.52 1215.64,-35.62 1206.52,-41.01 1211.87,-45.52"/>
</g>
<!-- Finish Pack Bottle* -->
<g id="node30" class="node">
<title>Finish Pack Bottle*</title>
<ellipse fill="gray" stroke="black" cx="1364.65" cy="-18" rx="60.74" ry="18"/>
<text text-anchor="middle" x="1364.65" y="-15.8" font-family="Times,serif" font-size="9.00">Finish Pack Bottle*</text>
</g>
<!-- Finish Pack Bottle&#45;&gt;Finish Pack Bottle* -->
<g id="edge29" class="edge">
<title>Finish Pack Bottle&#45;&gt;Finish Pack Bottle*</title>
<path fill="none" stroke="black" d="M1218.11,-71.88C1248.58,-60.88 1287.96,-46.67 1318.22,-35.75"/>
<polygon fill="black" stroke="black" points="1319.49,-39.02 1327.7,-32.33 1317.11,-32.43 1319.49,-39.02"/>
</g>
<!-- Active?* -->
<g id="node33" class="node">
<title>Active?*</title>
<ellipse fill="gray" stroke="black" cx="881.65" cy="-234" rx="31.51" ry="18"/>
<text text-anchor="middle" x="881.65" y="-231.8" font-family="Times,serif" font-size="9.00">Active?*</text>
</g>
<!-- Fallback&#45;&gt;Active?* -->
<g id="edge32" class="edge">
<title>Fallback&#45;&gt;Active?*</title>
<path fill="none" stroke="black" d="M1025.49,-292.26C997.49,-281.73 956.87,-266.24 921.65,-252 919.61,-251.17 917.51,-250.31 915.39,-249.44"/>
<polygon fill="black" stroke="black" points="916.71,-246.2 906.13,-245.57 914.01,-252.65 916.71,-246.2"/>
</g>
<!-- Abort Pick -->
<g id="node34" class="node">
<title>Abort Pick</title>
<ellipse fill="gray" stroke="black" cx="968.65" cy="-234" rx="37.56" ry="18"/>
<text text-anchor="middle" x="968.65" y="-231.8" font-family="Times,serif" font-size="9.00">Abort Pick</text>
</g>
<!-- Fallback&#45;&gt;Abort Pick -->
<g id="edge33" class="edge">
<title>Fallback&#45;&gt;Abort Pick</title>
<path fill="none" stroke="black" d="M1037.16,-287.7C1024.72,-278.13 1009.18,-266.17 996.04,-256.07"/>
<polygon fill="black" stroke="black" points="997.87,-253.06 987.81,-249.74 993.6,-258.61 997.87,-253.06"/>
</g>
<!-- Abort Fill -->
<g id="node35" class="node">
<title>Abort Fill</title>
<ellipse fill="gray" stroke="black" cx="1059.65" cy="-234" rx="35.44" ry="18"/>
<text text-anchor="middle" x="1059.65" y="-231.8" font-family="Times,serif" font-size="9.00">Abort Fill</text>
</g>
<!-- Fallback&#45;&gt;Abort Fill -->
<g id="edge34" class="edge">
<title>Fallback&#45;&gt;Abort Fill</title>
<path fill="none" stroke="black" d="M1059.65,-287.7C1059.65,-279.98 1059.65,-270.71 1059.65,-262.11"/>
<polygon fill="black" stroke="black" points="1063.15,-262.1 1059.65,-252.1 1056.15,-262.1 1063.15,-262.1"/>
</g>
<!-- Abort Cap -->
<g id="node36" class="node">
<title>Abort Cap</title>
<ellipse fill="gray" stroke="black" cx="1149.65" cy="-234" rx="36.9" ry="18"/>
<text text-anchor="middle" x="1149.65" y="-231.8" font-family="Times,serif" font-size="9.00">Abort Cap</text>
</g>
<!-- Fallback&#45;&gt;Abort Cap -->
<g id="edge35" class="edge">
<title>Fallback&#45;&gt;Abort Cap</title>
<path fill="none" stroke="black" d="M1081.9,-287.7C1094.2,-278.13 1109.57,-266.17 1122.56,-256.07"/>
<polygon fill="black" stroke="black" points="1124.96,-258.64 1130.7,-249.74 1120.66,-253.12 1124.96,-258.64"/>
</g>
<!-- Abort Handover -->
<g id="node37" class="node">
<title>Abort Handover</title>
<ellipse fill="gray" stroke="black" cx="1256.65" cy="-234" rx="52.58" ry="18"/>
<text text-anchor="middle" x="1256.65" y="-231.8" font-family="Times,serif" font-size="9.00">Abort Handover</text>
</g>
<!-- Fallback&#45;&gt;Abort Handover -->
<g id="edge36" class="edge">
<title>Fallback&#45;&gt;Abort Handover</title>
<path fill="none" stroke="black" d="M1093.97,-292.81C1126.61,-281.21 1175.92,-263.68 1211.7,-250.97"/>
<polygon fill="black" stroke="black" points="1213.15,-254.17 1221.4,-247.52 1210.81,-247.57 1213.15,-254.17"/>
</g>
<!-- Abort Pack Bottle -->
<g id="node38" class="node">
<title>Abort Pack Bottle</title>
<ellipse fill="gray" stroke="black" cx="1383.65" cy="-234" rx="56.66" ry="18"/>
<text text-anchor="middle" x="1383.65" y="-231.8" font-family="Times,serif" font-size="9.00">Abort Pack Bottle</text>
</g>
<!-- Fallback&#45;&gt;Abort Pack Bottle -->
<g id="edge37" class="edge">
<title>Fallback&#45;&gt;Abort Pack Bottle</title>
<path fill="none" stroke="black" d="M1093.72,-298.64C1143.36,-289.23 1238.41,-270.69 1318.65,-252 1322.99,-250.99 1327.47,-249.9 1331.97,-248.79"/>
<polygon fill="black" stroke="black" points="1332.94,-252.15 1341.78,-246.31 1331.22,-245.37 1332.94,-252.15"/>
</g>
</g>
</svg>
