<?xml version="1.0" encoding="UTF-8" standalone="no"?>
<!DOCTYPE svg PUBLIC "-//W3C//DTD SVG 1.1//EN"
 "http://www.w3.org/Graphics/SVG/1.1/DTD/svg11.dtd">
<!-- Generated by graphviz version 2.43.0 (0)
 -->
<!-- Title: pastafarianism Pages: 1 -->
<svg width="2136pt" height="280pt"
 viewBox="0.00 0.00 2135.90 280.00" xmlns="http://www.w3.org/2000/svg" xmlns:xlink="http://www.w3.org/1999/xlink">
<g id="graph0" class="graph" transform="scale(1 1) rotate(0) translate(4 276)">
<title>pastafarianism</title>
<polygon fill="white" stroke="transparent" points="-4,4 -4,-276 2131.9,-276 2131.9,4 -4,4"/>
<!-- Task Pack Bottle -->
<g id="node1" class="node">
<title>Task Pack Bottle</title>
<polygon fill="gold" stroke="black" points="762.66,-272 611.12,-272 572.13,-216 723.68,-216 762.66,-272"/>
<text text-anchor="middle" x="667.4" y="-246.8" font-family="Times,serif" font-size="9.00">Task Pack Bottle</text>
<text text-anchor="middle" x="667.4" y="-236.8" font-family="Times,serif" font-size="9.00">SuccessOnAll</text>
</g>
<!-- System Monitor -->
<g id="node2" class="node">
<title>System Monitor</title>
<polygon fill="orange" stroke="black" points="262.9,-108 161.9,-108 161.9,-72 262.9,-72 262.9,-108"/>
<text text-anchor="middle" x="212.4" y="-87.8" font-family="Times,serif" font-size="9.00">Ⓜ System Monitor</text>
</g>
<!-- Task Pack Bottle&#45;&gt;System Monitor -->
<g id="edge1" class="edge">
<title>Task Pack Bottle&#45;&gt;System Monitor</title>
<path fill="none" stroke="black" d="M586.31,-215.91C496.33,-185.85 353.22,-138.05 272.65,-111.13"/>
<polygon fill="black" stroke="black" points="273.73,-107.8 263.14,-107.95 271.51,-114.44 273.73,-107.8"/>
</g>
<!-- Workflow -->
<g id="node6" class="node">
<title>Workflow</title>
<polygon fill="cyan" stroke="black" points="1055.64,-154.54 1055.64,-169.46 1029.72,-180 993.07,-180 967.16,-169.46 967.16,-154.54 993.07,-144 1029.72,-144 1055.64,-154.54"/>
<text text-anchor="middle" x="1011.4" y="-159.8" font-family="Times,serif" font-size="9.00">Ⓜ Workflow</text>
</g>
<!-- Task Pack Bottle&#45;&gt;Workflow -->
<g id="edge5" class="edge">
<title>Task Pack Bottle&#45;&gt;Workflow</title>
<path fill="none" stroke="black" d="M732.1,-227.95C799.25,-212.34 902.74,-188.27 963.09,-174.23"/>
<polygon fill="black" stroke="black" points="964.17,-177.58 973.12,-171.9 962.58,-170.76 964.17,-177.58"/>
</g>
<!-- Report Status -->
<g id="node3" class="node">
<title>Report Status</title>
<ellipse fill="gray" stroke="blue" cx="37.4" cy="-18" rx="37.29" ry="18"/>
<text text-anchor="middle" x="37.4" y="-16.4" font-family="Times,serif" font-size="7.00" fill="blue">Report Status</text>
</g>
<!-- System Monitor&#45;&gt;Report Status -->
<g id="edge2" class="edge">
<title>System Monitor&#45;&gt;Report Status</title>
<path fill="none" stroke="black" d="M169.59,-71.88C140.53,-60.25 102.49,-45.04 74.68,-33.91"/>
<polygon fill="black" stroke="black" points="75.88,-30.63 65.3,-30.16 73.28,-37.12 75.88,-30.63"/>
</g>
<!-- Bottle Detector Status -->
<g id="node4" class="node">
<title>Bottle Detector Status</title>
<ellipse fill="gray" stroke="blue" cx="147.4" cy="-18" rx="54.9" ry="18"/>
<text text-anchor="middle" x="147.4" y="-16.4" font-family="Times,serif" font-size="7.00" fill="blue">Bottle Detector Status</text>
</g>
<!-- System Monitor&#45;&gt;Bottle Detector Status -->
<g id="edge3" class="edge">
<title>System Monitor&#45;&gt;Bottle Detector Status</title>
<path fill="none" stroke="black" d="M196.33,-71.7C188.34,-63.09 178.55,-52.55 169.84,-43.17"/>
<polygon fill="black" stroke="black" points="172.2,-40.57 162.83,-35.62 167.07,-45.33 172.2,-40.57"/>
</g>
<!-- User Requests Monitor -->
<g id="node5" class="node">
<title>User Requests Monitor</title>
<ellipse fill="gray" stroke="blue" cx="276.4" cy="-18" rx="56.25" ry="18"/>
<text text-anchor="middle" x="276.4" y="-16.4" font-family="Times,serif" font-size="7.00" fill="blue">User Requests Monitor</text>
</g>
<!-- System Monitor&#45;&gt;User Requests Monitor -->
<g id="edge4" class="edge">
<title>System Monitor&#45;&gt;User Requests Monitor</title>
<path fill="none" stroke="black" d="M228.22,-71.7C236.08,-63.09 245.72,-52.55 254.3,-43.17"/>
<polygon fill="black" stroke="black" points="257.03,-45.36 261.2,-35.62 251.87,-40.64 257.03,-45.36"/>
</g>
<!-- /status -->
<g id="node29" class="node">
<title>/status</title>
<polygon fill="white" stroke="blue" points="1878.9,-26.5 1827.9,-26.5 1827.9,-9.5 1878.9,-9.5 1878.9,-26.5"/>
<text text-anchor="middle" x="1853.4" y="-16.1" font-family="Times,serif" font-size="8.00" fill="blue">/status: &#45;</text>
</g>
<!-- Bottle Detector Status&#45;&gt;/status -->
<g id="edge32" class="edge">
<title>Bottle Detector Status&#45;&gt;/status</title>
<path fill="none" stroke="blue" d="M172.66,-34.05C186.24,-41.73 203.61,-50.09 220.4,-54 263.38,-64.02 1767.83,-68.84 1809.4,-54 1820.69,-49.97 1831.18,-41.65 1839.07,-34.03"/>
<polygon fill="blue" stroke="blue" points="1841.61,-36.44 1846.05,-26.82 1836.58,-31.58 1841.61,-36.44"/>
</g>
<!-- /pick_pose -->
<g id="node30" class="node">
<title>/pick_pose</title>
<polygon fill="white" stroke="blue" points="1971.4,-26.5 1897.4,-26.5 1897.4,-9.5 1971.4,-9.5 1971.4,-26.5"/>
<text text-anchor="middle" x="1934.4" y="-16.1" font-family="Times,serif" font-size="8.00" fill="blue">/pick_pose: {}</text>
</g>
<!-- Bottle Detector Status&#45;&gt;/pick_pose -->
<g id="edge40" class="edge">
<title>Bottle Detector Status&#45;&gt;/pick_pose</title>
<path fill="none" stroke="blue" d="M172.66,-34.05C186.24,-41.73 203.61,-50.09 220.4,-54 310.16,-74.93 1791.07,-80.34 1879.4,-54 1893.27,-49.86 1906.9,-40.99 1917.12,-33.09"/>
<polygon fill="blue" stroke="blue" points="1919.61,-35.57 1925.14,-26.53 1915.18,-30.15 1919.61,-35.57"/>
</g>
<!-- /stage -->
<g id="node31" class="node">
<title>/stage</title>
<polygon fill="white" stroke="blue" points="2127.9,-26.5 2078.9,-26.5 2078.9,-9.5 2127.9,-9.5 2127.9,-26.5"/>
<text text-anchor="middle" x="2103.4" y="-16.1" font-family="Times,serif" font-size="8.00" fill="blue">/stage: &#45;</text>
</g>
<!-- Bottle Detector Status&#45;&gt;/stage -->
<g id="edge52" class="edge">
<title>Bottle Detector Status&#45;&gt;/stage</title>
<path fill="none" stroke="blue" d="M172.66,-34.05C186.24,-41.73 203.61,-50.09 220.4,-54 270.2,-65.61 2013.43,-71.74 2061.4,-54 2072.11,-50.04 2081.94,-41.98 2089.39,-34.49"/>
<polygon fill="blue" stroke="blue" points="2092.26,-36.54 2096.47,-26.81 2087.12,-31.79 2092.26,-36.54"/>
</g>
<!-- User Requests Monitor&#45;&gt;/status -->
<g id="edge36" class="edge">
<title>User Requests Monitor&#45;&gt;/status</title>
<path fill="none" stroke="blue" d="M302.03,-34.05C315.81,-41.73 333.41,-50.09 350.4,-54 429.38,-72.19 1733.06,-81.25 1809.4,-54 1820.69,-49.97 1831.18,-41.65 1839.07,-34.03"/>
<polygon fill="blue" stroke="blue" points="1841.61,-36.44 1846.05,-26.82 1836.58,-31.58 1841.61,-36.44"/>
</g>
<!-- User Requests Monitor&#45;&gt;/stage -->
<g id="edge56" class="edge">
<title>User Requests Monitor&#45;&gt;/stage</title>
<path fill="none" stroke="blue" d="M302.03,-34.05C315.81,-41.73 333.41,-50.09 350.4,-54 396.71,-64.67 2016.82,-70.49 2061.4,-54 2072.11,-50.04 2081.94,-41.98 2089.39,-34.49"/>
<polygon fill="blue" stroke="blue" points="2092.26,-36.54 2096.47,-26.81 2087.12,-31.79 2092.26,-36.54"/>
</g>
<!-- Detect -->
<g id="node7" class="node">
<title>Detect</title>
<polygon fill="orange" stroke="black" points="535.9,-108 476.9,-108 476.9,-72 535.9,-72 535.9,-108"/>
<text text-anchor="middle" x="506.4" y="-87.8" font-family="Times,serif" font-size="9.00">Ⓜ Detect</text>
</g>
<!-- Workflow&#45;&gt;Detect -->
<g id="edge6" class="edge">
<title>Workflow&#45;&gt;Detect</title>
<path fill="none" stroke="black" d="M967.02,-154.85C869.8,-141.37 639.28,-109.42 546.3,-96.53"/>
<polygon fill="black" stroke="black" points="546.57,-93.03 536.18,-95.13 545.61,-99.97 546.57,-93.03"/>
</g>
<!-- Pick -->
<g id="node10" class="node">
<title>Pick</title>
<polygon fill="orange" stroke="black" points="735.4,-108 681.4,-108 681.4,-72 735.4,-72 735.4,-108"/>
<text text-anchor="middle" x="708.4" y="-87.8" font-family="Times,serif" font-size="9.00">Ⓜ Pick</text>
</g>
<!-- Workflow&#45;&gt;Pick -->
<g id="edge9" class="edge">
<title>Workflow&#45;&gt;Pick</title>
<path fill="none" stroke="black" d="M973.02,-152.13C914.43,-138.6 803.41,-112.95 745.55,-99.58"/>
<polygon fill="black" stroke="black" points="746.26,-96.16 735.73,-97.32 744.69,-102.98 746.26,-96.16"/>
</g>
<!-- Go to Fill -->
<g id="node13" class="node">
<title>Go to Fill</title>
<polygon fill="orange" stroke="black" points="906.9,-108 835.9,-108 835.9,-72 906.9,-72 906.9,-108"/>
<text text-anchor="middle" x="871.4" y="-87.8" font-family="Times,serif" font-size="9.00">Ⓜ Go to Fill</text>
</g>
<!-- Workflow&#45;&gt;Go to Fill -->
<g id="edge12" class="edge">
<title>Workflow&#45;&gt;Go to Fill</title>
<path fill="none" stroke="black" d="M984.4,-147.5C964.64,-137.62 937.41,-124.01 914.63,-112.62"/>
<polygon fill="black" stroke="black" points="916.01,-109.39 905.5,-108.05 912.88,-115.65 916.01,-109.39"/>
</g>
<!-- Go to Cap -->
<g id="node16" class="node">
<title>Go to Cap</title>
<polygon fill="orange" stroke="black" points="1048.4,-108 974.4,-108 974.4,-72 1048.4,-72 1048.4,-108"/>
<text text-anchor="middle" x="1011.4" y="-87.8" font-family="Times,serif" font-size="9.00">Ⓜ Go to Cap</text>
</g>
<!-- Workflow&#45;&gt;Go to Cap -->
<g id="edge15" class="edge">
<title>Workflow&#45;&gt;Go to Cap</title>
<path fill="none" stroke="black" d="M1011.4,-143.7C1011.4,-135.98 1011.4,-126.71 1011.4,-118.11"/>
<polygon fill="black" stroke="black" points="1014.9,-118.1 1011.4,-108.1 1007.9,-118.1 1014.9,-118.1"/>
</g>
<!-- Cap -->
<g id="node19" class="node">
<title>Cap</title>
<polygon fill="orange" stroke="black" points="1181.4,-108 1127.4,-108 1127.4,-72 1181.4,-72 1181.4,-108"/>
<text text-anchor="middle" x="1154.4" y="-87.8" font-family="Times,serif" font-size="9.00">Ⓜ Cap</text>
</g>
<!-- Workflow&#45;&gt;Cap -->
<g id="edge18" class="edge">
<title>Workflow&#45;&gt;Cap</title>
<path fill="none" stroke="black" d="M1038.97,-147.5C1061.57,-136.44 1093.72,-120.7 1118.36,-108.64"/>
<polygon fill="black" stroke="black" points="1119.95,-111.76 1127.39,-104.22 1116.87,-105.47 1119.95,-111.76"/>
</g>
<!-- Handover -->
<g id="node22" class="node">
<title>Handover</title>
<polygon fill="orange" stroke="black" points="1381.4,-108 1307.4,-108 1307.4,-72 1381.4,-72 1381.4,-108"/>
<text text-anchor="middle" x="1344.4" y="-87.8" font-family="Times,serif" font-size="9.00">Ⓜ Handover</text>
</g>
<!-- Workflow&#45;&gt;Handover -->
<g id="edge21" class="edge">
<title>Workflow&#45;&gt;Handover</title>
<path fill="none" stroke="black" d="M1051.23,-152.63C1112.93,-139.66 1231.33,-114.77 1297.22,-100.92"/>
<polygon fill="black" stroke="black" points="1298.26,-104.28 1307.32,-98.79 1296.82,-97.43 1298.26,-104.28"/>
</g>
<!-- Finish Task -->
<g id="node25" class="node">
<title>Finish Task</title>
<polygon fill="orange" stroke="black" points="1606.4,-108 1526.4,-108 1526.4,-72 1606.4,-72 1606.4,-108"/>
<text text-anchor="middle" x="1566.4" y="-87.8" font-family="Times,serif" font-size="9.00">Ⓜ Finish Task</text>
</g>
<!-- Workflow&#45;&gt;Finish Task -->
<g id="edge24" class="edge">
<title>Workflow&#45;&gt;Finish Task</title>
<path fill="none" stroke="black" d="M1055.88,-155.39C1158.04,-142.5 1408.93,-110.86 1516.31,-97.32"/>
<polygon fill="black" stroke="black" points="1516.76,-100.79 1526.24,-96.06 1515.88,-93.84 1516.76,-100.79"/>
</g>
<!-- Idle Status -->
<g id="node28" class="node">
<title>Idle Status</title>
<ellipse fill="gray" stroke="blue" cx="1778.4" cy="-18" rx="31.02" ry="18"/>
<text text-anchor="middle" x="1778.4" y="-16.4" font-family="Times,serif" font-size="7.00" fill="blue">Idle Status</text>
</g>
<!-- Workflow&#45;&gt;Idle Status -->
<g id="edge27" class="edge">
<title>Workflow&#45;&gt;Idle Status</title>
<path fill="none" stroke="black" d="M1055.65,-159.47C1176.57,-154.91 1510.48,-139.73 1615.4,-108 1666.52,-92.54 1719.73,-59.82 1750.92,-38.66"/>
<polygon fill="black" stroke="black" points="1753.24,-41.31 1759.49,-32.75 1749.27,-35.54 1753.24,-41.31"/>
</g>
<!-- Pick Requested? -->
<g id="node8" class="node">
<title>Pick Requested?</title>
<ellipse fill="gray" stroke="blue" cx="393.4" cy="-18" rx="42.96" ry="18"/>
<text text-anchor="middle" x="393.4" y="-16.4" font-family="Times,serif" font-size="7.00" fill="blue">Pick Requested?</text>
</g>
<!-- Detect&#45;&gt;Pick Requested? -->
<g id="edge7" class="edge">
<title>Detect&#45;&gt;Pick Requested?</title>
<path fill="none" stroke="black" d="M478.75,-71.88C462.66,-61.9 442.29,-49.29 425.48,-38.88"/>
<polygon fill="black" stroke="black" points="426.91,-35.64 416.56,-33.35 423.22,-41.59 426.91,-35.64"/>
</g>
<!-- Run Bottle Detection -->
<g id="node9" class="node">
<title>Run Bottle Detection</title>
<ellipse fill="gray" stroke="blue" cx="506.4" cy="-18" rx="51.82" ry="18"/>
<text text-anchor="middle" x="506.4" y="-16.4" font-family="Times,serif" font-size="7.00" fill="blue">Run Bottle Detection</text>
</g>
<!-- Detect&#45;&gt;Run Bottle Detection -->
<g id="edge8" class="edge">
<title>Detect&#45;&gt;Run Bottle Detection</title>
<path fill="none" stroke="black" d="M506.4,-71.7C506.4,-63.98 506.4,-54.71 506.4,-46.11"/>
<polygon fill="black" stroke="black" points="509.9,-46.1 506.4,-36.1 502.9,-46.1 509.9,-46.1"/>
</g>
<!-- /prev_stage -->
<g id="node32" class="node">
<title>/prev_stage</title>
<polygon fill="white" stroke="blue" points="2060.9,-26.5 1989.9,-26.5 1989.9,-9.5 2060.9,-9.5 2060.9,-26.5"/>
<text text-anchor="middle" x="2025.4" y="-16.1" font-family="Times,serif" font-size="8.00" fill="blue">/prev_stage: &#45;</text>
</g>
<!-- Pick Requested?&#45;&gt;/prev_stage -->
<g id="edge64" class="edge">
<title>Pick Requested?&#45;&gt;/prev_stage</title>
<path fill="none" stroke="blue" d="M413.87,-33.83C425.15,-41.55 439.81,-50.02 454.4,-54 535.7,-76.2 1890.73,-78.42 1971.4,-54 1985.08,-49.86 1998.46,-40.98 2008.48,-33.08"/>
<polygon fill="blue" stroke="blue" points="2010.9,-35.62 2016.34,-26.53 2006.42,-30.24 2010.9,-35.62"/>
</g>
<!-- Run Bottle Detection&#45;&gt;/status -->
<g id="edge29" class="edge">
<title>Run Bottle Detection&#45;&gt;/status</title>
<path fill="none" stroke="blue" d="M530.16,-34.04C542.97,-41.71 559.39,-50.07 575.4,-54 641.98,-70.33 1744.83,-77.05 1809.4,-54 1820.69,-49.97 1831.18,-41.65 1839.07,-34.03"/>
<polygon fill="blue" stroke="blue" points="1841.61,-36.44 1846.05,-26.82 1836.58,-31.58 1841.61,-36.44"/>
</g>
<!-- Run Bottle Detection&#45;&gt;/stage -->
<g id="edge49" class="edge">
<title>Run Bottle Detection&#45;&gt;/stage</title>
<path fill="none" stroke="blue" d="M530.16,-34.04C542.97,-41.71 559.39,-50.07 575.4,-54 615.49,-63.83 2022.68,-68.32 2061.4,-54 2072.11,-50.04 2081.94,-41.98 2089.39,-34.49"/>
<polygon fill="blue" stroke="blue" points="2092.26,-36.54 2096.47,-26.81 2087.12,-31.79 2092.26,-36.54"/>
</g>
<!-- Bottle Detected? -->
<g id="node11" class="node">
<title>Bottle Detected?</title>
<ellipse fill="gray" stroke="blue" cx="619.4" cy="-18" rx="43.57" ry="18"/>
<text text-anchor="middle" x="619.4" y="-16.4" font-family="Times,serif" font-size="7.00" fill="blue">Bottle Detected?</text>
</g>
<!-- Pick&#45;&gt;Bottle Detected? -->
<g id="edge10" class="edge">
<title>Pick&#45;&gt;Bottle Detected?</title>
<path fill="none" stroke="black" d="M686.4,-71.7C674.4,-62.26 659.45,-50.51 646.72,-40.49"/>
<polygon fill="black" stroke="black" points="648.75,-37.63 638.73,-34.2 644.42,-43.14 648.75,-37.63"/>
</g>
<!-- Run Pick -->
<g id="node12" class="node">
<title>Run Pick</title>
<ellipse fill="gray" stroke="blue" cx="708.4" cy="-18" rx="27" ry="18"/>
<text text-anchor="middle" x="708.4" y="-16.4" font-family="Times,serif" font-size="7.00" fill="blue">Run Pick</text>
</g>
<!-- Pick&#45;&gt;Run Pick -->
<g id="edge11" class="edge">
<title>Pick&#45;&gt;Run Pick</title>
<path fill="none" stroke="black" d="M708.4,-71.7C708.4,-63.98 708.4,-54.71 708.4,-46.11"/>
<polygon fill="black" stroke="black" points="711.9,-46.1 708.4,-36.1 704.9,-46.1 711.9,-46.1"/>
</g>
<!-- Bottle Detected?&#45;&gt;/prev_stage -->
<g id="edge63" class="edge">
<title>Bottle Detected?&#45;&gt;/prev_stage</title>
<path fill="none" stroke="blue" d="M640.24,-33.83C651.72,-41.55 666.61,-50.02 681.4,-54 750.6,-72.63 1902.8,-74.77 1971.4,-54 1985.08,-49.86 1998.46,-40.98 2008.48,-33.08"/>
<polygon fill="blue" stroke="blue" points="2010.9,-35.62 2016.34,-26.53 2006.42,-30.24 2010.9,-35.62"/>
</g>
<!-- Run Pick&#45;&gt;/status -->
<g id="edge33" class="edge">
<title>Run Pick&#45;&gt;/status</title>
<path fill="none" stroke="blue" d="M722.61,-33.57C730.77,-41.32 741.69,-49.89 753.4,-54 808.76,-73.42 1754.14,-73.72 1809.4,-54 1820.69,-49.97 1831.18,-41.65 1839.07,-34.03"/>
<polygon fill="blue" stroke="blue" points="1841.61,-36.44 1846.05,-26.82 1836.58,-31.58 1841.61,-36.44"/>
</g>
<!-- Run Pick&#45;&gt;/stage -->
<g id="edge53" class="edge">
<title>Run Pick&#45;&gt;/stage</title>
<path fill="none" stroke="blue" d="M722.61,-33.57C730.77,-41.32 741.69,-49.89 753.4,-54 787.68,-66.03 2027.32,-66.61 2061.4,-54 2072.11,-50.04 2081.94,-41.98 2089.39,-34.49"/>
<polygon fill="blue" stroke="blue" points="2092.26,-36.54 2096.47,-26.81 2087.12,-31.79 2092.26,-36.54"/>
</g>
<!-- Pick Ready? -->
<g id="node14" class="node">
<title>Pick Ready?</title>
<ellipse fill="gray" stroke="blue" cx="786.4" cy="-18" rx="33.48" ry="18"/>
<text text-anchor="middle" x="786.4" y="-16.4" font-family="Times,serif" font-size="7.00" fill="blue">Pick Ready?</text>
</g>
<!-- Go to Fill&#45;&gt;Pick Ready? -->
<g id="edge13" class="edge">
<title>Go to Fill&#45;&gt;Pick Ready?</title>
<path fill="none" stroke="black" d="M850.39,-71.7C838.8,-62.16 824.33,-50.24 812.08,-40.15"/>
<polygon fill="black" stroke="black" points="813.96,-37.16 804.01,-33.51 809.51,-42.57 813.96,-37.16"/>
</g>
<!-- Move to Fill -->
<g id="node15" class="node">
<title>Move to Fill</title>
<ellipse fill="gray" stroke="blue" cx="871.4" cy="-18" rx="33.48" ry="18"/>
<text text-anchor="middle" x="871.4" y="-16.4" font-family="Times,serif" font-size="7.00" fill="blue">Move to Fill</text>
</g>
<!-- Go to Fill&#45;&gt;Move to Fill -->
<g id="edge14" class="edge">
<title>Go to Fill&#45;&gt;Move to Fill</title>
<path fill="none" stroke="black" d="M871.4,-71.7C871.4,-63.98 871.4,-54.71 871.4,-46.11"/>
<polygon fill="black" stroke="black" points="874.9,-46.1 871.4,-36.1 867.9,-46.1 874.9,-46.1"/>
</g>
<!-- Pick Ready?&#45;&gt;/prev_stage -->
<g id="edge62" class="edge">
<title>Pick Ready?&#45;&gt;/prev_stage</title>
<path fill="none" stroke="blue" d="M803.25,-33.61C812.79,-41.37 825.4,-49.94 838.4,-54 898.48,-72.77 1911.15,-72.24 1971.4,-54 1985.08,-49.86 1998.46,-40.98 2008.48,-33.08"/>
<polygon fill="blue" stroke="blue" points="2010.9,-35.62 2016.34,-26.53 2006.42,-30.24 2010.9,-35.62"/>
</g>
<!-- Move to Fill&#45;&gt;/status -->
<g id="edge35" class="edge">
<title>Move to Fill&#45;&gt;/status</title>
<path fill="none" stroke="blue" d="M888.25,-33.61C897.79,-41.37 910.4,-49.94 923.4,-54 970.38,-68.68 1763.04,-70.55 1809.4,-54 1820.69,-49.97 1831.18,-41.65 1839.07,-34.03"/>
<polygon fill="blue" stroke="blue" points="1841.61,-36.44 1846.05,-26.82 1836.58,-31.58 1841.61,-36.44"/>
</g>
<!-- Move to Fill&#45;&gt;/stage -->
<g id="edge55" class="edge">
<title>Move to Fill&#45;&gt;/stage</title>
<path fill="none" stroke="blue" d="M888.25,-33.61C897.79,-41.37 910.4,-49.94 923.4,-54 983.74,-72.85 2002.1,-75.93 2061.4,-54 2072.11,-50.04 2081.94,-41.98 2089.39,-34.49"/>
<polygon fill="blue" stroke="blue" points="2092.26,-36.54 2096.47,-26.81 2087.12,-31.79 2092.26,-36.54"/>
</g>
<!-- Fill Completed? -->
<g id="node17" class="node">
<title>Fill Completed?</title>
<ellipse fill="gray" stroke="blue" cx="964.4" cy="-18" rx="41.11" ry="18"/>
<text text-anchor="middle" x="964.4" y="-16.4" font-family="Times,serif" font-size="7.00" fill="blue">Fill Completed?</text>
</g>
<!-- Go to Cap&#45;&gt;Fill Completed? -->
<g id="edge16" class="edge">
<title>Go to Cap&#45;&gt;Fill Completed?</title>
<path fill="none" stroke="black" d="M999.78,-71.7C994.18,-63.35 987.35,-53.18 981.19,-44.02"/>
<polygon fill="black" stroke="black" points="984.04,-41.97 975.56,-35.62 978.23,-45.88 984.04,-41.97"/>
</g>
<!-- Move to Cap -->
<g id="node18" class="node">
<title>Move to Cap</title>
<ellipse fill="gray" stroke="blue" cx="1058.4" cy="-18" rx="35.33" ry="18"/>
<text text-anchor="middle" x="1058.4" y="-16.4" font-family="Times,serif" font-size="7.00" fill="blue">Move to Cap</text>
</g>
<!-- Go to Cap&#45;&gt;Move to Cap -->
<g id="edge17" class="edge">
<title>Go to Cap&#45;&gt;Move to Cap</title>
<path fill="none" stroke="black" d="M1023.01,-71.7C1028.7,-63.23 1035.64,-52.89 1041.87,-43.61"/>
<polygon fill="black" stroke="black" points="1044.89,-45.4 1047.56,-35.14 1039.08,-41.5 1044.89,-45.4"/>
</g>
<!-- Fill Completed?&#45;&gt;/prev_stage -->
<g id="edge61" class="edge">
<title>Fill Completed?&#45;&gt;/prev_stage</title>
<path fill="none" stroke="blue" d="M984.12,-33.82C995.01,-41.54 1009.19,-50.01 1023.4,-54 1074.1,-68.25 1920.99,-69.26 1971.4,-54 1985.08,-49.86 1998.46,-40.98 2008.48,-33.08"/>
<polygon fill="blue" stroke="blue" points="2010.9,-35.62 2016.34,-26.53 2006.42,-30.24 2010.9,-35.62"/>
</g>
<!-- Move to Cap&#45;&gt;/status -->
<g id="edge38" class="edge">
<title>Move to Cap&#45;&gt;/status</title>
<path fill="none" stroke="blue" d="M1076,-33.61C1085.94,-41.38 1099.02,-49.95 1112.4,-54 1149.46,-65.22 1772.93,-67.02 1809.4,-54 1820.69,-49.97 1831.18,-41.65 1839.07,-34.03"/>
<polygon fill="blue" stroke="blue" points="1841.61,-36.44 1846.05,-26.82 1836.58,-31.58 1841.61,-36.44"/>
</g>
<!-- Move to Cap&#45;&gt;/stage -->
<g id="edge57" class="edge">
<title>Move to Cap&#45;&gt;/stage</title>
<path fill="none" stroke="blue" d="M1076,-33.61C1085.94,-41.38 1099.02,-49.95 1112.4,-54 1162.86,-69.28 2011.95,-72.29 2061.4,-54 2072.11,-50.04 2081.94,-41.98 2089.39,-34.49"/>
<polygon fill="blue" stroke="blue" points="2092.26,-36.54 2096.47,-26.81 2087.12,-31.79 2092.26,-36.54"/>
</g>
<!-- Cap Requested? -->
<g id="node20" class="node">
<title>Cap Requested?</title>
<ellipse fill="gray" stroke="blue" cx="1154.4" cy="-18" rx="42.34" ry="18"/>
<text text-anchor="middle" x="1154.4" y="-16.4" font-family="Times,serif" font-size="7.00" fill="blue">Cap Requested?</text>
</g>
<!-- Cap&#45;&gt;Cap Requested? -->
<g id="edge19" class="edge">
<title>Cap&#45;&gt;Cap Requested?</title>
<path fill="none" stroke="black" d="M1154.4,-71.7C1154.4,-63.98 1154.4,-54.71 1154.4,-46.11"/>
<polygon fill="black" stroke="black" points="1157.9,-46.1 1154.4,-36.1 1150.9,-46.1 1157.9,-46.1"/>
</g>
<!-- Start Cap -->
<g id="node21" class="node">
<title>Start Cap</title>
<ellipse fill="gray" stroke="blue" cx="1243.4" cy="-18" rx="28.43" ry="18"/>
<text text-anchor="middle" x="1243.4" y="-16.4" font-family="Times,serif" font-size="7.00" fill="blue">Start Cap</text>
</g>
<!-- Cap&#45;&gt;Start Cap -->
<g id="edge20" class="edge">
<title>Cap&#45;&gt;Start Cap</title>
<path fill="none" stroke="black" d="M1176.4,-71.7C1188.98,-61.8 1204.82,-49.34 1217.94,-39.02"/>
<polygon fill="black" stroke="black" points="1220.41,-41.53 1226.11,-32.6 1216.08,-36.03 1220.41,-41.53"/>
</g>
<!-- Cap Requested?&#45;&gt;/prev_stage -->
<g id="edge59" class="edge">
<title>Cap Requested?&#45;&gt;/prev_stage</title>
<path fill="none" stroke="blue" d="M1174.87,-33.83C1186.15,-41.55 1200.81,-50.02 1215.4,-54 1296.43,-76.13 1891,-78.34 1971.4,-54 1985.08,-49.86 1998.46,-40.98 2008.48,-33.08"/>
<polygon fill="blue" stroke="blue" points="2010.9,-35.62 2016.34,-26.53 2006.42,-30.24 2010.9,-35.62"/>
</g>
<!-- Start Cap&#45;&gt;/status -->
<g id="edge30" class="edge">
<title>Start Cap&#45;&gt;/status</title>
<path fill="none" stroke="blue" d="M1258.37,-33.58C1266.92,-41.33 1278.33,-49.91 1290.4,-54 1345.01,-72.51 1755.09,-73.39 1809.4,-54 1820.69,-49.97 1831.18,-41.65 1839.07,-34.03"/>
<polygon fill="blue" stroke="blue" points="1841.61,-36.44 1846.05,-26.82 1836.58,-31.58 1841.61,-36.44"/>
</g>
<!-- Start Cap&#45;&gt;/stage -->
<g id="edge50" class="edge">
<title>Start Cap&#45;&gt;/stage</title>
<path fill="none" stroke="blue" d="M1258.37,-33.58C1266.92,-41.33 1278.33,-49.91 1290.4,-54 1330.96,-67.75 2021.22,-68.86 2061.4,-54 2072.11,-50.04 2081.94,-41.98 2089.39,-34.49"/>
<polygon fill="blue" stroke="blue" points="2092.26,-36.54 2096.47,-26.81 2087.12,-31.79 2092.26,-36.54"/>
</g>
<!-- Handover Requested? -->
<g id="node23" class="node">
<title>Handover Requested?</title>
<ellipse fill="gray" stroke="blue" cx="1344.4" cy="-18" rx="54.28" ry="18"/>
<text text-anchor="middle" x="1344.4" y="-16.4" font-family="Times,serif" font-size="7.00" fill="blue">Handover Requested?</text>
</g>
<!-- Handover&#45;&gt;Handover Requested? -->
<g id="edge22" class="edge">
<title>Handover&#45;&gt;Handover Requested?</title>
<path fill="none" stroke="black" d="M1344.4,-71.7C1344.4,-63.98 1344.4,-54.71 1344.4,-46.11"/>
<polygon fill="black" stroke="black" points="1347.9,-46.1 1344.4,-36.1 1340.9,-46.1 1347.9,-46.1"/>
</g>
<!-- Start Handover -->
<g id="node24" class="node">
<title>Start Handover</title>
<ellipse fill="gray" stroke="blue" cx="1456.4" cy="-18" rx="40.38" ry="18"/>
<text text-anchor="middle" x="1456.4" y="-16.4" font-family="Times,serif" font-size="7.00" fill="blue">Start Handover</text>
</g>
<!-- Handover&#45;&gt;Start Handover -->
<g id="edge23" class="edge">
<title>Handover&#45;&gt;Start Handover</title>
<path fill="none" stroke="black" d="M1371.79,-71.88C1387.86,-61.84 1408.22,-49.11 1424.94,-38.66"/>
<polygon fill="black" stroke="black" points="1427.18,-41.39 1433.8,-33.12 1423.47,-35.45 1427.18,-41.39"/>
</g>
<!-- Handover Requested?&#45;&gt;/prev_stage -->
<g id="edge58" class="edge">
<title>Handover Requested?&#45;&gt;/prev_stage</title>
<path fill="none" stroke="blue" d="M1369.29,-34.04C1382.67,-41.72 1399.8,-50.08 1416.4,-54 1476.41,-68.17 1912.38,-71.87 1971.4,-54 1985.08,-49.86 1998.46,-40.98 2008.48,-33.08"/>
<polygon fill="blue" stroke="blue" points="2010.9,-35.62 2016.34,-26.53 2006.42,-30.24 2010.9,-35.62"/>
</g>
<!-- Start Handover&#45;&gt;/status -->
<g id="edge31" class="edge">
<title>Start Handover&#45;&gt;/status</title>
<path fill="none" stroke="blue" d="M1476.12,-33.82C1487.01,-41.54 1501.19,-50.01 1515.4,-54 1578.29,-71.67 1747.87,-75.96 1809.4,-54 1820.69,-49.97 1831.18,-41.65 1839.07,-34.03"/>
<polygon fill="blue" stroke="blue" points="1841.61,-36.44 1846.05,-26.82 1836.58,-31.58 1841.61,-36.44"/>
</g>
<!-- Start Handover&#45;&gt;/stage -->
<g id="edge51" class="edge">
<title>Start Handover&#45;&gt;/stage</title>
<path fill="none" stroke="blue" d="M1476.12,-33.82C1487.01,-41.54 1501.19,-50.01 1515.4,-54 1573.8,-70.41 2004.5,-75.05 2061.4,-54 2072.11,-50.04 2081.94,-41.98 2089.39,-34.49"/>
<polygon fill="blue" stroke="blue" points="2092.26,-36.54 2096.47,-26.81 2087.12,-31.79 2092.26,-36.54"/>
</g>
<!-- Handover Executed? -->
<g id="node26" class="node">
<title>Handover Executed?</title>
<ellipse fill="gray" stroke="blue" cx="1566.4" cy="-18" rx="51.2" ry="18"/>
<text text-anchor="middle" x="1566.4" y="-16.4" font-family="Times,serif" font-size="7.00" fill="blue">Handover Executed?</text>
</g>
<!-- Finish Task&#45;&gt;Handover Executed? -->
<g id="edge25" class="edge">
<title>Finish Task&#45;&gt;Handover Executed?</title>
<path fill="none" stroke="black" d="M1566.4,-71.7C1566.4,-63.98 1566.4,-54.71 1566.4,-46.11"/>
<polygon fill="black" stroke="black" points="1569.9,-46.1 1566.4,-36.1 1562.9,-46.1 1569.9,-46.1"/>
</g>
<!-- Finish Pack Bottle -->
<g id="node27" class="node">
<title>Finish Pack Bottle</title>
<ellipse fill="gray" stroke="blue" cx="1682.4" cy="-18" rx="46.15" ry="18"/>
<text text-anchor="middle" x="1682.4" y="-16.4" font-family="Times,serif" font-size="7.00" fill="blue">Finish Pack Bottle</text>
</g>
<!-- Finish Task&#45;&gt;Finish Pack Bottle -->
<g id="edge26" class="edge">
<title>Finish Task&#45;&gt;Finish Pack Bottle</title>
<path fill="none" stroke="black" d="M1594.77,-71.88C1611.34,-61.88 1632.31,-49.23 1649.58,-38.8"/>
<polygon fill="black" stroke="black" points="1651.48,-41.75 1658.23,-33.58 1647.86,-35.75 1651.48,-41.75"/>
</g>
<!-- Handover Executed?&#45;&gt;/prev_stage -->
<g id="edge60" class="edge">
<title>Handover Executed?&#45;&gt;/prev_stage</title>
<path fill="none" stroke="blue" d="M1590.54,-34.04C1603.53,-41.72 1620.19,-50.08 1636.4,-54 1708.75,-71.52 1900.15,-75.57 1971.4,-54 1985.08,-49.86 1998.46,-40.98 2008.48,-33.08"/>
<polygon fill="blue" stroke="blue" points="2010.9,-35.62 2016.34,-26.53 2006.42,-30.24 2010.9,-35.62"/>
</g>
<!-- Finish Pack Bottle&#45;&gt;/status -->
<g id="edge34" class="edge">
<title>Finish Pack Bottle&#45;&gt;/status</title>
<path fill="none" stroke="blue" d="M1704.66,-34.03C1716.68,-41.7 1732.16,-50.06 1747.4,-54 1774.08,-60.89 1783.44,-63.26 1809.4,-54 1820.69,-49.97 1831.18,-41.65 1839.07,-34.03"/>
<polygon fill="blue" stroke="blue" points="1841.61,-36.44 1846.05,-26.82 1836.58,-31.58 1841.61,-36.44"/>
</g>
<!-- Finish Pack Bottle&#45;&gt;/stage -->
<g id="edge54" class="edge">
<title>Finish Pack Bottle&#45;&gt;/stage</title>
<path fill="none" stroke="blue" d="M1704.66,-34.03C1716.68,-41.7 1732.16,-50.06 1747.4,-54 1814.95,-71.46 1995.95,-78.21 2061.4,-54 2072.11,-50.04 2081.94,-41.98 2089.39,-34.49"/>
<polygon fill="blue" stroke="blue" points="2092.26,-36.54 2096.47,-26.81 2087.12,-31.79 2092.26,-36.54"/>
</g>
<!-- Idle Status&#45;&gt;/status -->
<g id="edge37" class="edge">
<title>Idle Status&#45;&gt;/status</title>
<path fill="none" stroke="blue" d="M1809.74,-18C1812.38,-18 1815.02,-18 1817.65,-18"/>
<polygon fill="blue" stroke="blue" points="1817.82,-21.5 1827.82,-18 1817.82,-14.5 1817.82,-21.5"/>
</g>
<!-- /status&#45;&gt;Report Status -->
<g id="edge28" class="edge">
<title>/status&#45;&gt;Report Status</title>
<path fill="none" stroke="green" d="M1846.05,-26.82C1838.08,-35.64 1824.46,-48.62 1809.4,-54 1764.48,-70.03 138.1,-67.63 92.4,-54 82.49,-51.05 72.72,-45.68 64.21,-39.97"/>
<polygon fill="green" stroke="green" points="66.03,-36.97 55.86,-33.99 61.95,-42.66 66.03,-36.97"/>
</g>
<!-- /pick_pose&#45;&gt;Run Pick -->
<g id="edge39" class="edge">
<title>/pick_pose&#45;&gt;Run Pick</title>
<path fill="none" stroke="green" d="M1925.14,-26.53C1914.86,-35.38 1897.33,-48.65 1879.4,-54 1819.45,-71.87 812.43,-74.71 753.4,-54 745.17,-51.11 737.32,-46.02 730.56,-40.55"/>
<polygon fill="green" stroke="green" points="732.43,-37.54 722.61,-33.57 727.81,-42.8 732.43,-37.54"/>
</g>
<!-- /stage&#45;&gt;Pick Requested? -->
<g id="edge48" class="edge">
<title>/stage&#45;&gt;Pick Requested?</title>
<path fill="none" stroke="green" d="M2096.47,-26.81C2088.93,-35.62 2075.99,-48.6 2061.4,-54 2019.53,-69.49 497.46,-65.76 454.4,-54 443.23,-50.95 432.02,-45.27 422.31,-39.31"/>
<polygon fill="green" stroke="green" points="424.16,-36.34 413.87,-33.83 420.35,-42.21 424.16,-36.34"/>
</g>
<!-- /stage&#45;&gt;Bottle Detected? -->
<g id="edge46" class="edge">
<title>/stage&#45;&gt;Bottle Detected?</title>
<path fill="none" stroke="green" d="M2096.47,-26.81C2088.93,-35.62 2075.99,-48.6 2061.4,-54 1989.49,-80.6 755.43,-73.93 681.4,-54 670.08,-50.95 658.7,-45.28 648.83,-39.32"/>
<polygon fill="green" stroke="green" points="650.55,-36.26 640.24,-33.83 646.79,-42.16 650.55,-36.26"/>
</g>
<!-- /stage&#45;&gt;Pick Ready? -->
<g id="edge45" class="edge">
<title>/stage&#45;&gt;Pick Ready?</title>
<path fill="none" stroke="green" d="M2096.47,-26.81C2088.93,-35.62 2075.99,-48.6 2061.4,-54 1997.67,-77.57 903.25,-74.26 838.4,-54 828.75,-50.99 819.32,-45.49 811.2,-39.68"/>
<polygon fill="green" stroke="green" points="813.32,-36.9 803.25,-33.61 809.07,-42.46 813.32,-36.9"/>
</g>
<!-- /stage&#45;&gt;Fill Completed? -->
<g id="edge44" class="edge">
<title>/stage&#45;&gt;Fill Completed?</title>
<path fill="none" stroke="green" d="M2096.47,-26.81C2088.93,-35.62 2075.99,-48.6 2061.4,-54 2007.31,-74.01 1078.91,-69.6 1023.4,-54 1012.63,-50.97 1001.88,-45.38 992.56,-39.49"/>
<polygon fill="green" stroke="green" points="994.37,-36.49 984.12,-33.82 990.47,-42.3 994.37,-36.49"/>
</g>
<!-- /stage&#45;&gt;Cap Requested? -->
<g id="edge42" class="edge">
<title>/stage&#45;&gt;Cap Requested?</title>
<path fill="none" stroke="green" d="M2096.47,-26.81C2088.93,-35.62 2075.99,-48.6 2061.4,-54 2017.32,-70.31 1260.74,-66.38 1215.4,-54 1204.23,-50.95 1193.02,-45.27 1183.31,-39.31"/>
<polygon fill="green" stroke="green" points="1185.16,-36.34 1174.87,-33.83 1181.35,-42.21 1185.16,-36.34"/>
</g>
<!-- /stage&#45;&gt;Handover Requested? -->
<g id="edge41" class="edge">
<title>/stage&#45;&gt;Handover Requested?</title>
<path fill="none" stroke="green" d="M2096.47,-26.81C2088.93,-35.62 2075.99,-48.6 2061.4,-54 1994.18,-78.86 1486.15,-70.47 1416.4,-54 1403.3,-50.91 1389.88,-45.05 1378.22,-38.95"/>
<polygon fill="green" stroke="green" points="1379.74,-35.79 1369.29,-34.04 1376.37,-41.92 1379.74,-35.79"/>
</g>
<!-- /stage&#45;&gt;Handover Executed? -->
<g id="edge43" class="edge">
<title>/stage&#45;&gt;Handover Executed?</title>
<path fill="none" stroke="green" d="M2096.47,-26.81C2088.93,-35.62 2075.99,-48.6 2061.4,-54 2017.11,-70.38 1682.29,-65.11 1636.4,-54 1623.74,-50.94 1610.8,-45.16 1599.55,-39.12"/>
<polygon fill="green" stroke="green" points="1600.97,-35.9 1590.54,-34.04 1597.53,-42 1600.97,-35.9"/>
</g>
<!-- /stage&#45;&gt;Idle Status -->
<g id="edge47" class="edge">
<title>/stage&#45;&gt;Idle Status</title>
<path fill="none" stroke="green" d="M2096.47,-26.81C2088.93,-35.62 2075.99,-48.6 2061.4,-54 2012.83,-71.96 1877.67,-69.89 1828.4,-54 1819.13,-51.01 1810.12,-45.59 1802.37,-39.85"/>
<polygon fill="green" stroke="green" points="1804.51,-37.08 1794.5,-33.6 1800.15,-42.56 1804.51,-37.08"/>
</g>
</g>
</svg>
