<?xml version="1.0" encoding="UTF-8" standalone="no"?>
<!DOCTYPE svg PUBLIC "-//W3C//DTD SVG 1.1//EN"
 "http://www.w3.org/Graphics/SVG/1.1/DTD/svg11.dtd">
<!-- Generated by graphviz version 2.43.0 (0)
 -->
<!-- Title: pastafarianism Pages: 1 -->
<svg width="2597pt" height="280pt"
 viewBox="0.00 0.00 2597.40 280.00" xmlns="http://www.w3.org/2000/svg" xmlns:xlink="http://www.w3.org/1999/xlink">
<g id="graph0" class="graph" transform="scale(1 1) rotate(0) translate(4 276)">
<title>pastafarianism</title>
<polygon fill="white" stroke="transparent" points="-4,4 -4,-276 2593.4,-276 2593.4,4 -4,4"/>
<!-- Task Pack Bottle -->
<g id="node1" class="node">
<title>Task Pack Bottle</title>
<polygon fill="gold" stroke="black" points="886.66,-272 735.12,-272 696.13,-216 847.68,-216 886.66,-272"/>
<text text-anchor="middle" x="791.4" y="-246.8" font-family="Times,serif" font-size="9.00">Task Pack Bottle</text>
<text text-anchor="middle" x="791.4" y="-236.8" font-family="Times,serif" font-size="9.00">SuccessOnAll</text>
</g>
<!-- System Monitor -->
<g id="node2" class="node">
<title>System Monitor</title>
<polygon fill="orange" stroke="black" points="326.9,-108 225.9,-108 225.9,-72 326.9,-72 326.9,-108"/>
<text text-anchor="middle" x="276.4" y="-87.8" font-family="Times,serif" font-size="9.00">Ⓜ System Monitor</text>
</g>
<!-- Task Pack Bottle&#45;&gt;System Monitor -->
<g id="edge1" class="edge">
<title>Task Pack Bottle&#45;&gt;System Monitor</title>
<path fill="none" stroke="black" d="M699.62,-215.91C594.82,-184.98 426.33,-135.25 336.83,-108.84"/>
<polygon fill="black" stroke="black" points="337.68,-105.44 327.1,-105.97 335.7,-112.15 337.68,-105.44"/>
</g>
<!-- Workflow -->
<g id="node7" class="node">
<title>Workflow</title>
<polygon fill="cyan" stroke="black" points="1311.64,-154.54 1311.64,-169.46 1285.72,-180 1249.07,-180 1223.16,-169.46 1223.16,-154.54 1249.07,-144 1285.72,-144 1311.64,-154.54"/>
<text text-anchor="middle" x="1267.4" y="-159.8" font-family="Times,serif" font-size="9.00">Ⓜ Workflow</text>
</g>
<!-- Task Pack Bottle&#45;&gt;Workflow -->
<g id="edge6" class="edge">
<title>Task Pack Bottle&#45;&gt;Workflow</title>
<path fill="none" stroke="black" d="M858.84,-231.67C954.56,-215.58 1127.82,-186.46 1214.72,-171.85"/>
<polygon fill="black" stroke="black" points="1215.34,-175.3 1224.62,-170.19 1214.18,-168.39 1215.34,-175.3"/>
</g>
<!-- Report Status -->
<g id="node3" class="node">
<title>Report Status</title>
<ellipse fill="gray" stroke="blue" cx="37.4" cy="-18" rx="37.29" ry="18"/>
<text text-anchor="middle" x="37.4" y="-16.4" font-family="Times,serif" font-size="7.00" fill="blue">Report Status</text>
</g>
<!-- System Monitor&#45;&gt;Report Status -->
<g id="edge2" class="edge">
<title>System Monitor&#45;&gt;Report Status</title>
<path fill="none" stroke="black" d="M225.66,-76.34C186.53,-66.27 131.2,-51.36 83.4,-36 80.83,-35.17 78.19,-34.29 75.53,-33.38"/>
<polygon fill="black" stroke="black" points="76.57,-30.03 65.97,-29.99 74.23,-36.63 76.57,-30.03"/>
</g>
<!-- Bottle Detector Status -->
<g id="node4" class="node">
<title>Bottle Detector Status</title>
<ellipse fill="gray" stroke="blue" cx="147.4" cy="-18" rx="54.9" ry="18"/>
<text text-anchor="middle" x="147.4" y="-16.4" font-family="Times,serif" font-size="7.00" fill="blue">Bottle Detector Status</text>
</g>
<!-- System Monitor&#45;&gt;Bottle Detector Status -->
<g id="edge3" class="edge">
<title>System Monitor&#45;&gt;Bottle Detector Status</title>
<path fill="none" stroke="black" d="M244.84,-71.88C226.29,-61.81 202.78,-49.05 183.5,-38.59"/>
<polygon fill="black" stroke="black" points="185.15,-35.51 174.69,-33.81 181.81,-41.66 185.15,-35.51"/>
</g>
<!-- User Requests Monitor -->
<g id="node5" class="node">
<title>User Requests Monitor</title>
<ellipse fill="gray" stroke="blue" cx="276.4" cy="-18" rx="56.25" ry="18"/>
<text text-anchor="middle" x="276.4" y="-16.4" font-family="Times,serif" font-size="7.00" fill="blue">User Requests Monitor</text>
</g>
<!-- System Monitor&#45;&gt;User Requests Monitor -->
<g id="edge4" class="edge">
<title>System Monitor&#45;&gt;User Requests Monitor</title>
<path fill="none" stroke="black" d="M276.4,-71.7C276.4,-63.98 276.4,-54.71 276.4,-46.11"/>
<polygon fill="black" stroke="black" points="279.9,-46.1 276.4,-36.1 272.9,-46.1 279.9,-46.1"/>
</g>
<!-- Filling Station Status -->
<g id="node6" class="node">
<title>Filling Station Status</title>
<ellipse fill="gray" stroke="blue" cx="402.4" cy="-18" rx="51.82" ry="18"/>
<text text-anchor="middle" x="402.4" y="-16.4" font-family="Times,serif" font-size="7.00" fill="blue">Filling Station Status</text>
</g>
<!-- System Monitor&#45;&gt;Filling Station Status -->
<g id="edge5" class="edge">
<title>System Monitor&#45;&gt;Filling Station Status</title>
<path fill="none" stroke="black" d="M307.22,-71.88C325.38,-61.79 348.41,-48.99 367.27,-38.52"/>
<polygon fill="black" stroke="black" points="369.11,-41.5 376.15,-33.58 365.71,-35.38 369.11,-41.5"/>
</g>
<!-- /status -->
<g id="node36" class="node">
<title>/status</title>
<polygon fill="white" stroke="blue" points="2312.9,-26.5 2261.9,-26.5 2261.9,-9.5 2312.9,-9.5 2312.9,-26.5"/>
<text text-anchor="middle" x="2287.4" y="-16.1" font-family="Times,serif" font-size="8.00" fill="blue">/status: &#45;</text>
</g>
<!-- Bottle Detector Status&#45;&gt;/status -->
<g id="edge47" class="edge">
<title>Bottle Detector Status&#45;&gt;/status</title>
<path fill="none" stroke="blue" d="M172.66,-34.05C186.24,-41.73 203.61,-50.09 220.4,-54 275.12,-66.76 2190.47,-72.89 2243.4,-54 2254.69,-49.97 2265.18,-41.65 2273.07,-34.03"/>
<polygon fill="blue" stroke="blue" points="2275.61,-36.44 2280.05,-26.82 2270.58,-31.58 2275.61,-36.44"/>
</g>
<!-- /pick_and_place -->
<g id="node38" class="node">
<title>/pick_and_place</title>
<polygon fill="white" stroke="blue" points="2425.9,-26.5 2330.9,-26.5 2330.9,-9.5 2425.9,-9.5 2425.9,-26.5"/>
<text text-anchor="middle" x="2378.4" y="-16.1" font-family="Times,serif" font-size="8.00" fill="blue">/pick_and_place: {}</text>
</g>
<!-- Bottle Detector Status&#45;&gt;/pick_and_place -->
<g id="edge51" class="edge">
<title>Bottle Detector Status&#45;&gt;/pick_and_place</title>
<path fill="none" stroke="blue" d="M172.66,-34.05C186.24,-41.73 203.61,-50.09 220.4,-54 277.02,-67.2 2257.11,-68.55 2313.4,-54 2329.72,-49.78 2346.32,-40.49 2358.65,-32.4"/>
<polygon fill="blue" stroke="blue" points="2360.91,-35.1 2367.18,-26.56 2356.95,-29.32 2360.91,-35.1"/>
</g>
<!-- /stage -->
<g id="node39" class="node">
<title>/stage</title>
<polygon fill="white" stroke="blue" points="2492.9,-26.5 2443.9,-26.5 2443.9,-9.5 2492.9,-9.5 2492.9,-26.5"/>
<text text-anchor="middle" x="2468.4" y="-16.1" font-family="Times,serif" font-size="8.00" fill="blue">/stage: &#45;</text>
</g>
<!-- Bottle Detector Status&#45;&gt;/stage -->
<g id="edge72" class="edge">
<title>Bottle Detector Status&#45;&gt;/stage</title>
<path fill="none" stroke="blue" d="M172.66,-34.05C186.24,-41.73 203.61,-50.09 220.4,-54 280.07,-67.91 2368.92,-75.26 2426.4,-54 2437.11,-50.04 2446.94,-41.98 2454.39,-34.49"/>
<polygon fill="blue" stroke="blue" points="2457.26,-36.54 2461.47,-26.81 2452.12,-31.79 2457.26,-36.54"/>
</g>
<!-- User Requests Monitor&#45;&gt;/status -->
<g id="edge43" class="edge">
<title>User Requests Monitor&#45;&gt;/status</title>
<path fill="none" stroke="blue" d="M302.03,-34.05C315.81,-41.73 333.41,-50.09 350.4,-54 401.64,-65.8 2193.87,-71.68 2243.4,-54 2254.69,-49.97 2265.18,-41.65 2273.07,-34.03"/>
<polygon fill="blue" stroke="blue" points="2275.61,-36.44 2280.05,-26.82 2270.58,-31.58 2275.61,-36.44"/>
</g>
<!-- User Requests Monitor&#45;&gt;/stage -->
<g id="edge68" class="edge">
<title>User Requests Monitor&#45;&gt;/stage</title>
<path fill="none" stroke="blue" d="M302.03,-34.05C315.81,-41.73 333.41,-50.09 350.4,-54 406.59,-66.94 2372.31,-74.01 2426.4,-54 2437.11,-50.04 2446.94,-41.98 2454.39,-34.49"/>
<polygon fill="blue" stroke="blue" points="2457.26,-36.54 2461.47,-26.81 2452.12,-31.79 2457.26,-36.54"/>
</g>
<!-- /fill_progress -->
<g id="node37" class="node">
<title>/fill_progress</title>
<polygon fill="white" stroke="blue" points="2589.4,-26.5 2511.4,-26.5 2511.4,-9.5 2589.4,-9.5 2589.4,-26.5"/>
<text text-anchor="middle" x="2550.4" y="-16.1" font-family="Times,serif" font-size="8.00" fill="blue">/fill_progress: 0</text>
</g>
<!-- Filling Station Status&#45;&gt;/fill_progress -->
<g id="edge49" class="edge">
<title>Filling Station Status&#45;&gt;/fill_progress</title>
<path fill="none" stroke="blue" d="M426.54,-34.04C439.53,-41.72 456.19,-50.08 472.4,-54 526.96,-67.21 2439.47,-69.6 2493.4,-54 2507.8,-49.83 2522.07,-40.82 2532.72,-32.85"/>
<polygon fill="blue" stroke="blue" points="2535.05,-35.47 2540.75,-26.54 2530.72,-29.97 2535.05,-35.47"/>
</g>
<!-- Detect -->
<g id="node8" class="node">
<title>Detect</title>
<polygon fill="orange" stroke="black" points="657.9,-108 598.9,-108 598.9,-72 657.9,-72 657.9,-108"/>
<text text-anchor="middle" x="628.4" y="-87.8" font-family="Times,serif" font-size="9.00">Ⓜ Detect</text>
</g>
<!-- Workflow&#45;&gt;Detect -->
<g id="edge7" class="edge">
<title>Workflow&#45;&gt;Detect</title>
<path fill="none" stroke="black" d="M1222.97,-156.13C1104.27,-143.13 781.07,-107.72 668.05,-95.34"/>
<polygon fill="black" stroke="black" points="668.42,-91.86 658.1,-94.25 667.66,-98.82 668.42,-91.86"/>
</g>
<!-- Pick -->
<g id="node11" class="node">
<title>Pick</title>
<polygon fill="orange" stroke="black" points="857.4,-108 803.4,-108 803.4,-72 857.4,-72 857.4,-108"/>
<text text-anchor="middle" x="830.4" y="-87.8" font-family="Times,serif" font-size="9.00">Ⓜ Pick</text>
</g>
<!-- Workflow&#45;&gt;Pick -->
<g id="edge10" class="edge">
<title>Workflow&#45;&gt;Pick</title>
<path fill="none" stroke="black" d="M1223.9,-154.03C1138.05,-140.28 948.19,-109.87 867.67,-96.97"/>
<polygon fill="black" stroke="black" points="867.93,-93.47 857.5,-95.34 866.82,-100.38 867.93,-93.47"/>
</g>
<!-- Go to Fill -->
<g id="node14" class="node">
<title>Go to Fill</title>
<polygon fill="orange" stroke="black" points="1028.9,-108 957.9,-108 957.9,-72 1028.9,-72 1028.9,-108"/>
<text text-anchor="middle" x="993.4" y="-87.8" font-family="Times,serif" font-size="9.00">Ⓜ Go to Fill</text>
</g>
<!-- Workflow&#45;&gt;Go to Fill -->
<g id="edge13" class="edge">
<title>Workflow&#45;&gt;Go to Fill</title>
<path fill="none" stroke="black" d="M1230.44,-151.56C1180.77,-138.87 1092.5,-116.32 1038.82,-102.61"/>
<polygon fill="black" stroke="black" points="1039.45,-99.15 1028.9,-100.07 1037.72,-105.94 1039.45,-99.15"/>
</g>
<!-- Initiate Fill -->
<g id="node17" class="node">
<title>Initiate Fill</title>
<polygon fill="orange" stroke="black" points="1183.4,-108 1103.4,-108 1103.4,-72 1183.4,-72 1183.4,-108"/>
<text text-anchor="middle" x="1143.4" y="-87.8" font-family="Times,serif" font-size="9.00">Ⓜ Initiate Fill</text>
</g>
<!-- Workflow&#45;&gt;Initiate Fill -->
<g id="edge16" class="edge">
<title>Workflow&#45;&gt;Initiate Fill</title>
<path fill="none" stroke="black" d="M1242,-146.67C1224.88,-137 1201.94,-124.05 1182.5,-113.08"/>
<polygon fill="black" stroke="black" points="1184,-109.9 1173.57,-108.03 1180.55,-116 1184,-109.9"/>
</g>
<!-- Fill -->
<g id="node20" class="node">
<title>Fill</title>
<polygon fill="orange" stroke="black" points="1294.4,-108 1240.4,-108 1240.4,-72 1294.4,-72 1294.4,-108"/>
<text text-anchor="middle" x="1267.4" y="-87.8" font-family="Times,serif" font-size="9.00">Ⓜ Fill</text>
</g>
<!-- Workflow&#45;&gt;Fill -->
<g id="edge19" class="edge">
<title>Workflow&#45;&gt;Fill</title>
<path fill="none" stroke="black" d="M1267.4,-143.7C1267.4,-135.98 1267.4,-126.71 1267.4,-118.11"/>
<polygon fill="black" stroke="black" points="1270.9,-118.1 1267.4,-108.1 1263.9,-118.1 1270.9,-118.1"/>
</g>
<!-- Go to Cap -->
<g id="node23" class="node">
<title>Go to Cap</title>
<polygon fill="orange" stroke="black" points="1435.4,-108 1361.4,-108 1361.4,-72 1435.4,-72 1435.4,-108"/>
<text text-anchor="middle" x="1398.4" y="-87.8" font-family="Times,serif" font-size="9.00">Ⓜ Go to Cap</text>
</g>
<!-- Workflow&#45;&gt;Go to Cap -->
<g id="edge22" class="edge">
<title>Workflow&#45;&gt;Go to Cap</title>
<path fill="none" stroke="black" d="M1293.59,-147C1311.8,-137.27 1336.45,-124.1 1357.26,-112.98"/>
<polygon fill="black" stroke="black" points="1359.05,-115.99 1366.22,-108.19 1355.75,-109.82 1359.05,-115.99"/>
</g>
<!-- Cap -->
<g id="node26" class="node">
<title>Cap</title>
<polygon fill="orange" stroke="black" points="1615.4,-108 1561.4,-108 1561.4,-72 1615.4,-72 1615.4,-108"/>
<text text-anchor="middle" x="1588.4" y="-87.8" font-family="Times,serif" font-size="9.00">Ⓜ Cap</text>
</g>
<!-- Workflow&#45;&gt;Cap -->
<g id="edge25" class="edge">
<title>Workflow&#45;&gt;Cap</title>
<path fill="none" stroke="black" d="M1306.76,-152.42C1369.27,-138.78 1490.4,-112.37 1551.4,-99.07"/>
<polygon fill="black" stroke="black" points="1552.33,-102.45 1561.36,-96.9 1550.84,-95.61 1552.33,-102.45"/>
</g>
<!-- Handover -->
<g id="node29" class="node">
<title>Handover</title>
<polygon fill="orange" stroke="black" points="1815.4,-108 1741.4,-108 1741.4,-72 1815.4,-72 1815.4,-108"/>
<text text-anchor="middle" x="1778.4" y="-87.8" font-family="Times,serif" font-size="9.00">Ⓜ Handover</text>
</g>
<!-- Workflow&#45;&gt;Handover -->
<g id="edge28" class="edge">
<title>Workflow&#45;&gt;Handover</title>
<path fill="none" stroke="black" d="M1311.85,-154.91C1407.65,-141.79 1632.84,-110.94 1731.12,-97.48"/>
<polygon fill="black" stroke="black" points="1731.64,-100.94 1741.07,-96.11 1730.69,-94 1731.64,-100.94"/>
</g>
<!-- Finish Task -->
<g id="node32" class="node">
<title>Finish Task</title>
<polygon fill="orange" stroke="black" points="2040.4,-108 1960.4,-108 1960.4,-72 2040.4,-72 2040.4,-108"/>
<text text-anchor="middle" x="2000.4" y="-87.8" font-family="Times,serif" font-size="9.00">Ⓜ Finish Task</text>
</g>
<!-- Workflow&#45;&gt;Finish Task -->
<g id="edge31" class="edge">
<title>Workflow&#45;&gt;Finish Task</title>
<path fill="none" stroke="black" d="M1311.8,-156.8C1406.17,-147.86 1633.67,-126.29 1824.4,-108 1866.81,-103.93 1914.97,-99.28 1950.18,-95.87"/>
<polygon fill="black" stroke="black" points="1950.59,-99.35 1960.2,-94.9 1949.91,-92.38 1950.59,-99.35"/>
</g>
<!-- Idle Status -->
<g id="node35" class="node">
<title>Idle Status</title>
<ellipse fill="gray" stroke="blue" cx="2212.4" cy="-18" rx="31.02" ry="18"/>
<text text-anchor="middle" x="2212.4" y="-16.4" font-family="Times,serif" font-size="7.00" fill="blue">Idle Status</text>
</g>
<!-- Workflow&#45;&gt;Idle Status -->
<g id="edge34" class="edge">
<title>Workflow&#45;&gt;Idle Status</title>
<path fill="none" stroke="black" d="M1311.84,-160.49C1456.02,-158.43 1909.45,-148.81 2049.4,-108 2100.67,-93.05 2153.84,-60.18 2184.98,-38.85"/>
<polygon fill="black" stroke="black" points="2187.32,-41.48 2193.53,-32.89 2183.33,-35.73 2187.32,-41.48"/>
</g>
<!-- Pick Requested? -->
<g id="node9" class="node">
<title>Pick Requested?</title>
<ellipse fill="gray" stroke="blue" cx="515.4" cy="-18" rx="42.96" ry="18"/>
<text text-anchor="middle" x="515.4" y="-16.4" font-family="Times,serif" font-size="7.00" fill="blue">Pick Requested?</text>
</g>
<!-- Detect&#45;&gt;Pick Requested? -->
<g id="edge8" class="edge">
<title>Detect&#45;&gt;Pick Requested?</title>
<path fill="none" stroke="black" d="M600.75,-71.88C584.66,-61.9 564.29,-49.29 547.48,-38.88"/>
<polygon fill="black" stroke="black" points="548.91,-35.64 538.56,-33.35 545.22,-41.59 548.91,-35.64"/>
</g>
<!-- Run Bottle Detection -->
<g id="node10" class="node">
<title>Run Bottle Detection</title>
<ellipse fill="gray" stroke="blue" cx="628.4" cy="-18" rx="51.82" ry="18"/>
<text text-anchor="middle" x="628.4" y="-16.4" font-family="Times,serif" font-size="7.00" fill="blue">Run Bottle Detection</text>
</g>
<!-- Detect&#45;&gt;Run Bottle Detection -->
<g id="edge9" class="edge">
<title>Detect&#45;&gt;Run Bottle Detection</title>
<path fill="none" stroke="black" d="M628.4,-71.7C628.4,-63.98 628.4,-54.71 628.4,-46.11"/>
<polygon fill="black" stroke="black" points="631.9,-46.1 628.4,-36.1 624.9,-46.1 631.9,-46.1"/>
</g>
<!-- Run Bottle Detection&#45;&gt;/status -->
<g id="edge45" class="edge">
<title>Run Bottle Detection&#45;&gt;/status</title>
<path fill="none" stroke="blue" d="M652.16,-34.04C664.97,-41.71 681.39,-50.07 697.4,-54 739.11,-64.23 2202.95,-68.44 2243.4,-54 2254.69,-49.97 2265.18,-41.65 2273.07,-34.03"/>
<polygon fill="blue" stroke="blue" points="2275.61,-36.44 2280.05,-26.82 2270.58,-31.58 2275.61,-36.44"/>
</g>
<!-- Run Bottle Detection&#45;&gt;/stage -->
<g id="edge70" class="edge">
<title>Run Bottle Detection&#45;&gt;/stage</title>
<path fill="none" stroke="blue" d="M652.16,-34.04C664.97,-41.71 681.39,-50.07 697.4,-54 744.04,-65.44 2381.35,-70.66 2426.4,-54 2437.11,-50.04 2446.94,-41.98 2454.39,-34.49"/>
<polygon fill="blue" stroke="blue" points="2457.26,-36.54 2461.47,-26.81 2452.12,-31.79 2457.26,-36.54"/>
</g>
<!-- Bottle Detected? -->
<g id="node12" class="node">
<title>Bottle Detected?</title>
<ellipse fill="gray" stroke="blue" cx="741.4" cy="-18" rx="43.57" ry="18"/>
<text text-anchor="middle" x="741.4" y="-16.4" font-family="Times,serif" font-size="7.00" fill="blue">Bottle Detected?</text>
</g>
<!-- Pick&#45;&gt;Bottle Detected? -->
<g id="edge11" class="edge">
<title>Pick&#45;&gt;Bottle Detected?</title>
<path fill="none" stroke="black" d="M808.4,-71.7C796.4,-62.26 781.45,-50.51 768.72,-40.49"/>
<polygon fill="black" stroke="black" points="770.75,-37.63 760.73,-34.2 766.42,-43.14 770.75,-37.63"/>
</g>
<!-- Run Pick -->
<g id="node13" class="node">
<title>Run Pick</title>
<ellipse fill="gray" stroke="blue" cx="830.4" cy="-18" rx="27" ry="18"/>
<text text-anchor="middle" x="830.4" y="-16.4" font-family="Times,serif" font-size="7.00" fill="blue">Run Pick</text>
</g>
<!-- Pick&#45;&gt;Run Pick -->
<g id="edge12" class="edge">
<title>Pick&#45;&gt;Run Pick</title>
<path fill="none" stroke="black" d="M830.4,-71.7C830.4,-63.98 830.4,-54.71 830.4,-46.11"/>
<polygon fill="black" stroke="black" points="833.9,-46.1 830.4,-36.1 826.9,-46.1 833.9,-46.1"/>
</g>
<!-- Run Pick&#45;&gt;/status -->
<g id="edge38" class="edge">
<title>Run Pick&#45;&gt;/status</title>
<path fill="none" stroke="blue" d="M844.61,-33.57C852.77,-41.32 863.69,-49.89 875.4,-54 911.25,-66.58 2207.61,-66.78 2243.4,-54 2254.69,-49.97 2265.18,-41.65 2273.07,-34.03"/>
<polygon fill="blue" stroke="blue" points="2275.61,-36.44 2280.05,-26.82 2270.58,-31.58 2275.61,-36.44"/>
</g>
<!-- Run Pick&#45;&gt;/stage -->
<g id="edge64" class="edge">
<title>Run Pick&#45;&gt;/stage</title>
<path fill="none" stroke="blue" d="M844.61,-33.57C852.77,-41.32 863.69,-49.89 875.4,-54 916.05,-68.26 2385.99,-68.95 2426.4,-54 2437.11,-50.04 2446.94,-41.98 2454.39,-34.49"/>
<polygon fill="blue" stroke="blue" points="2457.26,-36.54 2461.47,-26.81 2452.12,-31.79 2457.26,-36.54"/>
</g>
<!-- Pick Ready? -->
<g id="node15" class="node">
<title>Pick Ready?</title>
<ellipse fill="gray" stroke="blue" cx="908.4" cy="-18" rx="33.48" ry="18"/>
<text text-anchor="middle" x="908.4" y="-16.4" font-family="Times,serif" font-size="7.00" fill="blue">Pick Ready?</text>
</g>
<!-- Go to Fill&#45;&gt;Pick Ready? -->
<g id="edge14" class="edge">
<title>Go to Fill&#45;&gt;Pick Ready?</title>
<path fill="none" stroke="black" d="M972.39,-71.7C960.8,-62.16 946.33,-50.24 934.08,-40.15"/>
<polygon fill="black" stroke="black" points="935.96,-37.16 926.01,-33.51 931.51,-42.57 935.96,-37.16"/>
</g>
<!-- Move to Fill -->
<g id="node16" class="node">
<title>Move to Fill</title>
<ellipse fill="gray" stroke="blue" cx="993.4" cy="-18" rx="33.48" ry="18"/>
<text text-anchor="middle" x="993.4" y="-16.4" font-family="Times,serif" font-size="7.00" fill="blue">Move to Fill</text>
</g>
<!-- Go to Fill&#45;&gt;Move to Fill -->
<g id="edge15" class="edge">
<title>Go to Fill&#45;&gt;Move to Fill</title>
<path fill="none" stroke="black" d="M993.4,-71.7C993.4,-63.98 993.4,-54.71 993.4,-46.11"/>
<polygon fill="black" stroke="black" points="996.9,-46.1 993.4,-36.1 989.9,-46.1 996.9,-46.1"/>
</g>
<!-- Move to Fill&#45;&gt;/status -->
<g id="edge41" class="edge">
<title>Move to Fill&#45;&gt;/status</title>
<path fill="none" stroke="blue" d="M1010.33,-33.98C1019.62,-41.64 1031.79,-50 1044.4,-54 1107.89,-74.15 2180.66,-76.39 2243.4,-54 2254.69,-49.97 2265.18,-41.65 2273.07,-34.03"/>
<polygon fill="blue" stroke="blue" points="2275.61,-36.44 2280.05,-26.82 2270.58,-31.58 2275.61,-36.44"/>
</g>
<!-- Move to Fill&#45;&gt;/stage -->
<g id="edge66" class="edge">
<title>Move to Fill&#45;&gt;/stage</title>
<path fill="none" stroke="blue" d="M1010.33,-33.98C1019.62,-41.64 1031.79,-50 1044.4,-54 1080.99,-65.61 2390.39,-67.32 2426.4,-54 2437.11,-50.04 2446.94,-41.98 2454.39,-34.49"/>
<polygon fill="blue" stroke="blue" points="2457.26,-36.54 2461.47,-26.81 2452.12,-31.79 2457.26,-36.54"/>
</g>
<!-- At Fill? -->
<g id="node18" class="node">
<title>At Fill?</title>
<ellipse fill="gray" stroke="blue" cx="1071.4" cy="-18" rx="27" ry="18"/>
<text text-anchor="middle" x="1071.4" y="-16.4" font-family="Times,serif" font-size="7.00" fill="blue">At Fill?</text>
</g>
<!-- Initiate Fill&#45;&gt;At Fill? -->
<g id="edge17" class="edge">
<title>Initiate Fill&#45;&gt;At Fill?</title>
<path fill="none" stroke="black" d="M1125.6,-71.7C1115.91,-62.28 1103.83,-50.53 1093.54,-40.53"/>
<polygon fill="black" stroke="black" points="1095.69,-37.74 1086.08,-33.28 1090.81,-42.76 1095.69,-37.74"/>
</g>
<!-- Start Fill -->
<g id="node19" class="node">
<title>Start Fill</title>
<ellipse fill="gray" stroke="blue" cx="1143.4" cy="-18" rx="27" ry="18"/>
<text text-anchor="middle" x="1143.4" y="-16.4" font-family="Times,serif" font-size="7.00" fill="blue">Start Fill</text>
</g>
<!-- Initiate Fill&#45;&gt;Start Fill -->
<g id="edge18" class="edge">
<title>Initiate Fill&#45;&gt;Start Fill</title>
<path fill="none" stroke="black" d="M1143.4,-71.7C1143.4,-63.98 1143.4,-54.71 1143.4,-46.11"/>
<polygon fill="black" stroke="black" points="1146.9,-46.1 1143.4,-36.1 1139.9,-46.1 1146.9,-46.1"/>
</g>
<!-- Start Fill&#45;&gt;/status -->
<g id="edge44" class="edge">
<title>Start Fill&#45;&gt;/status</title>
<path fill="none" stroke="blue" d="M1157.61,-33.57C1165.77,-41.32 1176.69,-49.89 1188.4,-54 1243.7,-73.4 2188.2,-73.7 2243.4,-54 2254.69,-49.97 2265.18,-41.65 2273.07,-34.03"/>
<polygon fill="blue" stroke="blue" points="2275.61,-36.44 2280.05,-26.82 2270.58,-31.58 2275.61,-36.44"/>
</g>
<!-- Start Fill&#45;&gt;/stage -->
<g id="edge69" class="edge">
<title>Start Fill&#45;&gt;/stage</title>
<path fill="none" stroke="blue" d="M1157.61,-33.57C1165.77,-41.32 1176.69,-49.89 1188.4,-54 1253.3,-76.77 2361.89,-77.86 2426.4,-54 2437.11,-50.04 2446.94,-41.98 2454.39,-34.49"/>
<polygon fill="blue" stroke="blue" points="2457.26,-36.54 2461.47,-26.81 2452.12,-31.79 2457.26,-36.54"/>
</g>
<!-- Fill Started? -->
<g id="node21" class="node">
<title>Fill Started?</title>
<ellipse fill="gray" stroke="blue" cx="1222.4" cy="-18" rx="34.1" ry="18"/>
<text text-anchor="middle" x="1222.4" y="-16.4" font-family="Times,serif" font-size="7.00" fill="blue">Fill Started?</text>
</g>
<!-- Fill&#45;&gt;Fill Started? -->
<g id="edge20" class="edge">
<title>Fill&#45;&gt;Fill Started?</title>
<path fill="none" stroke="black" d="M1256.27,-71.7C1250.83,-63.23 1244.18,-52.89 1238.22,-43.61"/>
<polygon fill="black" stroke="black" points="1241.13,-41.66 1232.78,-35.14 1235.24,-45.45 1241.13,-41.66"/>
</g>
<!-- Wait Filling -->
<g id="node22" class="node">
<title>Wait Filling</title>
<ellipse fill="gray" stroke="blue" cx="1306.4" cy="-18" rx="32.25" ry="18"/>
<text text-anchor="middle" x="1306.4" y="-16.4" font-family="Times,serif" font-size="7.00" fill="blue">Wait Filling</text>
</g>
<!-- Fill&#45;&gt;Wait Filling -->
<g id="edge21" class="edge">
<title>Fill&#45;&gt;Wait Filling</title>
<path fill="none" stroke="black" d="M1277.04,-71.7C1281.59,-63.52 1287.12,-53.6 1292.14,-44.58"/>
<polygon fill="black" stroke="black" points="1295.33,-46.06 1297.14,-35.62 1289.21,-42.65 1295.33,-46.06"/>
</g>
<!-- Wait Filling&#45;&gt;/status -->
<g id="edge36" class="edge">
<title>Wait Filling&#45;&gt;/status</title>
<path fill="none" stroke="blue" d="M1322.87,-33.6C1332.22,-41.36 1344.59,-49.93 1357.4,-54 1404.31,-68.89 2197.04,-70.55 2243.4,-54 2254.69,-49.97 2265.18,-41.65 2273.07,-34.03"/>
<polygon fill="blue" stroke="blue" points="2275.61,-36.44 2280.05,-26.82 2270.58,-31.58 2275.61,-36.44"/>
</g>
<!-- Wait Filling&#45;&gt;/stage -->
<g id="edge62" class="edge">
<title>Wait Filling&#45;&gt;/stage</title>
<path fill="none" stroke="blue" d="M1322.87,-33.6C1332.22,-41.36 1344.59,-49.93 1357.4,-54 1414,-71.97 2370.7,-74.6 2426.4,-54 2437.11,-50.04 2446.94,-41.98 2454.39,-34.49"/>
<polygon fill="blue" stroke="blue" points="2457.26,-36.54 2461.47,-26.81 2452.12,-31.79 2457.26,-36.54"/>
</g>
<!-- Fill Completed? -->
<g id="node24" class="node">
<title>Fill Completed?</title>
<ellipse fill="gray" stroke="blue" cx="1398.4" cy="-18" rx="41.11" ry="18"/>
<text text-anchor="middle" x="1398.4" y="-16.4" font-family="Times,serif" font-size="7.00" fill="blue">Fill Completed?</text>
</g>
<!-- Go to Cap&#45;&gt;Fill Completed? -->
<g id="edge23" class="edge">
<title>Go to Cap&#45;&gt;Fill Completed?</title>
<path fill="none" stroke="black" d="M1398.4,-71.7C1398.4,-63.98 1398.4,-54.71 1398.4,-46.11"/>
<polygon fill="black" stroke="black" points="1401.9,-46.1 1398.4,-36.1 1394.9,-46.1 1401.9,-46.1"/>
</g>
<!-- Move to Cap -->
<g id="node25" class="node">
<title>Move to Cap</title>
<ellipse fill="gray" stroke="blue" cx="1492.4" cy="-18" rx="35.33" ry="18"/>
<text text-anchor="middle" x="1492.4" y="-16.4" font-family="Times,serif" font-size="7.00" fill="blue">Move to Cap</text>
</g>
<!-- Go to Cap&#45;&gt;Move to Cap -->
<g id="edge24" class="edge">
<title>Go to Cap&#45;&gt;Move to Cap</title>
<path fill="none" stroke="black" d="M1421.63,-71.7C1434.78,-61.91 1451.29,-49.61 1465.06,-39.36"/>
<polygon fill="black" stroke="black" points="1467.29,-42.06 1473.22,-33.28 1463.11,-36.44 1467.29,-42.06"/>
</g>
<!-- Move to Cap&#45;&gt;/status -->
<g id="edge40" class="edge">
<title>Move to Cap&#45;&gt;/status</title>
<path fill="none" stroke="blue" d="M1510,-33.61C1519.94,-41.38 1533.02,-49.95 1546.4,-54 1583.46,-65.22 2206.93,-67.02 2243.4,-54 2254.69,-49.97 2265.18,-41.65 2273.07,-34.03"/>
<polygon fill="blue" stroke="blue" points="2275.61,-36.44 2280.05,-26.82 2270.58,-31.58 2275.61,-36.44"/>
</g>
<!-- Move to Cap&#45;&gt;/stage -->
<g id="edge65" class="edge">
<title>Move to Cap&#45;&gt;/stage</title>
<path fill="none" stroke="blue" d="M1510,-33.61C1519.94,-41.38 1533.02,-49.95 1546.4,-54 1593.19,-68.17 2380.54,-70.96 2426.4,-54 2437.11,-50.04 2446.94,-41.98 2454.39,-34.49"/>
<polygon fill="blue" stroke="blue" points="2457.26,-36.54 2461.47,-26.81 2452.12,-31.79 2457.26,-36.54"/>
</g>
<!-- Cap Requested? -->
<g id="node27" class="node">
<title>Cap Requested?</title>
<ellipse fill="gray" stroke="blue" cx="1588.4" cy="-18" rx="42.34" ry="18"/>
<text text-anchor="middle" x="1588.4" y="-16.4" font-family="Times,serif" font-size="7.00" fill="blue">Cap Requested?</text>
</g>
<!-- Cap&#45;&gt;Cap Requested? -->
<g id="edge26" class="edge">
<title>Cap&#45;&gt;Cap Requested?</title>
<path fill="none" stroke="black" d="M1588.4,-71.7C1588.4,-63.98 1588.4,-54.71 1588.4,-46.11"/>
<polygon fill="black" stroke="black" points="1591.9,-46.1 1588.4,-36.1 1584.9,-46.1 1591.9,-46.1"/>
</g>
<!-- Start Cap -->
<g id="node28" class="node">
<title>Start Cap</title>
<ellipse fill="gray" stroke="blue" cx="1677.4" cy="-18" rx="28.43" ry="18"/>
<text text-anchor="middle" x="1677.4" y="-16.4" font-family="Times,serif" font-size="7.00" fill="blue">Start Cap</text>
</g>
<!-- Cap&#45;&gt;Start Cap -->
<g id="edge27" class="edge">
<title>Cap&#45;&gt;Start Cap</title>
<path fill="none" stroke="black" d="M1610.4,-71.7C1622.98,-61.8 1638.82,-49.34 1651.94,-39.02"/>
<polygon fill="black" stroke="black" points="1654.41,-41.53 1660.11,-32.6 1650.08,-36.03 1654.41,-41.53"/>
</g>
<!-- Start Cap&#45;&gt;/status -->
<g id="edge46" class="edge">
<title>Start Cap&#45;&gt;/status</title>
<path fill="none" stroke="blue" d="M1692.37,-33.58C1700.92,-41.33 1712.33,-49.91 1724.4,-54 1779.01,-72.51 2189.09,-73.39 2243.4,-54 2254.69,-49.97 2265.18,-41.65 2273.07,-34.03"/>
<polygon fill="blue" stroke="blue" points="2275.61,-36.44 2280.05,-26.82 2270.58,-31.58 2275.61,-36.44"/>
</g>
<!-- Start Cap&#45;&gt;/stage -->
<g id="edge71" class="edge">
<title>Start Cap&#45;&gt;/stage</title>
<path fill="none" stroke="blue" d="M1692.37,-33.58C1700.92,-41.33 1712.33,-49.91 1724.4,-54 1761.33,-66.52 2389.82,-67.53 2426.4,-54 2437.11,-50.04 2446.94,-41.98 2454.39,-34.49"/>
<polygon fill="blue" stroke="blue" points="2457.26,-36.54 2461.47,-26.81 2452.12,-31.79 2457.26,-36.54"/>
</g>
<!-- Handover Requested? -->
<g id="node30" class="node">
<title>Handover Requested?</title>
<ellipse fill="gray" stroke="blue" cx="1778.4" cy="-18" rx="54.28" ry="18"/>
<text text-anchor="middle" x="1778.4" y="-16.4" font-family="Times,serif" font-size="7.00" fill="blue">Handover Requested?</text>
</g>
<!-- Handover&#45;&gt;Handover Requested? -->
<g id="edge29" class="edge">
<title>Handover&#45;&gt;Handover Requested?</title>
<path fill="none" stroke="black" d="M1778.4,-71.7C1778.4,-63.98 1778.4,-54.71 1778.4,-46.11"/>
<polygon fill="black" stroke="black" points="1781.9,-46.1 1778.4,-36.1 1774.9,-46.1 1781.9,-46.1"/>
</g>
<!-- Start Handover -->
<g id="node31" class="node">
<title>Start Handover</title>
<ellipse fill="gray" stroke="blue" cx="1890.4" cy="-18" rx="40.38" ry="18"/>
<text text-anchor="middle" x="1890.4" y="-16.4" font-family="Times,serif" font-size="7.00" fill="blue">Start Handover</text>
</g>
<!-- Handover&#45;&gt;Start Handover -->
<g id="edge30" class="edge">
<title>Handover&#45;&gt;Start Handover</title>
<path fill="none" stroke="black" d="M1805.79,-71.88C1821.86,-61.84 1842.22,-49.11 1858.94,-38.66"/>
<polygon fill="black" stroke="black" points="1861.18,-41.39 1867.8,-33.12 1857.47,-35.45 1861.18,-41.39"/>
</g>
<!-- Start Handover&#45;&gt;/status -->
<g id="edge37" class="edge">
<title>Start Handover&#45;&gt;/status</title>
<path fill="none" stroke="blue" d="M1910.12,-33.82C1921.01,-41.54 1935.19,-50.01 1949.4,-54 2012.29,-71.67 2181.87,-75.96 2243.4,-54 2254.69,-49.97 2265.18,-41.65 2273.07,-34.03"/>
<polygon fill="blue" stroke="blue" points="2275.61,-36.44 2280.05,-26.82 2270.58,-31.58 2275.61,-36.44"/>
</g>
<!-- Start Handover&#45;&gt;/stage -->
<g id="edge63" class="edge">
<title>Start Handover&#45;&gt;/stage</title>
<path fill="none" stroke="blue" d="M1910.12,-33.82C1921.01,-41.54 1935.19,-50.01 1949.4,-54 2000.42,-68.34 2376.69,-72.39 2426.4,-54 2437.11,-50.04 2446.94,-41.98 2454.39,-34.49"/>
<polygon fill="blue" stroke="blue" points="2457.26,-36.54 2461.47,-26.81 2452.12,-31.79 2457.26,-36.54"/>
</g>
<!-- Handover Executed? -->
<g id="node33" class="node">
<title>Handover Executed?</title>
<ellipse fill="gray" stroke="blue" cx="2000.4" cy="-18" rx="51.2" ry="18"/>
<text text-anchor="middle" x="2000.4" y="-16.4" font-family="Times,serif" font-size="7.00" fill="blue">Handover Executed?</text>
</g>
<!-- Finish Task&#45;&gt;Handover Executed? -->
<g id="edge32" class="edge">
<title>Finish Task&#45;&gt;Handover Executed?</title>
<path fill="none" stroke="black" d="M2000.4,-71.7C2000.4,-63.98 2000.4,-54.71 2000.4,-46.11"/>
<polygon fill="black" stroke="black" points="2003.9,-46.1 2000.4,-36.1 1996.9,-46.1 2003.9,-46.1"/>
</g>
<!-- Finish Pack Bottle -->
<g id="node34" class="node">
<title>Finish Pack Bottle</title>
<ellipse fill="gray" stroke="blue" cx="2116.4" cy="-18" rx="46.15" ry="18"/>
<text text-anchor="middle" x="2116.4" y="-16.4" font-family="Times,serif" font-size="7.00" fill="blue">Finish Pack Bottle</text>
</g>
<!-- Finish Task&#45;&gt;Finish Pack Bottle -->
<g id="edge33" class="edge">
<title>Finish Task&#45;&gt;Finish Pack Bottle</title>
<path fill="none" stroke="black" d="M2028.77,-71.88C2045.34,-61.88 2066.31,-49.23 2083.58,-38.8"/>
<polygon fill="black" stroke="black" points="2085.48,-41.75 2092.23,-33.58 2081.86,-35.75 2085.48,-41.75"/>
</g>
<!-- Finish Pack Bottle&#45;&gt;/status -->
<g id="edge42" class="edge">
<title>Finish Pack Bottle&#45;&gt;/status</title>
<path fill="none" stroke="blue" d="M2138.66,-34.03C2150.68,-41.7 2166.16,-50.06 2181.4,-54 2208.08,-60.89 2217.44,-63.26 2243.4,-54 2254.69,-49.97 2265.18,-41.65 2273.07,-34.03"/>
<polygon fill="blue" stroke="blue" points="2275.61,-36.44 2280.05,-26.82 2270.58,-31.58 2275.61,-36.44"/>
</g>
<!-- Finish Pack Bottle&#45;&gt;/stage -->
<g id="edge67" class="edge">
<title>Finish Pack Bottle&#45;&gt;/stage</title>
<path fill="none" stroke="blue" d="M2138.66,-34.03C2150.68,-41.7 2166.16,-50.06 2181.4,-54 2234.11,-67.62 2375.33,-72.89 2426.4,-54 2437.11,-50.04 2446.94,-41.98 2454.39,-34.49"/>
<polygon fill="blue" stroke="blue" points="2457.26,-36.54 2461.47,-26.81 2452.12,-31.79 2457.26,-36.54"/>
</g>
<!-- Idle Status&#45;&gt;/status -->
<g id="edge39" class="edge">
<title>Idle Status&#45;&gt;/status</title>
<path fill="none" stroke="blue" d="M2243.74,-18C2246.38,-18 2249.02,-18 2251.65,-18"/>
<polygon fill="blue" stroke="blue" points="2251.82,-21.5 2261.82,-18 2251.82,-14.5 2251.82,-21.5"/>
</g>
<!-- /status&#45;&gt;Report Status -->
<g id="edge35" class="edge">
<title>/status&#45;&gt;Report Status</title>
<path fill="none" stroke="green" d="M2280.05,-26.82C2272.08,-35.64 2258.46,-48.62 2243.4,-54 2187.12,-74.09 149.66,-71.07 92.4,-54 82.49,-51.05 72.72,-45.68 64.21,-39.97"/>
<polygon fill="green" stroke="green" points="66.03,-36.97 55.86,-33.99 61.95,-42.66 66.03,-36.97"/>
</g>
<!-- /fill_progress&#45;&gt;Wait Filling -->
<g id="edge48" class="edge">
<title>/fill_progress&#45;&gt;Wait Filling</title>
<path fill="none" stroke="green" d="M2540.75,-26.54C2530.04,-35.39 2511.84,-48.66 2493.4,-54 2432.77,-71.54 1417.55,-73.09 1357.4,-54 1347.99,-51.01 1338.82,-45.6 1330.91,-39.86"/>
<polygon fill="green" stroke="green" points="1332.92,-36.98 1322.87,-33.6 1328.62,-42.5 1332.92,-36.98"/>
</g>
<!-- /pick_and_place&#45;&gt;Run Pick -->
<g id="edge50" class="edge">
<title>/pick_and_place&#45;&gt;Run Pick</title>
<path fill="none" stroke="green" d="M2367.18,-26.56C2354.79,-35.42 2333.88,-48.71 2313.4,-54 2236.05,-73.99 950.78,-80.44 875.4,-54 867.17,-51.11 859.32,-46.02 852.56,-40.55"/>
<polygon fill="green" stroke="green" points="854.43,-37.54 844.61,-33.57 849.81,-42.8 854.43,-37.54"/>
</g>
<!-- /stage&#45;&gt;Pick Requested? -->
<g id="edge53" class="edge">
<title>/stage&#45;&gt;Pick Requested?</title>
<path fill="none" stroke="green" d="M2461.47,-26.81C2453.93,-35.62 2440.99,-48.6 2426.4,-54 2378.2,-71.83 625.97,-67.54 576.4,-54 565.23,-50.95 554.02,-45.27 544.31,-39.31"/>
<polygon fill="green" stroke="green" points="546.16,-36.34 535.87,-33.83 542.35,-42.21 546.16,-36.34"/>
</g>
<!-- /stage&#45;&gt;Bottle Detected? -->
<g id="edge58" class="edge">
<title>/stage&#45;&gt;Bottle Detected?</title>
<path fill="none" stroke="green" d="M2461.47,-26.81C2453.93,-35.62 2440.99,-48.6 2426.4,-54 2384.11,-69.64 846.93,-65.72 803.4,-54 792.08,-50.95 780.7,-45.28 770.83,-39.32"/>
<polygon fill="green" stroke="green" points="772.55,-36.26 762.24,-33.83 768.79,-42.16 772.55,-36.26"/>
</g>
<!-- /stage&#45;&gt;Pick Ready? -->
<g id="edge52" class="edge">
<title>/stage&#45;&gt;Pick Ready?</title>
<path fill="none" stroke="green" d="M2461.47,-26.81C2453.93,-35.62 2440.99,-48.6 2426.4,-54 2388.2,-68.13 999.27,-66.14 960.4,-54 950.75,-50.99 941.32,-45.49 933.2,-39.68"/>
<polygon fill="green" stroke="green" points="935.32,-36.9 925.25,-33.61 931.07,-42.46 935.32,-36.9"/>
</g>
<!-- /stage&#45;&gt;At Fill? -->
<g id="edge57" class="edge">
<title>/stage&#45;&gt;At Fill?</title>
<path fill="none" stroke="green" d="M2461.47,-26.81C2453.93,-35.62 2440.99,-48.6 2426.4,-54 2392.27,-66.62 1150.73,-66.04 1116.4,-54 1108.17,-51.11 1100.32,-46.02 1093.56,-40.55"/>
<polygon fill="green" stroke="green" points="1095.43,-37.54 1085.61,-33.57 1090.81,-42.8 1095.43,-37.54"/>
</g>
<!-- /stage&#45;&gt;Fill Started? -->
<g id="edge60" class="edge">
<title>/stage&#45;&gt;Fill Started?</title>
<path fill="none" stroke="green" d="M2461.47,-26.81C2453.93,-35.62 2440.99,-48.6 2426.4,-54 2366.37,-76.2 1335.49,-73.08 1274.4,-54 1265.01,-51.07 1255.82,-45.78 1247.84,-40.14"/>
<polygon fill="green" stroke="green" points="1249.8,-37.23 1239.71,-33.98 1245.57,-42.81 1249.8,-37.23"/>
</g>
<!-- /stage&#45;&gt;Fill Completed? -->
<g id="edge56" class="edge">
<title>/stage&#45;&gt;Fill Completed?</title>
<path fill="none" stroke="green" d="M2461.47,-26.81C2453.93,-35.62 2440.99,-48.6 2426.4,-54 2375.91,-72.68 1509.22,-68.56 1457.4,-54 1446.63,-50.97 1435.88,-45.38 1426.56,-39.49"/>
<polygon fill="green" stroke="green" points="1428.37,-36.49 1418.12,-33.82 1424.47,-42.3 1428.37,-36.49"/>
</g>
<!-- /stage&#45;&gt;Cap Requested? -->
<g id="edge59" class="edge">
<title>/stage&#45;&gt;Cap Requested?</title>
<path fill="none" stroke="green" d="M2461.47,-26.81C2453.93,-35.62 2440.99,-48.6 2426.4,-54 2385.91,-68.98 1691.04,-65.37 1649.4,-54 1638.23,-50.95 1627.02,-45.27 1617.31,-39.31"/>
<polygon fill="green" stroke="green" points="1619.16,-36.34 1608.87,-33.83 1615.35,-42.21 1619.16,-36.34"/>
</g>
<!-- /stage&#45;&gt;Handover Requested? -->
<g id="edge55" class="edge">
<title>/stage&#45;&gt;Handover Requested?</title>
<path fill="none" stroke="green" d="M2461.47,-26.81C2453.93,-35.62 2440.99,-48.6 2426.4,-54 2366.37,-76.2 1912.68,-68.7 1850.4,-54 1837.3,-50.91 1823.88,-45.05 1812.22,-38.95"/>
<polygon fill="green" stroke="green" points="1813.74,-35.79 1803.29,-34.04 1810.37,-41.92 1813.74,-35.79"/>
</g>
<!-- /stage&#45;&gt;Handover Executed? -->
<g id="edge54" class="edge">
<title>/stage&#45;&gt;Handover Executed?</title>
<path fill="none" stroke="green" d="M2461.47,-26.81C2453.93,-35.62 2440.99,-48.6 2426.4,-54 2352.2,-81.45 2147.29,-72.61 2070.4,-54 2057.74,-50.94 2044.8,-45.16 2033.55,-39.12"/>
<polygon fill="green" stroke="green" points="2034.97,-35.9 2024.54,-34.04 2031.53,-42 2034.97,-35.9"/>
</g>
<!-- /stage&#45;&gt;Idle Status -->
<g id="edge61" class="edge">
<title>/stage&#45;&gt;Idle Status</title>
<path fill="none" stroke="green" d="M2461.47,-26.81C2453.93,-35.62 2440.99,-48.6 2426.4,-54 2358.04,-79.29 2331.77,-76.37 2262.4,-54 2253.13,-51.01 2244.12,-45.59 2236.37,-39.85"/>
<polygon fill="green" stroke="green" points="2238.51,-37.08 2228.5,-33.6 2234.15,-42.56 2238.51,-37.08"/>
</g>
</g>
</svg>
