<?xml version="1.0" encoding="UTF-8" standalone="no"?>
<!DOCTYPE svg PUBLIC "-//W3C//DTD SVG 1.1//EN"
 "http://www.w3.org/Graphics/SVG/1.1/DTD/svg11.dtd">
<!-- Generated by graphviz version 2.43.0 (0)
 -->
<!-- Title: pastafarianism Pages: 1 -->
<svg width="1851pt" height="280pt"
 viewBox="0.00 0.00 1850.50 280.00" xmlns="http://www.w3.org/2000/svg" xmlns:xlink="http://www.w3.org/1999/xlink">
<g id="graph0" class="graph" transform="scale(1 1) rotate(0) translate(4 276)">
<title>pastafarianism</title>
<polygon fill="white" stroke="transparent" points="-4,4 -4,-276 1846.5,-276 1846.5,4 -4,4"/>
<!-- Task Pack Bottle -->
<g id="node1" class="node">
<title>Task Pack Bottle</title>
<polygon fill="gold" stroke="black" points="602.45,-272 450.91,-272 411.93,-216 563.47,-216 602.45,-272"/>
<text text-anchor="middle" x="507.19" y="-246.8" font-family="Times,serif" font-size="9.00">Task Pack Bottle</text>
<text text-anchor="middle" x="507.19" y="-236.8" font-family="Times,serif" font-size="9.00">SuccessOnAll</text>
</g>
<!-- System Monitor -->
<g id="node2" class="node">
<title>System Monitor</title>
<polygon fill="orange" stroke="black" points="308.69,-180 207.69,-180 207.69,-144 308.69,-144 308.69,-180"/>
<text text-anchor="middle" x="258.19" y="-159.8" font-family="Times,serif" font-size="9.00">Ⓜ System Monitor</text>
</g>
<!-- Task Pack Bottle&#45;&gt;System Monitor -->
<g id="edge1" class="edge">
<title>Task Pack Bottle&#45;&gt;System Monitor</title>
<path fill="none" stroke="black" d="M422.89,-215.92C388.77,-204.95 350.14,-192.54 318.87,-182.5"/>
<polygon fill="black" stroke="black" points="319.58,-179.05 308.99,-179.32 317.44,-185.71 319.58,-179.05"/>
</g>
<!-- Workflow -->
<g id="node6" class="node">
<title>Workflow</title>
<polygon fill="cyan" stroke="black" points="1019.43,-154.54 1019.43,-169.46 993.51,-180 956.86,-180 930.95,-169.46 930.95,-154.54 956.86,-144 993.51,-144 1019.43,-154.54"/>
<text text-anchor="middle" x="975.19" y="-159.8" font-family="Times,serif" font-size="9.00">Ⓜ Workflow</text>
</g>
<!-- Task Pack Bottle&#45;&gt;Workflow -->
<g id="edge5" class="edge">
<title>Task Pack Bottle&#45;&gt;Workflow</title>
<path fill="none" stroke="black" d="M574.74,-231.45C668.87,-215.36 837.52,-186.53 922.78,-171.96"/>
<polygon fill="black" stroke="black" points="923.49,-175.39 932.75,-170.25 922.31,-168.49 923.49,-175.39"/>
</g>
<!-- Report Status -->
<g id="node3" class="node">
<title>Report Status</title>
<ellipse fill="gray" stroke="black" cx="46.19" cy="-90" rx="46.38" ry="18"/>
<text text-anchor="middle" x="46.19" y="-87.8" font-family="Times,serif" font-size="9.00">Report Status</text>
</g>
<!-- System Monitor&#45;&gt;Report Status -->
<g id="edge2" class="edge">
<title>System Monitor&#45;&gt;Report Status</title>
<path fill="none" stroke="black" d="M207.68,-144.32C171.9,-132.51 124.37,-116.81 90.15,-105.52"/>
<polygon fill="black" stroke="black" points="91.02,-102.12 80.43,-102.31 88.83,-108.76 91.02,-102.12"/>
</g>
<!-- Bottle Detector Status -->
<g id="node4" class="node">
<title>Bottle Detector Status</title>
<ellipse fill="gray" stroke="black" cx="179.19" cy="-90" rx="69.06" ry="18"/>
<text text-anchor="middle" x="179.19" y="-87.8" font-family="Times,serif" font-size="9.00">Bottle Detector Status</text>
</g>
<!-- System Monitor&#45;&gt;Bottle Detector Status -->
<g id="edge3" class="edge">
<title>System Monitor&#45;&gt;Bottle Detector Status</title>
<path fill="none" stroke="black" d="M238.66,-143.7C228.59,-134.77 216.16,-123.76 205.27,-114.11"/>
<polygon fill="black" stroke="black" points="207.48,-111.4 197.68,-107.38 202.84,-116.63 207.48,-111.4"/>
</g>
<!-- User Requests Monitor -->
<g id="node5" class="node">
<title>User Requests Monitor</title>
<ellipse fill="gray" stroke="black" cx="337.19" cy="-90" rx="71.03" ry="18"/>
<text text-anchor="middle" x="337.19" y="-87.8" font-family="Times,serif" font-size="9.00">User Requests Monitor</text>
</g>
<!-- System Monitor&#45;&gt;User Requests Monitor -->
<g id="edge4" class="edge">
<title>System Monitor&#45;&gt;User Requests Monitor</title>
<path fill="none" stroke="black" d="M277.72,-143.7C287.79,-134.77 300.22,-123.76 311.1,-114.11"/>
<polygon fill="black" stroke="black" points="313.54,-116.63 318.7,-107.38 308.89,-111.4 313.54,-116.63"/>
</g>
<!-- Detect -->
<g id="node7" class="node">
<title>Detect</title>
<polygon fill="orange" stroke="black" points="485.69,-108 426.69,-108 426.69,-72 485.69,-72 485.69,-108"/>
<text text-anchor="middle" x="456.19" y="-87.8" font-family="Times,serif" font-size="9.00">Ⓜ Detect</text>
</g>
<!-- Workflow&#45;&gt;Detect -->
<g id="edge6" class="edge">
<title>Workflow&#45;&gt;Detect</title>
<path fill="none" stroke="black" d="M930.93,-155.14C857.74,-145.43 706.85,-125.37 579.19,-108 551.46,-104.23 520.23,-99.91 496.18,-96.57"/>
<polygon fill="black" stroke="black" points="496.4,-93.07 486.01,-95.16 495.43,-100 496.4,-93.07"/>
</g>
<!-- Pick -->
<g id="node10" class="node">
<title>Pick</title>
<polygon fill="orange" stroke="black" points="642.19,-108 588.19,-108 588.19,-72 642.19,-72 642.19,-108"/>
<text text-anchor="middle" x="615.19" y="-87.8" font-family="Times,serif" font-size="9.00">Ⓜ Pick</text>
</g>
<!-- Workflow&#45;&gt;Pick -->
<g id="edge9" class="edge">
<title>Workflow&#45;&gt;Pick</title>
<path fill="none" stroke="black" d="M934.24,-153.04C863.6,-139.3 719.9,-111.36 652.13,-98.18"/>
<polygon fill="black" stroke="black" points="652.8,-94.75 642.31,-96.27 651.46,-101.62 652.8,-94.75"/>
</g>
<!-- Go to Fill -->
<g id="node13" class="node">
<title>Go to Fill</title>
<polygon fill="orange" stroke="black" points="844.69,-108 773.69,-108 773.69,-72 844.69,-72 844.69,-108"/>
<text text-anchor="middle" x="809.19" y="-87.8" font-family="Times,serif" font-size="9.00">Ⓜ Go to Fill</text>
</g>
<!-- Workflow&#45;&gt;Go to Fill -->
<g id="edge12" class="edge">
<title>Workflow&#45;&gt;Go to Fill</title>
<path fill="none" stroke="black" d="M945.51,-148.49C920.21,-137.82 883.44,-122.31 854.46,-110.09"/>
<polygon fill="black" stroke="black" points="855.54,-106.75 844.96,-106.09 852.82,-113.2 855.54,-106.75"/>
</g>
<!-- Go to Cap -->
<g id="node16" class="node">
<title>Go to Cap</title>
<polygon fill="orange" stroke="black" points="1012.19,-108 938.19,-108 938.19,-72 1012.19,-72 1012.19,-108"/>
<text text-anchor="middle" x="975.19" y="-87.8" font-family="Times,serif" font-size="9.00">Ⓜ Go to Cap</text>
</g>
<!-- Workflow&#45;&gt;Go to Cap -->
<g id="edge15" class="edge">
<title>Workflow&#45;&gt;Go to Cap</title>
<path fill="none" stroke="black" d="M975.19,-143.7C975.19,-135.98 975.19,-126.71 975.19,-118.11"/>
<polygon fill="black" stroke="black" points="978.69,-118.1 975.19,-108.1 971.69,-118.1 978.69,-118.1"/>
</g>
<!-- Cap -->
<g id="node19" class="node">
<title>Cap</title>
<polygon fill="orange" stroke="black" points="1171.19,-108 1117.19,-108 1117.19,-72 1171.19,-72 1171.19,-108"/>
<text text-anchor="middle" x="1144.19" y="-87.8" font-family="Times,serif" font-size="9.00">Ⓜ Cap</text>
</g>
<!-- Workflow&#45;&gt;Cap -->
<g id="edge18" class="edge">
<title>Workflow&#45;&gt;Cap</title>
<path fill="none" stroke="black" d="M1005.01,-148.65C1033.66,-136.78 1076.99,-118.83 1107.68,-106.12"/>
<polygon fill="black" stroke="black" points="1109.27,-109.25 1117.17,-102.19 1106.59,-102.78 1109.27,-109.25"/>
</g>
<!-- Handover -->
<g id="node22" class="node">
<title>Handover</title>
<polygon fill="orange" stroke="black" points="1408.19,-108 1334.19,-108 1334.19,-72 1408.19,-72 1408.19,-108"/>
<text text-anchor="middle" x="1371.19" y="-87.8" font-family="Times,serif" font-size="9.00">Ⓜ Handover</text>
</g>
<!-- Workflow&#45;&gt;Handover -->
<g id="edge21" class="edge">
<title>Workflow&#45;&gt;Handover</title>
<path fill="none" stroke="black" d="M1017.19,-153.58C1091.58,-140.43 1245.98,-113.13 1323.95,-99.35"/>
<polygon fill="black" stroke="black" points="1324.74,-102.77 1333.98,-97.58 1323.52,-95.87 1324.74,-102.77"/>
</g>
<!-- Finish Task -->
<g id="node25" class="node">
<title>Finish Task</title>
<polygon fill="orange" stroke="black" points="1594.19,-108 1514.19,-108 1514.19,-72 1594.19,-72 1594.19,-108"/>
<text text-anchor="middle" x="1554.19" y="-87.8" font-family="Times,serif" font-size="9.00">Ⓜ Finish Task</text>
</g>
<!-- Workflow&#45;&gt;Finish Task -->
<g id="edge24" class="edge">
<title>Workflow&#45;&gt;Finish Task</title>
<path fill="none" stroke="black" d="M1019.74,-155.72C1099.47,-146.26 1271.81,-125.74 1417.19,-108 1445.96,-104.49 1478.13,-100.5 1504.06,-97.27"/>
<polygon fill="black" stroke="black" points="1504.54,-100.74 1514.03,-96.03 1503.67,-93.79 1504.54,-100.74"/>
</g>
<!-- Idle Status -->
<g id="node28" class="node">
<title>Idle Status</title>
<ellipse fill="gray" stroke="black" cx="1651.19" cy="-90" rx="38.87" ry="18"/>
<text text-anchor="middle" x="1651.19" y="-87.8" font-family="Times,serif" font-size="9.00">Idle Status</text>
</g>
<!-- Workflow&#45;&gt;Idle Status -->
<g id="edge27" class="edge">
<title>Workflow&#45;&gt;Idle Status</title>
<path fill="none" stroke="black" d="M1019.54,-161.13C1123.01,-160.6 1387.93,-154.4 1603.19,-108 1606.43,-107.3 1609.75,-106.44 1613.06,-105.49"/>
<polygon fill="black" stroke="black" points="1614.38,-108.74 1622.85,-102.38 1612.26,-102.07 1614.38,-108.74"/>
</g>
<!-- Pick Requested? -->
<g id="node8" class="node">
<title>Pick Requested?</title>
<ellipse fill="gray" stroke="black" cx="234.19" cy="-18" rx="53.23" ry="18"/>
<text text-anchor="middle" x="234.19" y="-15.8" font-family="Times,serif" font-size="9.00">Pick Requested?</text>
</g>
<!-- Detect&#45;&gt;Pick Requested? -->
<g id="edge7" class="edge">
<title>Detect&#45;&gt;Pick Requested?</title>
<path fill="none" stroke="black" d="M426.54,-75.6C423.4,-74.33 420.24,-73.1 417.19,-72 392.7,-63.16 329.11,-45.14 283.78,-32.59"/>
<polygon fill="black" stroke="black" points="284.69,-29.21 274.12,-29.91 282.83,-35.95 284.69,-29.21"/>
</g>
<!-- Run Bottle Detection -->
<g id="node9" class="node">
<title>Run Bottle Detection</title>
<ellipse fill="gray" stroke="black" cx="371.19" cy="-18" rx="65.64" ry="18"/>
<text text-anchor="middle" x="371.19" y="-15.8" font-family="Times,serif" font-size="9.00">Run Bottle Detection</text>
</g>
<!-- Detect&#45;&gt;Run Bottle Detection -->
<g id="edge8" class="edge">
<title>Detect&#45;&gt;Run Bottle Detection</title>
<path fill="none" stroke="black" d="M435.18,-71.7C424.23,-62.68 410.71,-51.55 398.92,-41.83"/>
<polygon fill="black" stroke="black" points="401.03,-39.04 391.08,-35.38 396.58,-44.44 401.03,-39.04"/>
</g>
<!-- Bottle Detected? -->
<g id="node11" class="node">
<title>Bottle Detected?</title>
<ellipse fill="gray" stroke="black" cx="509.19" cy="-18" rx="54.04" ry="18"/>
<text text-anchor="middle" x="509.19" y="-15.8" font-family="Times,serif" font-size="9.00">Bottle Detected?</text>
</g>
<!-- Pick&#45;&gt;Bottle Detected? -->
<g id="edge10" class="edge">
<title>Pick&#45;&gt;Bottle Detected?</title>
<path fill="none" stroke="black" d="M589.26,-71.88C574.81,-62.33 556.69,-50.37 541.35,-40.24"/>
<polygon fill="black" stroke="black" points="542.95,-37.1 532.68,-34.51 539.1,-42.95 542.95,-37.1"/>
</g>
<!-- Run Pick -->
<g id="node12" class="node">
<title>Run Pick</title>
<ellipse fill="gray" stroke="black" cx="615.19" cy="-18" rx="33.47" ry="18"/>
<text text-anchor="middle" x="615.19" y="-15.8" font-family="Times,serif" font-size="9.00">Run Pick</text>
</g>
<!-- Pick&#45;&gt;Run Pick -->
<g id="edge11" class="edge">
<title>Pick&#45;&gt;Run Pick</title>
<path fill="none" stroke="black" d="M615.19,-71.7C615.19,-63.98 615.19,-54.71 615.19,-46.11"/>
<polygon fill="black" stroke="black" points="618.69,-46.1 615.19,-36.1 611.69,-46.1 618.69,-46.1"/>
</g>
<!-- Pick Ready? -->
<g id="node14" class="node">
<title>Pick Ready?</title>
<ellipse fill="gray" stroke="black" cx="708.19" cy="-18" rx="41.64" ry="18"/>
<text text-anchor="middle" x="708.19" y="-15.8" font-family="Times,serif" font-size="9.00">Pick Ready?</text>
</g>
<!-- Go to Fill&#45;&gt;Pick Ready? -->
<g id="edge13" class="edge">
<title>Go to Fill&#45;&gt;Pick Ready?</title>
<path fill="none" stroke="black" d="M784.48,-71.88C770.32,-62.06 752.47,-49.69 737.59,-39.38"/>
<polygon fill="black" stroke="black" points="739.44,-36.4 729.23,-33.58 735.45,-42.15 739.44,-36.4"/>
</g>
<!-- Move to Fill -->
<g id="node15" class="node">
<title>Move to Fill</title>
<ellipse fill="gray" stroke="black" cx="809.19" cy="-18" rx="40.98" ry="18"/>
<text text-anchor="middle" x="809.19" y="-15.8" font-family="Times,serif" font-size="9.00">Move to Fill</text>
</g>
<!-- Go to Fill&#45;&gt;Move to Fill -->
<g id="edge14" class="edge">
<title>Go to Fill&#45;&gt;Move to Fill</title>
<path fill="none" stroke="black" d="M809.19,-71.7C809.19,-63.98 809.19,-54.71 809.19,-46.11"/>
<polygon fill="black" stroke="black" points="812.69,-46.1 809.19,-36.1 805.69,-46.1 812.69,-46.1"/>
</g>
<!-- Fill Completed? -->
<g id="node17" class="node">
<title>Fill Completed?</title>
<ellipse fill="gray" stroke="black" cx="919.19" cy="-18" rx="51.27" ry="18"/>
<text text-anchor="middle" x="919.19" y="-15.8" font-family="Times,serif" font-size="9.00">Fill Completed?</text>
</g>
<!-- Go to Cap&#45;&gt;Fill Completed? -->
<g id="edge16" class="edge">
<title>Go to Cap&#45;&gt;Fill Completed?</title>
<path fill="none" stroke="black" d="M961.35,-71.7C954.53,-63.18 946.2,-52.76 938.75,-43.45"/>
<polygon fill="black" stroke="black" points="941.47,-41.24 932.49,-35.62 936,-45.62 941.47,-41.24"/>
</g>
<!-- Move to Cap -->
<g id="node18" class="node">
<title>Move to Cap</title>
<ellipse fill="gray" stroke="black" cx="1031.19" cy="-18" rx="42.95" ry="18"/>
<text text-anchor="middle" x="1031.19" y="-15.8" font-family="Times,serif" font-size="9.00">Move to Cap</text>
</g>
<!-- Go to Cap&#45;&gt;Move to Cap -->
<g id="edge17" class="edge">
<title>Go to Cap&#45;&gt;Move to Cap</title>
<path fill="none" stroke="black" d="M989.03,-71.7C995.84,-63.18 1004.18,-52.76 1011.63,-43.45"/>
<polygon fill="black" stroke="black" points="1014.38,-45.62 1017.89,-35.62 1008.91,-41.24 1014.38,-45.62"/>
</g>
<!-- Cap Requested? -->
<g id="node20" class="node">
<title>Cap Requested?</title>
<ellipse fill="gray" stroke="black" cx="1144.19" cy="-18" rx="52.58" ry="18"/>
<text text-anchor="middle" x="1144.19" y="-15.8" font-family="Times,serif" font-size="9.00">Cap Requested?</text>
</g>
<!-- Cap&#45;&gt;Cap Requested? -->
<g id="edge19" class="edge">
<title>Cap&#45;&gt;Cap Requested?</title>
<path fill="none" stroke="black" d="M1144.19,-71.7C1144.19,-63.98 1144.19,-54.71 1144.19,-46.11"/>
<polygon fill="black" stroke="black" points="1147.69,-46.1 1144.19,-36.1 1140.69,-46.1 1147.69,-46.1"/>
</g>
<!-- Start Cap -->
<g id="node21" class="node">
<title>Start Cap</title>
<ellipse fill="gray" stroke="black" cx="1250.19" cy="-18" rx="35.44" ry="18"/>
<text text-anchor="middle" x="1250.19" y="-15.8" font-family="Times,serif" font-size="9.00">Start Cap</text>
</g>
<!-- Cap&#45;&gt;Start Cap -->
<g id="edge20" class="edge">
<title>Cap&#45;&gt;Start Cap</title>
<path fill="none" stroke="black" d="M1170.12,-71.88C1185.53,-61.7 1205.11,-48.77 1221.06,-38.24"/>
<polygon fill="black" stroke="black" points="1223.07,-41.1 1229.49,-32.67 1219.22,-35.26 1223.07,-41.1"/>
</g>
<!-- Handover Requested? -->
<g id="node23" class="node">
<title>Handover Requested?</title>
<ellipse fill="gray" stroke="black" cx="1371.19" cy="-18" rx="68.25" ry="18"/>
<text text-anchor="middle" x="1371.19" y="-15.8" font-family="Times,serif" font-size="9.00">Handover Requested?</text>
</g>
<!-- Handover&#45;&gt;Handover Requested? -->
<g id="edge22" class="edge">
<title>Handover&#45;&gt;Handover Requested?</title>
<path fill="none" stroke="black" d="M1371.19,-71.7C1371.19,-63.98 1371.19,-54.71 1371.19,-46.11"/>
<polygon fill="black" stroke="black" points="1374.69,-46.1 1371.19,-36.1 1367.69,-46.1 1374.69,-46.1"/>
</g>
<!-- Start Handover -->
<g id="node24" class="node">
<title>Start Handover</title>
<ellipse fill="gray" stroke="black" cx="1508.19" cy="-18" rx="50.61" ry="18"/>
<text text-anchor="middle" x="1508.19" y="-15.8" font-family="Times,serif" font-size="9.00">Start Handover</text>
</g>
<!-- Handover&#45;&gt;Start Handover -->
<g id="edge23" class="edge">
<title>Handover&#45;&gt;Start Handover</title>
<path fill="none" stroke="black" d="M1404.7,-71.88C1424.9,-61.56 1450.64,-48.4 1471.4,-37.8"/>
<polygon fill="black" stroke="black" points="1473.24,-40.79 1480.55,-33.12 1470.05,-34.56 1473.24,-40.79"/>
</g>
<!-- Handover Executed? -->
<g id="node26" class="node">
<title>Handover Executed?</title>
<ellipse fill="gray" stroke="black" cx="1642.19" cy="-18" rx="65.48" ry="18"/>
<text text-anchor="middle" x="1642.19" y="-15.8" font-family="Times,serif" font-size="9.00">Handover Executed?</text>
</g>
<!-- Finish Task&#45;&gt;Handover Executed? -->
<g id="edge25" class="edge">
<title>Finish Task&#45;&gt;Handover Executed?</title>
<path fill="none" stroke="black" d="M1575.94,-71.7C1587.35,-62.62 1601.48,-51.38 1613.75,-41.62"/>
<polygon fill="black" stroke="black" points="1616.24,-44.11 1621.89,-35.14 1611.89,-38.63 1616.24,-44.11"/>
</g>
<!-- Finish Pack Bottle -->
<g id="node27" class="node">
<title>Finish Pack Bottle</title>
<ellipse fill="gray" stroke="black" cx="1784.19" cy="-18" rx="58.13" ry="18"/>
<text text-anchor="middle" x="1784.19" y="-15.8" font-family="Times,serif" font-size="9.00">Finish Pack Bottle</text>
</g>
<!-- Finish Task&#45;&gt;Finish Pack Bottle -->
<g id="edge26" class="edge">
<title>Finish Task&#45;&gt;Finish Pack Bottle</title>
<path fill="none" stroke="black" d="M1594.25,-74.92C1597.27,-73.92 1600.27,-72.93 1603.19,-72 1646.52,-58.15 1696.13,-43.72 1732.44,-33.42"/>
<polygon fill="black" stroke="black" points="1733.64,-36.72 1742.31,-30.63 1731.74,-29.98 1733.64,-36.72"/>
</g>
</g>
</svg>
